<svg version="1.0" xmlns="http://www.w3.org/2000/svg" width="346.667" height="346.667" viewBox="0 0 260 260"><path d="M0 129.5C0 211.6.3 233 1.3 233c8 .3 258 0 258.3-.3.2-.2.3-25.7.2-56.6l-.3-56.1-12.7 12.6-12.8 12.6v62.3H26V70.1l51.7 51.5c28.5 28.3 52 51.4 52.3 51.4.3 0 23.9-23.1 52.3-51.4L234 70.1V114l13-12.8 13-12.9V26h-57.1l-13.2 13-13.2 12.9h18.9c10.3 0 19 .1 19.2.3.2.2-18.8 19.5-42.1 42.8L130 137.5 87.5 95C64.2 71.7 45.2 52.4 45.4 52.3c.2-.2 22.8-.4 50.3-.4l50-.1 12.9-12.9L171.5 26H0v103.5z"/></svg>