<svg width="46" height="55" fill="none" xmlns="http://www.w3.org/2000/svg"><path fill-rule="evenodd" clip-rule="evenodd" d="M8.635 29.758h1.478a13.107 13.107 0 1125.774 0h1.478a7.494 7.494 0 003.325-14.215l-.62-.31.085-.851c.063-.53.099-1.062.107-1.595a11.786 11.786 0 00-18.237-9.869A11.983 11.983 0 0017.738 7.9l-.333.719-.777-.156a9.601 9.601 0 00-1.85-.172 8.906 8.906 0 00-5.445 1.85 9.4 9.4 0 00-3.256 4.67l-.131.427-.405.189a7.723 7.723 0 00-2.21 1.527 7.498 7.498 0 005.304 12.804zm8.202-11.615A11.094 11.094 0 0123 16.273a11.106 11.106 0 0111.094 11.094 11.094 11.094 0 11-17.258-9.224zm7.17 10.23h3.278a1.006 1.006 0 100-2.012h-3.279v-3.342a1.007 1.007 0 10-2.012 0v3.342h-3.279a1.007 1.007 0 000 2.013h3.279v3.278a1.006 1.006 0 102.012 0v-3.278zm1.761 23.855a2.768 2.768 0 11-5.536 0 2.768 2.768 0 015.536 0zM2.869 48.705a2.768 2.768 0 100-5.536 2.768 2.768 0 000 5.537zm43.03-2.767a2.768 2.768 0 11-5.536 0 2.768 2.768 0 015.536 0zm-23.906-6.492h2.014v9.059h-2.014v-9.06zm12.079 2.717v-8.086l-2.013 2.517v5.57c0 2.636 2.145 4.83 4.781 4.83h2.516v-2.012H36.84c-1.526 0-2.768-1.293-2.768-2.819zM9.16 44.982c1.526 0 2.768-1.292 2.768-2.819v-8.065l2.013 2.517v5.548c0 2.636-2.145 4.832-4.781 4.832H6.644v-2.013H9.16z" fill="url(#paint0_linear)"/><defs><linearGradient id="paint0_linear" x1="45.899" y1=".996" x2="-8.608" y2="13.293" gradientUnits="userSpaceOnUse"><stop stop-color="#D045AE"/><stop offset="1" stop-color="#473CC2"/></linearGradient></defs></svg>