<svg width="168" height="32" fill="none" xmlns="http://www.w3.org/2000/svg"><path fill-rule="evenodd" clip-rule="evenodd" d="M167.139.087L0 0l4.498 4.45 36.955.06c.52 0 .867.26.867.52s-.347.52-.867.52H5.61l4.526 4.478L39.2 9.972c.52 0 .954.26.954.607 0 .26-.433.52-.954.52H11.221l4.42 4.374 22.17.05c.433 0 .867.173.867.52 0 .261-.434.52-.867.52H16.743l4.559 4.51h14.6c.521 0 .955.174.955.52 0 .262-.434.523-.954.523h-13.55l4.444 4.394 7.371.025c.434 0 .867.262.867.523 0 .259-.433.52-.953.52l-6.228-.024L32.348 32l123.548-.087a.644.644 0 01.03-.087L167.139.087z" fill="#D22A42"/><path fill-rule="evenodd" clip-rule="evenodd" d="M149.857 27.753l.953-2.344H43.534l-.867 2.256 107.19.088zm1.647-23.155l-1.215 3.554 3.036.087-3.468 9.192 3.641-.086 3.468-9.193 2.602.087 1.214-3.641h-9.278zm-99.297 2.6h2.515l1.04-2.602h-6.33l-4.684 12.575 6.592.087.867-2.515h-2.689l1.041-2.775h2.342l.867-2.515-2.342.087.78-2.342zm1.214 10.147h3.035l2.689-8.5-1.475 8.5h2.082l3.99-8.673-2.776 8.673h2.949l4.25-12.835H63.74l-2.775 5.984 1.04-5.984H57.67l-4.25 12.835zM73.973 4.25l-2.168.347-1.648 1.127c-.433.347-.693 1.04-1.04 2.081l-.26 1.735.26.954 2.515 2.428c.26.174.087.694-.174 1.474l-.433.78-.434.26c-.26 0-.347-.087-.52-.26l.694-2.429h-3.123l-.346.868-.434 2.168c0 .521.347.954.867 1.3.52.348 1.301.522 2.255.522l2.255-.435c.78-.432 1.3-.693 1.56-1.127l1.042-1.995c.347-1.214.433-2.168.347-2.688-.174-.52-.868-1.301-2.082-2.255l-.78-.78.086-.867.434-.867.607-.173.26.173c.087.26-.087.607-.173.867l-.347.954h3.209l.173-.52c.26-.867.434-1.648.347-2.168 0-.434-.26-.694-.78-1.04l-2.169-.434zm9.887.347l-1.214 3.554 2.948.087-3.208 9.106h3.467l3.383-9.193h2.688l1.214-3.554H83.86zm15.523 0h-3.642l-8.499 12.747h4.163l1.214-2.515h2.602l-.52 2.515h3.729l.953-12.747zm-2.861 3.728l-.087.173-.607 4.076h-1.995l2.689-4.25zm10.928.173l-.523-3.901h-3.208l.867 5.637-5.984 7.111h3.902l3.209-3.903.347 3.815 3.643.087-1.215-6.418 5.204-6.33-3.209-.086-2.95 3.816-.083.172zm2.861 8.846h3.729l4.684-12.747h-3.729l-4.684 12.747zm10.233-12.747l-4.771 12.747h3.296l1.214-3.556 3.816-.347c1.994-.607 3.295-1.908 3.989-3.99.52-1.473.432-2.774-.175-3.814-.345-.694-1.559-1.04-3.554-1.04h-3.815zm.869 6.33l1.214-3.21h1.56c.348.174.434.694.174 1.561l-.868 1.215-2.08.433zm18.036-4.857c-.694-1.214-1.821-1.822-3.641-1.822-1.734 0-3.296.608-4.597 1.822-1.301 1.127-2.169 2.862-2.86 5.03-.435 1.56-.607 2.862-.262 3.902.175.954.607 1.648 1.301 2.167.694.52 1.56.78 2.776.78 1.215 0 2.254-.26 3.207-.868a8.469 8.469 0 002.431-2.253c.778-1.215 1.385-2.429 1.733-3.816.519-2.167.519-3.815-.088-4.942zm-6.418 2.168c.694-.607 1.214-.867 1.908-.867s1.128.26 1.476.867c.174.52.086 1.387-.262 2.688-.259 1.475-.78 2.428-1.3 3.036-.608.607-1.215.867-1.995.954-.692 0-1.128-.347-1.385-.954-.175-.694-.087-1.561.172-2.862.434-1.301.954-2.255 1.386-2.862zm11.623-.78c.345-.607.78-.953 1.473-.867.609 0 .693.607.261 1.735h3.122c.52-1.214.607-2.168.175-2.949-.521-.78-1.476-1.127-2.777-1.127-2.688 0-4.509 1.214-5.375 3.642-.433.954-.433 1.821 0 2.514.259.434.866 1.129 1.821 1.648.953.693 1.301 1.387 1.127 1.994-.261.868-.868 1.214-1.56 1.214-.78 0-1.041-.433-.78-1.3l.259-.868-2.948-.086-.52 1.387c-.78 2.167.259 3.21 3.035 3.21 2.777 0 4.597-1.214 5.638-3.817.348-1.387.348-2.428-.175-3.035l-2.254-1.821c-.697-.434-.784-.954-.522-1.474z" fill="#fff"/><path fill-rule="evenodd" clip-rule="evenodd" d="M46.31 6.418c0 .26.433.52.953.52h113.953c.521 0 .866-.174.866-.52 0-.26-.345-.52-.866-.52H47.263c-.52 0-.954.26-.954.52zm-2.429 8.845c0 .087.173.174.347.174h113.431c.262 0 .435-.087.435-.174 0-.173-.174-.26-.435-.26H44.228c-.174 0-.347.087-.347.26zm1.821-6.677c0 .173.174.26.434.26h113.431c.175 0 .349-.087.349-.26 0-.087-.175-.174-.349-.174H46.136c-.26 0-.434.087-.434.174zm-2.168 4.423c0 .086.174.26.347.26h113.521c.174 0 .345-.174.345-.26 0-.087-.172-.174-.345-.174l-113.52-.087c-.174 0-.348.174-.348.26zm1.214-2.168c0 .086.174.173.347.173h113.433c.259 0 .432-.087.432-.173 0-.174-.174-.26-.432-.26H45.095c-.173 0-.347.086-.347.26z" fill="#D22A42"/></svg>