<svg width="60" height="42" fill="none" xmlns="http://www.w3.org/2000/svg"><path fill-rule="evenodd" clip-rule="evenodd" d="M39.4 19.028L20.277 16.3l-1.902-7.074L52.673.002l1.902 7.073L39.4 19.028zM60 27.245L55.081 8.956l-9.632 7.587L60 27.245zm-20.094-6.336l-5.145-.734-7.695 17.647L59.5 29.1 43.99 17.692l-4.083 3.217zM16.18 7.962l6.106-1.642L10.22 1.63 7.567 8.458l11.875 11.634-3.262-12.13zM0 27.926l6.861-17.652 8.759 8.58L0 27.926zm16.947-7.772L.299 29.824 24.6 39.269l-4.242-15.774-3.411-3.341zm8.755 16.315L20.783 18.18l12.138 1.732-7.219 16.557zm.527 3.433l5.375 2.089-1.02-3.26-4.354 1.171zm8.065-2.169l-1.19 3.06-.79-2.527 1.98-.533z" fill="url(#paint0_linear)"/><defs><linearGradient id="paint0_linear" x1="60" y1=".002" x2="-5.57" y2="24.926" gradientUnits="userSpaceOnUse"><stop stop-color="#D045AE"/><stop offset="1" stop-color="#473CC2"/></linearGradient></defs></svg>