<svg width="136" height="40" fill="none" xmlns="http://www.w3.org/2000/svg"><path d="M50 12V0H39l-5 5h7.5L25 21.5l-7-7-1.5-1.5-8-8H28l5-5H0v40h50V18l-5 5v12H5V8.5l8 8 1.5 1.5 7 7 3.5 3.5 3.5-3.5L45 8.5V17l5-5z" fill="url(#paint0_linear)"/><path d="M106.6 0H101v24.1h5.6V0zM80.8 0L70.1 24.1h5.7l2.1-5.2h11.2l2.1 5.2h5.9L86.3 0h-5.5zm-1.1 14.7l3.8-9.2 3.8 9.2h-7.6zm55.3 9.4l-5.4-7.7c1.6-.7 2.8-1.7 3.7-3 .9-1.3 1.3-2.8 1.3-4.6 0-1.8-.4-3.3-1.3-4.6-.8-1.3-2.1-2.3-3.6-3-1.6-.7-3.4-1.1-5.6-1.1h-10.4v24.1h5.6v-6.7h5.2l4.6 6.7h5.9v-.1zm-7.4-12.3c-.9.7-2.1 1.1-3.8 1.1h-4.5V4.5h4.5c1.7 0 2.9.4 3.8 1.1.9.7 1.3 1.8 1.3 3.1 0 1.4-.4 2.4-1.3 3.1zm6.1 24.9c.7-.2 1.2-.6 1.6-1.1.4-.5.6-1.1.6-1.9 0-1-.3-1.8-1-2.3-.7-.6-1.6-.8-2.8-.8h-3.4V40h.7v-3.1h2.7c.3 0 .6 0 .9-.1l2.2 3.1h.8l-2.3-3.2zm-1.6-.4h-2.7v-5.1h2.7c1 0 1.8.2 2.3.7.5.4.8 1.1.8 1.9 0 .8-.3 1.4-.8 1.9-.6.4-1.3.6-2.3.6zm-53.5-5.7l-4.2 7.3-4.2-7.3h-.6V40h.7v-8l3.9 6.8h.3l4-6.8v8h.6v-9.4h-.5zm9.8 0L84.1 40h.7l1.2-2.6h5.4l1.2 2.6h.7L89 30.6h-.6zm-2.1 6.2l2.5-5.4 2.5 5.4h-5zm30.9-1.3h5v-.6h-5v-3.7h5.6v-.6h-6.3V40h6.5v-.6h-5.8v-3.9zM99 30.6h-.7V40h.7v-9.4zm7.1 0h-.6V40h6v-.6h-5.4v-8.8z" fill="#fff"/><defs><linearGradient id="paint0_linear" x1="50" y1="0" x2="-6.311" y2="18.724" gradientUnits="userSpaceOnUse"><stop stop-color="#D045AE"/><stop offset="1" stop-color="#473CC2"/></linearGradient></defs></svg>