<svg xmlns="http://www.w3.org/2000/svg" viewBox="0 0 65.74 7.22"><defs><linearGradient id="a" y1="3.61" x2="65.74" y2="3.61" gradientUnits="userSpaceOnUse"><stop offset="0" stop-color="#473cc2"/><stop offset="1" stop-color="#d045ae"/></linearGradient></defs><g data-name="Слой 2"><path d="M61.71 6V3.87h1.84a.89.89 0 01.6.2.79.79 0 01.22.61v.46a.77.77 0 01-.22.61.89.89 0 01-.6.2zm-1.32 1.1h3.29a2.13 2.13 0 00.86-.16 1.82 1.82 0 001.06-1.13 3 3 0 000-1.8 1.82 1.82 0 00-1.06-1.13 2.13 2.13 0 00-.86-.16h-2V.12h-1.29zm-1.48-5.81V.12h-5.28v1.17h2V7.1h1.32V1.29zM48 7.1h.87a2.62 2.62 0 00.52 0 1 1 0 00.4-.16 1.17 1.17 0 00.3-.29 1.89 1.89 0 00.24-.45l2.46-6h-1.32l-1 2.45L50 3.92l-.56-1.33L48.27.12h-1.4l2.48 5.3-.2.51H48zm-3.81 0h1.31v-7h-1.32V3h-2.91V.12H40v7h1.32V4.15h2.91zm-9.73-5.83h1.7a.89.89 0 01.6.2.73.73 0 01.22.58v.46a.73.73 0 01-.22.58.84.84 0 01-.6.21h-1.7zm0 5.83V4.44h1.82a2.21 2.21 0 00.87-.16 1.85 1.85 0 001.06-1.11 2.77 2.77 0 00.14-.89 2.75 2.75 0 00-.14-.88 1.84 1.84 0 00-.41-.69 2 2 0 00-.65-.44 2.41 2.41 0 00-.87-.15h-3.14v7zm-3.12 0V5.93h-3.28V4.15H31V3h-2.9V1.29h3.28V.12h-4.6v7zM21 1.24h1.63a.76.76 0 01.56.19.76.76 0 01.2.55v.31a.72.72 0 01-.2.54.77.77 0 01-.56.2H21zm0 2.87h1.84a.84.84 0 01.59.2.74.74 0 01.21.57v.34a.72.72 0 01-.21.56.8.8 0 01-.59.2H21zm-1.32 3h3.54a1.58 1.58 0 00.78-.17 1.69 1.69 0 00.57-.42 1.94 1.94 0 00.38-.64 2.2 2.2 0 00.13-.78 1.75 1.75 0 00-.15-.76 1.47 1.47 0 00-.38-.5 1.38 1.38 0 00-.55-.28 1.61 1.61 0 00-.5-.09v-.06a1.58 1.58 0 00.47-.1 1.18 1.18 0 00.4-.27 1.38 1.38 0 00.28-.46 1.86 1.86 0 00.1-.67 2.21 2.21 0 00-.12-.74 1.57 1.57 0 00-.33-.56 1.78 1.78 0 00-.58-.36 2.13 2.13 0 00-.78-.13h-3.23zm-3.28 0a2.4 2.4 0 00.86-.43 2.09 2.09 0 00.57-.68 2 2 0 00.17-.93 1.53 1.53 0 00-.13-.66 1.54 1.54 0 00-.34-.48 1.59 1.59 0 00-.5-.3 2.32 2.32 0 00-.58-.13v-.06a1.7 1.7 0 001-.44 1.41 1.41 0 00.4-1.09 1.64 1.64 0 00-.63-1.39A3 3 0 0015.34 0 3.19 3.19 0 0014 .27a3 3 0 00-1 .78l.84.8a1.75 1.75 0 01.66-.5 2.05 2.05 0 01.87-.18 1.47 1.47 0 01.87.21.73.73 0 01.28.62v.08c0 .6-.36.9-1.07.9h-1.14v1.17h1.17a1.47 1.47 0 01.87.21.82.82 0 01.27.67v.08a.79.79 0 01-.34.7 1.72 1.72 0 01-1 .24 2 2 0 01-.92-.21 2.16 2.16 0 01-.72-.57l-.89.86a3.22 3.22 0 002.53 1.09 3.7 3.7 0 001.15-.16zM9.6 4.19H7.76l.89-2.87zm2.25 2.91L9.53.12H7.89l-2.34 7h1.34l.55-1.78h2.48l.56 1.78zM1.32 1.27H3a.89.89 0 01.6.2.73.73 0 01.22.58v.46a.73.73 0 01-.22.58.84.84 0 01-.6.21H1.32zm0 5.83V4.44h1.82A2.21 2.21 0 004 4.28a1.85 1.85 0 001.07-1.11 2.77 2.77 0 00.14-.89 2.75 2.75 0 00-.14-.88 1.84 1.84 0 00-.41-.69A2 2 0 004 .27a2.41 2.41 0 00-.86-.15H0v7z" fill="url(#a)" data-name="Layer 1"/></g></svg>