<svg xmlns="http://www.w3.org/2000/svg" viewBox="0 0 16.83 22.17"><defs><style>.cls-1{fill:#d85648}</style></defs><g id="Слой_2" data-name="Слой 2"><g id="Layer_1" data-name="Layer 1"><path class="cls-1" d="M4.28 8.48a2 2 0 001.42-.41 1.6 1.6 0 00.46-1.29 1.72 1.72 0 00-.46-1.31A2.13 2.13 0 004.25 5H2.71v4.82h1V8.48zM3.68 6h.55a1.16 1.16 0 01.71.18.69.69 0 01.23.6 1 1 0 01-.17.58.87.87 0 01-.67.21h-.65zM10 9.15a2.45 2.45 0 00.59-1.77 2.39 2.39 0 00-.62-1.75A2.43 2.43 0 008.14 5H6.6v4.8h1.49A2.39 2.39 0 0010 9.15zm-.74-.64a1.31 1.31 0 01-1 .37h-.67V6h.55a1.46 1.46 0 011.1.39 1.57 1.57 0 01.37 1.08 1.67 1.67 0 01-.39 1.04zm4.81-2.53v-.94h-2.99v4.78h.97V7.93h1.91v-.92h-1.91V5.98h2.02z"/><path class="cls-1" d="M15.34 0H1.45A1.44 1.44 0 000 1.45v17a1.44 1.44 0 001.45 1.45h3.19l-.43-.44-.44-.46h-2.3a.56.56 0 01-.57-.57v-17a.57.57 0 01.57-.56h13.91a.57.57 0 01.58.58v17a.57.57 0 01-.58.57h-2l-.44.44-.44.44h2.85a1.44 1.44 0 001.45-1.45v-17A1.49 1.49 0 0015.34 0z"/><path class="cls-1" d="M13.47 17.15l-3.01-.02v-4.97H6.32v4.9l-3.01-.04 5.15 5.15 5.01-5.02z"/></g></g></svg>