<svg width="46" height="49" fill="none" xmlns="http://www.w3.org/2000/svg"><path fill-rule="evenodd" clip-rule="evenodd" d="M34.566 13.958l-.73 1.719c7.054 3.129 11.848 9.21 11.848 16.191 0 4.955-2.382 9.601-6.709 13.086l-.16.13h-4.332v3.912H11.517v-3.911H7.185l-.16-.13C2.698 41.468.315 36.822.315 31.867c0-7.39 5.376-13.773 13.122-16.713l-2.08-2.922 2.703-3.129-3.8 1.98-2.127-2.336a4.3 4.3 0 01-2.572.86 4.311 4.311 0 01-4.303-4.309A4.31 4.31 0 015.561.996 4.306 4.306 0 019.864 5.3c0 .984-.332 1.89-.89 2.614l1.553 1.7 2.987-1.558 5.5-2.869-6.151 7.118 1.736 2.442a27.131 27.131 0 018.404-1.316c3.485 0 6.786.646 9.737 1.79l.48-1.132-.83-1.226-2.684-3.954 5.263 2.792.61-.966a5.347 5.347 0 01-2.281-4.38A5.367 5.367 0 0138.655.996a5.364 5.364 0 015.358 5.358c0 2.957-2.4 5.364-5.358 5.364a5.296 5.296 0 01-2.032-.41l-1.245 1.957-2.01-1.067 1.198 1.76zM12.702 47.81h20.596v-2.726H12.702v2.726zm10.301-11.616c-2.56 0-4.955.54-6.75 1.523l.569 1.037c1.6-.877 3.852-1.375 6.181-1.375 2.323 0 4.575.498 6.176 1.375l.569-1.037c-1.796-.984-4.19-1.523-6.745-1.523zm-6.668-1.37h13.33a6.11 6.11 0 006.104-6.104 6.11 6.11 0 00-6.104-6.104h-13.33a6.11 6.11 0 00-6.104 6.104 6.11 6.11 0 006.104 6.105zm2.3-10.027a3.625 3.625 0 00-3.621 3.621h1.185a2.436 2.436 0 114.872 0h1.185a3.625 3.625 0 00-3.621-3.621zm8.73 0a3.625 3.625 0 00-3.621 3.621h1.185a2.436 2.436 0 114.872 0h1.185a3.625 3.625 0 00-3.621-3.621z" fill="url(#paint0_linear)"/><defs><linearGradient id="paint0_linear" x1="45.684" y1=".996" x2="-7.686" y2="14.415" gradientUnits="userSpaceOnUse"><stop stop-color="#D045AE"/><stop offset="1" stop-color="#473CC2"/></linearGradient></defs></svg>