<svg width="356" height="310" fill="none" xmlns="http://www.w3.org/2000/svg"><path d="M187.62 162.311c-7.66 0-15.32-.18-22.97.09-3.14.11-3.78-1.37-4.2-3.9-3.31-19.59-3.52-39.2-.83-58.89 1.33-9.74 3.42-19.27 6.06-28.72.55-1.96 1.27-2.9 3.57-2.24 11.8 3.37 23.64 3.17 35.4-.15 2.74-.77 3.76.02 4.44 2.64 3.44 13.28 5.42 26.8 6.46 40.45 1.19 15.62 1.03 31.22-.69 46.81-.32 2.87-1.11 4.08-4.28 3.98-7.65-.24-15.31-.07-22.96-.07zm24.28-53.29c-.28-6.7-1.25-13.3-2.57-19.85-.91-4.53-2.02-9.03-3.17-13.51-.29-1.11-.24-3.15-2-2.77-1.75.38-.93 2.07-.62 3.28 2.71 10.87 5.32 21.76 5.6 33.04.02.98.03 2.22 1.29 2.21 1.4-.02 1.49-1.3 1.47-2.4zm.17 18.16h.04c0-2.36.05-4.73-.02-7.08-.04-1.22.2-3-1.65-2.86-1.59.11-1.25 1.75-1.17 2.88.36 4.93.69 9.85-.02 14.78-.14.98-.24 2.18.94 2.42 1.45.29 1.8-1.04 1.85-2.08.11-2.69.03-5.38.03-8.06z" fill="url(#paint0_linear)"/><path d="M245.14 179.511c-5.08-7.6-11.87-12.03-19.35-15.54-1.44-.68-2.23-1.4-1.88-3.17 2.8-14.34 3.48-28.77 1.34-43.74 4.91 3.28 8.29 7.39 11.06 12.03 5.23 8.76 7.79 18.4 8.83 28.45.72 7.04 1.28 14.14 0 21.97zm-5.04-35.2c-1.29-5.69-3.9-11.16-7.4-16.23-.46-.67-1.22-1.08-1.93-.51-.86.68-.43 1.54.05 2.29 3.04 4.7 5.58 9.63 6.74 15.17.18.85.52 1.79 1.66 1.49.86-.22.95-1.05.88-2.21zm2.14 12.28c-.09-.74-.15-1.49-.27-2.23-.21-1.22-.18-3.05-1.83-2.85-1.98.24-.96 1.91-.77 3.1.12.74.11 1.5.2 2.24.11.92.45 1.75 1.55 1.64 1.13-.1 1.27-.96 1.12-1.9zm-110.23 21.32c-2.44 2.25-1.07-1.18-1.93-1.29-.29-11.2-.45-22.38 2.59-33.32 2.43-8.73 6.14-16.76 12.73-23.2.69-.68 1.43-1.31 2.18-1.92.22-.18.56-.23.98-.39.71 2.34-.27 4.49-.35 6.67-.43 11.99.48 23.86 3.07 35.57.5 2.27-.17 3.25-2.17 4.18-6.8 3.17-13.06 7.06-17.1 13.7z" fill="#473CC2"/><path d="M197.08 61.111c-1.24.29-1.66-.72-2.18-1.5-2.02-3.06-4.05-6.11-5.96-9.24-1.13-1.86-1.94-2.34-3.2-.08-1.57 2.82-3.63 5.39-5 8.3-1.45 3.1-3.4 3.48-6.41 2.59-4.15-1.23-4.19-1.06-2.29-4.99 3.93-8.16 7.99-16.24 13.38-23.57 1.03-1.4 1.61-2.12 2.94-.18 5.27 7.65 10.06 15.53 13.8 24.07 1.28 2.93.55 3.81-2.24 4.08-.94.1-1.89.34-2.84.52zm-2.35-10.88c.95-.22 1.54-.87 1.17-1.64-1.23-2.5-2.61-4.94-3.99-7.37-.27-.48-.88-.6-1.43-.3-.52.28-.95.83-.71 1.3 1.33 2.57 2.76 5.09 4.19 7.61.12.24.53.29.77.4z" fill="url(#paint1_linear)"/><g opacity=".1" fill="#727885"><path opacity=".5" d="M216.36 221.401c.43.01.92-.12 1.28.04 3.97 1.75 7.83 3.44 12.17.71 1.1-.69 3-.05 3.82 1.09 1.6 2.22 3.58 2.59 6.03 2.1.49-.1 1.08.07 1.57.25 3.6 1.3 6.72 3.07 11.15 1.27 3.7-1.5 7.16 2.81 6.27 6.96-.35 1.62-.19 2 1.43 2.68 2.91 1.22 5.13 3.53 6.28 6.56.51 1.34.93 1.48 2.3 1.01 7.44-2.56 14.01 2.64 13.25 10.55-.17 1.79.56 1.69 1.71 1.75 3.26.17 6.32.96 9.01 2.94.64.47 1.21.88 1.18 1.75-3.53.96-7.14 1.75-9.9 4.43-1.04 1.01-1.55.43-2.24-.49-2.97-3.97-6.95-4.99-11.46-3.28-2.03.77-3.02.31-4.3-1.28-2.5-3.08-5.79-5.02-9.72-5.98-5.89-1.43-10.72.99-15.48 3.88-.03-8-.05-15.99-.08-23.99 0-1.05-.51-1.74-1.55-1.51-.88.2-1.42 1-1.43 1.95-.03 9.13-.04 18.26-.04 27.39 0 .8.29 1.52 1.11 1.78 1.02.31 1.61-.26 1.97-1.16l.02-.02c.5-.22.77-.6.83-1.14l.09.03c.1-.03.23-.04.3-.1 8.09-6.87 18.88-5.08 23.77 3.74.91 1.64 2.05 1.25 3.5.41 5.39-3.1 8.88-1.81 11.03 3.92.73 1.95 1.45 2.82 3.27.76 5.25-5.93 11.97-7.52 18.59-4.62 6.72 2.95 9.97 9.04 9.14 17.12-25.61 0-51.22.01-76.84.01-1.35-11.05-10.51-18.07-20.53-15.4-2.95.79-3.62.16-4.5-2.64-1.99-6.34-5.77-11.28-12.86-12.64-1.22-.23-2.27.02-2.64 1.21-.37 1.2.67 1.65 1.63 1.96 7.6 2.44 10.98 6.54 11.7 14.22.31 3.38.87 3.68 3.91 2.15 9.14-4.63 19.43 1.08 20.03 11.11h-81.14c3.4-6.89 9.27-9.9 16.64-10.29 2.19-.11 3.29-.53 3.45-3.04.45-7.1 4.45-11.69 10.94-14.18 4.66-1.78 5.02-1.48 4.97 3.35 0 .43-.01.86 0 1.29.03 1.28-.14 3.02 1.57 3.01 1.88 0 1.38-1.84 1.38-3.04.03-9.48.01-18.96.01-28.44 0-2.15.01-4.31.01-6.46 0-.91-.17-1.86-1.24-1.96-1.24-.11-1.61.88-1.72 1.9-.08.75-.02 1.51-.02 2.26 0 7-.06 14 .03 21 .02 1.87-.24 2.88-2.41 3.28-8.97 1.68-14.48 7.12-16.48 16.01-.28 1.25-.66 1.82-2 1.96-8.79.89-14.88 5.65-18.89 13.35-25.52-.01-51.04-.03-76.57-.04 2.06-9.6 8.74-14.43 17.46-11.97 3.45.97 4.42.15 5.37-2.99 3.59-11.87 15.2-16.48 26.03-10.52 2.5 1.37 3.42.87 3.44-2.15.05-9.27.02-18.54.02-27.8 0-1.31.06-3-1.62-2.99-1.86.01-1.39 1.84-1.4 3.04-.03 7.76-.08 15.52.03 23.28.03 2.32-.02 3.43-2.86 2.16-2.93-1.32-6.13-1.87-9.46-1.25-8.01 1.49-13.33 6.25-16.43 13.56-.82 1.94-1.45 2.81-3.84 2.34-4.47-.87-8.79-.07-12.66 2.55-2.13 1.44-3.62 3.48-5.11 5.81-.85-1.35-1.42-2.38-2.11-3.33-4.87-6.7-11.47-10.18-19.73-9.44-8.26.74-14.61 4.68-18.27 12.5-.94 2.01-.1 5.2-2.75 5.95-2.19.62-4.7.13-7.08.12-.21 0-.43-.06-.64-.09.04-6.07 3.02-10.62 7.55-14.3.94-.77 1.66-1.6 2.25-2.66 2.54-4.6 6.41-7.47 11.64-8.25 1.65-.25 1.77-.74 1.49-2.3-2.18-11.95 5.41-23.25 16.91-25.78 1.99-.44 3.22-1.2 4.13-3.33 4-9.37 16.64-11.15 23.18-3.31 1.32 1.58 2.05 1.72 4.09 1.16 3.24-.89 5.15-1.39 4.95-5.72-.19-4.26 3.11-7.17 7.46-8.11 2.15-.46 2.97-1.5 3.48-3.71 1.62-7.09 8.89-13.43 18.08-13.07 4.12-.01 12.25 5.26 13.56 6.76 1.52 3.06 3.43 5.96 3.61 9.54.06 1.21 1.04 1.13 1.89 1.26 5.87.88 10.88 3.19 14.11 8.49.42.69 9.18 3.23 9.6 2.77 1.24-1.32 2.37-2.63 4.04-3.56 8.03-4.49 17.11-1.45 20.35 7.18.73 1.94 1.66 2.2 3.49 2.72 3.77 1.07 5.91-.45 8.58-2.76 2.88-2.5 6.64-3.94 10.7-3.87.06 6.77.12 13.54.19 20.31.01 1.61 0 3.23.06 4.84.03.7.44 1.25 1.18 1.32.91.09 1.4-.48 1.49-1.32.08-.74.04-1.5.05-2.25.09-7.44.14-14.85.2-22.27zm-70.8 22.84h-.01c0-3.98.01-7.97-.01-11.95-.01-1.27.22-2.96-1.6-2.96-1.83 0-1.58 1.69-1.58 2.96-.01 7.1-.07 14.21.04 21.31.03 2.12-.64 3.05-2.76 3.49-5.81 1.18-10.42 4.78-11.97 10.17-1.64 5.68-4.68 6.78-9.63 5.97-.31-.05-.65-.02-.97 0-1.13.07-2.65-.29-2.51 1.57.12 1.6 1.47 1.6 2.69 1.61 2.8 0 5.6-.08 8.4.03 2.15.08 2.94-.68 3.17-2.93.81-7.7 6.11-13.04 13.8-13.82 2.54-.26 3.01-1.33 2.95-3.49-.07-4-.01-7.98-.01-11.96zm70.83 11.08c-.08-1.24.01-2.82-1.47-2.88-1.75-.08-1.75 1.55-1.72 2.86.03 1.17-.08 2.72 1.45 2.82 1.94.13 1.45-1.7 1.74-2.8zm-71.46-32.01h.02c0-.43.01-.86 0-1.29-.03-.97.03-2.18-1.25-2.25-1.32-.07-1.35 1.13-1.37 2.11-.02 1.08-.03 2.16.01 3.23.04.9.25 1.84 1.39 1.79.92-.04 1.14-.87 1.2-1.65.04-.65 0-1.3 0-1.94zm112.29 14.74c1.64 2.69 4.89 3.98 6.05 7.09.03.09.65.11.86-.03.62-.42.21-.95-.01-1.4-1.4-2.9-3.55-4.94-6.9-5.66zm21.51 12.8c-1.13-4.22-2.67-5.34-6.17-4.9 1.95 1.55 3.79 3.01 6.17 4.9zm-133.89-37.29c1.52 1.06 2.98 1.39 4.1 2.38.69.61 1.07 2.59 2.08 1.67 1.11-1.02-.62-1.92-1.32-2.73-1.13-1.31-2.37-2.51-4.86-1.32zm39.66 8.89c.05-3.02-2.27-3.78-4.36-4.71-.3-.14-.96-.03-1.13.21-.41.55.02 1.14.52 1.23 2.11.4 3.43 1.9 4.97 3.27z"/><path opacity=".1" d="M30.34 282.911c-.12-6.84 3.88-12.5 10.81-15.27 7.47-2.99 15.87-1.1 21.38 4.74 2.8 2.97 4.17 6.46 4.17 10.51-12.12.01-24.24.01-36.36.02zm284.25.01c.57-10.23-4.07-17.18-13.35-21.21 8.77-1.09 13.03 1.13 16.75 8.2 1.92 3.65 1.37 7.47-.02 11.23-.61 1.65-1.89 1.88-3.38 1.78zm-182.58-105.01c1.07-.08 1.62.83 2.43 1.26-1.78 3.04-3.75 5.97-5.22 10.19-1.47-5.2-2.39-9.52-2.55-13.98 1.32-.09 2.28.82 3.41 1.24.85.11-.51 3.53 1.93 1.29z"/></g><path opacity=".3" d="M83.13 82.791c3.26.01 5.92 2.65 5.87 5.86-.04 3.2-3.12 6.21-6.25 6.11-2.86-.09-5.81-3.35-5.72-6.31.09-3.1 2.84-5.66 6.1-5.66zm-.14 8.45c1.87-.05 2.8-1.16 2.79-2.65-.01-1.49-.97-2.64-2.68-2.6-1.76.05-2.9.99-2.81 2.79.07 1.65 1.27 2.36 2.7 2.46z" fill="url(#paint2_linear)"/><path d="M174.18 13.181c2.45 1.21 1.4-1.05 2.31-1.14 1.29-.13.28 1.74 1.41 1.64.7-.06 1.98-1.72 1.67.57-.18 1.33.92 2.17.42 3.99-.67 2.47-4.11-.21-3.29 2.6-.57.04-4.58-4.46-4.39-4.51 1.57-.38.63-2.92 1.87-3.15z" fill="url(#paint3_linear)"/><path d="M269.99 106.731c-.63-1.29-.83-2.69-1.87-3.59-.21-.18 4.07-4.06 4.44-3.87 1.79.89 3.44 1.97 4.24 3.95-1.79.21-.64 2.6-2.92 3.44-1.82.66-2.62-1.72-3.89.07z" fill="url(#paint4_linear)"/><path d="M80.15 292.571c-1.33-.52-4.35 1.19-4.23-1.87.1-2.63 2.93-1.62 4.69-1.84.42-.05.85 0 1.28-.01 1.6-.04 3.33.23 3.33 2.11.01 2-1.89 1.53-3.21 1.61-.53.03-1.07 0-1.86 0z" fill="url(#paint5_linear)"/><path d="M230.65 28.501c.42-1.26 1.07-2.85 2.67-2.92 1.41-.06 3.18.45 3.35 2.39.2 2.34-1.63 3.15-3.4 3.41-1.69.24-2.19-1.34-2.62-2.88z" fill="url(#paint6_linear)"/><path opacity=".3" d="M267.82 146.261c1.87-1.32 3-2.11 4.13-2.91.51 1.33 3.22.35 2.79 2.29-.38 1.71-.62 4.04-3.65 3.48-2.04-.37-.94-2.65-3.27-2.86z" fill="url(#paint7_linear)"/><path d="M68.13 292.591c-1.06-.12-2.59.15-2.42-1.63.14-1.42 1.14-2.21 2.69-2.11 1.31.09 2.44.66 2.51 1.96.12 1.88-1.45 1.71-2.78 1.78z" fill="url(#paint8_linear)"/><path opacity=".1" d="M86.46 58.111c0 1.28-.6 1.85-1.56 1.93-1.1.09-1.95-.39-1.95-1.6 0-.96.71-1.69 1.56-1.84 1.18-.2 1.55.88 1.95 1.51z" fill="url(#paint9_linear)"/><path d="M265.56 163.611c-1.23.08-1.76-.7-1.85-1.72-.08-.96.64-1.69 1.49-1.75 1.08-.09 1.73.78 1.86 1.79.13.99-.56 1.51-1.5 1.68z" fill="url(#paint10_linear)"/><path opacity=".5" d="M119.57 126.881c.99.02 1.76.4 1.87 1.39.12 1.09-.59 1.88-1.56 2.08-.96.2-1.64-.62-1.78-1.45-.17-1.02.38-1.81 1.47-2.02z" fill="url(#paint11_linear)"/><path opacity=".5" d="M134.53 28.201c-.05 1.09-.43 1.87-1.44 1.95-1.21.09-1.72-.73-1.7-1.83.01-.97.56-1.68 1.56-1.68 1.01-.01 1.44.75 1.58 1.56z" fill="url(#paint12_linear)"/><path opacity=".2" d="M217.95 1.381c-.1 1.13-.71 1.95-1.7 2.06-1.02.12-1.39-.78-1.44-1.7-.05-.93.2-1.7 1.33-1.74 1-.03 1.55.52 1.81 1.38z" fill="url(#paint13_linear)"/><path opacity=".1" d="M64.78 142.041c-1.02-.16-1.44-.82-1.43-1.77.01-.82.4-1.51 1.27-1.55.98-.04 1.61.64 1.69 1.55.09.98-.69 1.45-1.53 1.77z" fill="url(#paint14_linear)"/><path d="M145.56 244.241c0 3.98-.07 7.97.03 11.95.05 2.16-.41 3.24-2.95 3.49-7.7.77-13 6.11-13.8 13.82-.24 2.26-1.03 3.01-3.17 2.93-2.79-.11-5.6-.02-8.4-.03-1.22 0-2.57 0-2.69-1.61-.14-1.86 1.38-1.5 2.51-1.57.32-.02.65-.05.97 0 4.95.81 7.99-.28 9.63-5.97 1.55-5.39 6.16-8.99 11.97-10.17 2.11-.43 2.79-1.37 2.76-3.49-.12-7.1-.05-42.4-.04-49.5 0-1.26-.25-2.96 1.58-2.96 1.81 0 1.59 1.69 1.6 2.96.02 3.98.01 36.15.01 40.14-.02.01-.01.01-.01.01z" fill="url(#paint15_linear)"/><path d="M144.93 195.121c0 .65.04 1.3-.01 1.94-.06.78-.28 1.61-1.2 1.65-1.14.05-1.35-.89-1.39-1.79-.05-1.08-.04-2.16-.01-3.23.02-.98.05-2.18 1.37-2.11 1.28.07 1.22 1.28 1.25 2.25.01.43 0 .86 0 1.29h-.01z" fill="url(#paint16_linear)"/><path opacity=".2" d="M269.47 34.431c1.88.17 3.14 1.21 3.26 3 .12 1.91-.9 3.4-2.97 3.52-2.13.12-3.14-1.31-3.21-3.25-.07-1.88 1.13-2.9 2.92-3.27zm1.71 3.44c.02-.88-.46-1.43-1.28-1.58-.99-.18-1.71.31-1.87 1.29-.14.88.47 1.43 1.26 1.59 1.01.22 1.62-.33 1.89-1.3z" fill="url(#paint17_linear)"/><path d="M151.87 168.151l-.05.01.05-.01zm-17.78 15.85l.13-.09c.21-.15.34-.31.44-.5l-1.6.45 1.97-1.67 1.4-1.19 4.2-5.37.03-.04.04-.03c.66-.58 1.32-1.17 1.98-1.75l.01-.01.01-.01c.31-.25.62-.49.92-.74l.03-.03.04-.02c.96-.56 1.91-1.12 2.87-1.68l.02-.01.02-.01c5.95-2.96 12.23-3.44 18.58-3.44.81 0 1.62.01 2.44.02 7.04.1 14.08.16 21.12.16 4.66 0 9.32-.03 13.98-.08 2.69-.03 5.41-.16 8.15-.16 2.61 0 5.23.12 7.85.57 1.34.23 3.21.83 5.4 1.87 2.19 1.04 4.69 2.54 7.26 4.57 5.13 4.06 10.5 10.27 14.06 19.29v.02c.02.07.1.26.2.49l.35.84c.14.34.27.7.39 1.04 3.65-10.14 5.56-20.4 5.56-30.76 0-6.71-.8-13.46-2.44-20.26-3.9-16.1-12.32-28.93-27.03-37.14-.41-.23-.74-.49-.99-.79-.25-.3-.43-.62-.54-.95-.23-.65-.26-1.3-.33-1.92-1.72-15.77-5.04-31.15-10.93-45.9-5.17-12.95-12.04-24.88-21.25-35.41-.34-.39-.65-.68-.9-.84-.25-.17-.44-.22-.58-.22-.15 0-.3.05-.53.21-.22.16-.49.44-.79.85-1.94 2.62-4.09 5.05-5.89 7.67-15.38 22.35-23.35 47.36-26.39 74.14-.06.56-.11 1.11-.24 1.67-.13.55-.37 1.12-.81 1.61-.29.33-.67.62-1.14.87-10.27 5.51-17.22 14-21.79 24.63-4.35 10.12-5.86 20.64-5.86 31.4 0 3.06.12 6.13.34 9.23.95 7.31 2.33 14.49 5.29 21.93 1.36-4.64 3.2-8.5 4.9-12.36l.05-.15zm106.36-2.44l-.3-.34.07.43-.07-.43-.45-.5.18-.16.17-.03.09.56v.01l.37.41-.06.05zm-19.08-71.27l.78.32c3.76 1.55 6.57 3.96 9.23 6.38 9.19 8.39 14.38 19.08 16.85 31.02 1.2 5.8 1.8 11.61 1.8 17.42 0 6.89-.84 13.77-2.48 20.62-.05.21-.13.49-.26.83-.12.34-.28.71-.45 1.04-.12.22-.24.42-.39.6-.09.1-.19.2-.36.28a.743.743 0 01-.81-.12.863.863 0 01-.23-.33c-4.71-9.85-10.83-15.33-15.83-18.38-4.51-2.75-8.09-3.51-8.89-3.65-.02.02-.05.04-.09.07-.06.03-.15.07-.27.07a.61.61 0 01-.28-.07.553.553 0 01-.19-.18.46.46 0 01-.08-.23c-.01-.07 0-.08-.01-.08 0-.1.01-.13.02-.17l.02-.04c0-.02.01-.04.01-.08.3-7.25 1.65-14.34 2-21.49.25-5.07.42-10.13.42-15.19 0-4.6-.14-9.2-.48-13.79-.03-.45-.04-.89-.04-1.35l.01-3.5zm-54.96-50.62c4.81-11.51 10.61-22.45 18.3-32.36.39-.5.73-.89 1.1-1.18.36-.29.77-.48 1.22-.48.44 0 .85.19 1.21.47.36.28.72.66 1.11 1.15 7.98 9.85 13.97 20.81 18.78 32.46.2.49.4.94.41 1.47.01.35-.13.74-.4 1.03-.27.29-.64.5-1.12.68-3.81 1.45-7.74 2.24-12.28 3.07-.09.02-.18.03-.28.03-.3 0-.57-.1-.78-.24-.22-.14-.4-.32-.56-.51-.32-.39-.58-.84-.84-1.27-1.44-2.39-2.98-4.75-4.31-7.24a4.65 4.65 0 00-.48-.76c-.14-.17-.25-.26-.3-.28l-.05-.02-.07.03c-.05.03-.12.08-.21.18-.18.19-.4.52-.65.94-1.43 2.43-2.98 4.77-4.44 7.14-.28.45-.58.91-.99 1.27-.41.36-.97.62-1.62.62-.26 0-.54-.04-.83-.11-3.43-.88-6.88-1.69-10.33-2.5-.45-.11-.83-.24-1.14-.44-.32-.19-.57-.47-.71-.8-.09-.22-.13-.46-.13-.69-.02-.56.14-1.07.39-1.66zm-3.28 9.03c.49-1.47.79-2.42 1.27-3.1.16-.23.36-.42.59-.56.31-.19.68-.27 1.05-.27.42 0 .87.09 1.41.23.54.14 1.16.33 1.92.57 1.33.41 2.66.81 4 1.09 2.64.56 4.4.93 5.64.93.62 0 1.1-.09 1.54-.26.44-.18.84-.46 1.28-.89.88-.86 1.86-2.34 3.33-4.6.22-.34.44-.64.66-.89.22-.25.44-.45.71-.59.18-.09.39-.15.6-.15.2 0 .4.05.58.15.18.09.33.22.46.37.27.3.5.69.74 1.2.02.04.07.12.13.22 1.03 1.65 1.8 2.88 2.47 3.76.67.88 1.23 1.37 1.83 1.63.4.17.85.26 1.42.26 1.2 0 2.93-.39 5.58-1.02 1.45-.34 2.89-.75 4.33-1.18.97-.29 1.72-.56 2.33-.76.62-.2 1.09-.34 1.57-.35.35-.01.72.1 1 .34.28.23.47.54.65.92.35.75.66 1.83 1.18 3.47 6.2 19.65 8.61 39.77 8.61 60.16 0 2.99-.05 5.98-.15 8.98-.3 8.95-.91 17.9-2.54 26.76l-.09.46h-.47c-17.82.03-35.63.05-53.45.08-1.42 0-2.85.04-4.28.06-.01.17-.03.34-.08.53l-.54-.15-.54-.15c.02-.08.04-.21.05-.36l.58.03v-.13l-.57-.01v-.26c-1.84-6.15-2.49-12.5-3.06-18.76-.59-6.58-.9-13.13-.9-19.65.01-19.68 2.83-39.09 9.16-58.11zm-33.97 122.54l-.49-1.73c-1.47-5.21-2.41-9.56-2.57-14.08-.55-3.43-.78-6.86-.78-10.28 0-4.23.36-8.45.92-12.65 1.62-12.06 5.75-23.14 14.05-32.38 3.16-3.52 6.85-6.33 11.62-9.1l.93-.54-.09 1.07c-.41 5.14-.61 10.22-.61 15.26 0 13.1 1.33 25.89 3.64 38.62l.09.51-.5.14c-.7.19-1.38.3-2 .48-.41.12-.78.26-1.12.46.1.09.19.18.29.28.14.15.29.34.35.62l-.55.12-.41.09.98.09c-.02.21-.11.4-.23.56l-.84-.63-.05.02-.01-.02-.07-.09c-.07-.08-.2-.19-.34-.32-.05-.05-.11-.1-.17-.16-3.36.98-6.23 2.64-8.85 4.69-2.69 2.11-5.11 4.63-7.5 7.23-1.79 3.04-3.7 5.91-5.14 10.04l-.55 1.7zm29.27-25.16l.55.14-.55-.14zm81.7 15.01l-.09-.55.09.55zM2.53 282.351c-.34 0-.68-.02-1-.02-.28 0-.55.01-.76.06-.21.04-.37.11-.47.19-.07.06-.12.12-.17.22-.08.13-.13.33-.13.64 0 .3.07.48.14.59.08.12.18.2.35.27.34.15.92.19 1.5.18h.44c2.21.01 4.43.01 6.64.01h7.05c3.7 0 7.39 0 11.09.03h.03c.74 0 1.27-.15 1.65-.42.37-.26.65-.66.87-1.3v-.2c0-3.47 1.03-6.65 2.95-9.31 1.92-2.66 4.71-4.79 8.21-6.19a20.04 20.04 0 017.44-1.44c5.4 0 10.68 2.21 14.56 6.32 2.84 3 4.28 6.58 4.32 10.67.17.18.34.32.48.4.18.11.33.14.47.14.13 0 .27-.04.45-.14.15-.09.33-.25.51-.46.88-3.98 2.55-7.19 4.86-9.42 2.34-2.26 5.35-3.49 8.76-3.49 1.43 0 2.94.21 4.5.65.87.25 1.56.36 2.09.36.37 0 .66-.06.9-.16s.43-.25.62-.47c.39-.44.73-1.22 1.07-2.35 1.29-4.28 3.62-7.67 6.59-9.98 2.97-2.31 6.58-3.54 10.41-3.54 3.21 0 6.58.86 9.85 2.67.83.46 1.45.66 1.78.65.16 0 .24-.03.32-.08a.74.74 0 00.23-.29c.16-.33.28-.99.28-1.94.02-4.2.03-8.4.03-12.61 0-4.73-.01-9.45-.01-14.18v-1.28c0-.35 0-.7-.04-1.01-.03-.31-.1-.57-.2-.75a.637.637 0 00-.22-.26c-.11-.08-.28-.14-.57-.15h-.02c-.38.01-.54.09-.64.17-.09.08-.17.21-.21.45-.03.15-.04.34-.04.54 0 .39.04.83.05 1.26v.06c-.02 4.18-.04 8.37-.04 12.55 0 3.57.02 7.15.07 10.72v.55c0 .39-.01.74-.05 1.06-.04.33-.11.63-.25.91-.1.19-.24.36-.43.49-.25.18-.56.25-.87.25-.57-.01-1.2-.21-2.05-.58-2.06-.92-4.24-1.46-6.5-1.46-.86 0-1.74.08-2.62.24-3.92.73-7.15 2.25-9.79 4.48-2.64 2.23-4.7 5.16-6.22 8.75-.26.61-.51 1.14-.82 1.58-.31.45-.72.82-1.25 1.02-.35.14-.74.2-1.17.2-.37 0-.77-.05-1.22-.13-1.12-.22-2.22-.33-3.31-.33-3.14 0-6.15.9-8.93 2.79-2.02 1.36-3.47 3.33-4.95 5.64l-.48.75-.47-.75c-.86-1.37-1.43-2.39-2.09-3.29-2.18-3-4.7-5.32-7.55-6.9-2.85-1.57-6.03-2.41-9.58-2.41-.69 0-1.39.03-2.1.1-4.05.36-7.61 1.51-10.59 3.5-2.99 2-5.42 4.85-7.21 8.68-.3.63-.41 1.5-.54 2.41-.14.9-.29 1.86-.85 2.66-.37.53-.95.97-1.72 1.18-.91.26-1.85.33-2.79.33-1.51 0-3.02-.19-4.44-.2-.3 0-.52-.07-.68-.09-5.13.05-10.26.07-15.39.15l-.13.06zm142.94 6.12v.19l.03.55-.55.04c-1.26.09-2.56.25-3.89.26-15.49.02-30.99 0-46.48.04-.31 0-.61-.04-.9-.08-.28-.04-.55-.07-.78-.07-.28 0-.49.05-.66.15-.16.1-.33.27-.48.68l-.06.17-.12.08v.2l-.17.16-.07.07c.02.01.03.02.05.03l.14.08.08.13c.21.35.42.51.67.61.25.1.57.14.94.14.33 0 .7-.03 1.09-.03 10.03 0 20.07.01 30.1.01 10.77 0 21.53 0 32.3-.01.36 0 .69.02 1 .02.39 0 .72-.04.97-.14.25-.11.46-.27.66-.65l.09-.17.08-.04-.02-.03c-.17-.22-.35-.44-.52-.66l-.02-.03-.02-.03c-.19-.31-.36-.44-.56-.53-.2-.09-.46-.12-.77-.12-.32 0-.69.04-1.09.04-.1 0-.21 0-.32-.01-.44-.03-.89-.04-1.33-.04-1.18 0-2.39.08-3.62.08-1.24 0-2.5-.08-3.77-.43l-.58-.16.19-.57c.64-1.9 1.1-3.99 2.43-5.81 1.74-3.51 4.13-6.07 7.03-7.78 2.91-1.72 6.31-2.59 10.06-2.78.6-.03 1.09-.09 1.47-.19.38-.1.64-.24.84-.44.13-.13.24-.3.34-.54.13-.31.22-.75.26-1.34.23-3.65 1.38-6.7 3.32-9.14 1.94-2.44 4.66-4.27 7.98-5.53.83-.32 1.53-.57 2.13-.75.6-.18 1.11-.29 1.57-.29.39 0 .77.08 1.08.31.32.22.52.55.65.92.25.73.29 1.67.3 3v.7c0 .25-.01.5-.01.75 0 .18 0 .35.01.52.01.38 0 .77.03 1.12.02.35.07.67.16.88.06.14.13.23.21.3.11.09.27.16.61.16.38 0 .54-.09.63-.16.09-.08.16-.2.21-.42.03-.15.04-.33.04-.52 0-.41-.06-.89-.06-1.36v-.04c.01-4.53.02-9.06.02-13.6v-14.92l.01-23.1v-.87c0-.32-.03-.62-.09-.84-.07-.23-.15-.36-.27-.44a.793.793 0 00-.37-.12l-.14-.01a.83.83 0 00-.41.09.6.6 0 00-.25.25c-.15.23-.26.63-.31 1.07-.03.26-.04.53-.04.81 0 .44.02.91.02 1.39 0 3.87-.02 25.36-.02 29.23 0 3.13.01 6.25.05 9.38v.22c0 .67-.04 1.27-.25 1.83-.2.55-.61 1.03-1.2 1.34-.39.21-.86.35-1.42.46-4.4.82-7.9 2.55-10.56 5.15-2.66 2.59-4.49 6.07-5.47 10.43-.11.49-.24.92-.47 1.3-.23.38-.59.69-1.03.87-.29.12-.62.19-.99.23-4.31.43-7.92 1.81-10.97 4.02-3.02 2.19-5.48 5.22-7.45 8.98-.2.96-.53 1.85-.81 2.71-.26.89-.48 1.75-.48 2.64zm199.94-3.32c-.36 0-.73.01-1.11.01h-12.98c-4.71 0-9.42-.01-14.13-.03h-.02c-.32 0-.81.08-1.33.09-.3 0-.63-.03-.95-.18-.32-.14-.62-.44-.76-.83-.1-.26-.14-.54-.14-.87 0-.14.01-.3.03-.46.03-.55.05-1.09.05-1.62 0-4.57-1.13-8.38-3.31-11.53-2.17-3.13-5.41-5.62-9.7-7.49-2.12-.44-4.26-.62-6.42-.62-.26 0-.51 0-.77.01-1.75.48-3.49.91-5.11 1.53-1.64.64-3.16 1.46-4.47 2.73-.22.21-.43.38-.66.5-.22.12-.47.19-.71.19-.21 0-.41-.05-.58-.13a1.8 1.8 0 01-.45-.31c-.26-.24-.47-.51-.69-.81-.99-1.32-2.07-2.28-3.24-2.91a7.797 7.797 0 00-3.76-.94c-1.2 0-2.48.25-3.82.76-.68.26-1.28.4-1.86.4-.62 0-1.19-.18-1.69-.51s-.94-.78-1.4-1.34c-2.42-2.98-5.59-4.85-9.42-5.78-1.16-.28-2.27-.41-3.35-.41-2.1 0-4.08.48-6.01 1.25-1.93.77-3.81 1.83-5.69 2.97l-.85.52v-1c-.03-8-.05-15.99-.08-23.99v-.02c0-.28-.05-.5-.11-.65-.07-.15-.14-.22-.23-.27a.568.568 0 00-.26-.05 1.2 1.2 0 00-.97.5c-.17.24-.28.56-.28.93-.03 9.13-.04 18.26-.04 27.39 0 .34.06.62.17.82.12.2.25.33.54.42.15.05.27.06.37.06.21 0 .34-.06.49-.2.15-.14.3-.37.43-.69l.03-.09.06-.07.1-.12.12-.05a.85.85 0 00.35-.27c.07-.1.12-.22.14-.41l.07-.7.59.19c3.42-2.87 7.32-4.27 11.09-4.27 5.4 0 10.51 2.88 13.47 8.22.2.36.39.57.56.69.17.11.31.15.5.16.19 0 .43-.05.71-.16.28-.11.6-.28.95-.48 1.95-1.12 3.7-1.72 5.3-1.72 1.47 0 2.79.53 3.87 1.54 1.09 1.01 1.96 2.48 2.67 4.39.16.42.31.78.46 1.05.15.27.3.42.39.48.06.04.1.05.15.05.07 0 .22-.03.45-.19.23-.15.52-.42.87-.81 3.62-4.1 8-6.22 12.59-6.22 2.2 0 4.44.49 6.65 1.46 3.11 1.36 5.52 3.39 7.15 5.98 1.63 2.59 2.46 5.71 2.46 9.24 0 .8-.04 1.63-.13 2.47v.03c-.22 1.4-.37 2.41-.37 3.06 0 .36.05.6.11.74a.6.6 0 00.29.3c.11.06.26.11.47.15.28.06.65.1 1.11.12.62.03 1.4.03 2.36.03h23.22c2.47 0 4.95 0 7.42-.01.36 0 .68-.04.92-.13s.38-.2.47-.36c.06-.11.11-.25.11-.48v-.03c0-.2-.04-.35-.1-.48a.907.907 0 00-.26-.33c-.23-.19-.6-.33-1.05-.38l.06-.56-.06.56c-.31-.02-.67-.03-1.05-.03zm-127.3-17.63c-1.33 0-2.71.18-4.1.55-.79.21-1.44.33-2.03.33-.41 0-.8-.06-1.15-.22-.35-.15-.65-.39-.89-.69-.48-.6-.78-1.39-1.12-2.44-.98-3.11-2.38-5.85-4.39-7.97s-4.6-3.63-8.04-4.29c-.23-.05-.46-.07-.66-.07-.37 0-.65.08-.86.21-.2.13-.36.32-.48.68-.04.12-.05.22-.05.3 0 .12.03.19.07.27.05.08.12.16.24.24.23.17.61.32 1 .44 3.86 1.24 6.72 2.92 8.7 5.32 1.98 2.4 3.03 5.47 3.39 9.38.1 1.17.26 1.94.45 2.26.06.11.11.16.16.19.06.04.12.07.27.07.17 0 .45-.06.83-.19.37-.14.84-.35 1.39-.63 2.28-1.15 4.63-1.69 6.9-1.69 3.58 0 6.95 1.33 9.48 3.66 2.53 2.33 4.22 5.65 4.46 9.6.08.49.12.97.12 1.45 0 1.7-.47 3.32-1.12 4.8-.32.73-.46 1.3-.46 1.69 0 .23.04.39.11.51s.16.22.32.32c.32.19.95.33 1.84.32h.02c3.29-.01 6.58-.01 9.88-.01h7.8c.32 0 .64 0 .91-.04.28-.03.5-.09.66-.18.1-.06.17-.12.23-.2.07-.11.14-.26.14-.54v-.07c0-.31-.07-.51-.16-.65a.94.94 0 00-.41-.34c-.38-.19-1.01-.26-1.65-.25h-9.71c-1.39 0-2.48 0-3.35-.07-.87-.07-1.55-.21-2.1-.57-.37-.24-.64-.6-.8-1.01-.22-.55-.28-1.19-.28-1.98 0-.82.07-1.82.16-3.07-.57-4.59-2.52-8.44-5.31-11.15-2.8-2.71-6.44-4.27-10.41-4.27zm4.25 41.76h20.36c.23 0 .46.01.69.01.3 0 .58-.01.82-.05s.43-.1.55-.19c.09-.06.15-.12.21-.22.08-.12.14-.31.16-.6v-.15c0-.32-.07-.5-.15-.61-.08-.12-.19-.2-.37-.27-.36-.15-.98-.17-1.6-.17h-.11c-6.2 0-12.4-.01-18.6-.01-6.82 0-13.63 0-20.45.01h-.38c-.33 0-.67.01-.96.04-.29.04-.54.11-.7.2-.11.06-.19.13-.25.22-.08.12-.15.3-.16.6v.09c0 .31.05.5.12.63.07.13.14.2.26.27.23.14.69.2 1.21.2.3 0 .62-.01.94-.01h.03c3.16.01 6.31.01 9.47.01h8.91zm84.14-133.13v-.09c0-.81-.27-1.44-.72-1.89-.45-.45-1.1-.73-1.95-.74h-.05c-.91 0-1.57.28-2.02.73-.45.45-.71 1.11-.71 1.98 0 .06 0 .13.01.19.04.84.33 1.44.8 1.88.46.43 1.12.72 1.94.84.91-.13 1.56-.47 1.99-.95.44-.48.69-1.14.71-1.95zm-2.81 2.07h-.13c-.53-.02-1.02-.23-1.37-.59-.35-.36-.53-.86-.53-1.39v-.14c.03-.57.24-1.09.62-1.45.39-.36.91-.53 1.45-.52.09 0 .18 0 .28.01.53.05 1.01.25 1.35.62.35.37.53.85.58 1.39l.01.08-.02.08c-.11.57-.37 1.06-.78 1.4-.39.35-.91.52-1.46.51zM155.52 16.351c.39-.47.62-1.17.63-2v-.09c-.01-.83-.26-1.39-.71-1.83-.43-.42-1.09-.71-1.93-.85-.87.12-1.5.44-1.93.89-.43.47-.67 1.09-.68 1.9v.03c.01.83.26 1.49.7 1.94.44.45 1.08.74 1.98.76h.06c.93.01 1.49-.29 1.88-.75zm-1.93.03c-.07.01-.13.01-.19.01-.5 0-.97-.17-1.31-.51-.34-.34-.54-.8-.58-1.32-.01-.07-.01-.15-.01-.22 0-.52.18-.99.51-1.33.32-.34.75-.53 1.21-.61.15-.03.31-.05.45-.05.53 0 .99.21 1.31.5.32.29.54.63.71.93l.07.13v.15c-.01.37-.07.7-.18 1-.12.29-.29.54-.5.74-.44.39-.98.53-1.49.58zm201.27 270.9c.11-.08.2-.16.26-.27.09-.14.15-.32.15-.63v-.13c-.02-.36-.11-.57-.21-.7a.864.864 0 00-.43-.29c-.4-.15-1.07-.14-1.74-.14h-.13c-.34 0-.67.01-.96.06-.28.04-.52.12-.67.21-.1.06-.17.13-.23.22-.07.12-.13.29-.14.59 0 .06 0 .13.01.2.03.32.11.52.22.67.11.15.27.27.5.37.44.2 1.16.27 1.98.28.24-.05.49-.1.73-.17.27-.06.5-.15.66-.27zM242.92 89.391v.12c0 .44.15.75.37.98.23.22.55.36.97.36.42 0 .73-.14.96-.36.22-.22.36-.53.37-.96 0-.05 0-.1-.01-.15-.04-.4-.17-.64-.4-.85-.21-.19-.53-.33-.93-.42-.4.09-.72.24-.93.43-.23.21-.37.46-.4.85zm-148.6 61.93c.11-.16.19-.42.19-.72v-.03c-.01-.39-.12-.59-.26-.73-.14-.13-.37-.23-.72-.26-.27.08-.47.19-.59.31-.13.13-.19.25-.19.48l.01.13v.01c.04.36.17.63.33.81.17.17.36.27.68.27h.06c.13-.01.22-.04.3-.08.07-.05.13-.11.19-.19z" fill="#727885"/><path d="M216.36 221.401l-.18 22.25c-.01.75.03 1.51-.05 2.25-.09.84-.58 1.42-1.49 1.32-.73-.07-1.15-.62-1.18-1.32-.06-1.61-.04-3.22-.06-4.84-.06-6.77-.12-13.54-.19-20.31.05-2.67.08-21.2.14-23.87.02-1.04.31-2.04 1.59-1.92 1.03.09 1.27.99 1.28 1.92.05 2.89.1 21.63.14 24.52zm-58.4 85.14c2.15 0 4.31-.04 6.46.02 1.07.03 1.95.51 1.86 1.75-.08 1.02-.87 1.45-1.82 1.45-4.52.02-9.05.03-13.57 0-.96 0-1.74-.48-1.7-1.53.04-1.18.93-1.66 1.99-1.68 2.25-.04 4.52-.01 6.78-.01zm16.61 3.21c-1.08 0-2.16.05-3.23-.01-.97-.06-1.67-.59-1.65-1.62.02-1.03.78-1.52 1.73-1.56 1.83-.06 3.66-.04 5.49-.03 1.15.01 2.31.25 2.27 1.67-.03 1.42-1.21 1.58-2.36 1.58h-2.26c.01-.01.01-.02.01-.03zm41.82-54.43c-.29 1.1.2 2.93-1.74 2.8-1.53-.1-1.42-1.65-1.45-2.82-.03-1.32-.04-2.94 1.72-2.86 1.48.06 1.39 1.64 1.47 2.88zm68.99 37.26h-10.66c-1.33 0-2.8.03-2.82-1.8-.01-1.56 1.35-1.87 2.54-1.88 7.43-.05 14.86-.03 22.29-.03 1.42 0 2.27.67 2.24 2.14-.03 1.51-1.14 1.58-2.29 1.58-3.76-.02-7.53-.02-11.3-.01zm-23.94 0h-2.01c-1.15 0-2.31-.19-2.35-1.57-.04-1.24.95-1.86 2.08-2.08a6.18 6.18 0 011.92-.05c1.56.18 4.02-.81 4.12 1.73.11 2.98-2.66 1.48-3.76 1.97z" fill="#473CC2"/><path d="M180.81 95.231c-.57-.05-1.15-.09-1.72-.14-.04.34-.09.68-.13 1.02-3.12-.24-6.23-.49-9.34-.73-.11.78-.21 1.57-.31 2.35l8.94.63c.7.05 1.26-.09 1.67-.43.41-.34.66-.89.76-1.67.04-.35.09-.69.13-1.03zm-.85 7.68c.07-.76.14-1.52.22-2.28-2.63-.17-5.27-.33-7.9-.5-.09.78-.17 1.56-.24 2.34 2.64.14 5.28.29 7.92.44zm-8.84-2.72a.987.987 0 00-.75-.38c-.11-.01-.22-.01-.33-.02-.32-.02-.6.07-.83.28-.23.21-.37.55-.42 1.02-.05.48.02.83.2 1.06.18.23.44.35.76.37.11.01.22.01.33.02.32.02.6-.08.82-.28.23-.2.37-.54.42-1.02.04-.47-.02-.82-.2-1.05zm6.76 9.41c-.15.18-.37.27-.66.26l-.23-.01c-.59-.02-.87-.48-.81-1.39.02-.37.05-.75.08-1.12.31.01.62.03.93.04.36.02.62.16.76.44s.2.61.18 1c-.02.34-.1.6-.25.78zm1.95-5.16l-1.74-.09-.06.76c-1.16-.06-2.32-.11-3.48-.17-.95-.04-1.69.21-2.24.78-.54.56-.86 1.44-.94 2.63-.06.88.03 1.58.27 2.1.24.52.59.96 1.06 1.31.42-.45.85-.9 1.27-1.35-.24-.19-.44-.42-.62-.7-.18-.28-.25-.65-.22-1.11.03-.5.17-.84.42-1.04.24-.2.56-.29.94-.28.17.01.33.01.5.02l-.09 1.3c-.07 1.09.09 1.95.47 2.6.38.64.99.98 1.84 1 .7.02 1.27-.19 1.72-.61.44-.42.69-1.04.73-1.85.03-.62-.07-1.14-.31-1.58-.24-.43-.62-.72-1.12-.87l.01-.09c.43-.05.78-.21 1.05-.48.27-.26.42-.6.45-1.01.02-.43.05-.85.09-1.27zm-.6 11.73c.02-.74.03-1.48.06-2.21-3.56-.07-7.12-.15-10.69-.23-.04.87-.07 1.73-.1 2.59 1.65.92 3.3 1.83 4.97 2.73v.03c-1.69.89-3.38 1.79-5.06 2.71 0 .86 0 1.72.01 2.58 3.61-.04 7.21-.08 10.82-.11-.02-.74-.03-1.48-.04-2.22l-7.19.03v-.05c.57-.28 1.13-.56 1.7-.84 1.26-.7 2.53-1.39 3.8-2.08-1.26-.71-2.52-1.43-3.77-2.16-.52-.27-1.03-.55-1.55-.83v-.05c2.35.05 4.69.08 7.04.11zm.16 12.18c-1.59.04-3.19.07-4.78.11-.48.01-.81-.15-1-.47-.19-.33-.3-.83-.32-1.52-.01-.19-.01-.39-.02-.58l-2.14.03c0 .14.01.28.01.41.01.33.07.61.17.85.11.24.25.45.42.62.17.17.37.31.58.41.22.1.44.17.67.21v.08c-.59.01-1.18.03-1.78.04.03.78.06 1.56.1 2.35l8.2-.24c-.03-.77-.07-1.54-.11-2.3zm.45 6.71c-.07-.76-.13-1.52-.18-2.29l-8.21.3c.05.78.1 1.56.16 2.34 2.74-.11 5.49-.23 8.23-.35zm-9.58-1.81c-.23-.21-.51-.31-.84-.3-.12 0-.23.01-.34.01-.33.01-.6.13-.8.36-.2.23-.29.58-.26 1.06.03.48.16.82.39 1.03.23.21.51.31.85.29.11 0 .23-.01.35-.02.33-.01.6-.13.8-.36.2-.23.28-.58.25-1.05-.05-.47-.17-.81-.4-1.02zm5.46 7.23c.09.83.19 1.67.29 2.5-1.45-.31-2.89-.62-4.33-.94l-.01-.08c1.35-.5 2.7-.99 4.05-1.48zm4.25-4.05a704.48 704.48 0 00-10.64 4.13c.1.99.21 1.99.33 2.99 3.83.98 7.67 1.91 11.54 2.8-.12-.79-.24-1.57-.35-2.36-.91-.2-1.82-.39-2.73-.59-.16-1.2-.3-2.41-.44-3.61.84-.31 1.69-.61 2.53-.92-.08-.81-.17-1.62-.24-2.44z" fill="#fff"/><defs><linearGradient id="paint0_linear" x1="152.764" y1="152.671" x2="222.303" y2="83.132" gradientUnits="userSpaceOnUse"><stop stop-color="#473CC2"/><stop offset="1" stop-color="#D045AE"/></linearGradient><linearGradient id="paint1_linear" x1="175.588" y1="64.437" x2="198.048" y2="41.977" gradientUnits="userSpaceOnUse"><stop stop-color="#473CC2"/><stop offset="1" stop-color="#D045AE"/></linearGradient><linearGradient id="paint2_linear" x1="78.874" y1="92.793" x2="87.222" y2="84.445" gradientUnits="userSpaceOnUse"><stop stop-color="#473CC2"/><stop offset="1" stop-color="#D045AE"/></linearGradient><linearGradient id="paint3_linear" x1="174.222" y1="18.648" x2="179.623" y2="13.248" gradientUnits="userSpaceOnUse"><stop stop-color="#473CC2"/><stop offset="1" stop-color="#D045AE"/></linearGradient><linearGradient id="paint4_linear" x1="269.619" y1="106.363" x2="275.112" y2="100.87" gradientUnits="userSpaceOnUse"><stop stop-color="#473CC2"/><stop offset="1" stop-color="#D045AE"/></linearGradient><linearGradient id="paint5_linear" x1="77.746" y1="293.621" x2="83.249" y2="288.117" gradientUnits="userSpaceOnUse"><stop stop-color="#473CC2"/><stop offset="1" stop-color="#D045AE"/></linearGradient><linearGradient id="paint6_linear" x1="231.479" y1="30.651" x2="235.847" y2="26.282" gradientUnits="userSpaceOnUse"><stop stop-color="#473CC2"/><stop offset="1" stop-color="#D045AE"/></linearGradient><linearGradient id="paint7_linear" x1="269.816" y1="148.328" x2="274.024" y2="144.12" gradientUnits="userSpaceOnUse"><stop stop-color="#473CC2"/><stop offset="1" stop-color="#D045AE"/></linearGradient><linearGradient id="paint8_linear" x1="66.564" y1="292.677" x2="70.016" y2="289.224" gradientUnits="userSpaceOnUse"><stop stop-color="#473CC2"/><stop offset="1" stop-color="#D045AE"/></linearGradient><linearGradient id="paint9_linear" x1="83.439" y1="59.67" x2="85.923" y2="57.186" gradientUnits="userSpaceOnUse"><stop stop-color="#473CC2"/><stop offset="1" stop-color="#D045AE"/></linearGradient><linearGradient id="paint10_linear" x1="264.165" y1="163.119" x2="266.578" y2="160.706" gradientUnits="userSpaceOnUse"><stop stop-color="#473CC2"/><stop offset="1" stop-color="#D045AE"/></linearGradient><linearGradient id="paint11_linear" x1="118.496" y1="129.83" x2="120.994" y2="127.331" gradientUnits="userSpaceOnUse"><stop stop-color="#473CC2"/><stop offset="1" stop-color="#D045AE"/></linearGradient><linearGradient id="paint12_linear" x1="131.713" y1="29.619" x2="134.146" y2="27.186" gradientUnits="userSpaceOnUse"><stop stop-color="#473CC2"/><stop offset="1" stop-color="#D045AE"/></linearGradient><linearGradient id="paint13_linear" x1="215.028" y1="2.866" x2="217.438" y2=".456" gradientUnits="userSpaceOnUse"><stop stop-color="#473CC2"/><stop offset="1" stop-color="#D045AE"/></linearGradient><linearGradient id="paint14_linear" x1="63.644" y1="141.432" x2="65.87" y2="139.206" gradientUnits="userSpaceOnUse"><stop stop-color="#473CC2"/><stop offset="1" stop-color="#D045AE"/></linearGradient><linearGradient id="paint15_linear" x1="106.6" y1="267.469" x2="158.809" y2="215.26" gradientUnits="userSpaceOnUse"><stop stop-color="#473CC2"/><stop offset="1" stop-color="#D045AE"/></linearGradient><linearGradient id="paint16_linear" x1="141.572" y1="197.183" x2="145.684" y2="193.07" gradientUnits="userSpaceOnUse"><stop stop-color="#473CC2"/><stop offset="1" stop-color="#D045AE"/></linearGradient><linearGradient id="paint17_linear" x1="267.323" y1="40.057" x2="271.911" y2="35.47" gradientUnits="userSpaceOnUse"><stop stop-color="#473CC2"/><stop offset="1" stop-color="#D045AE"/></linearGradient></defs></svg>