<svg width="623" height="117" fill="none" xmlns="http://www.w3.org/2000/svg"><path opacity=".3" fill-rule="evenodd" clip-rule="evenodd" d="M622.3 18.9a1.9 1.9 0 01-3.734.5H68.207L6.476 81.131 9.6 84.3 0 86.9l2.6-9.7 3.174 3.22 61.873-61.874.146-.146h550.773a1.9 1.9 0 013.734.5zM86.5 48.4h-.207l-.147.146-61.872 61.873L21.1 107.2l-2.6 9.7 9.6-2.6-3.124-3.169L86.707 49.4H180.8v34.766a1.9 1.9 0 101 0V48.4H86.5zm-6.207-10H437.8v45.767a1.9 1.9 0 11-1 0V39.4H80.707L28.976 91.131 32.1 94.3l-9.6 2.6 2.6-9.7 3.174 3.22 51.873-51.874.146-.146zM74 28.4h-.207l-.147.146L19.775 82.42 16.6 79.2 14 88.9l9.6-2.6-3.124-3.169L74.207 29.4h460.186l56.253 56.058c-.432.77-.348 1.74.254 2.342.8.7 2 .7 2.7 0 .7-.8.7-2 0-2.7-.569-.57-1.47-.676-2.216-.319l-56.431-56.235-.146-.146H74z" fill="#fff"/><path opacity=".3" d="M279.751 7.145h-2.979L276.104 9h-.967l2.715-7.11h.82l2.72 7.11h-.962l-.679-1.855zm-2.695-.772h2.417l-1.211-3.325-1.206 3.325zm11.86-4.482v4.834c-.004.67-.215 1.219-.635 1.645-.417.427-.983.666-1.699.718l-.249.01c-.778 0-1.398-.21-1.861-.63-.462-.42-.696-.998-.703-1.734V1.891h.928v4.814c0 .514.141.915.425 1.201.283.283.687.425 1.211.425.53 0 .935-.142 1.215-.425.284-.283.425-.682.425-1.196V1.89h.943zm8.041.771h-2.285V9h-.933V2.662h-2.28v-.771h5.498v.771zm8.037 3.013c0 .696-.117 1.305-.352 1.826-.234.518-.566.913-.996 1.186-.429.274-.931.41-1.504.41-.56 0-1.056-.136-1.489-.41a2.762 2.762 0 01-1.011-1.176c-.237-.511-.359-1.102-.366-1.773v-.512c0-.684.119-1.288.357-1.812.237-.524.573-.924 1.005-1.201a2.71 2.71 0 011.495-.42c.569 0 1.071.138 1.504.415.436.273.771.672 1.005 1.196.235.521.352 1.128.352 1.822v.449zm-.933-.46c0-.842-.169-1.488-.507-1.938-.339-.452-.813-.678-1.421-.678-.593 0-1.06.226-1.402.678-.338.45-.512 1.075-.522 1.875v.523c0 .817.171 1.46.512 1.929.346.465.819.698 1.421.698.606 0 1.075-.22 1.407-.66.332-.442.503-1.075.512-1.899v-.527zm5.2-3.324l2.324 5.8 2.325-5.8h1.215V9h-.937V6.231l.088-2.988L311.942 9h-.718l-2.329-5.742.093 2.973V9h-.938V1.89h1.211zm13.183 5.254h-2.978L318.797 9h-.967l2.715-7.11h.82l2.72 7.11h-.962l-.679-1.855zm-2.695-.772h2.417l-1.211-3.325-1.206 3.325zm11.22-3.71h-2.285V9h-.932V2.662h-2.281v-.771h5.498v.771zM334.68 9h-.938V1.89h.938V9zm8.837-3.325c0 .696-.117 1.305-.351 1.826-.235.518-.567.913-.996 1.186-.43.274-.931.41-1.504.41-.56 0-1.056-.136-1.489-.41a2.762 2.762 0 01-1.011-1.176c-.238-.511-.36-1.102-.366-1.773v-.512c0-.684.118-1.288.356-1.812s.573-.924 1.006-1.201c.436-.28.934-.42 1.494-.42.57 0 1.071.138 1.504.415.436.273.771.672 1.006 1.196.234.521.351 1.128.351 1.822v.449zm-.932-.46c0-.842-.17-1.488-.508-1.938-.339-.452-.812-.678-1.421-.678-.592 0-1.06.226-1.401.678-.339.45-.513 1.075-.523 1.875v.523c0 .817.171 1.46.513 1.929.345.465.819.698 1.421.698.605 0 1.074-.22 1.406-.66.332-.442.503-1.075.513-1.899v-.527zM352.037 9h-.942l-3.579-5.479V9h-.942V1.89h.942l3.589 5.504V1.89h.932V9z" fill="#fff"/></svg>