<svg aria-hidden="true" style="position:absolute;width:0;height:0" xmlns="http://www.w3.org/2000/svg" overflow="hidden"><defs><symbol id="icon-ic_chat" viewBox="0 0 16 16"><path d="M11 1v6H2.59l-.29.29L1 8.59V1h10zm1-1H0v11l3-3h9V0z"/><path d="M13 5v1h2v7.59l-1.29-1.3-.3-.29H5V9H4v4h9l3 3V5h-3zM5 3H3v2h2V3zm4 0H7v2h2V3z"/></symbol><symbol id="icon-subscribe-base" viewBox="0 0 32 32"><path fill="var(--color1, #e8b006)" d="M11.999 0H2.666A2.67 2.67 0 00-.001 2.667v26.667a2.67 2.67 0 002.667 2.667h9.333a2.67 2.67 0 002.667-2.667V2.667A2.668 2.668 0 0011.999 0z"/><path fill="var(--color1, #e8b006)" opacity=".6" d="M29.333 0H20a2.67 2.67 0 00-2.667 2.667V12A2.67 2.67 0 0020 14.667h9.333A2.67 2.67 0 0032 12V2.667A2.668 2.668 0 0029.333 0z"/><path fill="var(--color1, #e8b006)" opacity=".3" d="M29.333 17.333H20A2.67 2.67 0 0017.333 20v9.333A2.67 2.67 0 0020 32h9.333A2.67 2.67 0 0032 29.333V20a2.67 2.67 0 00-2.667-2.667z"/></symbol><symbol id="icon-subscribe-free" viewBox="0 0 35 32"><path fill="var(--color2, #727885)" d="M4.679 27.307A16.005 16.005 0 0015.999 32V0A16.001 16.001 0 00.305 19.113a15.996 15.996 0 004.373 8.192z"/><path fill="var(--color2, #727885)" opacity=".5" d="M18.665 32a15.997 15.997 0 0016-16 16.003 16.003 0 00-16-16v32z"/></symbol><symbol id="icon-close" viewBox="0 0 32 32"><path fill="#727885" d="M20.848 15.996L31.996 4.848 27.147-.001 16 11.147 4.853-.001.004 4.848l11.148 11.148L.004 27.144l4.849 4.849L16 20.845l11.147 11.148 4.849-4.849-11.148-11.148z"/></symbol><symbol id="icon-subscribe-full" viewBox="0 0 29 32"><path fill="var(--color3, #0098c7)" d="M2.994 6.256a1.144 1.144 0 000 1.988l10.572 6.103a1.147 1.147 0 001.142 0l10.571-6.103a1.144 1.144 0 000-1.988L14.708.153a1.147 1.147 0 00-1.142 0L2.994 6.256z"/><path fill="var(--color3, #0098c7)" opacity=".3" d="M2.994 25.387a1.144 1.144 0 010-1.988l10.572-6.103a1.147 1.147 0 011.142 0l10.571 6.103a1.144 1.144 0 010 1.988L14.708 31.49a1.147 1.147 0 01-1.142 0L2.994 25.387z"/><path fill="var(--color3, #0098c7)" opacity=".8" d="M17.428 14.793l9.429-5.44a1.14 1.14 0 011.559.414c.101.173.154.369.156.569v10.903a1.14 1.14 0 01-.575.985 1.15 1.15 0 01-1.14-.002l-9.429-5.44a1.144 1.144 0 010-1.988z"/><path fill="var(--color3, #0098c7)" opacity=".6" d="M-.001 21.273V10.37a1.14 1.14 0 01.575-.985 1.15 1.15 0 011.14.002l9.429 5.406a1.144 1.144 0 010 1.988l-9.429 5.44A1.142 1.142 0 010 21.273z"/></symbol><symbol id="icon-advantage_1" viewBox="0 0 32 32"><path opacity=".1" d="M16 26.667c5.891 0 10.667-4.776 10.667-10.667S21.891 5.333 16 5.333 5.333 10.109 5.333 16 10.109 26.667 16 26.667z"/><path fill="url(#gradient)" d="M20.229 26.4c.795 0 1.445-.651 1.445-1.445s-.651-1.445-1.445-1.445c-.629 0-1.157.405-1.355.965h-2.016v-2.891h2.016c.197.56.731.965 1.355.965.795 0 1.445-.651 1.445-1.445s-.651-1.445-1.445-1.445c-.629 0-1.157.405-1.355.965h-2.016v-2.891h2.016c.197.56.731.965 1.355.965.795 0 1.445-.651 1.445-1.445s-.651-1.445-1.445-1.445c-.629 0-1.157.405-1.355.965h-2.016v-.965h-.965v-2.016c.56-.197.965-.731.965-1.355 0-.795-.651-1.445-1.445-1.445s-1.445.651-1.445 1.445c0 .629.405 1.157.965 1.355v2.016h-2.891v-2.016c.56-.197.965-.731.965-1.355 0-.795-.651-1.445-1.445-1.445s-1.445.651-1.445 1.445c0 .629.405 1.157.965 1.355v2.016H8.191v-2.016c.56-.197.965-.731.965-1.355 0-.795-.651-1.445-1.445-1.445s-1.445.651-1.445 1.445c0 .629.405 1.157.965 1.355v2.016h-.965v.965H4.25a1.442 1.442 0 00-1.355-.965c-.795 0-1.445.651-1.445 1.445s.651 1.445 1.445 1.445c.629 0 1.157-.405 1.355-.965h2.016v2.891H4.25a1.442 1.442 0 00-1.355-.965c-.795 0-1.445.651-1.445 1.445s.651 1.445 1.445 1.445c.629 0 1.157-.405 1.355-.965h2.016v2.891H4.25a1.442 1.442 0 00-1.355-.965c-.795 0-1.445.651-1.445 1.445S2.101 26.4 2.895 26.4c.629 0 1.157-.405 1.355-.965h2.016v.965h.965v2.016c-.56.197-.965.731-.965 1.355 0 .795.651 1.445 1.445 1.445s1.445-.651 1.445-1.445c0-.629-.405-1.157-.965-1.355V26.4h2.891v2.016c-.56.197-.965.731-.965 1.355 0 .795.651 1.445 1.445 1.445s1.445-.651 1.445-1.445c0-.629-.405-1.157-.965-1.355V26.4h2.891v2.016c-.56.197-.965.731-.965 1.355 0 .795.651 1.445 1.445 1.445s1.445-.651 1.445-1.445c0-.629-.405-1.157-.965-1.355V26.4h.965v-.965h2.016c.197.565.731.965 1.355.965zm0-1.925c.267 0 .48.213.48.48s-.213.48-.48.48-.48-.213-.48-.48.219-.48.48-.48zm0-3.851c.267 0 .48.213.48.48s-.213.48-.48.48-.48-.213-.48-.48.219-.48.48-.48zm0-3.856c.267 0 .48.213.48.48s-.213.48-.48.48-.48-.213-.48-.48.219-.48.48-.48zm-17.338.965c-.267 0-.48-.213-.48-.48s.213-.48.48-.48.48.213.48.48-.213.48-.48.48zm0 3.851c-.267 0-.48-.213-.48-.48s.213-.48.48-.48.48.213.48.48-.213.48-.48.48zm0 3.856c-.267 0-.48-.213-.48-.48s.213-.48.48-.48.48.213.48.48-.213.48-.48.48zm12.522-13.488c.267 0 .48.219.48.48 0 .267-.213.48-.48.48s-.48-.219-.48-.48c0-.267.213-.48.48-.48zm-3.85 0c.267 0 .48.219.48.48 0 .267-.213.48-.48.48s-.48-.219-.48-.48a.474.474 0 01.48-.48zm-3.856 0c.267 0 .48.219.48.48 0 .267-.213.48-.48.48s-.48-.219-.48-.48c0-.267.213-.48.48-.48zm0 18.304c-.267 0-.48-.213-.48-.48s.213-.48.48-.48.48.213.48.48-.213.48-.48.48zm3.856 0c-.267 0-.48-.213-.48-.48s.213-.48.48-.48.48.213.48.48-.219.48-.48.48zm3.85 0c-.267 0-.48-.213-.48-.48s.213-.48.48-.48.48.213.48.48-.213.48-.48.48zm.48-4.816H7.221v-8.672h8.672v8.672zM29.141 9.061a7.682 7.682 0 00-.827-1.984l1.536-1.536-2.725-2.725-1.536 1.536a7.806 7.806 0 00-1.984-.827V1.354h-3.856v2.171a7.682 7.682 0 00-1.984.827l-1.536-1.536-2.725 2.725 1.536 1.536a7.806 7.806 0 00-.827 1.984h-1.691v.965h2.464l.08-.384a6.731 6.731 0 01.981-2.368l.219-.325-1.403-1.403 1.365-1.36 1.403 1.403.331-.219a6.667 6.667 0 012.368-.981l.384-.08V2.325h1.925v1.984l.384.08a6.685 6.685 0 012.368.981l.331.219 1.403-1.403 1.365 1.36-1.403 1.403.219.325c.48.725.811 1.525.981 2.368l.08.384h1.984v1.925h-1.984l-.08.384a6.731 6.731 0 01-.981 2.368l-.219.331 1.403 1.403-1.365 1.365-1.403-1.403-.331.219a6.667 6.667 0 01-2.368.981l-.384.08v2.464h.965v-1.691a7.479 7.479 0 001.984-.827l1.536 1.536 2.725-2.725-1.536-1.536a7.806 7.806 0 00.827-1.984h2.171V9.06H29.14zm-7.466 5.782v.965c2.656 0 4.816-2.16 4.816-4.816s-2.16-4.816-4.816-4.816a4.82 4.82 0 00-4.816 4.816h.965c0-2.123 1.728-3.856 3.856-3.856s3.856 1.728 3.856 3.856a3.858 3.858 0 01-3.861 3.851zm-13.488 2.89h6.747v.965H8.187v-.965zm5.781 5.776h.965v.965h-.965v-.965zm-5.781 0h4.816v.965H8.187v-.965zm10.986 6.464l.192.944a14.886 14.886 0 0011.648-11.648l-.944-.192a13.929 13.929 0 01-10.896 10.896zM13.584 2.597l-.192-.944A14.886 14.886 0 001.744 13.301l.944.192A13.915 13.915 0 0113.584 2.597z"/></symbol><symbol id="icon-advantage_2" viewBox="0 0 32 32"><path opacity=".1" d="M16 26.667c5.891 0 10.667-4.776 10.667-10.667S21.891 5.333 16 5.333 5.333 10.109 5.333 16 10.109 26.667 16 26.667z"/><path fill="url(#gradient)" d="M25.867 4.021c-2.277 0-4.075 1.824-4.075 4.101s1.829 4.075 4.075 4.075c2.251 0 4.101-1.824 4.101-4.101s-1.824-4.075-4.101-4.075zm0 7.275c-1.771 0-3.205-1.435-3.205-3.2s1.461-3.173 3.205-3.173c1.771 0 3.205 1.435 3.205 3.2s-1.435 3.173-3.205 3.173zm1.29-2.555c-.027-.085-.027-.139-.085-.224-.027-.059-.059-.139-.112-.197-.059-.059-.085-.112-.139-.171a.479.479 0 00-.197-.139c-.059-.059-.139-.085-.197-.112-.085-.027-.139-.085-.224-.112s-.171-.059-.224-.085a.193.193 0 01-.112-.059c-.027-.027-.085-.027-.112-.059-.027-.027-.085-.027-.112-.059l-.085-.085c-.026-.026-.059-.059-.059-.112-.027-.027-.027-.085-.027-.112v-.139c0-.027.027-.085.027-.112.027-.027.027-.085.059-.112s.059-.059.085-.085a.22.22 0 01.139-.059c.059-.027.085-.027.139-.027h.17a.31.31 0 01.139.027c.059 0 .112.027.139.027s.085.027.112.027c.059 0 .085.027.112.027l.139.059.027-.171.059-.448v-.112l-.112-.027c-.027 0-.085-.027-.112-.027s-.059-.027-.112-.027c-.027 0-.085-.027-.139-.027-.059 0-.085-.027-.139-.027h-.027v-.533h-.672v.56h-.027a.981.981 0 00-.251.112c-.085.027-.139.085-.197.139-.059.059-.112.112-.171.197-.059.059-.085.139-.112.224s-.059.171-.085.251c-.027.085-.027.197-.027.283s0 .139.027.224c.027.085.027.139.085.224.027.059.085.139.112.197.059.059.085.112.139.171a.479.479 0 00.197.139c.059.059.139.085.197.112.085.027.171.085.224.112.085.027.171.059.224.085.027 0 .085.027.112.059s.085.027.112.059c.027.027.059.059.085.059l.085.085c.026.026.027.059.059.112 0 .027.027.085.027.139v.139a.193.193 0 01-.059.112l-.085.085c-.026.026-.059.059-.112.085-.027.027-.085.027-.112.059-.027 0-.085.027-.139.027h-.363c-.059 0-.112-.027-.139-.027a.366.366 0 01-.171-.059c-.059-.027-.112-.027-.171-.059-.027 0-.059-.027-.085-.027s-.059-.027-.085-.027l-.171-.085-.027.197-.059.507v.085l.085.027c.112-.027.171 0 .251.027a.555.555 0 00.197.059c.059.027.139.027.224.059a.638.638 0 00.224.027h.059v.56h.672v-.587h.027a.981.981 0 00.251-.112c.085-.027.139-.085.224-.139.059-.059.112-.112.171-.197.059-.059.085-.139.139-.224.027-.085.059-.171.085-.251s.027-.171.027-.283a.559.559 0 00-.021-.229zm-3.258 3.984c-.139-.197-.448-.224-.645-.085l-4.555 3.621-5.877-2.443a.436.436 0 00-.421.059l-6.299 4.496a.45.45 0 00-.112.619.414.414 0 00.368.197.424.424 0 00.251-.085l6.101-4.352 5.904 2.443a.49.49 0 00.448-.059l4.752-3.765c.197-.139.224-.448.085-.645zm6.576 15.392h-2.08V15.114a.443.443 0 00-.448-.448h-4.133a.443.443 0 00-.448.448v13.003h-1.52v-8.512a.443.443 0 00-.448-.448h-4.16a.443.443 0 00-.448.448v8.512h-1.52v-9.184a.443.443 0 00-.448-.448h-4.133a.443.443 0 00-.448.448v9.184h-1.52v-6.544a.443.443 0 00-.448-.448h-4.16a.443.443 0 00-.448.448v6.544H1.558c-.251 0-.448.197-.448.448s.197.448.448.448h28.896a.443.443 0 00.448-.448c.021-.251-.171-.448-.427-.448zm-22.683 0H4.56v-6.096h3.232v6.096zm6.576 0h-3.232v-8.736h3.232v8.736zm6.549 0h-3.232v-8.059h3.232v8.059zm6.576 0h-3.232V15.562h3.232v12.555z"/></symbol><symbol id="icon-advantage_3" viewBox="0 0 32 32"><path opacity=".1" d="M16 26.667c5.891 0 10.667-4.776 10.667-10.667S21.891 5.333 16 5.333 5.333 10.109 5.333 16 10.109 26.667 16 26.667z"/><path fill="url(#gradient)" d="M29.979 27.936H1.526a.704.704 0 100 1.408h28.453a.704.704 0 100-1.408zm-1.84-21.387h-4.955a.704.704 0 00-.704.704v4.779h-3.547V3.941a.704.704 0 00-.704-.704h-4.955a.704.704 0 00-.704.704v13.291H9.023v-5.973a.704.704 0 00-.704-.704H3.364a.704.704 0 00-.704.704v13.445c0 .389.315.704.704.704h24.773a.704.704 0 00.704-.704V7.253a.704.704 0 00-.704-.704zM7.611 24H4.064V11.957h3.547V24zm4.954 0H9.018v-5.371h3.547V24zm4.955-11.269V24h-3.547V4.635h3.547v8.096zM22.475 24h-3.547V13.429h3.547V24zm4.96 0h-3.547V7.952h3.547V24z"/></symbol><symbol id="icon-advantage_4" viewBox="0 0 32 32"><path opacity=".1" d="M16 26.667c5.891 0 10.667-4.776 10.667-10.667S21.891 5.333 16 5.333 5.333 10.109 5.333 16 10.109 26.667 16 26.667z"/><path fill="url(#gradient)" d="M30.091 28.325H4.384l3.243-3.621a2.032 2.032 0 002.774-.88l3.312.843a2.044 2.044 0 002.037 1.877 2.053 2.053 0 002.043-2.053c0-.624-.277-1.184-.72-1.557l2.704-6.485 1.925 4.928a2.055 2.055 0 001.291 3.642 2.052 2.052 0 001.931-2.714l2.363-2.368a.592.592 0 000-.843.592.592 0 00-.843 0l-2.229 2.235a2.044 2.044 0 00-1.227-.411c-.064 0-.128.005-.187.011l-2.368-6.059 2.379-5.707c.059.005.117.011.176.011.944 0 1.744-.651 1.973-1.525h3.744a.596.596 0 100-1.194h-3.792a2.046 2.046 0 00-1.931-1.381 2.053 2.053 0 00-1.28 3.648l-1.899 4.555-2.773-7.099a2.05 2.05 0 00.677-1.525A2.051 2.051 0 0015.664 2.6a2.052 2.052 0 00-1.584 3.344l-4.907 7.461a2.045 2.045 0 00-.677-.117c-.245 0-.48.043-.693.123L3.59 7.843V1.742a.596.596 0 10-1.194 0v5.872h-.997a.596.596 0 100 1.194h.997v6.005h-.997a.596.596 0 100 1.194h.997v6.149h-.997a.596.596 0 100 1.194h.997v5.584c0 .331.267.597.597.597h5.125v.784a.596.596 0 101.194 0v-.784h5.979v.784a.596.596 0 101.194 0v-.784h6.123v.784a.596.596 0 101.194 0v-.784h6.283c.331 0 .597-.267.597-.597s-.267-.608-.592-.608zm-7.099-6.218c.469 0 .853.384.853.859s-.384.859-.853.859-.853-.384-.853-.859.384-.859.853-.859zm0-15.851c.469 0 .853.384.853.859s-.384.859-.853.859-.853-.384-.853-.859.384-.859.853-.859zM8.581 23.744c-.469 0-.853-.384-.853-.859s.384-.859.853-.859.853.384.853.859-.384.859-.853.859zm7.168 1.6c-.469 0-.853-.384-.853-.859s.384-.859.853-.859.853.384.853.859-.384.859-.853.859zm-.074-21.557c.469 0 .853.384.853.859s-.384.859-.853.859-.853-.384-.853-.859.384-.859.853-.859zM8.507 14.475c.469 0 .853.384.853.859s-.384.859-.853.859-.853-.384-.853-.859.384-.859.853-.859zM3.6 9.808l3.264 4.309a2.051 2.051 0 001.648 3.264 2.052 2.052 0 002.043-2.053c0-.459-.149-.885-.405-1.227l4.933-7.499a2.013 2.013 0 00.88.07l3.195 8.176-3.168 7.605a1.636 1.636 0 00-.235-.016c-.768 0-1.435.427-1.787 1.056l-3.355-.853a2.052 2.052 0 00-2.027-1.803 2.053 2.053 0 00-1.798 3.024l-3.184 3.552V9.808h-.005zm25.712 7.168a.592.592 0 00-.843 0l-.469.475a.592.592 0 000 .843.59.59 0 00.842 0l.469-.475a.592.592 0 000-.843z"/></symbol><symbol id="icon-advantage_5" viewBox="0 0 32 32"><path opacity=".1" d="M16 26.667c5.891 0 10.667-4.776 10.667-10.667S21.891 5.333 16 5.333 5.333 10.109 5.333 16 10.109 26.667 16 26.667z"/><path fill="url(#gradient)" d="M18.629 6.715C17.2 5.291 15.301 4.507 13.28 4.507s-3.92.784-5.349 2.208a7.517 7.517 0 000 10.651c1.429 1.424 3.328 2.208 5.349 2.208s3.92-.784 5.349-2.208c1.429-1.424 2.213-3.312 2.213-5.323s-.784-3.904-2.213-5.328zm-10.09.608c1.264-1.259 2.949-1.952 4.741-1.952s3.472.693 4.741 1.952a6.655 6.655 0 011.872 3.611l-2.347 2.288a1.527 1.527 0 00-2.027.486l-3.451-1.077v-.032a1.535 1.535 0 00-3.072 0c0 .277.075.533.203.757l-1.813 1.867a6.663 6.663 0 011.152-7.899zm8.928 7.226a.673.673 0 11-.672-.672c.368 0 .672.304.672.672zM11.2 12.592a.673.673 0 11-.672-.672.676.676 0 01.672.672zm6.821 4.171a6.674 6.674 0 01-4.741 1.952 6.683 6.683 0 01-5.424-2.747l1.957-2.021c.213.112.453.176.715.176.533 0 1.003-.272 1.275-.683l3.451 1.077v.032a1.535 1.535 0 102.891-.72l1.84-1.787a6.635 6.635 0 01-1.963 4.72zM9.467 7.669l.565.645a4.982 4.982 0 014.891-.928l.283-.811a5.853 5.853 0 00-5.739 1.093zm6.842-.576l-.448.731c.229.139.448.299.651.469l.56-.651a7.063 7.063 0 00-.763-.549zm-2 9.776a5.01 5.01 0 01-2.88-.245l-.32.795a5.836 5.836 0 003.376.288l-.176-.837zm9.766 2.064l-.624.624-1.552-1.653a10.4 10.4 0 001.328-9.013l1.232-1.2a1.535 1.535 0 002.096-2.043L29.2 3.077v1.328h.864V1.626h-2.789v.859h1.301l-2.608 2.539a1.535 1.535 0 00-2.315 1.318c0 .272.069.523.192.741L22.901 8a10.348 10.348 0 00-2.235-3.312C16.597.64 9.978.64 5.909 4.688 2.282 8.293 1.888 13.92 4.72 17.968l-.725.747a1.535 1.535 0 00-2.251 1.355 1.535 1.535 0 003.072 0c0-.277-.075-.533-.203-.757l.635-.656a10.406 10.406 0 008.037 3.755c2.053 0 4.101-.597 5.867-1.792l1.557 1.653-.645.645L27.6 30.39l4.021-4-7.547-7.456zm1.104-13.258a.673.673 0 11-.002 1.342.673.673 0 01.002-1.342zM3.275 20.747a.67.67 0 01-.672-.672.673.673 0 11.672.672zm3.237-1.968a9.51 9.51 0 010-13.477 9.575 9.575 0 016.768-2.784c2.453 0 4.901.928 6.768 2.784 3.733 3.717 3.733 9.76 0 13.477s-9.808 3.717-13.536 0zm13.328 1.338c.283-.229.555-.469.816-.731.256-.251.491-.512.715-.784l1.467 1.557-1.525 1.52-1.472-1.563zm7.749 9.078l-6.315-6.261 2.8-2.789 6.315 6.261-2.8 2.789zm-3.514-7.808l-1.232 1.227.608.608.624-.619 2.379 2.368.608-.608-2.987-2.976zm3.114 4.32l.608-.608.635.635-.608.608-.635-.635zM6.411 22.864h.864v.933h-.864v-.933zm0 5.237h.864v.933h-.864v-.933zm7.093-3.434h.864v.933h-.864v-.933zm12.347-7.718h.864v.933h-.864v-.933zm.981-7.44h.864v.933h-.864v-.933zm2.853 3.942h.864v.933h-.864v-.933z"/></symbol><symbol id="icon-advantage_6" viewBox="0 0 32 32"><path opacity=".1" d="M16 26.667c5.891 0 10.667-4.776 10.667-10.667S21.891 5.333 16 5.333 5.333 10.109 5.333 16 10.109 26.667 16 26.667z"/><path fill="url(#gradient)" d="M27.563 1.088a3.262 3.262 0 00-3.259 3.259c0 .56.144 1.093.395 1.552l-5.339 5.339c-.736-.571-1.659-.917-2.661-.917s-1.925.347-2.661.917L9.873 7.073a2.14 2.14 0 00.309-1.099c0-1.2-.976-2.171-2.171-2.171S5.84 4.779 5.84 5.974c0 1.2.976 2.171 2.171 2.171.4 0 .773-.117 1.099-.309l4.165 4.165c-.571.736-.917 1.659-.917 2.661s.347 1.925.917 2.661L6.4 24.198a3.258 3.258 0 00-2.187-.848c-1.797 0-3.259 1.461-3.259 3.259s1.461 3.259 3.259 3.259a3.262 3.262 0 003.259-3.259c0-.56-.144-1.093-.395-1.552l6.965-6.965a4.318 4.318 0 002.117.88v5.515a3.266 3.266 0 00-2.715 3.211c0 1.797 1.461 3.259 3.259 3.259s3.259-1.461 3.259-3.259a3.267 3.267 0 00-2.715-3.211v-5.515a4.333 4.333 0 002.117-.88l4.165 4.165a2.14 2.14 0 00-.309 1.099c0 1.2.976 2.171 2.171 2.171 1.2 0 2.171-.976 2.171-2.171 0-1.2-.976-2.171-2.171-2.171-.4 0-.773.117-1.099.309l-4.165-4.165c.571-.736.917-1.659.917-2.661s-.347-1.925-.917-2.661l5.248-5.248a3.248 3.248 0 002.187.848c1.797 0 3.259-1.461 3.259-3.259s-1.461-3.259-3.259-3.259zM6.928 5.973a1.09 1.09 0 112.178.002 1.09 1.09 0 01-2.178-.002zM4.213 28.779c-1.2 0-2.171-.976-2.171-2.171 0-1.2.976-2.171 2.171-2.171s2.171.976 2.171 2.171a2.17 2.17 0 01-2.171 2.171zm14.662-1.083c0 1.2-.976 2.171-2.171 2.171-1.2 0-2.171-.976-2.171-2.171 0-1.2.976-2.171 2.171-2.171a2.167 2.167 0 012.171 2.171zm-2.171-9.776c-1.797 0-3.259-1.461-3.259-3.259s1.461-3.259 3.259-3.259c1.797 0 3.259 1.461 3.259 3.259s-1.461 3.259-3.259 3.259zm9.776 5.429a1.09 1.09 0 11-2.178-.002 1.09 1.09 0 012.178.002zm1.083-16.832c-1.2 0-2.171-.976-2.171-2.171 0-1.2.976-2.171 2.171-2.171s2.171.976 2.171 2.171a2.17 2.17 0 01-2.171 2.171z"/></symbol><symbol id="icon-comparison" viewBox="0 0 37 32"><path fill="#e8b006" d="M36.028 17.905l-4.577-7.517c.311-.148.562-.394.712-.699a1.492 1.492 0 00-.407-1.823 1.558 1.558 0 00-.945-.343h-.219a17.356 17.356 0 00-8.658-4.357V1.092c0-.289-.117-.567-.326-.771s-.492-.319-.788-.319h-4.19c-.295 0-.579.115-.788.319s-.326.482-.326.771v2.04a17.376 17.376 0 00-8.883 4.459c-.377-.14-.795-.13-1.164.028s-.661.451-.812.817c-.151.366-.15.775.004 1.14s.447.656.817.812L.901 17.905h-.9c.229 1.432.974 2.737 2.099 3.679s2.557 1.46 4.037 1.46 2.912-.518 4.037-1.46a6.053 6.053 0 002.099-3.679h-.924l-4.577-7.517c.21-.091.396-.227.545-.397a1.489 1.489 0 00.342-1.252 1.488 1.488 0 00-.269-.61 16.438 16.438 0 018.133-4.086v1.164c0 .289.117.567.326.771s.492.319.788.319h1.045V26.4l-9.905 5.601h21.754l-9.858-5.573V6.314h1.154c.296 0 .579-.115.788-.319s.326-.482.326-.771v-1.13a16.438 16.438 0 017.758 3.86 1.49 1.49 0 00-.422 1.332c.045.239.148.464.301.655s.351.343.577.443l-4.577 7.517h-.924c.229 1.432.974 2.737 2.099 3.679s2.557 1.46 4.037 1.46 2.912-.518 4.037-1.46 1.869-2.247 2.099-3.679l-.895.006zm-25.771 0h-8.26l4.133-6.782 4.127 6.782zm8.456-12.768c-.398 0-.788-.116-1.119-.332s-.589-.525-.742-.885a1.945 1.945 0 01.436-2.15 2.025 2.025 0 011.031-.54c.391-.076.796-.037 1.164.112s.683.402.904.726a1.945 1.945 0 01-.251 2.491c-.378.37-.89.578-1.424.578zm7.971 12.768l4.133-6.782 4.133 6.782h-8.265z"/></symbol><symbol id="icon-logo" viewBox="0 0 107 32"><path d="M39.101 9.384V0h-8.602l-3.91 3.91h5.865L19.551 16.813 6.648 3.91h15.249L25.807 0H.001v31.281h39.101V14.077l-3.91 3.91v9.384H3.912V6.648l15.64 15.64 15.64-15.64v6.647l3.91-3.91zM83.676 0h-4.379v18.847h4.379V0zM63.5 0l-8.368 18.847h4.458l1.642-4.067h8.759l1.642 4.067h4.614L67.801 0H63.5zm-.861 11.496l2.972-7.195 2.972 7.195H62.64zm43.245 7.351l-4.223-6.022c1.251-.547 2.189-1.329 2.893-2.346s1.017-2.19 1.017-3.597c0-1.408-.313-2.581-1.017-3.597-.626-1.017-1.642-1.799-2.815-2.346-1.251-.547-2.659-.86-4.379-.86h-8.133v18.847h4.379v-5.24h4.067l3.597 5.24h4.614v-.078zm-5.787-9.619c-.704.547-1.642.86-2.972.86h-3.519V3.519h3.519c1.33 0 2.268.313 2.972.86s1.017 1.408 1.017 2.424c0 1.095-.313 1.877-1.017 2.424zm4.771 19.472c.547-.156.938-.469 1.251-.86s.469-.86.469-1.486c0-.782-.234-1.408-.782-1.799-.547-.469-1.251-.626-2.189-.626h-2.659v7.351h.547v-2.424h2.111c.234 0 .469 0 .704-.078l1.72 2.424h.626l-1.799-2.502zm-1.251-.313h-2.111v-3.988h2.111c.782 0 1.408.156 1.799.548.391.313.626.86.626 1.486s-.235 1.095-.626 1.486c-.469.313-1.017.469-1.799.469zM61.779 23.93l-3.284 5.709-3.284-5.709h-.469v7.351h.547v-6.256l3.05 5.318h.234l3.128-5.318v6.256h.469V23.93h-.391zm7.663 0l-3.363 7.351h.547l.939-2.033h4.223l.938 2.033h.547L69.91 23.93h-.469zM67.8 28.778l1.955-4.223 1.955 4.223H67.8zm24.166-1.017h3.91v-.469h-3.91v-2.893h4.379v-.469h-4.927v7.351h5.083v-.469h-4.536v-3.05zM77.733 23.93h-.547v7.351h.547V23.93zm5.552 0h-.469v7.351h4.692v-.469h-4.223V23.93z"/></symbol><symbol id="icon-next"><path d="M8 9l-8 8 1 1 9-9-9-9-1 1 8 8z"/></symbol><symbol id="icon-play" viewBox="0 0 32 32"><path fill="url(#gradient)" opacity=".4" d="M16 32c8.837 0 16-7.163 16-16S24.837 0 16 0 0 7.163 0 16s7.163 16 16 16z"/><path fill="#fff" d="M12.8 10.667v10.667l9.24-5.333-9.24-5.333z"/></symbol><linearGradient id="gradient" gradientTransform="rotate(45)"><stop offset="14.64%" stop-color="#473cc2"/><stop offset="85.36%" stop-color="#d045ae"/></linearGradient></defs></svg>