<svg xmlns="http://www.w3.org/2000/svg" viewBox="0 0 40 40"><defs><radialGradient id="radial-gradient" cx="20" cy="20" r="20" gradientUnits="userSpaceOnUse"><stop offset="0" stop-color="#d045ae"/><stop offset="1" stop-color="#473cc2"/></radialGradient><linearGradient id="linear-gradient" x1="20.54" y1="21.85" x2="38.38" y2="21.85" gradientUnits="userSpaceOnUse"><stop offset="0" stop-color="#473cc2"/><stop offset="1" stop-color="#d045ae"/></linearGradient><style>.cls-1{fill:#fff}</style></defs><g id="Слой_2" data-name="Слой 2"><g id="Layer_1" data-name="Layer 1"><circle class="cls-1" cx="20" cy="20" r="20"/><path d="M20 1A19 19 0 111 20 19 19 0 0120 1m0-1a20 20 0 1020 20A20 20 0 0020 0zm0 7A13 13 0 117 20 13 13 0 0120 7m0-3a16 16 0 1016 16A16 16 0 0020 4zm0 9a7 7 0 11-7 7 7 7 0 017-7m0-3a10 10 0 1010 10 10 10 0 00-10-10zm0 6a4 4 0 104 4 4 4 0 00-4-4z" fill="url(#radial-gradient)"/><path class="cls-1" d="M31.22 31.37a.51.51 0 01-.35-.15l-10.8-10.81a.48.48 0 010-.7l7.23-7.24a.52.52 0 01.71 0l10.8 10.81a.48.48 0 010 .7l-7.23 7.24a.53.53 0 01-.36.15z"/><path class="cls-1" d="M27.65 12.83l10.81 10.8-7.24 7.24-10.8-10.81 7.23-7.23m0-1a1 1 0 00-.7.29l-7.24 7.23a1 1 0 000 1.42l10.81 10.8a1 1 0 001.41 0l7.24-7.23a1 1 0 000-1.42l-10.81-10.8a1 1 0 00-.71-.29z"/><path d="M38.3 23.87L27.91 13.06h-.31a.09.09 0 010 .05h-.11l-6.77 6.76v.05L31 30.66h.21l6.78-6.78zm-10.94-9.76l.39 5.42-6 .16zm4.31 8.74l-3-.21-.2-2.76-.4-5.66 9 9zm-3.88-2.6L28 23a.4.4 0 00.1.23.44.44 0 00.22.1l3 .21-.32 6.08-9.28-9.22zM32 23.59l5.25.36-5.56 5.57z" fill="url(#linear-gradient)"/></g></g></svg>