<?xml version="1.0" standalone="no"?>
<!DOCTYPE svg PUBLIC "-//W3C//DTD SVG 20010904//EN"
 "http://www.w3.org/TR/2001/REC-SVG-20010904/DTD/svg10.dtd">
<svg version="1.0" xmlns="http://www.w3.org/2000/svg"
 width="260.000000pt" height="260.000000pt" viewBox="0 0 260.000000 260.000000"
 preserveAspectRatio="xMidYMid meet">
<metadata>
Created by potrace 1.11, written by Peter Selinger 2001-2013
</metadata>
<g transform="translate(0.000000,260.000000) scale(0.100000,-0.100000)"
fill="#000000" stroke="none">
<path d="M0 1305 c0 -821 3 -1035 13 -1035 80 -3 2580 0 2583 3 2 2 3 257 2
566 l-3 561 -127 -126 -128 -126 0 -312 0 -311 -1040 0 -1040 0 0 687 0 687
517 -515 c285 -283 520 -514 523 -514 3 0 239 231 523 514 l517 515 0 -220 0
-219 130 128 130 129 0 311 0 312 -286 0 -285 0 -132 -130 -132 -129 189 0
c103 0 190 -1 192 -3 2 -2 -188 -195 -421 -428 l-425 -425 -425 425 c-233 233
-423 426 -421 427 2 2 228 4 503 4 l500 1 129 129 129 129 -858 0 -857 0 0
-1035z"/>
</g>
</svg>
