<svg width="20" height="20" fill="none" xmlns="http://www.w3.org/2000/svg"><path fill-rule="evenodd" clip-rule="evenodd" d="M3.5 1C2.676 1 2 1.676 2 2.5v12c0 .464.128.867.306 1.139.183.28.372.361.494.361h1.3v1H2.8c-.578 0-1.04-.368-1.33-.814-.298-.453-.47-1.05-.47-1.686v-12C1 1.124 2.124 0 3.5 0h8c.636 0 1.233.172 1.687.47.445.29.813.752.813 1.33v1.3h-1V1.8c0-.122-.082-.31-.361-.494C12.367 1.128 11.963 1 11.5 1h-8zm12.6 4c.6 0 1 .4 1 1v12c0 .6-.4 1-1 1h-9c-.6 0-1-.4-1-1V6c0-.6.4-1 1-1h9zm0-1h-9c-1.1 0-2 .9-2 2v12c0 1.1.9 2 2 2h9c1.1 0 2-.9 2-2V6c0-1.1-.9-2-2-2zm-8 4h7v1h-7V8zm7 3h-7v1h7v-1zm-7 3h7v1h-7v-1z" fill="#0098C7"/></svg>