<svg xmlns="http://www.w3.org/2000/svg" viewBox="0 0 105.76 28.44"><defs><linearGradient id="linear-gradient" y1="14.22" x2="35.55" y2="14.22" gradientUnits="userSpaceOnUse"><stop offset="0" stop-color="#473cc2"/><stop offset="1" stop-color="#d045ae"/></linearGradient><style>.cls-1{fill:#fff}</style></defs><g id="Слой_2" data-name="Слой 2"><g id="Layer_1" data-name="Layer 1"><path class="cls-1" d="M92 20.13a1.84 1.84 0 00.39-1.22 1.7 1.7 0 00-.64-1.48 2.65 2.65 0 00-1.8-.51h-2.22v6h.45V21h1.74a1.68 1.68 0 00.58-.07l1.41 2h.51L91 20.84a2 2 0 001-.71zm-2 .45h-1.82V17.3h1.74a2.07 2.07 0 011.48.45 1.56 1.56 0 01.51 1.25 1.67 1.67 0 01-.51 1.22 2.6 2.6 0 01-1.48.36z"/><path d="M35.55 0v8.53L32 12.09V6L20.26 17.77l-2.49 2.49-2.48-2.49-5-5-1.05-1.04L3.55 6v18.88H32v-8.53l3.56-3.55v15.64H0V0h23.46l-3.55 3.55H6l5.69 5.69 1.07 1.07 5 5L29.5 3.55h-5.33L27.73 0z" fill-rule="evenodd" fill="url(#linear-gradient)"/><path class="cls-1" d="M52.85 21.61l-2.7-4.69h-.38v6.04h.45v-5.14l2.5 4.37h.19l2.57-4.37v5.14h.39v-6.04h-.32l-2.7 4.69zm8.99-4.69l-2.76 6h.45l.77-1.67h3.47l.77 1.75H65l-2.76-6zm-1.34 4l1.6-3.47 1.61 3.47zm19.85-.85h3.21v-.39h-3.21V17.3h3.59v-.38H79.9v6.04h4.17v-.39h-3.72v-2.5zM68.2 16.92h.45v6.04h-.45zm5.02 0h-.39v6.04h3.85v-.39h-3.46v-5.65zm-18.41-5.67a2 2 0 01-1.3.41 2 2 0 01-1.63-.66 2.94 2.94 0 01-.58-2V7.65a3 3 0 01.58-1.94A2 2 0 0153.51 5a1.89 1.89 0 011.25.39 2.09 2.09 0 01.72 1l1.22-.67a3.43 3.43 0 00-1.25-1.51 3.46 3.46 0 00-1.94-.51 3.76 3.76 0 00-1.57.3 2.94 2.94 0 00-1.18.88A4 4 0 0050 6.35a6.6 6.6 0 00-.26 2 5.19 5.19 0 001 3.44 3.8 3.8 0 004.72.63 3.55 3.55 0 001.25-1.52l-1.16-.71a2.4 2.4 0 01-.74 1.06zm8.95-3.62h-4.05V3.87h-1.44v8.93h1.44V8.91h4.05v3.89h1.44V3.87h-1.44v3.76zm9.36 3.89h-4.27V8.91h3.88V7.63h-3.88V5.14h4.27V3.87H67.4v8.93h5.72v-1.28zm8.45-.64l-1.17-.71a2.45 2.45 0 01-.75 1.08 2 2 0 01-1.31.41 2 2 0 01-1.62-.66 2.88 2.88 0 01-.59-2V7.65a2.9 2.9 0 01.59-1.94A2 2 0 0178.34 5a1.94 1.94 0 011.26.39 2.14 2.14 0 01.71 1l1.22-.67a3.41 3.41 0 00-1.24-1.51 3.49 3.49 0 00-2-.51 3.79 3.79 0 00-1.52.3 3 3 0 00-1.18.88 4.13 4.13 0 00-.74 1.45 6.94 6.94 0 00-.26 2 5.19 5.19 0 001 3.44 3.8 3.8 0 004.72.63 3.64 3.64 0 001.26-1.52zm8.66 1.92l-3.45-5.17 3.19-3.76h-1.69l-2.4 2.9-1.28 1.62h-.05V3.87H83.1v8.93h1.45v-2.77l1.22-1.4 2.72 4.17h1.74zm1.32 0h5.72v-1.28h-4.28V8.91h3.88V7.63h-3.88V5.14h4.28V3.87h-5.72v8.93zm13.57-4.65a2.7 2.7 0 00.45-1.6 2.71 2.71 0 00-.69-2 2.5 2.5 0 00-1.88-.69h-3.87v8.94h1.45V9.19h1.78l1.79 3.61h1.61L103.83 9a2.3 2.3 0 001.29-.85zM102.88 8h-2.3V5.13h2.3a1.17 1.17 0 01.86.3 1.05 1.05 0 01.31.81v.62a1.1 1.1 0 01-.31.83 1.2 1.2 0 01-.86.31z"/></g></g></svg>