<svg xmlns="http://www.w3.org/2000/svg" viewBox="0 0 94.16 28.44"><defs><linearGradient id="a" y1="14.22" x2="35.55" y2="14.22" gradientUnits="userSpaceOnUse"><stop offset="0" stop-color="#473cc2"/><stop offset="1" stop-color="#d045ae"/></linearGradient></defs><g data-name="Слой 2"><g data-name="Layer 1"><path d="M35.55 0v8.53L32 12.09V6L20.26 17.77l-2.49 2.49-2.48-2.49-5-5-1.05-1.04L3.55 6v18.88H32v-8.53l3.56-3.55v15.64H0V0h23.46l-3.55 3.55H6l5.69 5.69 1.07 1.07 5 5L29.5 3.55h-5.33L27.73 0z" fill-rule="evenodd" fill="url(#a)"/><path d="M92 20.14a1.84 1.84 0 00.39-1.22 1.69 1.69 0 00-.64-1.48 2.59 2.59 0 00-1.8-.51h-2.22v6h.45V21h1.74a1.94 1.94 0 00.58-.06l1.41 2h.51L91 20.84a1.88 1.88 0 001-.7zm-2 .45h-1.82v-3.28h1.74a2.07 2.07 0 011.48.45 1.56 1.56 0 01.51 1.24 1.63 1.63 0 01-.51 1.22 2.52 2.52 0 01-1.48.37zm-37.15 1.02l-2.7-4.68h-.38v6.03h.45v-5.14l2.5 4.37h.19l2.57-4.37v5.14h.39v-6.03h-.32l-2.7 4.68zm8.99-4.68l-2.76 6h.45l.77-1.67h3.47l.77 1.74H65l-2.76-6zm-1.34 4l1.6-3.47 1.61 3.47zm19.85-.86h3.21v-.38h-3.21v-2.38h3.59v-.38H79.9v6.03h4.17v-.38h-3.72v-2.51zM68.2 16.93h.45v6.04h-.45zm5.02 0h-.39v6.03h3.85v-.38h-3.46v-5.65zM49.36 5.14h2.66v7.66h1.45V5.14h2.66V3.87h-6.77v1.27zm13.9 6.38h-4.27V8.91h3.88V7.63h-3.88V5.14h4.27V3.87h-5.72v8.93h5.72v-1.28zm5.2-3.91l-.8-.16A2.65 2.65 0 0166.59 7a1 1 0 01-.35-.85 1 1 0 01.42-.89A2 2 0 0167.85 5a2.43 2.43 0 012.09 1l1-.9a3.45 3.45 0 00-1.27-1 4 4 0 00-1.75-.36 4.28 4.28 0 00-1.29.18 3 3 0 00-1 .51 2.28 2.28 0 00-.62.81 2.42 2.42 0 00-.22 1.06 2.22 2.22 0 00.67 1.7 3.84 3.84 0 002 .86l.79.14a2.06 2.06 0 011.09.46 1.13 1.13 0 01.31.83 1.32 1.32 0 01-.44 1 1.93 1.93 0 01-1.29.38 2.93 2.93 0 01-1.31-.29 3.47 3.47 0 01-1-.87l-1 .93A3.91 3.91 0 0067.8 13a4.45 4.45 0 001.37-.19 3.16 3.16 0 001-.56 2.44 2.44 0 00.64-.89 2.79 2.79 0 00.19-1.19 2.26 2.26 0 00-.63-1.69 3.77 3.77 0 00-1.91-.87zm3.31-2.47h2.66v7.66h1.45V5.14h2.66V3.87h-6.77v1.27zm8.18 7.66h5.72v-1.28H81.4V8.91h3.87V7.63H81.4V5.14h4.27V3.87h-5.72v8.93zM92.23 9a2.3 2.3 0 001.29-.88A2.7 2.7 0 0094 6.55a2.71 2.71 0 00-.69-2 2.5 2.5 0 00-1.89-.73h-3.88v8.98H89V9.19h1.78l1.79 3.61h1.61zm-.94-1H89V5.13h2.31a1.16 1.16 0 01.85.3 1 1 0 01.31.82v.61a1.08 1.08 0 01-.31.83 1.19 1.19 0 01-.87.31z" fill="#fff"/></g></g></svg>