<svg xmlns="http://www.w3.org/2000/svg" viewBox="0 0 109.12 32"><defs><linearGradient id="a" y1="16" x2="40" y2="16" gradientUnits="userSpaceOnUse"><stop offset="0" stop-color="#473cc2"/><stop offset="1" stop-color="#d045ae"/></linearGradient></defs><g data-name="Слой 2"><g data-name="Layer 1"><path d="M40 9.6V0h-8.8l-4 4h6L20 17.2l-5.6-5.6-1.2-1.2L6.8 4h15.6l4-4H0v32h40V14.4l-4 4V28H4V6.8l6.4 6.4 1.2 1.2 5.6 5.6 2.8 2.8 2.8-2.8L36 6.8v6.8z" fill="url(#a)"/><path d="M85.6 19.28h-4.48V0h4.48zM69.36 0L78 19.28h-4.72l-1.68-4.16h-9L61 19.28h-4.6L65 0zm.8 11.76l-3-7.36-3 7.36zm38.16 7.6h-4.72L99.92 14h-4.16v5.36h-4.48V.08h8.32a10.91 10.91 0 014.48.88 6.57 6.57 0 012.92 2.4A6.22 6.22 0 01108 7a6.22 6.22 0 01-1 3.68 6.8 6.8 0 01-3 2.4l4.32 6.16zM103.44 7a3 3 0 00-1-2.48 4.75 4.75 0 00-3-.88h-3.6v6.72h3.6a4.75 4.75 0 003-.88 2.89 2.89 0 001-2.48zm5.68 25h-.64l-1.76-2.48a2.21 2.21 0 01-.72.08h-2.16V32h-.56v-7.52H106a3.25 3.25 0 012.24.64A2.11 2.11 0 01109 27a2.31 2.31 0 01-.48 1.52 2.47 2.47 0 01-1.28.88zm-1.28-3.36a2 2 0 00.64-1.52 1.93 1.93 0 00-.64-1.52A2.54 2.54 0 00106 25h-2.16v4H106a3.14 3.14 0 001.84-.44zM63.2 24.48l-3.36 5.84-3.36-5.84H56V32h.56v-6.4l3.12 5.4h.24l3.2-5.44V32h.48v-7.52zm8.32 0L75 32h-.6l-1-2.08h-4.28l-1 2.08h-.52l3.4-7.52zm1.84 5l-2-4.32-2 4.32zm20.72-1h4V28h-4v-3h4.48v-.48h-5V32h5.2v-.48h-4.68zm-14.56-4H79V32h.56zm5.68 0h-.48V32h4.8v-.48H85.2z" fill="#fff"/></g></g></svg>