<svg width="156" height="40" fill="none" xmlns="http://www.w3.org/2000/svg"><path d="M50 12V0H39l-5 5h7.5L25 21.5l-7-7-1.5-1.5-8-8H28l5-5H0v40h50V18l-5 5v12H5V8.5l8 8 1.5 1.5 7 7 3.5 3.5 3.5-3.5L45 8.5V17l5-5z" fill="url(#paint0_linear)"/><path d="M72.08 19.288c-1.408 0-2.608-.256-3.6-.768a8.037 8.037 0 01-2.52-2.064l1.872-1.752c.592.72 1.24 1.264 1.944 1.632.72.368 1.536.552 2.448.552 1.072 0 1.88-.24 2.424-.72s.816-1.128.816-1.944c0-.656-.192-1.176-.576-1.56-.384-.384-1.064-.672-2.04-.864l-1.488-.264c-1.632-.304-2.856-.84-3.672-1.608-.816-.768-1.224-1.824-1.224-3.168 0-.736.136-1.4.408-1.992a4.244 4.244 0 011.176-1.512c.512-.416 1.128-.736 1.848-.96.72-.224 1.528-.336 2.424-.336 1.264 0 2.36.224 3.288.672a6.476 6.476 0 012.376 1.896l-1.896 1.68a4.931 4.931 0 00-1.584-1.344c-.624-.336-1.4-.504-2.328-.504-.96 0-1.704.192-2.232.576-.528.384-.792.944-.792 1.68 0 .704.216 1.232.648 1.584.432.336 1.104.592 2.016.768l1.488.312c1.68.32 2.904.864 3.672 1.632.784.768 1.176 1.824 1.176 3.168 0 .784-.136 1.496-.408 2.136a4.547 4.547 0 01-1.2 1.656c-.512.448-1.144.8-1.896 1.056-.752.24-1.608.36-2.568.36zM81.408 19V2.248h7.2c1.552 0 2.752.456 3.6 1.368.848.912 1.272 2.136 1.272 3.672s-.424 2.76-1.272 3.672c-.848.912-2.048 1.368-3.6 1.368H84.12V19h-2.712zm2.712-9.048h4.32c.688 0 1.224-.176 1.608-.528.384-.368.576-.888.576-1.56V6.712c0-.672-.192-1.184-.576-1.536-.384-.368-.92-.552-1.608-.552h-4.32v5.328zM105.559 19l-1.512-4.536h-6.264L96.32 19h-2.76l5.712-16.752h3.408L108.391 19h-2.832zm-4.584-14.256h-.12l-2.424 7.392h4.944l-2.4-7.392zm22.827 1.44h-.12l-1.32 2.712-3.672 6.696-3.672-6.696-1.32-2.712h-.12V19h-2.592V2.248h3.216l4.488 8.52h.144l4.488-8.52h3.072V19h-2.592V6.184z" fill="#000"/><path d="M66.386 37v-9.772h.84v9.03h4.312V37h-5.152zm10.307 0v-9.772h5.712v.742h-4.872v3.696h4.634v.742h-4.634v3.85h4.872V37h-5.712zm17.587 0l-1.064-3.038h-4.158L87.994 37h-.84l3.458-9.772h1.078L95.162 37h-.882zm-3.122-8.974h-.056l-1.834 5.208h3.724l-1.834-5.208zM101.182 37h-.84v-9.772h3.836c.84 0 1.484.238 1.932.714.458.476.686 1.143.686 2.002 0 .756-.186 1.367-.56 1.834-.364.467-.896.747-1.596.84L107.048 37h-.938l-2.338-4.326h-2.59V37zm2.996-5.04c.56 0 .985-.154 1.274-.462.299-.317.448-.719.448-1.204v-.672c0-.476-.149-.868-.448-1.176-.289-.317-.714-.476-1.274-.476h-2.996v3.99h2.996zm9.349-3.584h-.042V37h-.812v-9.772h1.05l5.138 8.624h.042v-8.624h.812V37h-1.05l-5.138-8.624zM125.415 37v-.7h1.428v-8.372h-1.428v-.7h3.696v.7h-1.428V36.3h1.428v.7h-3.696zm10.243-8.624h-.042V37h-.812v-9.772h1.05l5.138 8.624h.042v-8.624h.812V37h-1.05l-5.138-8.624zm18.749 7.126h-.042c-.178.504-.514.91-1.008 1.218-.486.299-1.106.448-1.862.448a4.007 4.007 0 01-1.638-.322 3.284 3.284 0 01-1.246-.966c-.336-.43-.598-.957-.784-1.582-.187-.625-.28-1.353-.28-2.184 0-.821.093-1.545.28-2.17.186-.635.452-1.162.798-1.582a3.26 3.26 0 011.26-.966 3.992 3.992 0 011.666-.336c.84 0 1.544.191 2.114.574a3.724 3.724 0 011.302 1.512l-.686.406a2.922 2.922 0 00-1.064-1.274c-.467-.308-1.022-.462-1.666-.462a3.17 3.17 0 00-1.288.252 2.68 2.68 0 00-.98.728 3.375 3.375 0 00-.63 1.162c-.14.457-.21.975-.21 1.554v1.19c0 1.176.28 2.09.84 2.744.569.644 1.348.966 2.338.966.373 0 .723-.047 1.05-.14.336-.103.63-.252.882-.448a2 2 0 00.588-.742c.149-.299.224-.649.224-1.05v-1.176h-2.282v-.728h3.108V37h-.784v-1.498z" opacity=".6" fill="#000"/><defs><linearGradient id="paint0_linear" x1="50" y1="0" x2="-6.311" y2="18.724" gradientUnits="userSpaceOnUse"><stop stop-color="#D045AE"/><stop offset="1" stop-color="#473CC2"/></linearGradient></defs></svg>