<svg xmlns="http://www.w3.org/2000/svg" viewBox="0 0 40 40"><g data-name="Слой 2"><g data-name="Layer 1"><rect width="40" height="40" rx="4" fill="#34ace0"/><path d="M31.51 12.59v.13c-.24 1.23-.47 2.48-.71 3.71-.8 3.88-1.56 7.76-2.43 11.57-.13.59-.28 1.17-.38 1.77a1.32 1.32 0 01-2.1.67l-4.95-3.8a.48.48 0 00-.23-.13c0-.1-.11-.14-.18-.19l-2.8-2.15c-.24-.18-.25-.21 0-.42l1.51-1.37 2.34-2.1L25 17.26l2-1.83a7.37 7.37 0 00.57-.54.28.28 0 000-.37.27.27 0 00-.36-.07 2.39 2.39 0 00-.22.12l-2.15 1.37L16.93 21c-.84.53-1.65 1.08-2.51 1.57-.61-.23-1.24-.4-1.85-.62-1.08-.39-2.17-.73-3.26-1.1a2 2 0 01-.7-.39.72.72 0 01-.09-1.05A1.18 1.18 0 019 19.1c1.49-.66 3-1.32 4.48-1.94 1.23-.5 2.46-1 3.7-1.51.88-.36 1.77-.7 2.65-1 .05 0 .11 0 .13-.06a.13.13 0 00.13 0h.05a3.07 3.07 0 00.72-.31 2.06 2.06 0 00.63-.22h.09a7.19 7.19 0 001.1-.39c.81-.29 1.6-.61 2.41-.91l2.65-1 1.26-.57a13.45 13.45 0 011.66-.55c.54-.13 1.17.1 1 .94-.05.29-.07.58-.11.87a.14.14 0 00-.04.14z" fill="#fdfefe"/><path d="M14.42 22.57c.86-.49 1.67-1 2.51-1.57l7.94-5.06L27 14.57a2.39 2.39 0 01.22-.12.27.27 0 01.36.07.28.28 0 010 .37 7.37 7.37 0 01-.57.54l-2 1.83-3.41 3.06-2.34 2.1-1.51 1.37c-.23.21-.22.24 0 .42l2.8 2.15c.07.05.16.09.18.19s-.09.13-.15.18l-2.13 2c-.29.27-.57.55-.87.81a.56.56 0 01-1-.14 4 4 0 01-.29-.63c-.19-.66-.38-1.31-.58-2-.42-1.37-.86-2.77-1.29-4.2z" fill="#cadfed"/></g></g></svg>