<svg width="24" height="22" fill="none" xmlns="http://www.w3.org/2000/svg"><g clip-path="url(#clip0)"><path d="M23.566.79C23.277.645 22.988.5 22.554.5h-.433c-.579.145-1.157.29-1.735.58-.434.144-.723.289-1.157.434-.868.29-1.735.58-2.602 1.014-.723.29-1.446.579-2.314.869-.434.144-.723.29-.867.29H13.3l-.144.144c-.145 0-.29.145-.434.145h-.145l-.144.145s-.145.145-.434.145l-.29.144h-.288c-.723.435-1.59.724-2.458 1.014-1.157.435-2.458 1.014-3.615 1.448-1.445.58-2.891 1.304-4.337 1.883-.29.145-.434.29-.723.58-.144.29-.289.579-.289.868 0 .435.145.87.578 1.16.29.289.579.434.868.434 1.012.434 2.168.724 3.18 1.013.579.29 1.157.435 1.735.724l.29.145.144-.145c.29 1.16.723 2.318 1.012 3.476.145.58.434 1.304.579 1.883.144.145.289.435.289.58.289.434.578.434.867.144.29-.29.579-.58.868-.724.578-.58 1.156-1.014 1.735-1.593l.289.145c1.59 1.158 3.18 2.462 4.77 3.62.29.29.868.435 1.302.435.434 0 .723-.145 1.157-.29.289-.29.578-.579.723-1.013.144-.58.289-1.014.433-1.738.868-3.91 1.59-7.676 2.314-11.442.289-1.158.433-2.462.722-3.62v-.29c0-.29 0-.58.145-.724v-.435c0-.434-.145-.869-.434-1.158zm-4.192 17.234c-.145.58-.29 1.014-.29 1.593-.144.145-.144.29-.289.29l-.289.145-.434-.145c-1.59-1.159-3.18-2.462-4.77-3.62l-.145-.146-.145-.144c-.723-.58-1.59-1.16-2.313-1.738.289-.435.723-.725 1.012-1.014.723-.724 1.446-1.304 2.313-2.028 1.157-1.014 2.169-2.027 3.325-2.896.723-.58 1.302-1.159 2.024-1.738.145-.145.434-.29.579-.58l.144-.144v-.87l-.144-.289a.795.795 0 00-.723-.434c-.145 0-.29 0-.434.144l-.289.145c-.723.435-1.446.87-2.024 1.304-2.747 1.593-5.205 3.186-7.807 4.779-.723.58-1.446 1.014-2.169 1.448a18.138 18.138 0 01-1.446-.434c-1.012-.435-2.168-.87-3.18-1.159-.145-.145-.29-.145-.434-.29l.144-.144c1.446-.58 2.892-1.304 4.338-1.883C7.084 7.74 8.24 7.162 9.542 6.728c.868-.29 1.735-.725 2.603-1.014h.289c.144 0 .434-.145.723-.29.289 0 .433-.145.578-.29.434-.144.723-.29 1.012-.29.867-.289 1.59-.578 2.313-.868.868-.29 1.735-.58 2.603-1.014.433-.145.723-.29 1.156-.434.579-.145 1.012-.435 1.59-.435h.145v.145c0 .29-.144.58-.144.869v.29c-.29 1.158-.434 2.462-.723 3.62-.723 3.476-1.446 7.242-2.314 11.007z" fill="#0098C7"/></g><defs><clipPath id="clip0"><path fill="#fff" d="M0 .5h24v21H0z"/></clipPath></defs></svg>