<svg xmlns="http://www.w3.org/2000/svg" viewBox="0 0 94.16 28.44"><defs><linearGradient id="a" y1="14.22" x2="35.55" y2="14.22" gradientUnits="userSpaceOnUse"><stop offset="0" stop-color="#473cc2"/><stop offset="1" stop-color="#d045ae"/></linearGradient></defs><g data-name="Слой 2"><g data-name="Layer 1"><path d="M35.55 0v8.54L32 12h-.05V6.1L20.26 17.77l-2.47 2.47-2.47-2.47-5-5-1.08-1.04L3.6 6.09h-.05v18.77H32v-8.5l3.5-3.5v15.55H0V0h23.4l-3.49 3.55H6.1v.05l5.64 5.64 1.07 1.07 5 5L29.46 3.6v-.05h-5.23L27.72 0h7.83z" fill-rule="evenodd" fill="url(#a)"/><path d="M92 20.14a1.84 1.84 0 00.39-1.22 1.69 1.69 0 00-.64-1.48 2.59 2.59 0 00-1.8-.51h-2.19v6h.45V21h1.71a1.94 1.94 0 00.58-.06l1.41 2h.51L91 20.84a1.88 1.88 0 001-.7zm-2 .45h-1.79v-3.25h1.71a2.07 2.07 0 011.48.45 1.56 1.56 0 01.51 1.21 1.63 1.63 0 01-.51 1.22 2.52 2.52 0 01-1.48.37zm-37.13.99l-2.68-4.65h-.38v6h.45v-5l2.46 4.28h.19l2.53-4.29v5h.39v-6h-.32zm8.97-4.65l-2.76 6h.45l.77-1.65h3.44l.8 1.72H65l-2.76-6zm-1.33 3.94l1.57-3.38 1.57 3.38h-3.14zm19.84-.77h3.19v-.38h-3.17v-2.38h3.57v-.38h-4v6h4.15v-.38h-3.7zM68.2 16.93h.45v6.04h-.45zm5.02 0h-.39v6h3.83v-.38h-3.42zM49.36 5.14H52v7.6h1.4V5.17h2.63V3.86h-6.67zm13.9 6.38H59V8.93h3.86v-1.3H59V5.17h4.25V3.86h-5.68v8.88h5.69zm5.2-3.91l-.8-.16A2.65 2.65 0 0166.59 7a1 1 0 01-.35-.85 1 1 0 01.42-.89A2 2 0 0167.85 5a2.43 2.43 0 012.09 1l1-.9a3.45 3.45 0 00-1.27-1 4 4 0 00-1.75-.36 4.28 4.28 0 00-1.29.18 3 3 0 00-1 .51 2.28 2.28 0 00-.62.81 2.42 2.42 0 00-.22 1.06 2.22 2.22 0 00.67 1.7 3.84 3.84 0 002 .86l.79.14a2.06 2.06 0 011.09.46 1.13 1.13 0 01.31.83 1.32 1.32 0 01-.44 1 1.93 1.93 0 01-1.29.38 2.93 2.93 0 01-1.31-.29 3.47 3.47 0 01-1-.87l-1 .93A3.91 3.91 0 0067.8 13a4.45 4.45 0 001.37-.19 3.16 3.16 0 001-.56 2.44 2.44 0 00.64-.89 2.79 2.79 0 00.19-1.19 2.26 2.26 0 00-.63-1.69 3.77 3.77 0 00-1.91-.87zm3.31-2.47h2.64v7.6h1.39V5.17h2.64V3.86h-6.67zM80 12.77h5.7v-1.25h-4.28V8.93h3.85v-1.3h-3.85V5.17h4.25V3.86H80zm12.25-3.71a2.32 2.32 0 001.26-.88A2.7 2.7 0 0094 6.55a2.71 2.71 0 00-.69-2 2.5 2.5 0 00-1.89-.73h-3.86v8.88H89V9.21h1.76l1.78 3.58h1.59zM91.29 8H89V5.16h2.28a1.16 1.16 0 01.85.3 1 1 0 01.31.82v.61a1.08 1.08 0 01-.31.83 1.19 1.19 0 01-.84.28z" fill="#fff"/></g></g></svg>