<svg xmlns="http://www.w3.org/2000/svg" viewBox="0 0 64.84 45.39"><defs><linearGradient id="a" x1="8.32" y1="46.8" x2="56.53" y2="-1.41" gradientUnits="userSpaceOnUse"><stop offset="0" stop-color="#473cc2"/><stop offset="1" stop-color="#d045ae"/></linearGradient></defs><g data-name="Слой 2"><g data-name="Layer 1"><path d="M63.49 7.09a8.14 8.14 0 00-5.73-5.74C52.7 0 32.42 0 32.42 0S12.14 0 7.09 1.35a8.15 8.15 0 00-5.74 5.74C0 12.14 0 22.7 0 22.7s0 10.55 1.35 15.6A8.15 8.15 0 007.09 44c5.05 1.35 25.33 1.35 25.33 1.35s20.28 0 25.34-1.35a8.14 8.14 0 005.73-5.74c1.35-5 1.35-15.6 1.35-15.6s0-10.52-1.35-15.57z" fill="url(#a)"/><path fill="#fff" d="M25.94 32.42l16.84-9.72-16.84-9.73v19.45z"/></g></g></svg>