<svg width="137" height="40" viewBox="0 0 137 40" fill="none" xmlns="http://www.w3.org/2000/svg">
<path d="M50 12V0H39L34 5H41.5L25 21.5L18 14.5L16.5 13L8.5 5H28L33 0H3.5H0V3.5V40H50V18L45 23V35H5V8.5L13 16.5L14.5 18L21.5 25L25 28.5L28.5 25L45 8.5V17L50 12Z" fill="url(#paint0_linear)"/>
<path d="M107 0H101.4V24.1H107V0Z" fill="#1B1F26"/>
<path d="M81.2 0L70.5 24.1H76.2L78.3 18.9H89.5L91.6 24.1H97.5L86.7 0H81.2ZM80.1 14.7L83.9 5.5L87.7 14.7H80.1Z" fill="#1B1F26"/>
<path d="M135.4 24.1001L130 16.4001C131.6 15.7001 132.8 14.7001 133.7 13.4001C134.6 12.1001 135 10.6001 135 8.8001C135 7.0001 134.6 5.5001 133.7 4.2001C132.9 2.9001 131.6 1.9001 130.1 1.2001C128.5 0.500098 126.7 0.100098 124.5 0.100098H114.1V24.2001H119.7V17.5001H124.6H124.9L129.5 24.2001H135.4V24.1001ZM128 11.8001C127.1 12.5001 125.9 12.9001 124.2 12.9001H119.7V4.5001H124.2C125.9 4.5001 127.1 4.9001 128 5.6001C128.9 6.3001 129.3 7.4001 129.3 8.7001C129.3 10.1001 128.9 11.1001 128 11.8001Z" fill="#1B1F26"/>
<path d="M134.1 36.7001C134.8 36.5001 135.3 36.1001 135.7 35.6001C136.1 35.1001 136.3 34.5001 136.3 33.7001C136.3 32.7001 136 31.9001 135.3 31.4001C134.6 30.8001 133.7 30.6001 132.5 30.6001H129.1V40.0001H129.8V36.9001H132.5C132.8 36.9001 133.1 36.9001 133.4 36.8001L135.6 39.9001H136.4L134.1 36.7001ZM132.5 36.3001H129.8V31.2001H132.5C133.5 31.2001 134.3 31.4001 134.8 31.9001C135.3 32.3001 135.6 33.0001 135.6 33.8001C135.6 34.6001 135.3 35.2001 134.8 35.7001C134.2 36.1001 133.5 36.3001 132.5 36.3001Z" fill="#1B1F26"/>
<path d="M79 30.6001L74.8 37.9001L70.6 30.6001H70V40.0001H70.7V32.0001L74.6 38.8001H74.9L78.9 32.0001V40.0001H79.5V30.6001H79Z" fill="#1B1F26"/>
<path d="M88.8 30.6001L84.5 40.0001H85.2L86.4 37.4001H91.8L93 40.0001H93.7L89.4 30.6001H88.8ZM86.7 36.8001L89.2 31.4001L91.7 36.8001H86.7Z" fill="#1B1F26"/>
<path d="M117.6 35.5001H122.6V34.9001H117.6V31.2001H123.2V30.6001H116.9V40.0001H123.4V39.4001H117.6V35.5001Z" fill="#1B1F26"/>
<path d="M99.3999 30.6001H98.7V40.0001H99.3999V30.6001Z" fill="#1B1F26"/>
<path d="M106.5 30.6001H105.9V40.0001H111.9V39.4001H106.5V30.6001Z" fill="#1B1F26"/>
<defs>
<linearGradient id="paint0_linear" x1="50" y1="4.76837e-06" x2="-6.31096" y2="18.7241" gradientUnits="userSpaceOnUse">
<stop stop-color="#D045AE"/>
<stop offset="1" stop-color="#473CC2"/>
</linearGradient>
</defs>
</svg>
