<svg width="188" height="36" viewBox="0 0 188 36" fill="none" xmlns="http://www.w3.org/2000/svg">
<path d="M21.9596 31.95L19.7051 24.48H9.1987L6.94412 31.95H0L10.3711 0.540001H18.8483L29.0841 31.95H21.9596ZM14.5195 6.75H14.2941L10.822 18.675H18.0367L14.5195 6.75Z" fill="#00177C"/>
<path d="M54.9474 11.34H54.8121L52.5124 15.93L46.3799 27.045L40.3828 15.975L37.9929 11.025H37.8576V31.95H31.4095V0.540001H38.6693L46.3799 15.255H46.4701L54.0906 0.540001H61.3955V31.95H54.9474V11.34Z" fill="#00177C"/>
<path d="M76.5163 32.49C73.7507 32.49 71.4059 32.025 69.482 31.095C67.5581 30.135 65.9198 28.905 64.567 27.405L69.0762 22.86C71.2105 25.26 73.8409 26.46 76.9672 26.46C78.6507 26.46 79.8982 26.115 80.7098 25.425C81.5215 24.735 81.9273 23.82 81.9273 22.68C81.9273 21.81 81.6868 21.09 81.2058 20.52C80.7249 19.92 79.7479 19.515 78.2749 19.305L75.1636 18.9C71.8268 18.48 69.3768 17.475 67.8136 15.885C66.2805 14.295 65.514 12.18 65.514 9.54C65.514 8.13 65.7845 6.84 66.3256 5.67C66.8667 4.5 67.6333 3.495 68.6253 2.655C69.6474 1.815 70.8799 1.17 72.3228 0.720001C73.7958 0.24 75.4642 0 77.328 0C79.7028 0 81.792 0.374999 83.5957 1.125C85.3994 1.875 86.9475 2.97 88.2401 4.41L83.6859 9C82.9344 8.13 82.0175 7.425 80.9353 6.885C79.8832 6.315 78.5454 6.03 76.9221 6.03C75.389 6.03 74.2467 6.3 73.4952 6.84C72.7436 7.38 72.3679 8.13 72.3679 9.09C72.3679 10.17 72.6535 10.95 73.2246 11.43C73.8258 11.91 74.7878 12.255 76.1105 12.465L79.2218 12.96C82.4684 13.47 84.8733 14.475 86.4365 15.975C87.9997 17.445 88.7812 19.545 88.7812 22.275C88.7812 23.775 88.5107 25.155 87.9696 26.415C87.4285 27.675 86.6319 28.755 85.5797 29.655C84.5577 30.555 83.2801 31.26 81.7469 31.77C80.2138 32.25 78.4703 32.49 76.5163 32.49Z" fill="#00177C"/>
<path d="M100.187 31.9501V17.8156H108.831V19.3141H101.891V24.0526H108.425V25.5511H101.891V30.4516H108.831V31.9501H100.187Z" fill="#3A4C9A"/>
<path d="M111.449 31.9501V21.5011H113.072V23.2021H113.153C113.41 22.6081 113.769 22.1356 114.229 21.7846C114.702 21.4336 115.331 21.2581 116.116 21.2581C117.198 21.2581 118.05 21.6091 118.672 22.3111C119.308 22.9996 119.626 23.9783 119.626 25.2473V31.9501H118.003V25.5308C118.003 23.6543 117.211 22.7161 115.629 22.7161C115.304 22.7161 114.986 22.7566 114.675 22.8376C114.377 22.9186 114.107 23.0401 113.863 23.2021C113.62 23.3641 113.424 23.5733 113.275 23.8298C113.14 24.0728 113.072 24.3631 113.072 24.7006V31.9501H111.449Z" fill="#3A4C9A"/>
<path d="M124.889 31.9501C124.321 31.9501 123.888 31.7948 123.59 31.4843C123.306 31.1603 123.164 30.7418 123.164 30.2288V22.9186H121.439V21.5011H122.413C122.765 21.5011 123.002 21.4336 123.123 21.2986C123.259 21.1501 123.326 20.9003 123.326 20.5493V18.6053H124.787V21.5011H127.08V22.9186H124.787V30.5326H126.918V31.9501H124.889Z" fill="#3A4C9A"/>
<path d="M133.141 32.1931C132.424 32.1931 131.775 32.0648 131.193 31.8083C130.625 31.5518 130.131 31.1873 129.712 30.7148C129.306 30.2288 128.988 29.6551 128.758 28.9936C128.541 28.3186 128.433 27.5626 128.433 26.7256C128.433 25.9021 128.541 25.1528 128.758 24.4778C128.988 23.8028 129.306 23.2291 129.712 22.7566C130.131 22.2706 130.625 21.8993 131.193 21.6428C131.775 21.3863 132.424 21.2581 133.141 21.2581C133.844 21.2581 134.473 21.3863 135.028 21.6428C135.583 21.8993 136.056 22.2571 136.448 22.7161C136.841 23.1616 137.138 23.6948 137.341 24.3158C137.558 24.9368 137.666 25.6186 137.666 26.3611V27.1306H130.138V27.6166C130.138 28.0621 130.205 28.4806 130.341 28.8721C130.489 29.2501 130.692 29.5808 130.949 29.8643C131.22 30.1478 131.545 30.3706 131.923 30.5326C132.316 30.6946 132.755 30.7756 133.242 30.7756C133.905 30.7756 134.48 30.6203 134.967 30.3098C135.468 29.9993 135.853 29.5538 136.124 28.9733L137.28 29.8036C136.942 30.5191 136.414 31.0996 135.698 31.5451C134.981 31.9771 134.128 32.1931 133.141 32.1931ZM133.141 22.6148C132.694 22.6148 132.289 22.6958 131.923 22.8578C131.558 23.0063 131.24 23.2223 130.97 23.5058C130.713 23.7893 130.51 24.1268 130.361 24.5183C130.212 24.8963 130.138 25.3148 130.138 25.7738V25.9156H135.921V25.6928C135.921 24.7613 135.664 24.0188 135.15 23.4653C134.649 22.8983 133.98 22.6148 133.141 22.6148Z" fill="#3A4C9A"/>
<path d="M139.935 31.9501V21.5011H141.558V23.4248H141.66C141.849 22.9253 142.187 22.4798 142.674 22.0883C143.161 21.6968 143.831 21.5011 144.683 21.5011H145.312V23.1211H144.358C143.479 23.1211 142.789 23.2898 142.289 23.6273C141.802 23.9513 141.558 24.3631 141.558 24.8626V31.9501H139.935Z" fill="#3A4C9A"/>
<path d="M146.98 21.5011H148.603V23.2021H148.684C148.955 22.5406 149.347 22.0546 149.861 21.7441C150.389 21.4201 151.018 21.2581 151.748 21.2581C152.398 21.2581 152.986 21.3863 153.514 21.6428C154.041 21.8993 154.488 22.2638 154.853 22.7363C155.232 23.2088 155.516 23.7826 155.705 24.4576C155.908 25.1326 156.009 25.8886 156.009 26.7256C156.009 27.5626 155.908 28.3186 155.705 28.9936C155.516 29.6686 155.232 30.2423 154.853 30.7148C154.488 31.1873 154.041 31.5518 153.514 31.8083C152.986 32.0648 152.398 32.1931 151.748 32.1931C150.328 32.1931 149.307 31.5451 148.684 30.2491H148.603V36.0001H146.98V21.5011ZM151.302 30.7351C152.222 30.7351 152.945 30.4516 153.473 29.8846C154.001 29.3041 154.264 28.5481 154.264 27.6166V25.8346C154.264 24.9031 154.001 24.1538 153.473 23.5868C152.945 23.0063 152.222 22.7161 151.302 22.7161C150.937 22.7161 150.585 22.7701 150.247 22.8781C149.922 22.9726 149.638 23.1076 149.394 23.2831C149.151 23.4586 148.955 23.6746 148.806 23.9311C148.671 24.1741 148.603 24.4373 148.603 24.7208V28.6088C148.603 28.9463 148.671 29.2501 148.806 29.5201C148.955 29.7766 149.151 29.9993 149.394 30.1883C149.638 30.3638 149.922 30.4988 150.247 30.5933C150.585 30.6878 150.937 30.7351 151.302 30.7351Z" fill="#3A4C9A"/>
<path d="M158.344 31.9501V21.5011H159.968V23.4248H160.069C160.259 22.9253 160.597 22.4798 161.084 22.0883C161.571 21.6968 162.24 21.5011 163.093 21.5011H163.722V23.1211H162.768C161.889 23.1211 161.199 23.2898 160.698 23.6273C160.211 23.9513 159.968 24.3631 159.968 24.8626V31.9501H158.344Z" fill="#3A4C9A"/>
<path d="M166.201 19.0508C165.849 19.0508 165.592 18.9698 165.43 18.8078C165.281 18.6323 165.207 18.4096 165.207 18.1396V17.8763C165.207 17.6063 165.281 17.3903 165.43 17.2283C165.592 17.0528 165.849 16.9651 166.201 16.9651C166.553 16.9651 166.803 17.0528 166.952 17.2283C167.114 17.3903 167.195 17.6063 167.195 17.8763V18.1396C167.195 18.4096 167.114 18.6323 166.952 18.8078C166.803 18.9698 166.553 19.0508 166.201 19.0508ZM165.389 21.5011H167.013V31.9501H165.389V21.5011Z" fill="#3A4C9A"/>
<path d="M173.201 32.1931C172.227 32.1931 171.409 32.0108 170.746 31.6463C170.097 31.2683 169.536 30.7688 169.062 30.1478L170.219 29.2163C170.624 29.7293 171.078 30.1276 171.578 30.4111C172.079 30.6811 172.66 30.8161 173.323 30.8161C174.013 30.8161 174.547 30.6676 174.926 30.3706C175.319 30.0736 175.515 29.6551 175.515 29.1151C175.515 28.7101 175.379 28.3658 175.109 28.0823C174.852 27.7853 174.378 27.5828 173.688 27.4748L172.857 27.3533C172.37 27.2858 171.923 27.1846 171.517 27.0496C171.111 26.9011 170.753 26.7121 170.442 26.4826C170.144 26.2396 169.908 25.9426 169.732 25.5916C169.569 25.2406 169.488 24.8221 169.488 24.3361C169.488 23.8231 169.583 23.3776 169.772 22.9996C169.962 22.6081 170.219 22.2841 170.543 22.0276C170.881 21.7711 171.281 21.5821 171.74 21.4606C172.2 21.3256 172.694 21.2581 173.222 21.2581C174.074 21.2581 174.784 21.4066 175.352 21.7036C175.934 22.0006 176.441 22.4123 176.874 22.9388L175.799 23.9108C175.569 23.5868 175.231 23.2966 174.784 23.0401C174.338 22.7701 173.776 22.6351 173.1 22.6351C172.424 22.6351 171.91 22.7836 171.558 23.0806C171.22 23.3641 171.051 23.7556 171.051 24.2551C171.051 24.7681 171.22 25.1393 171.558 25.3688C171.91 25.5983 172.41 25.7671 173.059 25.8751L173.871 25.9966C175.034 26.1721 175.86 26.5096 176.347 27.0091C176.834 27.4951 177.077 28.1363 177.077 28.9328C177.077 29.9453 176.732 30.7418 176.042 31.3223C175.352 31.9028 174.405 32.1931 173.201 32.1931Z" fill="#3A4C9A"/>
<path d="M183.475 32.1931C182.758 32.1931 182.109 32.0648 181.527 31.8083C180.959 31.5518 180.465 31.1873 180.046 30.7148C179.64 30.2288 179.322 29.6551 179.092 28.9936C178.876 28.3186 178.767 27.5626 178.767 26.7256C178.767 25.9021 178.876 25.1528 179.092 24.4778C179.322 23.8028 179.64 23.2291 180.046 22.7566C180.465 22.2706 180.959 21.8993 181.527 21.6428C182.109 21.3863 182.758 21.2581 183.475 21.2581C184.178 21.2581 184.807 21.3863 185.362 21.6428C185.917 21.8993 186.39 22.2571 186.782 22.7161C187.175 23.1616 187.472 23.6948 187.675 24.3158C187.892 24.9368 188 25.6186 188 26.3611V27.1306H180.472V27.6166C180.472 28.0621 180.54 28.4806 180.675 28.8721C180.824 29.2501 181.027 29.5808 181.284 29.8643C181.554 30.1478 181.879 30.3706 182.258 30.5326C182.65 30.6946 183.089 30.7756 183.576 30.7756C184.239 30.7756 184.814 30.6203 185.301 30.3098C185.802 29.9993 186.187 29.5538 186.458 28.9733L187.614 29.8036C187.276 30.5191 186.749 31.0996 186.032 31.5451C185.315 31.9771 184.463 32.1931 183.475 32.1931ZM183.475 22.6148C183.029 22.6148 182.623 22.6958 182.258 22.8578C181.892 23.0063 181.574 23.2223 181.304 23.5058C181.047 23.7893 180.844 24.1268 180.695 24.5183C180.546 24.8963 180.472 25.3148 180.472 25.7738V25.9156H186.255V25.6928C186.255 24.7613 185.998 24.0188 185.484 23.4653C184.983 22.8983 184.314 22.6148 183.475 22.6148Z" fill="#3A4C9A"/>
</svg>
