<svg width="168" height="32" viewBox="0 0 168 32" fill="none" xmlns="http://www.w3.org/2000/svg">
<path fill-rule="evenodd" clip-rule="evenodd" d="M167.139 0.0867224L0 0L4.49761 4.44943L41.4529 4.50965C41.9733 4.50965 42.3202 4.76982 42.3202 5.02999C42.3202 5.29017 41.9733 5.55035 41.4529 5.55035H5.61057L10.1371 10.0275L39.1993 9.97207C39.7197 9.97207 40.1533 10.2322 40.1533 10.5791C40.1533 10.8393 39.7197 11.0995 39.1993 11.0995H11.2211L15.6417 15.473L37.8105 15.5224C38.2441 15.5224 38.6778 15.6959 38.6778 16.0428C38.6778 16.3041 38.2441 16.5631 37.8105 16.5631H16.7438L21.3028 21.0728H35.9038C36.4241 21.0728 36.8578 21.2474 36.8578 21.5931C36.8578 21.8545 36.4241 22.1159 35.9038 22.1159H22.3544L26.7978 26.5099L34.1693 26.5352C34.6029 26.5352 35.0365 26.7965 35.0365 27.0579C35.0365 27.3169 34.6029 27.5783 34.0826 27.5783L27.8553 27.5542L32.3481 32L155.896 31.9133C155.904 31.8835 155.914 31.8545 155.926 31.8265L167.139 0.0867224Z" fill="#D22A42"/>
<path fill-rule="evenodd" clip-rule="evenodd" d="M149.857 27.7529L150.81 25.4089H43.5342L42.667 27.665L149.857 27.7529Z" fill="white"/>
<path fill-rule="evenodd" clip-rule="evenodd" d="M151.504 4.59761L150.289 8.15209L153.325 8.23882L149.857 17.4316L153.498 17.3449L156.966 8.15209L159.568 8.23882L160.782 4.59761H151.504ZM52.2068 7.19813H54.7218L55.7625 4.59641H49.4328L44.7485 17.1714L51.3396 17.2581L52.2068 14.7431H49.5184L50.5591 11.968H52.9006L53.7678 9.45296L51.4263 9.53968L52.2068 7.19813ZM53.4209 17.3449H56.4563L59.1447 8.84589L57.6704 17.3449H59.7518L63.7411 8.67244L60.966 17.3449H63.9146L68.1641 4.50968H63.7411L60.966 10.4936L62.0066 4.50968H57.6704L53.4209 17.3449ZM73.9734 4.25072L71.8053 4.59761L70.1575 5.72502C69.7239 6.07192 69.4637 6.76571 69.1168 7.8064L68.8566 9.54088L69.1168 10.4949L71.6318 12.9231C71.892 13.0966 71.7185 13.6169 71.4584 14.3974L71.0247 15.1768L70.5911 15.4369C70.331 15.4369 70.2442 15.3502 70.0708 15.1768L70.7646 12.7485H67.6425L67.2956 13.6157L66.862 15.7838C66.862 16.3054 67.2089 16.7378 67.7292 17.0835C68.2496 17.4316 69.0301 17.6062 69.9841 17.6062L72.2389 17.1714C73.0194 16.739 73.5397 16.4776 73.7999 16.044L74.8406 14.0493C75.1875 12.8352 75.2742 11.8812 75.1875 11.3609C75.0141 10.8405 74.3203 10.06 73.1061 9.10606L72.3256 8.32675L72.4123 7.45951L72.846 6.59227L73.453 6.41881L73.7132 6.59227C73.7999 6.85244 73.6265 7.19934 73.5397 7.45951L73.1928 8.41348H76.4016L76.5751 7.89313C76.8353 7.02589 77.0087 6.24537 76.922 5.72502C76.922 5.2914 76.6618 5.03123 76.1415 4.68434L73.9734 4.25072ZM83.8599 4.59761L82.6458 8.15209L85.5944 8.23882L82.3856 17.3449H85.8534L89.2356 8.15209H91.9241L93.1382 4.59761H83.8599ZM99.3835 4.59761H95.7411L87.2422 17.3449H91.4049L92.6191 14.8299H95.2208L94.7004 17.3449H98.4296L99.3835 4.59761ZM96.5216 8.32554L96.4349 8.49899L95.8278 12.575H93.8332L96.5216 8.32554ZM107.45 8.49899L106.927 4.59761H103.719L104.586 10.2347L98.6018 17.3461H102.504L105.713 13.4435L106.06 17.2581L109.703 17.3449L108.488 10.9273L113.692 4.59761L110.483 4.51088L107.533 8.32675L107.45 8.49899ZM110.311 17.3449H114.04L118.724 4.59761H114.995L110.311 17.3449ZM120.544 4.59761L115.773 17.3449H119.069L120.283 13.7892L124.099 13.4423C126.093 12.8352 127.394 11.5343 128.088 9.45296C128.608 7.97865 128.52 6.67779 127.913 5.6383C127.568 4.94451 126.354 4.59761 124.359 4.59761H120.544ZM121.413 10.9273L122.627 7.71847H124.187C124.535 7.89192 124.621 8.41226 124.361 9.2795L123.493 10.4936L121.413 10.9273ZM139.449 6.07072C138.755 4.85658 137.628 4.24951 135.808 4.24951C134.074 4.24951 132.512 4.85658 131.211 6.07072C129.91 7.19813 129.042 8.93261 128.351 11.1007C127.916 12.6617 127.744 13.9626 128.089 15.0033C128.264 15.9573 128.696 16.6511 129.39 17.1702C130.084 17.6893 130.95 17.9507 132.166 17.9507C133.381 17.9507 134.42 17.6893 135.373 17.0823C136.324 16.4985 137.15 15.7326 137.804 14.8286C138.582 13.6145 139.189 12.4004 139.537 11.0128C140.056 8.84589 140.056 7.19813 139.449 6.07072ZM133.031 8.23882C133.725 7.63175 134.245 7.37157 134.939 7.37157C135.633 7.37157 136.067 7.63175 136.415 8.23882C136.589 8.75916 136.501 9.62641 136.153 10.9273C135.894 12.4016 135.373 13.3555 134.853 13.9626C134.245 14.5697 133.638 14.8298 132.858 14.9166C132.166 14.9166 131.73 14.5697 131.473 13.9626C131.298 13.2688 131.386 12.4016 131.645 11.1007C132.079 9.79985 132.599 8.84589 133.031 8.23882ZM144.654 7.45951C144.999 6.85244 145.434 6.50554 146.127 6.59227C146.736 6.59227 146.82 7.19934 146.388 8.32675H149.51C150.03 7.11261 150.117 6.15864 149.685 5.37813C149.164 4.59881 148.209 4.25072 146.908 4.25072C144.22 4.25072 142.399 5.46486 141.533 7.89313C141.1 8.8471 141.1 9.71434 141.533 10.4069C141.792 10.8405 142.399 11.5355 143.354 12.0547C144.307 12.7485 144.655 13.4423 144.481 14.0493C144.22 14.9166 143.613 15.2635 142.921 15.2635C142.141 15.2635 141.88 14.8298 142.141 13.9626L142.4 13.0954L139.452 13.0086L138.932 14.3962C138.152 16.5631 139.191 17.6062 141.967 17.6062C144.744 17.6062 146.564 16.3921 147.605 13.7892C147.953 12.4016 147.953 11.3609 147.43 10.7538L145.176 8.93262C144.479 8.49899 144.392 7.97865 144.654 7.45951Z" fill="white"/>
<path fill-rule="evenodd" clip-rule="evenodd" d="M46.3094 6.41756C46.3094 6.67773 46.743 6.9379 47.2633 6.9379H161.216C161.737 6.9379 162.082 6.76446 162.082 6.41756C162.082 6.15739 161.737 5.89722 161.216 5.89722H47.2633C46.743 5.89722 46.3094 6.15859 46.3094 6.41756ZM43.8811 15.2634C43.8811 15.3501 44.0545 15.4369 44.228 15.4369H157.659C157.921 15.4369 158.094 15.3501 158.094 15.2634C158.094 15.09 157.92 15.0033 157.659 15.0033H44.228C44.0545 15.0033 43.8811 15.09 43.8811 15.2634ZM45.7023 8.58567C45.7023 8.75912 45.8757 8.84584 46.1359 8.84584H159.567C159.742 8.84584 159.916 8.75912 159.916 8.58567C159.916 8.49894 159.741 8.41222 159.567 8.41222H46.1359C45.8757 8.41222 45.7023 8.49894 45.7023 8.58567ZM43.5342 13.0086C43.5342 13.0953 43.7076 13.2688 43.8811 13.2688H157.402C157.576 13.2688 157.747 13.0953 157.747 13.0086C157.747 12.9219 157.575 12.8351 157.402 12.8351L43.8811 12.7484C43.7076 12.7484 43.5342 12.9219 43.5342 13.0086ZM44.7483 10.8405C44.7483 10.9272 44.9218 11.0139 45.0952 11.0139H158.528C158.787 11.0139 158.96 10.9272 158.96 10.8405C158.96 10.667 158.786 10.5803 158.528 10.5803H45.0952C44.9218 10.5803 44.7483 10.667 44.7483 10.8405Z" fill="#D22A42"/>
</svg>
