<svg width="181" height="49" viewBox="0 0 181 49" fill="none" xmlns="http://www.w3.org/2000/svg">
<path d="M36.0374 12.8399C37.2424 14.0688 37.8628 15.572 38.1014 17.2184C38.2684 18.3995 38.2565 19.6164 38.3161 20.8214C38.3281 21.06 38.3519 21.2987 38.34 21.5373C38.3281 21.7639 38.4354 21.8236 38.6263 21.8832C39.6523 22.1457 40.6664 22.4559 41.6089 22.957C42.1816 23.2672 42.7066 23.637 43.1003 24.162C44.007 25.3312 44.0786 26.8344 43.2792 28.2183C43.1599 28.4212 43.1718 28.5643 43.2434 28.7791C43.4462 29.3279 43.6133 29.8886 43.7922 30.4493C43.84 30.6044 43.8877 30.676 44.0666 30.7237C44.7347 30.8788 45.1284 31.3561 45.379 31.9526C45.725 32.7639 45.7011 33.6109 45.5818 34.458C44.8421 39.3972 42.2293 43.0838 38.0417 45.6965C35.584 47.2356 32.8639 48.0349 30.0006 48.3332C26.8986 48.6553 23.8444 48.4167 20.8737 47.4503C16.9605 46.1738 13.7512 43.9189 11.4248 40.4948C10.876 39.6836 10.4465 38.8007 9.98118 37.9298C9.88573 37.7627 9.81415 37.6792 9.5994 37.6673C6.21114 37.5122 3.09727 34.7324 2.59619 31.368C2.41723 30.1511 2.52461 28.9461 2.91832 27.7769C2.97797 27.586 2.96604 27.4906 2.81094 27.3593C2.35758 27.0014 1.92808 26.6077 1.48665 26.2379C0.579936 25.4982 0.138507 24.5318 0.0311329 23.3865C-0.100103 21.9906 0.19816 20.6663 0.651519 19.3659C1.45086 17.0872 2.64391 15.0113 4.03978 13.0547C6.75994 9.20112 9.96924 5.83672 13.8228 3.08077C15.326 2.00702 16.9128 1.08838 18.6666 0.491851C19.8716 0.0862133 21.1004 -0.152397 22.377 0.110074C23.1644 0.265171 23.8444 0.623086 24.4171 1.18382C25.121 1.88772 25.8368 2.56776 26.5407 3.27166C26.6839 3.42675 26.8032 3.43868 26.9821 3.35517C28.4973 2.67513 30.0602 2.07861 31.7066 1.76841C33.3172 1.45822 34.9398 1.32699 36.5385 1.81614C37.0873 2.00702 37.66 2.2695 38.161 2.62741C39.3302 3.46255 39.7359 4.66753 39.6523 6.0634C39.5808 7.30417 39.1393 8.42564 38.5547 9.49938C37.9463 10.6089 37.1708 11.6111 36.3118 12.5417C36.2283 12.6252 36.1328 12.7325 36.0374 12.8399ZM41.5612 33.6229C41.5851 33.6467 41.597 33.6587 41.6209 33.6825C41.5493 33.7899 41.4777 33.9211 41.3942 34.0166C40.5113 35.0903 39.366 35.8419 38.1372 36.4504C35.7749 37.6077 33.2695 38.1207 30.6567 38.1207C29.1535 38.1207 27.7099 37.8463 26.3856 37.0827C25.121 36.3669 24.5603 35.2335 24.7392 33.8257C24.9182 32.406 26.0516 31.4276 27.3759 31.6185C29.6426 31.9287 31.8856 31.8691 34.1285 31.4276C36.1567 31.0339 38.0775 30.3658 39.8313 29.2444C40.6306 28.7314 41.3703 28.1468 41.8476 27.2997C42.3844 26.3095 42.1816 25.3312 41.2391 24.7346C40.7142 24.4006 40.1296 24.15 39.5569 23.9353C38.9246 23.6967 38.2565 23.5297 37.6003 23.3388C37.0992 23.1956 36.8129 22.8735 36.7532 22.3605C36.7413 22.2412 36.7174 22.1099 36.7055 21.9906C36.6459 20.8811 36.5981 19.7596 36.5266 18.6501C36.4788 17.7792 36.3953 16.9202 36.0374 16.1208C35.4647 14.8562 34.1404 14.4744 32.9832 15.2499C32.7088 15.4288 32.4582 15.6436 32.2077 15.8583C31.2652 16.6219 30.2034 17.0275 28.9865 16.9798C28.1275 16.944 27.2804 16.8605 26.4214 16.7889C25.634 16.7293 24.8466 16.6935 24.083 16.9798C21.8043 17.8269 20.4323 20.3323 20.8499 22.8735C21.0765 24.2574 21.7804 25.3789 22.6752 26.4168C23.0212 26.8105 23.3791 27.2043 23.7013 27.6218C23.9995 27.9917 23.9757 28.2541 23.6535 28.6001C22.031 30.33 21.2913 32.406 21.2794 34.7443C21.2674 37.8582 22.544 40.3039 25.1806 41.9981C26.8628 43.0838 28.7359 43.5848 30.7283 43.6564C33.699 43.7757 36.4311 42.9764 38.9127 41.3896C40.7142 40.2443 42.1339 38.7053 43.0764 36.7725C43.6133 35.6868 43.9593 34.5296 43.9831 33.3127C43.995 32.4656 43.6013 32.1077 42.7662 32.0958C42.7543 32.0958 42.7304 32.0719 42.7066 32.06C42.5395 31.201 42.3367 30.342 41.943 29.5068C41.776 29.6261 41.6328 29.7335 41.5016 29.829C41.3465 29.9363 41.2033 30.0437 41.0482 30.1392C37.0515 32.6326 32.6969 33.3843 28.0678 32.8951C27.6622 32.8474 27.2446 32.8354 26.839 32.8832C26.4333 32.9309 26.1589 33.2649 26.0874 33.7183C26.2186 33.766 26.3498 33.8138 26.4811 33.8615C28.724 34.5654 31.0266 34.7205 33.365 34.5057C33.4723 34.4938 33.5797 34.5534 33.6871 34.5892C33.6036 34.6727 33.5201 34.7443 33.4366 34.8278C33.4127 34.8517 33.365 34.8517 33.3292 34.8636C31.4799 35.4721 29.5949 35.4482 27.7099 35.1142C27.1253 35.0068 26.5526 34.8517 25.9561 34.7205C26.0158 35.1858 26.2425 35.5317 26.5646 35.8181C26.9821 36.1999 27.4952 36.4265 28.032 36.5936C29.6665 37.0827 31.3368 37.1185 33.0071 36.9157C36.0255 36.5339 38.7814 35.4244 41.3345 33.7899C41.3942 33.7183 41.4777 33.6706 41.5612 33.6229ZM3.71766 26.0709C3.76538 26.0351 3.80117 26.0231 3.8131 25.9993C4.75561 24.7227 6.02025 23.9472 7.55928 23.5774C7.6428 23.5535 7.75017 23.4581 7.78596 23.3626C8.00071 22.8735 8.17967 22.3843 8.38249 21.8952C10.0885 17.9342 12.3792 14.367 15.4811 11.3605C17.6883 9.21305 20.1579 7.38768 22.7468 5.72934C23.4746 5.26405 24.2143 4.82262 24.9778 4.3454C24.2381 3.53413 23.5462 2.69899 22.6752 2.04282C22.5559 1.94737 22.3889 1.88772 22.2338 1.85193C21.6253 1.72069 21.005 1.76841 20.3965 1.88772C18.7143 2.22177 17.223 2.98533 15.7913 3.88011C13.4649 5.32371 11.4128 7.07749 9.52782 9.02216C6.9031 11.7304 4.68403 14.7249 3.04955 18.1251C2.36951 19.521 1.80878 20.9646 1.7372 22.5514C1.7014 23.3507 1.76106 24.15 2.34565 24.7704C2.77515 25.2238 3.2643 25.6414 3.71766 26.0709ZM13.5961 30.9266C13.5723 30.9266 13.5365 30.9146 13.5126 30.9146C13.4649 29.9363 13.3456 28.9819 12.9638 28.0752C11.6992 25.0687 8.45407 24.329 6.00832 26.3214C4.45735 27.586 4.09944 29.3517 4.3977 31.2368C4.75561 33.4797 6.89117 35.496 9.14604 35.8181C11.1862 36.1163 12.7133 35.15 13.2501 33.1576C13.441 32.4417 13.4887 31.6782 13.5961 30.9266ZM17.0918 13.7824C21.6373 10.7759 26.5169 9.71413 31.8498 10.7759C31.1817 10.2868 30.442 10.0243 29.6665 9.84537C28.891 9.66641 28.1155 9.55903 27.2565 9.41587C27.5787 9.08181 27.8769 8.77162 28.1752 8.4495C28.1633 8.42564 28.1513 8.40178 28.1275 8.37791C26.1709 8.53301 24.3932 9.24884 22.723 10.2749C22.6872 10.251 22.6633 10.2271 22.6275 10.1914C22.8184 9.7022 23.0212 9.20112 23.224 8.68811C22.0071 9.02216 17.5332 12.6848 17.0918 13.7824Z" fill="black"/>
<path d="M34.7489 22.8735C34.3194 23.0405 34.1404 22.7423 33.9853 22.3724C33.6751 21.6566 33.52 20.905 33.52 20.1295C33.52 19.6165 33.7348 19.3182 34.1046 19.2586C34.4506 19.1989 34.7727 19.3301 34.9397 19.7358C35.1426 20.2249 35.2977 20.7499 35.405 21.2748C35.4766 21.6685 35.4528 22.098 35.4289 22.5036C35.3931 22.9093 35.3692 22.9093 34.9755 22.8854C34.9159 22.8854 34.8562 22.8735 34.7489 22.8735Z" fill="black"/>
<path d="M29.571 23.9353C29.404 24.0068 29.3086 24.0904 29.2251 24.0784C29.07 24.0546 28.9029 23.9949 28.7598 23.9233C27.5786 23.3029 26.3617 23.3029 25.1329 23.7444C24.9659 23.804 24.7869 23.8637 24.6079 23.8995C24.5006 23.9114 24.3813 23.8756 24.262 23.8517C24.2858 23.7324 24.2858 23.6012 24.3455 23.4819C24.3932 23.3865 24.4886 23.3029 24.5722 23.2194C25.801 22.0622 27.865 22.0741 29.058 23.2433C29.237 23.4342 29.3682 23.6609 29.571 23.9353Z" fill="black"/>
<path d="M29.0103 25.212C28.3183 25.1165 27.686 25.0807 27.0656 25.2597C26.8389 25.3193 26.6361 25.4148 26.4094 25.4625C26.314 25.4864 26.1947 25.4386 26.0992 25.4267C26.1231 25.3193 26.1112 25.1881 26.1708 25.1165C26.3021 24.9614 26.4572 24.7944 26.6361 24.699C27.3519 24.3052 28.0916 24.2217 28.8313 24.5916C28.9387 24.6512 29.0461 24.7228 29.1296 24.8063C29.1892 24.8779 29.2608 25.0091 29.237 25.0688C29.1892 25.1523 29.058 25.1762 29.0103 25.212Z" fill="black"/>
<path d="M32.9593 26.5362C32.4702 26.5005 32.16 26.3573 31.9452 26.059C31.6589 25.6534 31.8737 25.2 32.3628 25.1642C32.7804 25.1404 33.1383 25.2955 33.3411 25.6653C33.4246 25.8204 33.4604 26.0948 33.3769 26.2499C33.2934 26.3931 33.0428 26.4766 32.9593 26.5362Z" fill="black"/>
<path d="M35.7153 24.8539C35.7153 25.355 35.429 25.7368 35.0591 25.7249C34.6893 25.7129 34.4149 25.2715 34.4506 24.7824C34.4984 24.3171 34.7728 23.983 35.1068 23.9949C35.4647 24.0188 35.7153 24.3886 35.7153 24.8539Z" fill="black"/>
<path d="M11.1384 29.3993C11.1384 29.972 10.9356 30.485 10.7209 31.01C10.6254 31.2366 10.53 31.4753 10.4823 31.7139C10.3987 32.2746 10.7567 32.6206 11.3174 32.549C11.4009 32.5371 11.4844 32.5013 11.5679 32.5013C11.6634 32.5132 11.8065 32.5251 11.8423 32.5848C11.8781 32.6683 11.8662 32.8115 11.8185 32.895C11.6276 33.241 11.0549 33.4199 10.6135 33.3126C10.0289 33.1575 9.63519 32.6683 9.55168 31.9763C9.48009 31.4156 9.63519 30.8907 9.81415 30.3657C10.0528 29.6499 9.76643 28.946 9.09832 28.6597C8.466 28.3733 7.71438 28.6 7.36839 29.1965C7.23716 29.4232 7.16557 29.6737 7.0582 29.9124C6.99855 30.0436 6.95083 30.1868 6.85538 30.2941C6.67642 30.5089 6.44974 30.4492 6.3543 30.1868C6.34237 30.1629 6.33044 30.1271 6.33044 30.1032C5.96059 28.421 7.70245 26.7269 9.36079 27.1564C10.3868 27.407 11.1384 28.3614 11.1384 29.3993Z" fill="black"/>
<path d="M67.1431 31.6763C65.3654 31.6763 63.6713 31.6763 61.8579 31.6763C61.8579 31.4258 61.8579 31.1633 61.8579 30.9128C61.8579 28.5028 61.8698 26.0809 61.8459 23.671C61.8459 23.2295 61.7863 22.7881 61.7028 22.3586C61.6073 21.8337 61.2733 21.4758 60.7245 21.3803C60.1518 21.2849 59.6865 21.5712 59.5314 22.0484C59.2332 22.9432 58.9468 23.8857 58.8991 24.8163C58.8037 26.8087 58.8753 28.8011 58.8753 30.7935C58.8753 31.056 58.8753 31.3304 58.8753 31.6525C57.1215 31.6525 55.4154 31.6525 53.6616 31.6525C53.6616 26.9041 53.6616 22.1677 53.6616 17.3359C54.8547 17.3359 56.0358 17.3239 57.205 17.3597C57.3243 17.3597 57.551 17.6938 57.539 17.8727C57.5032 18.6244 57.4078 19.3879 57.3124 20.1395C57.2766 20.4378 57.193 20.7361 57.1215 21.0343C57.193 21.0701 57.2527 21.094 57.3243 21.1298C57.4436 20.9508 57.5868 20.7838 57.6822 20.5929C57.9924 20.0083 58.231 19.376 58.5889 18.8272C59.603 17.2643 61.1301 16.6916 62.9436 17.1092C64.5184 17.479 65.4967 18.7079 65.6995 20.5333C65.7234 20.7122 65.7711 20.8912 65.9858 21.1059C66.1409 20.7599 66.296 20.4259 66.4511 20.0799C67.1192 18.6124 68.014 17.3717 69.7201 17.0615C72.309 16.5843 74.3491 17.9324 74.9695 20.5213C75.1485 21.261 75.2558 22.0246 75.2678 22.7881C75.3036 25.5918 75.2797 28.4074 75.2797 31.2111C75.2797 31.3542 75.2678 31.4974 75.2558 31.6763C73.5498 31.6763 71.8795 31.6763 70.1138 31.6763C70.1138 31.4139 70.1138 31.1514 70.1138 30.9009C70.1138 28.5625 70.1257 26.2241 70.1019 23.8857C70.0899 23.325 70.0422 22.7285 69.8394 22.2274C69.6962 21.8814 69.2667 21.4758 68.9207 21.44C68.5748 21.3922 67.9663 21.6905 67.8589 21.9888C67.5249 22.8597 67.2147 23.8022 67.167 24.7328C67.0715 26.7729 67.1312 28.825 67.1312 30.8651C67.1431 31.1156 67.1431 31.3781 67.1431 31.6763Z" fill="black"/>
<path d="M150.537 31.6765C150.537 29.1592 150.549 26.7015 150.537 24.2319C150.537 23.6711 150.49 23.0985 150.418 22.5377C150.335 21.9293 150.036 21.464 149.368 21.3685C148.724 21.2731 148.283 21.6549 148.115 22.1917C147.853 22.9792 147.614 23.8024 147.591 24.6136C147.519 26.6776 147.567 28.7535 147.567 30.8175C147.567 31.08 147.567 31.3544 147.567 31.6646C145.801 31.6646 144.119 31.6646 142.365 31.6646C142.365 26.9401 142.365 22.1917 142.365 17.336C143.546 17.336 144.739 17.3241 145.932 17.3599C146.04 17.3599 146.23 17.6939 146.219 17.849C146.171 18.6365 146.075 19.4119 145.98 20.1874C145.944 20.4738 145.873 20.7482 145.813 21.0226C145.873 21.0464 145.944 21.0822 146.004 21.1061C146.123 20.9271 146.254 20.7601 146.35 20.5692C146.636 20.0204 146.863 19.4477 147.185 18.9228C148.199 17.2883 149.75 16.6679 151.635 17.0855C153.21 17.4315 154.188 18.6722 154.403 20.5931C154.415 20.7482 154.474 20.9032 154.677 21.0941C154.832 20.7601 154.999 20.426 155.143 20.08C155.858 18.4694 156.872 17.2167 158.781 16.99C160.965 16.7395 162.802 17.7894 163.446 19.8892C163.792 20.9987 163.935 22.2037 163.971 23.3729C164.043 26.0095 163.995 28.6461 163.995 31.2828C163.995 31.4021 163.971 31.5214 163.947 31.6765C162.253 31.6765 160.583 31.6765 158.829 31.6765C158.817 31.426 158.793 31.1635 158.793 30.9129C158.793 28.5507 158.805 26.1885 158.781 23.8143C158.769 23.2536 158.734 22.657 158.519 22.156C158.376 21.8219 157.91 21.464 157.553 21.4163C157.23 21.3805 156.67 21.6787 156.55 21.9651C156.216 22.8241 155.918 23.7308 155.87 24.6375C155.775 26.7015 155.835 28.7774 155.835 30.8414C155.835 31.1038 155.835 31.3663 155.835 31.6765C154.021 31.6765 152.339 31.6765 150.537 31.6765Z" fill="black"/>
<path d="M165.665 17.3599C166.918 17.3599 168.147 17.3599 169.435 17.3599C169.781 18.6126 169.352 19.8295 169.089 21.0464C169.173 21.0703 169.268 21.0941 169.352 21.118C169.495 20.8317 169.65 20.5573 169.781 20.2709C170.569 18.5768 171.69 17.2883 173.671 17.0378C175.985 16.7395 178.121 17.7655 179.087 19.9011C180.495 23.003 180.495 26.1765 179.016 29.2546C178.037 31.2947 176.248 32.1776 173.981 32.0225C172.943 31.9509 172.108 31.4498 171.428 30.6982C171.273 30.5192 171.118 30.3403 170.855 30.042C170.855 31.9986 170.855 33.812 170.855 35.6613C169.101 35.6613 167.407 35.6613 165.665 35.6613C165.665 29.5886 165.665 23.516 165.665 17.3599ZM174.434 22.4423C173.873 21.0703 172.358 20.9987 171.523 22.2275C170.593 23.5995 170.569 26.3555 171.487 27.7275C171.857 28.2882 172.346 28.67 173.074 28.5984C173.814 28.5268 174.339 28.1093 174.53 27.4173C175.007 25.8425 174.947 23.7546 174.434 22.4423Z" fill="black"/>
<path d="M124.004 21.1062C124.183 20.7602 124.374 20.4023 124.553 20.0563C125.376 18.4099 126.521 17.1691 128.49 17.0021C130.936 16.7874 132.689 17.9685 133.226 20.3665C133.489 21.5596 133.596 22.8003 133.632 24.0292C133.692 26.4391 133.656 28.8491 133.644 31.271C133.644 31.3903 133.62 31.5096 133.608 31.6766C131.878 31.6766 130.172 31.6766 128.382 31.6766C128.382 31.3664 128.382 31.0801 128.382 30.7818C128.382 28.5389 128.394 26.296 128.371 24.065C128.371 23.5281 128.311 22.9793 128.227 22.4543C128.132 21.9055 127.81 21.4999 127.237 21.4045C126.641 21.2971 126.068 21.5238 125.877 22.0606C125.555 22.9912 125.257 23.9814 125.197 24.9597C125.09 26.9283 125.161 28.8968 125.161 30.8654C125.161 31.1278 125.161 31.3903 125.161 31.6886C123.395 31.6886 121.701 31.6886 119.971 31.6886C119.971 25.4728 119.971 19.2808 119.971 12.9815C121.391 12.9815 122.811 12.9577 124.219 13.0173C124.362 13.0292 124.589 13.5423 124.612 13.8286C124.803 16.0119 124.541 18.1474 123.897 20.2472C123.813 20.4977 123.801 20.7721 123.753 21.0346C123.849 21.0585 123.932 21.0823 124.004 21.1062Z" fill="black"/>
<path d="M85.2059 22.8836C85.3491 21.8814 84.9077 21.1536 83.8816 21.0821C82.8914 21.0224 81.8535 21.094 80.899 21.3445C79.694 21.6547 78.5606 22.2035 77.3079 22.6807C77.3079 21.3565 77.296 20.0322 77.3199 18.7198C77.3199 18.5766 77.5108 18.3738 77.6539 18.3022C80.3144 17.2166 83.0823 16.6439 85.9456 17.1688C88.3675 17.5983 89.6918 19.2567 90.181 21.5593C90.8729 24.8879 90.348 28.2761 90.5389 31.6763C89.1549 31.6763 87.8903 31.6763 86.4706 31.6763C86.4109 30.4714 86.3513 29.2664 86.2916 28.0614C86.232 28.0495 86.1723 28.0375 86.1246 28.0137C85.9933 28.2761 85.8502 28.5386 85.7428 28.813C84.6571 31.557 81.6268 32.8217 78.9186 31.6405C77.3437 30.9486 76.5325 29.7197 76.4847 28.0017C76.437 25.9974 77.2125 24.4584 79.0617 23.5636C80.8871 22.6807 82.8318 22.7643 84.7884 22.8955C84.9077 22.9074 85.027 22.9194 85.1582 22.9194C85.1701 22.9313 85.1821 22.8955 85.2059 22.8836ZM85.3252 25.9258C84.8599 25.89 84.5498 25.8065 84.2396 25.8423C83.4283 25.9497 82.5812 26.0094 81.8057 26.2718C81.1496 26.4866 80.8871 27.2143 81.1138 27.787C81.3643 28.4432 81.937 28.5028 82.5216 28.4074C83.9174 28.1807 84.7287 27.2859 85.3252 25.9258Z" fill="black"/>
<path d="M118.277 23.3608C117.287 22.991 116.392 22.5137 115.45 22.3586C114.352 22.1797 113.195 22.132 112.097 22.299C110.833 22.4899 110.057 23.5517 110.081 24.6016C110.105 25.7469 110.856 26.594 112.217 26.8922C113.982 27.274 115.641 26.8684 117.215 26.069C117.538 25.902 117.848 25.735 118.277 25.4964C118.277 27.0712 118.289 28.5387 118.265 30.0061C118.265 30.1731 118.122 30.3759 117.979 30.4833C115.068 32.6666 109.938 32.762 107.409 29.6959C105.345 27.1905 105.106 22.4899 106.955 19.8294C108.435 17.7058 110.606 17.0138 113.064 17.0019C114.65 16.9899 116.201 17.2524 117.633 18.0159C118.086 18.2546 118.313 18.5528 118.301 19.1136C118.241 20.5094 118.277 21.9292 118.277 23.3608Z" fill="black"/>
<path d="M104.283 31.6883C102.553 31.6883 100.883 31.6883 99.1527 31.6883C99.1527 25.4606 99.1527 19.2567 99.1527 13.0051C100.871 13.0051 102.553 13.0051 104.283 13.0051C104.283 19.2329 104.283 25.4248 104.283 31.6883Z" fill="black"/>
<path d="M135.35 31.6647C135.35 26.9044 135.35 22.1919 135.35 17.5032C136.209 17.6105 137.044 17.8134 137.891 17.8134C138.738 17.8134 139.585 17.6344 140.492 17.5151C140.492 22.1561 140.492 26.8806 140.492 31.6647C138.81 31.6647 137.127 31.6647 135.35 31.6647Z" fill="black"/>
<path d="M137.724 17.002C136.877 16.9662 135.982 16.7753 135.266 16.0833C134.527 15.3675 134.527 14.4608 135.242 13.7449C136.495 12.4922 139.347 12.4922 140.599 13.7569C141.351 14.5085 141.303 15.4987 140.456 16.1907C139.692 16.823 138.798 17.0139 137.724 17.002Z" fill="black"/>
<path d="M92.2329 31.6647C92.2329 26.9044 92.2329 22.1919 92.2329 17.5032C93.0919 17.6105 93.927 17.8134 94.7741 17.8134C95.6212 17.8134 96.4682 17.6344 97.375 17.5151C97.375 22.1561 97.375 26.8806 97.375 31.6647C95.6928 31.6647 93.9986 31.6647 92.2329 31.6647Z" fill="black"/>
<path d="M94.6071 17.002C93.7601 16.9662 92.8653 16.7753 92.1495 16.0833C91.4098 15.3675 91.4098 14.4608 92.1256 13.7449C93.3783 12.4922 96.2297 12.4922 97.4824 13.7569C98.234 14.5085 98.1863 15.4987 97.3392 16.1907C96.5757 16.823 95.6809 17.0139 94.6071 17.002Z" fill="black"/>
</svg>
