<svg width="160" height="48" viewBox="0 0 160 48" fill="none" xmlns="http://www.w3.org/2000/svg">
<path d="M10.2403 1.59147C11.277 1.59147 12.3499 1.74821 13.459 2.06168C14.568 2.35103 15.4842 2.77301 16.2075 3.32762H16.2437L16.2075 1.84466H18.9923L18.5583 10.2722H16.1714C15.9544 8.29493 15.3396 6.78786 14.3269 5.75099C13.3143 4.71412 11.9762 4.19569 10.3126 4.19569C9.20351 4.19569 8.23911 4.50916 7.41936 5.13611C6.59961 5.76305 6.18974 6.54673 6.18974 7.48714C6.18974 8.49989 6.61167 9.36796 7.45552 10.0914C8.32349 10.8148 9.75805 11.5864 11.7592 12.4062C13.3022 13.0573 14.6283 13.7204 15.7374 14.3956C16.8706 15.0707 17.8109 15.9388 18.5583 16.9998C19.3298 18.0608 19.6794 19.3146 19.6071 20.7614C19.5347 22.1841 19.0766 23.4501 18.2328 24.5593C17.413 25.6685 16.2799 26.5365 14.8332 27.1635C13.3866 27.7663 11.7471 28.0677 9.91476 28.0677C8.95036 28.0677 7.90156 27.911 6.76838 27.5975C5.65931 27.284 4.65874 26.85 3.76666 26.2954H3.7305L3.76666 27.8145H0.981934L1.41592 19.3508H3.80283C4.01982 21.3281 4.69491 22.8472 5.82808 23.9082C6.98537 24.9451 8.43199 25.4635 10.1679 25.4635C11.4699 25.4635 12.5428 25.1139 13.3866 24.4146C14.2546 23.7153 14.6886 22.8713 14.6886 21.8827C14.6886 21.1352 14.4234 20.4962 13.8929 19.9657C13.3866 19.4352 12.7839 19.0012 12.0847 18.6636C11.4096 18.326 10.4331 17.892 9.15529 17.3615C6.64783 16.3487 4.73107 15.2154 3.40501 13.9615C2.07895 12.6835 1.41592 11.0318 1.41592 9.00627C1.41592 7.84884 1.69318 6.71552 2.24772 5.60631C2.82636 4.47299 3.77872 3.52052 5.10478 2.7489C6.43084 1.97728 8.14266 1.59147 10.2403 1.59147Z" fill="#1B1F26"/>
<path d="M31.202 9.00627C32.8656 9.00627 34.1796 9.38002 35.144 10.1275C36.1325 10.875 36.6268 12.0204 36.6268 13.5637C36.6268 15.3239 35.7106 16.6501 33.8782 17.5423C32.0459 18.4345 29.7554 19.0735 27.0068 19.4593C27.0068 21.3402 27.3203 22.6664 27.9471 23.438C28.574 24.1855 29.3455 24.5593 30.2617 24.5593C31.0815 24.5593 31.9253 24.3181 32.7933 23.8359C33.6612 23.3295 34.3845 22.4132 34.9632 21.087L36.9885 22.0636C36.024 24.282 34.8909 25.8131 33.5889 26.6571C32.287 27.477 30.8162 27.8869 29.1767 27.8869C26.9345 27.8869 25.1865 27.2238 23.9328 25.8975C22.679 24.5713 22.0522 22.6061 22.0522 20.0019C22.0522 18.314 22.3897 16.626 23.0648 14.9381C23.7399 13.2502 24.7646 11.8396 26.1389 10.7062C27.5131 9.57293 29.2009 9.00627 31.202 9.00627ZM30.8042 11.3935C29.6951 11.3935 28.8392 11.9481 28.2364 13.0573C27.6578 14.1665 27.2841 15.5168 27.1153 17.1083C28.9477 16.7707 30.2858 16.2643 31.1297 15.5892C31.9735 14.8899 32.3955 14.07 32.3955 13.1296C32.3955 12.5509 32.2267 12.1169 31.8891 11.8275C31.5757 11.5382 31.2141 11.3935 30.8042 11.3935Z" fill="#1B1F26"/>
<path d="M52.2403 9.00627C53.7352 9.00627 54.8322 9.50059 55.5314 10.4892C56.2306 11.4538 56.5802 12.8162 56.5802 14.5764C56.5802 15.4445 56.4355 16.9395 56.1462 19.0615C55.8327 21.0387 55.676 22.5458 55.676 23.5827C55.676 24.2096 55.8569 24.5231 56.2185 24.5231C56.8454 24.5231 57.424 23.5706 57.9544 21.6657L59.9074 22.2444C59.7627 23.0401 59.4493 23.872 58.9671 24.7401C58.509 25.6082 57.8942 26.3557 57.1226 26.9826C56.3511 27.5855 55.459 27.8869 54.4464 27.8869C53.1686 27.8869 52.2765 27.5493 51.7702 26.8741C51.288 26.199 51.0469 25.1741 51.0469 23.7997C51.0469 22.7146 51.2156 20.8699 51.5532 18.2657C51.6014 17.8558 51.6737 17.1565 51.7702 16.1679C51.8907 15.1551 51.951 14.3835 51.951 13.853C51.951 13.2984 51.8666 12.9126 51.6978 12.6956C51.5532 12.4545 51.3 12.3339 50.9384 12.3339C50.2392 12.3339 49.4918 13.0211 48.6961 14.3956C47.9246 15.77 47.2736 17.4459 46.7432 19.4232C46.2128 21.4004 45.9476 23.221 45.9476 24.8848C45.9476 25.4635 45.9837 26.3316 46.0561 27.489H41.3907C41.3184 26.8138 41.2822 26.2351 41.2822 25.7529C41.2822 24.9812 41.3666 23.86 41.5354 22.3891C41.7042 20.8941 41.885 19.4352 42.0779 18.0125C42.1261 17.5785 42.2225 16.7948 42.3672 15.6615C42.5119 14.5041 42.5842 13.7204 42.5842 13.3105C42.5842 12.6835 42.4154 12.3701 42.0779 12.3701C41.451 12.3701 40.8724 13.3225 40.3419 15.2275L38.3528 14.6488C38.6663 13.202 39.1967 11.8998 39.9441 10.7424C40.7156 9.58498 41.8006 9.00627 43.199 9.00627C44.0911 9.00627 44.8144 9.25946 45.3689 9.76583C45.9476 10.2722 46.2369 11.1162 46.2369 12.2977C46.2369 12.7559 46.2007 13.1899 46.1284 13.5998C46.0802 13.9856 46.044 14.275 46.0199 14.4679H46.0561C47.4786 10.8268 49.54 9.00627 52.2403 9.00627Z" fill="#1B1F26"/>
<path d="M77.2433 11.7552L76.7731 15.987C76.2909 19.8934 76.0498 22.3891 76.0498 23.4742C76.0498 24.1735 76.2306 24.5231 76.5923 24.5231C77.2192 24.5231 77.7978 23.5706 78.3282 21.6657L80.3173 22.2444C80.028 23.6671 79.4855 24.9692 78.6899 26.1507C77.8942 27.3082 76.7972 27.8869 75.3988 27.8869C73.47 27.8869 72.5056 26.7897 72.5056 24.5954C72.5056 23.8962 72.5538 23.1728 72.6503 22.4252H72.6141C71.8185 24.3784 70.8782 25.777 69.7932 26.6209C68.7082 27.4649 67.6112 27.8869 66.5022 27.8869C64.7421 27.8869 63.404 27.2479 62.4878 25.9699C61.5957 24.6919 61.1497 23.0281 61.1497 20.9785C61.1497 17.3615 61.9815 14.4679 63.6451 12.2977C65.3328 10.1034 67.8403 9.00627 71.1675 9.00627C71.8426 9.00627 72.4212 9.03038 72.9034 9.07861L73.0843 7.27012C73.2048 5.84744 73.3374 4.72618 73.4821 3.90633L70.9505 4.01484L71.0952 1.26594C72.6141 1.26594 73.8317 1.15743 74.7479 0.940414C75.664 0.723396 76.2909 0.470207 76.6285 0.180849H78.5814L77.2433 11.7552ZM70.6973 11.3935C68.9132 11.3935 67.6956 12.4183 67.0446 14.4679C66.3937 16.5175 66.0682 18.6756 66.0682 20.9423C66.0682 22.1479 66.2249 23.0642 66.5383 23.6912C66.8518 24.294 67.2858 24.5954 67.8403 24.5954C69.0699 24.5954 70.0946 23.3898 70.9143 20.9785C71.7341 18.5671 72.3007 15.4686 72.6141 11.6828C72.4694 11.6105 72.1922 11.5502 71.7823 11.502C71.3724 11.4296 71.0108 11.3935 70.6973 11.3935Z" fill="#1B1F26"/>
<path d="M100.901 1.59147C101.937 1.59147 103.01 1.74821 104.119 2.06168C105.229 2.35103 106.145 2.77301 106.868 3.32762H106.904L106.868 1.84466H109.653L109.219 10.2722H106.832C106.615 8.29493 106 6.78786 104.987 5.75099C103.975 4.71412 102.637 4.19569 100.973 4.19569C99.864 4.19569 98.8996 4.50916 98.0799 5.13611C97.2601 5.76305 96.8502 6.54673 96.8502 7.48714C96.8502 8.49989 97.2722 9.36796 98.116 10.0914C98.984 10.8148 100.419 11.5864 102.42 12.4062C103.963 13.0573 105.289 13.7204 106.398 14.3956C107.531 15.0707 108.471 15.9388 109.219 16.9998C109.99 18.0608 110.34 19.3146 110.268 20.7614C110.195 22.1841 109.737 23.4501 108.893 24.5593C108.074 25.6685 106.94 26.5365 105.494 27.1635C104.047 27.7663 102.408 28.0677 100.575 28.0677C99.6108 28.0677 98.5621 27.911 97.4289 27.5975C96.3198 27.284 95.3192 26.85 94.4272 26.2954H94.391L94.4272 27.8145H91.6424L92.0764 19.3508H94.4633C94.6803 21.3281 95.3554 22.8472 96.4886 23.9082C97.6459 24.9451 99.0925 25.4635 100.828 25.4635C102.13 25.4635 103.203 25.1139 104.047 24.4146C104.915 23.7153 105.349 22.8713 105.349 21.8827C105.349 21.1352 105.084 20.4962 104.553 19.9657C104.047 19.4352 103.444 19.0012 102.745 18.6636C102.07 18.326 101.094 17.892 99.8158 17.3615C97.3083 16.3487 95.3916 15.2154 94.0655 13.9615C92.7394 12.6835 92.0764 11.0318 92.0764 9.00627C92.0764 7.84884 92.3537 6.71552 92.9082 5.60631C93.4869 4.47299 94.4392 3.52052 95.7653 2.7489C97.0913 1.97728 98.8032 1.59147 100.901 1.59147Z" fill="#1B1F26"/>
<path d="M123.562 9.00627C124.888 9.00627 126.624 9.25946 128.77 9.76583L128.481 11.6828C128.433 12.1169 128.191 13.8771 127.757 16.9636C127.323 20.0501 127.106 22.2203 127.106 23.4742C127.106 24.1735 127.275 24.5231 127.613 24.5231C128.312 24.5231 128.927 23.5706 129.457 21.6657L131.41 22.2444C131.145 23.6188 130.59 24.9089 129.747 26.1146C128.927 27.2961 127.806 27.8869 126.383 27.8869C124.454 27.8869 123.49 26.7897 123.49 24.5954C123.49 23.7515 123.538 23.0522 123.635 22.4976H123.598C122.779 24.4749 121.85 25.8734 120.814 26.6933C119.777 27.489 118.656 27.8869 117.45 27.8869C116.052 27.8869 114.895 27.3323 113.978 26.2231C113.086 25.0898 112.64 23.4501 112.64 21.304C112.64 19.0615 113.074 17.0118 113.942 15.1551C114.81 13.2743 116.064 11.7793 117.703 10.6701C119.367 9.56087 121.32 9.00627 123.562 9.00627ZM122.224 11.3935C120.826 11.3935 119.705 12.2736 118.861 14.0339C118.017 15.77 117.595 18.2537 117.595 21.4848C117.595 22.4735 117.716 23.2572 117.957 23.8359C118.198 24.3905 118.535 24.6678 118.969 24.6678C119.789 24.6678 120.536 23.9926 121.212 22.6423C121.911 21.2678 122.477 19.5678 122.911 17.5423C123.345 15.5168 123.61 13.5395 123.707 11.6105C123.201 11.4658 122.706 11.3935 122.224 11.3935Z" fill="#1B1F26"/>
<path d="M143.483 0C144.544 0 145.376 0.253189 145.979 0.759566C146.581 1.24183 146.883 1.88083 146.883 2.67656C146.883 3.18294 146.69 3.67726 146.304 4.15952C145.942 4.64179 145.412 4.88292 144.713 4.88292C144.206 4.88292 143.76 4.70207 143.375 4.34037C143.013 3.97867 142.832 3.52052 142.832 2.96592L142.868 2.64039C142.772 2.59217 142.615 2.56805 142.398 2.56805C141.675 2.56805 141.169 3.195 140.879 4.44888C140.59 5.67865 140.349 7.3304 140.156 9.40414H144.821L144.568 11.8998L140.011 11.9722C139.867 14.3594 139.662 17.1445 139.396 20.3274C139.155 23.4862 138.926 26.0061 138.709 27.8869C137.986 34.1563 135.37 37.291 130.861 37.291C129.776 37.291 128.933 37.0499 128.33 36.5676C127.727 36.1095 127.426 35.4825 127.426 34.6868C127.426 34.1563 127.619 33.6379 128.004 33.1315C128.366 32.6492 128.896 32.4081 129.596 32.4081C130.102 32.4081 130.548 32.5889 130.934 32.9506C131.295 33.3123 131.476 33.7705 131.476 34.3251L131.44 34.6506C131.585 34.6988 131.741 34.723 131.91 34.723C132.634 34.723 133.14 34.096 133.429 32.8421C133.719 31.6124 133.96 29.9606 134.152 27.8869C134.345 25.789 134.574 22.7146 134.84 18.6636L135.346 12.0084L132.453 12.0445L132.778 9.40414H135.671C136.371 3.13471 138.975 0 143.483 0Z" fill="#1B1F26"/>
<path d="M154.213 9.00627C155.877 9.00627 157.191 9.38002 158.156 10.1275C159.144 10.875 159.638 12.0204 159.638 13.5637C159.638 15.3239 158.722 16.6501 156.89 17.5423C155.057 18.4345 152.767 19.0735 150.018 19.4593C150.018 21.3402 150.332 22.6664 150.959 23.438C151.585 24.1855 152.357 24.5593 153.273 24.5593C154.093 24.5593 154.937 24.3181 155.805 23.8359C156.673 23.3295 157.396 22.4132 157.975 21.087L160 22.0636C159.036 24.282 157.902 25.8131 156.6 26.6571C155.298 27.477 153.828 27.8869 152.188 27.8869C149.946 27.8869 148.198 27.2238 146.944 25.8975C145.691 24.5713 145.064 22.6061 145.064 20.0019C145.064 18.314 145.401 16.626 146.076 14.9381C146.751 13.2502 147.776 11.8396 149.15 10.7062C150.525 9.57293 152.212 9.00627 154.213 9.00627ZM153.816 11.3935C152.707 11.3935 151.851 11.9481 151.248 13.0573C150.669 14.1665 150.296 15.5168 150.127 17.1083C151.959 16.7707 153.297 16.2643 154.141 15.5892C154.985 14.8899 155.407 14.07 155.407 13.1296C155.407 12.5509 155.238 12.1169 154.901 11.8275C154.587 11.5382 154.226 11.3935 153.816 11.3935Z" fill="#1B1F26"/>
<path d="M0 44.7151L1.21184 44.6091C1.26923 45.0948 1.40167 45.4944 1.60916 45.8079C1.82107 46.1169 2.14776 46.3686 2.58923 46.5629C3.0307 46.7527 3.52735 46.8476 4.07919 46.8476C4.56923 46.8476 5.00187 46.7748 5.37712 46.6291C5.75237 46.4834 6.03049 46.2847 6.2115 46.033C6.39691 45.7769 6.48962 45.4988 6.48962 45.1986C6.48962 44.8939 6.40133 44.629 6.22474 44.4038C6.04815 44.1742 5.75678 43.9821 5.35063 43.8276C5.09016 43.7261 4.51404 43.5693 3.62227 43.3574C2.7305 43.141 2.10582 42.9379 1.74823 42.7481C1.28468 42.5052 0.938126 42.205 0.708561 41.8474C0.483411 41.4853 0.370836 41.0813 0.370836 40.6354C0.370836 40.1453 0.509899 39.6883 0.788026 39.2645C1.06615 38.8362 1.47231 38.5117 2.00649 38.2909C2.54067 38.0701 3.13444 37.9597 3.78782 37.9597C4.50742 37.9597 5.14093 38.0768 5.68835 38.3108C6.24019 38.5404 6.66401 38.8803 6.95979 39.3307C7.25558 39.781 7.41451 40.291 7.43658 40.8606L6.20487 40.9533C6.13865 40.3396 5.9135 39.876 5.52942 39.5625C5.14976 39.249 4.58688 39.0923 3.8408 39.0923C3.06381 39.0923 2.49652 39.2358 2.13893 39.5227C1.78575 39.8053 1.60916 40.1475 1.60916 40.5493C1.60916 40.8981 1.73498 41.1851 1.98662 41.4103C2.23384 41.6354 2.87839 41.8672 3.92026 42.1057C4.96655 42.3397 5.68394 42.545 6.07243 42.7216C6.63752 42.9821 7.05471 43.3132 7.324 43.715C7.5933 44.1124 7.72795 44.5716 7.72795 45.0926C7.72795 45.6092 7.58006 46.0971 7.28427 46.5562C6.98849 47.011 6.56247 47.3664 6.00621 47.6225C5.45437 47.8742 4.8319 48 4.13879 48C3.26026 48 2.52301 47.872 1.92702 47.6159C1.33545 47.3598 0.869698 46.9757 0.529765 46.4635C0.194247 45.9469 0.0176588 45.3641 0 44.7151Z" fill="#727885"/>
<path d="M14.6652 47.8345V39.2711H11.4668V38.1253H19.1616V39.2711H15.9499V47.8345H14.6652Z" fill="#727885"/>
<path d="M21.1257 47.8345L24.8539 38.1253H26.2379L30.2112 47.8345H28.7477L27.6153 44.8939H23.556L22.4899 47.8345H21.1257ZM23.9268 43.8475H27.218L26.2048 41.1586C25.8958 40.3418 25.6662 39.6707 25.5161 39.1452C25.3925 39.7678 25.2181 40.3859 24.993 40.9996L23.9268 43.8475Z" fill="#727885"/>
<path d="M33.9368 47.8345V38.1253H35.2546L40.3535 45.7482V38.1253H41.5852V47.8345H40.2675L35.1685 40.2049V47.8345H33.9368Z" fill="#727885"/>
<path d="M46.4631 47.8345V38.1253H49.8072C50.5621 38.1253 51.1382 38.1717 51.5356 38.2644C52.0918 38.3924 52.5664 38.6242 52.9593 38.9598C53.4714 39.3925 53.8533 39.9466 54.1049 40.6221C54.361 41.2933 54.489 42.0615 54.489 42.9269C54.489 43.6643 54.4029 44.3177 54.2307 44.8873C54.0586 45.4568 53.8378 45.9293 53.5685 46.3046C53.2992 46.6755 53.0035 46.9691 52.6812 47.1854C52.3633 47.3973 51.977 47.5585 51.5223 47.6689C51.072 47.7793 50.5533 47.8345 49.9661 47.8345H46.4631ZM47.7477 46.6887H49.8204C50.4606 46.6887 50.9616 46.6291 51.3237 46.5099C51.6901 46.3907 51.9814 46.2229 52.1978 46.0065C52.5024 45.7019 52.7386 45.2935 52.9063 44.7813C53.0785 44.2647 53.1646 43.64 53.1646 42.907C53.1646 41.8915 52.9968 41.1122 52.6613 40.5692C52.3302 40.0217 51.9263 39.6552 51.4495 39.4698C51.1051 39.3373 50.5511 39.2711 49.7873 39.2711H47.7477V46.6887Z" fill="#727885"/>
<path d="M57.91 47.8345L61.6382 38.1253H63.0222L66.9954 47.8345H65.532L64.3996 44.8939H60.3403L59.2741 47.8345H57.91ZM60.7111 43.8475H64.0023L62.9891 41.1586C62.6801 40.3418 62.4505 39.6707 62.3004 39.1452C62.1768 39.7678 62.0024 40.3859 61.7772 40.9996L60.7111 43.8475Z" fill="#727885"/>
<path d="M70.6813 47.8345V38.1253H71.966V46.6887H76.7471V47.8345H70.6813Z" fill="#727885"/>
<path d="M80.6051 43.1057C80.6051 41.4942 81.0378 40.2336 81.903 39.3241C82.7683 38.4101 83.8852 37.9531 85.2538 37.9531C86.15 37.9531 86.9579 38.1673 87.6775 38.5955C88.3971 39.0238 88.9445 39.6221 89.3197 40.3903C89.6994 41.1542 89.8892 42.0218 89.8892 42.9931C89.8892 43.9777 89.6906 44.8586 89.2933 45.6357C88.8959 46.4127 88.3331 47.0022 87.6046 47.404C86.8762 47.8013 86.0904 48 85.2472 48C84.3333 48 83.5166 47.7793 82.797 47.3377C82.0774 46.8962 81.5322 46.2935 81.1614 45.5297C80.7905 44.7659 80.6051 43.9579 80.6051 43.1057ZM81.9295 43.1256C81.9295 44.2956 82.243 45.2184 82.8699 45.894C83.5012 46.5651 84.2914 46.9006 85.2406 46.9006C86.2074 46.9006 87.002 46.5607 87.6245 45.8807C88.2514 45.2008 88.5648 44.236 88.5648 42.9865C88.5648 42.1962 88.4302 41.5074 88.1609 40.9202C87.896 40.3285 87.5053 39.8716 86.9888 39.5492C86.4767 39.2225 85.9006 39.0591 85.2604 39.0591C84.351 39.0591 83.5674 39.3726 82.9096 39.9996C82.2562 40.6221 81.9295 41.6641 81.9295 43.1256Z" fill="#727885"/>
<path d="M94.2505 47.8345V38.1253H95.5683L100.667 45.7482V38.1253H101.899V47.8345H100.581L95.4822 40.2049V47.8345H94.2505Z" fill="#727885"/>
<path d="M106.803 47.8345V38.1253H113.823V39.2711H108.088V42.2447H113.458V43.3839H108.088V46.6887H114.048V47.8345H106.803Z" fill="#727885"/>
</svg>
