<svg width="46" height="55" viewBox="0 0 46 55" fill="none" xmlns="http://www.w3.org/2000/svg">
<path fill-rule="evenodd" clip-rule="evenodd" d="M8.63465 29.7577H10.1129C9.9655 28.9686 9.89188 28.1676 9.89296 27.3649C9.89296 23.8887 11.2739 20.5548 13.7319 18.0968C16.19 15.6388 19.5238 14.2578 23 14.2578C26.4762 14.2578 29.81 15.6388 32.268 18.0968C34.7261 20.5548 36.107 23.8887 36.107 27.3649C36.1081 28.1676 36.0345 28.9686 35.8871 29.7577H37.3653C39.0577 29.7598 40.701 29.189 42.0277 28.1381C43.3544 27.0873 44.2863 25.6184 44.6717 23.9704C45.0572 22.3225 44.8735 20.5926 44.1505 19.0624C43.4275 17.5321 42.2079 16.2917 40.6901 15.543L40.0697 15.2328L40.1548 14.3818C40.2179 13.8524 40.2536 13.3202 40.2617 12.7872C40.2626 10.6623 39.689 8.57682 38.6018 6.75127C37.5145 4.92572 35.9539 3.42807 34.0852 2.41679C32.2165 1.40551 30.1091 0.918231 27.9861 1.00652C25.8632 1.09481 23.8036 1.75537 22.0253 2.91832C20.16 4.14684 18.6752 5.87215 17.7384 7.8996L17.4048 8.61853L16.6278 8.46314C16.018 8.34599 15.3984 8.28826 14.7775 8.29077C12.8082 8.28841 10.8936 8.93884 9.33332 10.1403C7.79133 11.323 6.65383 12.9546 6.07739 14.8104L5.94591 15.2382L5.5409 15.4269C4.72096 15.8029 3.97324 16.3196 3.33165 16.9536C2.28149 18.0021 1.56606 19.3386 1.27593 20.7939C0.985804 22.2492 1.13404 23.7578 1.70186 25.1288C2.26968 26.4998 3.23155 27.6715 4.46569 28.4955C5.69982 29.3195 7.15071 29.7588 8.63465 29.7577ZM16.8365 18.1429C18.6609 16.9239 20.8058 16.2733 23 16.2733C25.9413 16.2766 28.7611 17.4465 30.8409 19.5263C32.9207 21.6061 34.0906 24.4259 34.0939 27.3672C34.0939 29.5614 33.4433 31.7063 32.2243 33.5306C31.0052 35.355 29.2726 36.777 27.2455 37.6166C25.2183 38.4563 22.9877 38.676 20.8357 38.248C18.6837 37.8199 16.7069 36.7633 15.1554 35.2118C13.6039 33.6603 12.5473 31.6835 12.1192 29.5315C11.6912 27.3795 11.9109 25.1489 12.7505 23.1217C13.5902 21.0946 15.0122 19.3619 16.8365 18.1429ZM24.0065 28.3737H27.2849C27.5518 28.3737 27.8079 28.2677 27.9966 28.0789C28.1854 27.8902 28.2914 27.6341 28.2914 27.3672C28.2914 27.1002 28.1854 26.8442 27.9966 26.6555C27.8079 26.4667 27.5518 26.3606 27.2849 26.3606H24.0065V23.0193C24.0065 22.7523 23.9005 22.4963 23.7117 22.3075C23.523 22.1188 23.267 22.0127 23 22.0127C22.733 22.0127 22.477 22.1188 22.2883 22.3075C22.0995 22.4963 21.9935 22.7523 21.9935 23.0193V26.3606H18.7151C18.4482 26.3606 18.1922 26.4667 18.0034 26.6555C17.8146 26.8442 17.7086 27.1002 17.7086 27.3672C17.7086 27.6341 17.8146 27.8902 18.0034 28.0789C18.1922 28.2677 18.4482 28.3737 18.7151 28.3737H21.9935V31.6521C21.9935 31.919 22.0995 32.175 22.2883 32.3638C22.477 32.5526 22.733 32.6586 23 32.6586C23.267 32.6586 23.523 32.5526 23.7117 32.3638C23.9005 32.175 24.0065 31.919 24.0065 31.6521V28.3737ZM25.768 52.2283C25.768 53.7571 24.5287 54.9963 23 54.9963C21.4713 54.9963 20.232 53.7571 20.232 52.2283C20.232 50.6996 21.4713 49.4603 23 49.4603C24.5287 49.4603 25.768 50.6996 25.768 52.2283ZM2.86902 48.7055C4.39775 48.7055 5.63703 47.4662 5.63703 45.9375C5.63703 44.4087 4.39775 43.1694 2.86902 43.1694C1.34029 43.1694 0.101013 44.4087 0.101013 45.9375C0.101013 47.4662 1.34029 48.7055 2.86902 48.7055ZM45.899 45.9375C45.899 47.4662 44.6597 48.7055 43.1309 48.7055C41.6022 48.7055 40.3629 47.4662 40.3629 45.9375C40.3629 44.4087 41.6022 43.1694 43.1309 43.1694C44.6597 43.1694 45.899 44.4087 45.899 45.9375ZM21.9934 39.4457H24.0065V48.5047H21.9934V39.4457ZM34.072 42.1634V34.0774L32.0589 36.5938V42.1634C32.0589 44.7996 34.2038 46.9948 36.84 46.9948H39.3564V44.9817H36.84C35.3137 44.9817 34.072 43.6892 34.072 42.1634ZM9.15996 44.9817C10.6863 44.9817 11.928 43.6896 11.928 42.1633V34.0984L13.9411 36.6147V42.1633C13.9411 44.7991 11.7962 46.9948 9.15996 46.9948H6.64359V44.9817H9.15996Z" fill="url(#paint0_linear)"/>
<defs>
<linearGradient id="paint0_linear" x1="45.899" y1="0.996344" x2="-8.60802" y2="13.2934" gradientUnits="userSpaceOnUse">
<stop stop-color="#D045AE"/>
<stop offset="1" stop-color="#473CC2"/>
</linearGradient>
</defs>
</svg>
