<svg width="74" height="104" viewBox="0 0 74 104" fill="none" xmlns="http://www.w3.org/2000/svg">
<g clip-path="url(#clip0)">
<rect width="16" height="12" transform="translate(0 6)" fill="white" fill-opacity="0.1"/>
</g>
<path opacity="0.1" d="M28 12L16 0V24L28 12Z" fill="white"/>
<g clip-path="url(#clip1)">
<rect width="58" height="18" transform="translate(0 31)" fill="white" fill-opacity="0.1"/>
<path opacity="0.1" d="M74 40L58 24V56L74 40Z" fill="white"/>
</g>
<g clip-path="url(#clip2)">
<rect width="32" height="12" transform="translate(0 62)" fill="white" fill-opacity="0.1"/>
</g>
<path opacity="0.1" d="M44 68L32 56V80L44 68Z" fill="white"/>
<g clip-path="url(#clip3)">
<rect width="16" height="12" transform="translate(0 86)" fill="white" fill-opacity="0.1"/>
</g>
<path opacity="0.1" d="M28 92L16 80V104L28 92Z" fill="white"/>
<defs>
<clipPath id="clip0">
<rect width="16" height="12" fill="white" transform="translate(0 6)"/>
</clipPath>
<clipPath id="clip1">
<rect width="74" height="32" fill="white" transform="translate(0 24)"/>
</clipPath>
<clipPath id="clip2">
<rect width="32" height="12" fill="white" transform="translate(0 62)"/>
</clipPath>
<clipPath id="clip3">
<rect width="16" height="12" fill="white" transform="translate(0 86)"/>
</clipPath>
</defs>
</svg>
