<svg width="60" height="42" viewBox="0 0 60 42" fill="none" xmlns="http://www.w3.org/2000/svg">
<path fill-rule="evenodd" clip-rule="evenodd" d="M39.4004 19.0279L20.2771 16.2996L18.3746 9.22637L52.6726 0.00183105L54.5749 7.07467L39.4004 19.0279ZM60 27.245L55.081 8.9563L45.4493 16.5426L60 27.245ZM39.9058 20.9087L34.761 20.1748L27.0664 37.8222L59.4987 29.1L43.9893 17.6925L39.9058 20.9087ZM16.1797 7.96198L22.2856 6.31978L10.2206 1.63064L7.56701 8.4575L19.4421 20.0912L16.1797 7.96198ZM0 27.9264L6.86116 10.2737L15.6199 18.8539L0 27.9264ZM16.9469 20.1539L0.298713 29.8237L24.6003 39.2688L20.3578 23.4953L16.9469 20.1539ZM25.702 36.4688L20.783 18.1804L32.9211 19.9123L25.702 36.4688ZM26.2295 39.902L31.6037 41.9909L30.5841 38.7309L26.2295 39.902ZM34.2938 37.7333L33.1046 40.7923L32.3142 38.2656L34.2938 37.7333Z" fill="url(#paint0_linear)"/>
<defs>
<linearGradient id="paint0_linear" x1="60" y1="0.00183606" x2="-5.57033" y2="24.926" gradientUnits="userSpaceOnUse">
<stop stop-color="#D045AE"/>
<stop offset="1" stop-color="#473CC2"/>
</linearGradient>
</defs>
</svg>
