<svg width="136" height="40" viewBox="0 0 136 40" fill="none" xmlns="http://www.w3.org/2000/svg">
<path d="M50 12V0H39L34 5H41.5L25 21.5L18 14.5L16.5 13L8.5 5H28L33 0H3.5H0V3.5V40H50V18L45 23V35H5V8.5L13 16.5L14.5 18L21.5 25L25 28.5L28.5 25L45 8.5V17L50 12Z" fill="url(#paint0_linear)"/>
<path d="M106.6 0H101V24.1H106.6V0Z" fill="white"/>
<path d="M80.8 0L70.1 24.1H75.8L77.9 18.9H89.1L91.2 24.1H97.1L86.3 0H80.8ZM79.7 14.7L83.5 5.5L87.3 14.7H79.7Z" fill="white"/>
<path d="M135 24.1L129.6 16.4C131.2 15.7 132.4 14.7 133.3 13.4C134.2 12.1 134.6 10.6 134.6 8.80001C134.6 7.00001 134.2 5.50001 133.3 4.20001C132.5 2.90001 131.2 1.90001 129.7 1.20001C128.1 0.500006 126.3 0.100006 124.1 0.100006H113.7V24.2H119.3V17.5H124.2H124.5L129.1 24.2H135V24.1ZM127.6 11.8C126.7 12.5 125.5 12.9 123.8 12.9H119.3V4.50001H123.8C125.5 4.50001 126.7 4.90001 127.6 5.60001C128.5 6.30001 128.9 7.40001 128.9 8.70001C128.9 10.1 128.5 11.1 127.6 11.8Z" fill="white"/>
<path d="M133.7 36.7C134.4 36.5 134.9 36.1 135.3 35.6C135.7 35.1 135.9 34.5 135.9 33.7C135.9 32.7 135.6 31.9 134.9 31.4C134.2 30.8 133.3 30.6 132.1 30.6H128.7V40H129.4V36.9H132.1C132.4 36.9 132.7 36.9 133 36.8L135.2 39.9H136L133.7 36.7ZM132.1 36.3H129.4V31.2H132.1C133.1 31.2 133.9 31.4 134.4 31.9C134.9 32.3 135.2 33 135.2 33.8C135.2 34.6 134.9 35.2 134.4 35.7C133.8 36.1 133.1 36.3 132.1 36.3Z" fill="white"/>
<path d="M78.6 30.6L74.4 37.9L70.2 30.6H69.6V40H70.3V32L74.2 38.8H74.5L78.5 32V40H79.1V30.6H78.6Z" fill="white"/>
<path d="M88.4 30.6L84.1 40H84.8L86 37.4H91.4L92.6 40H93.3L89 30.6H88.4ZM86.3 36.8L88.8 31.4L91.3 36.8H86.3Z" fill="white"/>
<path d="M117.2 35.5H122.2V34.9H117.2V31.2H122.8V30.6H116.5V40H123V39.4H117.2V35.5Z" fill="white"/>
<path d="M98.9999 30.6H98.2999V40H98.9999V30.6Z" fill="white"/>
<path d="M106.1 30.6H105.5V40H111.5V39.4H106.1V30.6Z" fill="white"/>
<defs>
<linearGradient id="paint0_linear" x1="50" y1="4.76837e-06" x2="-6.31096" y2="18.7241" gradientUnits="userSpaceOnUse">
<stop stop-color="#D045AE"/>
<stop offset="1" stop-color="#473CC2"/>
</linearGradient>
</defs>
</svg>
