<svg xmlns="http://www.w3.org/2000/svg" xmlns:xlink="http://www.w3.org/1999/xlink" viewBox="0 0 65.74 7.22"><defs><style>.cls-1{fill:url(#linear-gradient);}</style><linearGradient id="linear-gradient" y1="3.61" x2="65.74" y2="3.61" gradientUnits="userSpaceOnUse"><stop offset="0" stop-color="#473cc2"/><stop offset="1" stop-color="#d045ae"/></linearGradient></defs><title>Ресурс 5</title><g id="Слой_2" data-name="Слой 2"><g id="Layer_1" data-name="Layer 1"><path class="cls-1" d="M61.71,6V3.87h1.84a.89.89,0,0,1,.6.2.79.79,0,0,1,.22.61v.46a.77.77,0,0,1-.22.61.89.89,0,0,1-.6.2ZM60.39,7.1h3.29a2.13,2.13,0,0,0,.86-.16A1.82,1.82,0,0,0,65.6,5.81a3,3,0,0,0,0-1.8,1.82,1.82,0,0,0-1.06-1.13,2.13,2.13,0,0,0-.86-.16h-2V.12H60.39ZM58.91,1.29V.12H53.63V1.29h2V7.1h1.32V1.29ZM48,7.1h.87a2.62,2.62,0,0,0,.52,0,1,1,0,0,0,.4-.16,1.17,1.17,0,0,0,.3-.29,1.89,1.89,0,0,0,.24-.45l2.46-6H51.47l-1,2.45L50,3.92h0l-.56-1.33L48.27.12h-1.4l2.48,5.3-.2.51H48Zm-3.81,0H45.5v-7H44.18V3H41.27V.12H40v7h1.32V4.15h2.91ZM34.46,1.27h1.7a.89.89,0,0,1,.6.2.73.73,0,0,1,.22.58v.46a.73.73,0,0,1-.22.58.84.84,0,0,1-.6.21h-1.7Zm0,5.83V4.44h1.82a2.21,2.21,0,0,0,.87-.16,1.85,1.85,0,0,0,1.06-1.11,2.77,2.77,0,0,0,.14-.89,2.75,2.75,0,0,0-.14-.88A1.84,1.84,0,0,0,37.8.71a2,2,0,0,0-.65-.44,2.41,2.41,0,0,0-.87-.15H33.14v7Zm-3.12,0V5.93H28.06V4.15H31V3h-2.9V1.29h3.28V.12h-4.6v7ZM21,1.24h1.63a.76.76,0,0,1,.56.19.76.76,0,0,1,.2.55v.31a.72.72,0,0,1-.2.54.77.77,0,0,1-.56.2H21Zm0,2.87h1.84a.84.84,0,0,1,.59.2.74.74,0,0,1,.21.57v.34a.72.72,0,0,1-.21.56.8.8,0,0,1-.59.2H21Zm-1.32,3h3.54A1.58,1.58,0,0,0,24,6.94a1.69,1.69,0,0,0,.57-.42,1.94,1.94,0,0,0,.38-.64,2.2,2.2,0,0,0,.13-.78,1.75,1.75,0,0,0-.15-.76,1.47,1.47,0,0,0-.38-.5A1.38,1.38,0,0,0,24,3.56a1.61,1.61,0,0,0-.5-.09V3.41a1.58,1.58,0,0,0,.47-.1,1.18,1.18,0,0,0,.4-.27,1.38,1.38,0,0,0,.28-.46,1.86,1.86,0,0,0,.1-.67,2.21,2.21,0,0,0-.12-.74A1.57,1.57,0,0,0,24.3.61a1.78,1.78,0,0,0-.58-.36,2.13,2.13,0,0,0-.78-.13H19.71Zm-3.28,0a2.4,2.4,0,0,0,.86-.43A2.09,2.09,0,0,0,17.83,6,2,2,0,0,0,18,5.07a1.53,1.53,0,0,0-.13-.66,1.54,1.54,0,0,0-.34-.48,1.59,1.59,0,0,0-.5-.3,2.32,2.32,0,0,0-.58-.13V3.44a1.7,1.7,0,0,0,1-.44,1.41,1.41,0,0,0,.4-1.09A1.64,1.64,0,0,0,17.22.52,3,3,0,0,0,15.34,0,3.19,3.19,0,0,0,14,.27a3,3,0,0,0-1,.78l.84.8a1.75,1.75,0,0,1,.66-.5,2.05,2.05,0,0,1,.87-.18,1.47,1.47,0,0,1,.87.21.73.73,0,0,1,.28.62v.08c0,.6-.36.9-1.07.9H14.31V4.15h1.17a1.47,1.47,0,0,1,.87.21.82.82,0,0,1,.27.67v.08a.79.79,0,0,1-.34.7,1.72,1.72,0,0,1-1,.24,2,2,0,0,1-.92-.21,2.16,2.16,0,0,1-.72-.57l-.89.86a3.22,3.22,0,0,0,2.53,1.09A3.7,3.7,0,0,0,16.43,7.06ZM9.6,4.19H7.76l.89-2.87h0ZM11.85,7.1,9.53.12H7.89l-2.34,7H6.89l.55-1.78H9.92l.56,1.78ZM1.32,1.27H3a.89.89,0,0,1,.6.2.73.73,0,0,1,.22.58v.46a.73.73,0,0,1-.22.58A.84.84,0,0,1,3,3.3H1.32Zm0,5.83V4.44H3.14A2.21,2.21,0,0,0,4,4.28,1.85,1.85,0,0,0,5.07,3.17a2.77,2.77,0,0,0,.14-.89,2.75,2.75,0,0,0-.14-.88A1.84,1.84,0,0,0,4.66.71,2,2,0,0,0,4,.27,2.41,2.41,0,0,0,3.14.12H0v7Z"/></g></g></svg>