<svg xmlns="http://www.w3.org/2000/svg" viewBox="0 0 16.83 22.17"><defs><style>.cls-1{fill:#0568d9;}</style></defs><g id="Слой_2" data-name="Слой 2"><g id="Layer_1" data-name="Layer 1"><path class="cls-1" d="M4.28,8.48A2,2,0,0,0,5.7,8.07a1.6,1.6,0,0,0,.46-1.29A1.72,1.72,0,0,0,5.7,5.47,2.13,2.13,0,0,0,4.25,5H2.71V9.82h1V8.48ZM3.68,6h.55a1.16,1.16,0,0,1,.71.18.69.69,0,0,1,.23.6A1,1,0,0,1,5,7.36a.87.87,0,0,1-.67.21H3.68Z"/><path class="cls-1" d="M10,9.15a2.45,2.45,0,0,0,.59-1.77,2.39,2.39,0,0,0-.62-1.75A2.43,2.43,0,0,0,8.14,5H6.6V9.8H8.09A2.39,2.39,0,0,0,10,9.15Zm-.74-.64a1.31,1.31,0,0,1-1,.37H7.59V6h.55a1.46,1.46,0,0,1,1.1.39,1.57,1.57,0,0,1,.37,1.08A1.67,1.67,0,0,1,9.22,8.51Z"/><polygon class="cls-1" points="14.07 5.98 14.07 5.04 11.08 5.04 11.08 9.82 12.05 9.82 12.05 7.93 13.96 7.93 13.96 7.01 12.05 7.01 12.05 5.98 14.07 5.98"/><path class="cls-1" d="M15.34,0H1.45A1.44,1.44,0,0,0,0,1.45v17a1.44,1.44,0,0,0,1.45,1.45H4.64l-.43-.44L3.77,19H1.47a.56.56,0,0,1-.57-.57v-17A.57.57,0,0,1,1.47.87H15.38a.57.57,0,0,1,.58.58v17a.57.57,0,0,1-.58.57h-2l-.44.44-.44.44h2.85a1.44,1.44,0,0,0,1.45-1.45v-17A1.49,1.49,0,0,0,15.34,0Z"/><polygon class="cls-1" points="13.47 17.15 10.46 17.13 10.46 12.16 6.32 12.16 6.32 17.06 3.31 17.02 8.46 22.17 13.47 17.15"/></g></g></svg>