<svg width="46" height="49" viewBox="0 0 46 49" fill="none" xmlns="http://www.w3.org/2000/svg">
<path fill-rule="evenodd" clip-rule="evenodd" d="M34.5659 13.9579L33.8369 15.6767C40.8897 18.8059 45.6843 24.8867 45.6843 31.8683C45.6843 36.823 43.3018 41.4695 38.9753 44.9544L38.8153 45.0848H34.4829V48.9963H11.5171V45.0848H7.18471L7.02472 44.9544C2.69826 41.4695 0.315735 36.823 0.315735 31.8683C0.315735 24.4778 5.69122 18.0948 13.4374 15.1551L11.3571 12.2333L14.0597 9.104L10.2606 11.0835L8.133 8.74842C7.41586 9.28183 6.52686 9.60779 5.56081 9.60779C3.19015 9.60779 1.25805 7.67569 1.25805 5.2991C1.25805 2.92843 3.19015 0.996338 5.56081 0.996338C7.93741 0.996338 9.86357 2.92843 9.86357 5.2991C9.86357 6.28291 9.53168 7.1897 8.97457 7.91274L10.5274 9.61372L13.5144 8.05501L19.0143 5.18649L12.8625 12.3044L14.599 14.7462C17.2008 13.8987 20.0337 13.4305 23.003 13.4305C26.4878 13.4305 29.789 14.0765 32.7405 15.2203L33.2206 14.0883L32.3908 12.8615L29.706 8.90845L34.9689 11.6999L35.5794 10.7338C34.2044 9.76779 33.2976 8.16762 33.2976 6.35406C33.2976 3.40256 35.7038 0.996338 38.6553 0.996338C41.6127 0.996338 44.013 3.40256 44.013 6.35406C44.013 9.31146 41.6127 11.7177 38.6553 11.7177C37.9382 11.7177 37.2507 11.5695 36.6225 11.3087L35.3778 13.2645L33.3687 12.1977L34.5659 13.9579ZM12.7025 47.811H33.2976V45.0848H12.7025V47.811ZM23.003 36.1948C20.4427 36.1948 18.0483 36.7341 16.2525 37.7179L16.8215 38.7551C18.4217 37.878 20.6738 37.3801 23.003 37.3801C25.3262 37.3801 27.5784 37.878 29.1786 38.7551L29.7475 37.7179C27.9517 36.7341 25.5574 36.1948 23.003 36.1948ZM16.3355 34.8257H29.6646C33.0309 34.8257 35.769 32.0876 35.769 28.7213C35.769 25.3549 33.0309 22.6168 29.6646 22.6168H16.3355C12.9691 22.6168 10.231 25.3549 10.231 28.7213C10.231 32.0876 12.9691 34.8257 16.3355 34.8257ZM18.635 24.7979C16.6377 24.7979 15.0138 26.4218 15.0138 28.419H16.1992C16.1992 27.0737 17.2897 25.9832 18.635 25.9832C19.9804 25.9832 21.0709 27.0737 21.0709 28.419H22.2562C22.2562 26.4218 20.6323 24.7979 18.635 24.7979ZM27.365 24.7979C25.3677 24.7979 23.7438 26.4218 23.7438 28.419H24.9291C24.9291 27.0737 26.0196 25.9832 27.365 25.9832C28.7103 25.9832 29.8009 27.0737 29.8009 28.419H30.9862C30.9862 26.4218 29.3623 24.7979 27.365 24.7979Z" fill="url(#paint0_linear)"/>
<defs>
<linearGradient id="paint0_linear" x1="45.6843" y1="0.996344" x2="-7.6861" y2="14.4151" gradientUnits="userSpaceOnUse">
<stop stop-color="#D045AE"/>
<stop offset="1" stop-color="#473CC2"/>
</linearGradient>
</defs>
</svg>
