<svg width="356" height="310" viewBox="0 0 356 310" fill="none" xmlns="http://www.w3.org/2000/svg">
<path d="M187.62 162.311C179.96 162.311 172.3 162.131 164.65 162.401C161.51 162.511 160.87 161.031 160.45 158.501C157.14 138.911 156.93 119.301 159.62 99.6111C160.95 89.8711 163.04 80.3411 165.68 70.8911C166.23 68.9311 166.95 67.9911 169.25 68.6511C181.05 72.0211 192.89 71.8211 204.65 68.5011C207.39 67.7311 208.41 68.5211 209.09 71.1411C212.53 84.4211 214.51 97.9411 215.55 111.591C216.74 127.211 216.58 142.811 214.86 158.401C214.54 161.271 213.75 162.481 210.58 162.381C202.93 162.141 195.27 162.311 187.62 162.311ZM211.9 109.021C211.62 102.321 210.65 95.7211 209.33 89.1711C208.42 84.6411 207.31 80.1411 206.16 75.6611C205.87 74.5511 205.92 72.5111 204.16 72.8911C202.41 73.2711 203.23 74.9611 203.54 76.1711C206.25 87.0411 208.86 97.9311 209.14 109.211C209.16 110.191 209.17 111.431 210.43 111.421C211.83 111.401 211.92 110.121 211.9 109.021ZM212.07 127.181C212.08 127.181 212.09 127.181 212.11 127.181C212.11 124.821 212.16 122.451 212.09 120.101C212.05 118.881 212.29 117.101 210.44 117.241C208.85 117.351 209.19 118.991 209.27 120.121C209.63 125.051 209.96 129.971 209.25 134.901C209.11 135.881 209.01 137.081 210.19 137.321C211.64 137.611 211.99 136.281 212.04 135.241C212.15 132.551 212.07 129.861 212.07 127.181Z" fill="url(#paint0_linear)"/>
<path d="M245.14 179.511C240.06 171.911 233.27 167.481 225.79 163.971C224.35 163.291 223.56 162.571 223.91 160.801C226.71 146.461 227.39 132.031 225.25 117.061C230.16 120.341 233.54 124.451 236.31 129.091C241.54 137.851 244.1 147.491 245.14 157.541C245.86 164.581 246.42 171.681 245.14 179.511ZM240.1 144.311C238.81 138.621 236.2 133.151 232.7 128.081C232.24 127.411 231.48 127.001 230.77 127.571C229.91 128.251 230.34 129.111 230.82 129.861C233.86 134.561 236.4 139.491 237.56 145.031C237.74 145.881 238.08 146.821 239.22 146.521C240.08 146.301 240.17 145.471 240.1 144.311ZM242.24 156.591C242.15 155.851 242.09 155.101 241.97 154.361C241.76 153.141 241.79 151.311 240.14 151.511C238.16 151.751 239.18 153.421 239.37 154.611C239.49 155.351 239.48 156.111 239.57 156.851C239.68 157.771 240.02 158.601 241.12 158.491C242.25 158.391 242.39 157.531 242.24 156.591Z" fill="#473CC2"/>
<path d="M132.01 177.911C129.57 180.161 130.94 176.731 130.08 176.621C129.79 165.421 129.63 154.241 132.67 143.301C135.1 134.571 138.81 126.541 145.4 120.101C146.09 119.421 146.83 118.791 147.58 118.181C147.8 118.001 148.14 117.951 148.56 117.791C149.27 120.131 148.29 122.281 148.21 124.461C147.78 136.451 148.69 148.321 151.28 160.031C151.78 162.301 151.11 163.281 149.11 164.211C142.31 167.381 136.05 171.271 132.01 177.911Z" fill="#473CC2"/>
<path d="M197.08 61.1111C195.84 61.4011 195.42 60.3911 194.9 59.6111C192.88 56.5511 190.85 53.5011 188.94 50.3711C187.81 48.5111 187 48.0311 185.74 50.2911C184.17 53.1111 182.11 55.6811 180.74 58.5911C179.29 61.6911 177.34 62.0711 174.33 61.1811C170.18 59.9511 170.14 60.1211 172.04 56.1911C175.97 48.0311 180.03 39.9511 185.42 32.6211C186.45 31.2211 187.03 30.5011 188.36 32.4411C193.63 40.0911 198.42 47.9711 202.16 56.5111C203.44 59.4411 202.71 60.3211 199.92 60.5911C198.98 60.6911 198.03 60.9311 197.08 61.1111ZM194.73 50.2311C195.68 50.0111 196.27 49.3611 195.9 48.5911C194.67 46.0911 193.29 43.6511 191.91 41.2211C191.64 40.7411 191.03 40.6211 190.48 40.9211C189.96 41.2011 189.53 41.7511 189.77 42.2211C191.1 44.7911 192.53 47.3111 193.96 49.8311C194.08 50.0711 194.49 50.1211 194.73 50.2311Z" fill="url(#paint1_linear)"/>
<g opacity="0.1">
<path opacity="0.5" d="M216.36 221.401C216.79 221.411 217.28 221.281 217.64 221.441C221.61 223.191 225.47 224.881 229.81 222.151C230.91 221.461 232.81 222.101 233.63 223.241C235.23 225.461 237.21 225.831 239.66 225.341C240.15 225.241 240.74 225.411 241.23 225.591C244.83 226.891 247.95 228.661 252.38 226.861C256.08 225.361 259.54 229.671 258.65 233.821C258.3 235.441 258.46 235.821 260.08 236.501C262.99 237.721 265.21 240.031 266.36 243.061C266.87 244.401 267.29 244.541 268.66 244.071C276.1 241.511 282.67 246.711 281.91 254.621C281.74 256.411 282.47 256.311 283.62 256.371C286.88 256.541 289.94 257.331 292.63 259.311C293.27 259.781 293.84 260.191 293.81 261.061C290.28 262.021 286.67 262.811 283.91 265.491C282.87 266.501 282.36 265.921 281.67 265.001C278.7 261.031 274.72 260.011 270.21 261.721C268.18 262.491 267.19 262.031 265.91 260.441C263.41 257.361 260.12 255.421 256.19 254.461C250.3 253.031 245.47 255.451 240.71 258.341C240.68 250.341 240.66 242.351 240.63 234.351C240.63 233.301 240.12 232.611 239.08 232.841C238.2 233.041 237.66 233.841 237.65 234.791C237.62 243.921 237.61 253.051 237.61 262.181C237.61 262.981 237.9 263.701 238.72 263.961C239.74 264.271 240.33 263.701 240.69 262.801L240.71 262.781C241.21 262.561 241.48 262.181 241.54 261.641L241.63 261.671C241.73 261.641 241.86 261.631 241.93 261.571C250.02 254.701 260.81 256.491 265.7 265.311C266.61 266.951 267.75 266.561 269.2 265.721C274.59 262.621 278.08 263.911 280.23 269.641C280.96 271.591 281.68 272.461 283.5 270.401C288.75 264.471 295.47 262.881 302.09 265.781C308.81 268.731 312.06 274.821 311.23 282.901C285.62 282.901 260.01 282.911 234.39 282.911C233.04 271.861 223.88 264.841 213.86 267.511C210.91 268.301 210.24 267.671 209.36 264.871C207.37 258.531 203.59 253.591 196.5 252.231C195.28 252.001 194.23 252.251 193.86 253.441C193.49 254.641 194.53 255.091 195.49 255.401C203.09 257.841 206.47 261.941 207.19 269.621C207.5 273.001 208.06 273.301 211.1 271.771C220.24 267.141 230.53 272.851 231.13 282.881C204.08 282.881 177.04 282.881 149.99 282.881C153.39 275.991 159.26 272.981 166.63 272.591C168.82 272.481 169.92 272.061 170.08 269.551C170.53 262.451 174.53 257.861 181.02 255.371C185.68 253.591 186.04 253.891 185.99 258.721C185.99 259.151 185.98 259.581 185.99 260.011C186.02 261.291 185.85 263.031 187.56 263.021C189.44 263.021 188.94 261.181 188.94 259.981C188.97 250.501 188.95 241.021 188.95 231.541C188.95 229.391 188.96 227.231 188.96 225.081C188.96 224.171 188.79 223.221 187.72 223.121C186.48 223.011 186.11 224.001 186 225.021C185.92 225.771 185.98 226.531 185.98 227.281C185.98 234.281 185.92 241.281 186.01 248.281C186.03 250.151 185.77 251.161 183.6 251.561C174.63 253.241 169.12 258.681 167.12 267.571C166.84 268.821 166.46 269.391 165.12 269.531C156.33 270.421 150.24 275.181 146.23 282.881C120.71 282.871 95.1901 282.851 69.6601 282.841C71.7201 273.241 78.4001 268.411 87.1201 270.871C90.5701 271.841 91.5401 271.021 92.4901 267.881C96.08 256.011 107.69 251.401 118.52 257.361C121.02 258.731 121.94 258.231 121.96 255.211C122.01 245.941 121.98 236.671 121.98 227.411C121.98 226.101 122.04 224.411 120.36 224.421C118.5 224.431 118.97 226.261 118.96 227.461C118.93 235.221 118.88 242.981 118.99 250.741C119.02 253.061 118.97 254.171 116.13 252.901C113.2 251.581 110 251.031 106.67 251.651C98.66 253.141 93.34 257.901 90.2401 265.211C89.4201 267.151 88.7901 268.021 86.4001 267.551C81.9301 266.681 77.61 267.481 73.74 270.101C71.61 271.541 70.12 273.581 68.63 275.911C67.78 274.561 67.21 273.531 66.52 272.581C61.65 265.881 55.05 262.401 46.7901 263.141C38.5301 263.881 32.18 267.821 28.5201 275.641C27.5801 277.651 28.42 280.841 25.7701 281.591C23.58 282.211 21.0701 281.721 18.6901 281.711C18.4801 281.711 18.26 281.651 18.05 281.621C18.09 275.551 21.07 271.001 25.6 267.321C26.54 266.551 27.26 265.721 27.85 264.661C30.39 260.061 34.2601 257.191 39.4901 256.411C41.1401 256.161 41.26 255.671 40.98 254.111C38.8 242.161 46.39 230.861 57.89 228.331C59.8801 227.891 61.1101 227.131 62.0201 225.001C66.0201 215.631 78.66 213.851 85.2 221.691C86.52 223.271 87.2501 223.411 89.2901 222.851C92.5301 221.961 94.44 221.461 94.2401 217.131C94.05 212.871 97.35 209.961 101.7 209.021C103.85 208.561 104.67 207.521 105.18 205.311C106.8 198.221 114.07 191.881 123.26 192.241C127.38 192.231 135.51 197.501 136.82 199.001C138.34 202.061 140.25 204.961 140.43 208.541C140.49 209.751 141.47 209.671 142.32 209.801C148.19 210.681 153.2 212.991 156.43 218.291C156.85 218.981 165.61 221.521 166.03 221.061C167.27 219.741 168.4 218.431 170.07 217.501C178.1 213.011 187.18 216.051 190.42 224.681C191.15 226.621 192.08 226.881 193.91 227.401C197.68 228.471 199.82 226.951 202.49 224.641C205.37 222.141 209.13 220.701 213.19 220.771C213.25 227.541 213.31 234.311 213.38 241.081C213.39 242.691 213.38 244.311 213.44 245.921C213.47 246.621 213.88 247.171 214.62 247.241C215.53 247.331 216.02 246.761 216.11 245.921C216.19 245.181 216.15 244.421 216.16 243.671C216.25 236.231 216.3 228.821 216.36 221.401ZM145.56 244.241H145.55C145.55 240.261 145.56 236.271 145.54 232.291C145.53 231.021 145.76 229.331 143.94 229.331C142.11 229.331 142.36 231.021 142.36 232.291C142.35 239.391 142.29 246.501 142.4 253.601C142.43 255.721 141.76 256.651 139.64 257.091C133.83 258.271 129.22 261.871 127.67 267.261C126.03 272.941 122.99 274.041 118.04 273.231C117.73 273.181 117.39 273.211 117.07 273.231C115.94 273.301 114.42 272.941 114.56 274.801C114.68 276.401 116.03 276.401 117.25 276.411C120.05 276.411 122.85 276.331 125.65 276.441C127.8 276.521 128.59 275.761 128.82 273.511C129.63 265.811 134.93 260.471 142.62 259.691C145.16 259.431 145.63 258.361 145.57 256.201C145.5 252.201 145.56 248.221 145.56 244.241ZM216.39 255.321C216.31 254.081 216.4 252.501 214.92 252.441C213.17 252.361 213.17 253.991 213.2 255.301C213.23 256.471 213.12 258.021 214.65 258.121C216.59 258.251 216.1 256.421 216.39 255.321ZM144.93 223.311C144.94 223.311 144.94 223.311 144.95 223.311C144.95 222.881 144.96 222.451 144.95 222.021C144.92 221.051 144.98 219.841 143.7 219.771C142.38 219.701 142.35 220.901 142.33 221.881C142.31 222.961 142.3 224.041 142.34 225.111C142.38 226.011 142.59 226.951 143.73 226.901C144.65 226.861 144.87 226.031 144.93 225.251C144.97 224.601 144.93 223.951 144.93 223.311ZM257.22 238.051C258.86 240.741 262.11 242.031 263.27 245.141C263.3 245.231 263.92 245.251 264.13 245.111C264.75 244.691 264.34 244.161 264.12 243.711C262.72 240.811 260.57 238.771 257.22 238.051ZM278.73 250.851C277.6 246.631 276.06 245.511 272.56 245.951C274.51 247.501 276.35 248.961 278.73 250.851ZM144.84 213.561C146.36 214.621 147.82 214.951 148.94 215.941C149.63 216.551 150.01 218.531 151.02 217.611C152.13 216.591 150.4 215.691 149.7 214.881C148.57 213.571 147.33 212.371 144.84 213.561ZM184.5 222.451C184.55 219.431 182.23 218.671 180.14 217.741C179.84 217.601 179.18 217.711 179.01 217.951C178.6 218.501 179.03 219.091 179.53 219.181C181.64 219.581 182.96 221.081 184.5 222.451Z" fill="#727885"/>
<path opacity="0.1" d="M30.34 282.911C30.22 276.071 34.22 270.411 41.15 267.641C48.62 264.651 57.02 266.541 62.53 272.381C65.33 275.351 66.7 278.841 66.7 282.891C54.58 282.901 42.46 282.901 30.34 282.911Z" fill="#727885"/>
<path opacity="0.1" d="M314.59 282.921C315.16 272.691 310.52 265.741 301.24 261.711C310.01 260.621 314.27 262.841 317.99 269.911C319.91 273.561 319.36 277.381 317.97 281.141C317.36 282.791 316.08 283.021 314.59 282.921Z" fill="#727885"/>
<path opacity="0.1" d="M132.01 177.911C133.08 177.831 133.63 178.741 134.44 179.171C132.66 182.211 130.69 185.141 129.22 189.361C127.75 184.161 126.83 179.841 126.67 175.381C127.99 175.291 128.95 176.201 130.08 176.621C130.93 176.731 129.57 180.151 132.01 177.911Z" fill="#727885"/>
</g>
<path opacity="0.3" d="M83.1301 82.7911C86.3901 82.8011 89.0501 85.4411 89.0001 88.6511C88.9601 91.8511 85.8801 94.8611 82.7501 94.7611C79.8901 94.6711 76.9401 91.4111 77.0301 88.4511C77.1201 85.3511 79.8701 82.7911 83.1301 82.7911ZM82.9901 91.2411C84.8601 91.1911 85.7901 90.0811 85.7801 88.5911C85.7701 87.1011 84.8101 85.9511 83.1001 85.9911C81.3401 86.0411 80.2001 86.9811 80.2901 88.7811C80.3601 90.4311 81.5601 91.1411 82.9901 91.2411Z" fill="url(#paint2_linear)"/>
<path d="M174.18 13.1811C176.63 14.3911 175.58 12.1311 176.49 12.0411C177.78 11.9111 176.77 13.7811 177.9 13.6811C178.6 13.6211 179.88 11.9611 179.57 14.2511C179.39 15.5811 180.49 16.4211 179.99 18.2411C179.32 20.7111 175.88 18.0311 176.7 20.8411C176.13 20.8811 172.12 16.3811 172.31 16.3311C173.88 15.9511 172.94 13.4111 174.18 13.1811Z" fill="url(#paint3_linear)"/>
<path d="M269.99 106.731C269.36 105.441 269.16 104.041 268.12 103.141C267.91 102.961 272.19 99.0812 272.56 99.2712C274.35 100.161 276 101.241 276.8 103.221C275.01 103.431 276.16 105.821 273.88 106.661C272.06 107.321 271.26 104.941 269.99 106.731Z" fill="url(#paint4_linear)"/>
<path d="M80.15 292.571C78.82 292.051 75.8 293.761 75.92 290.701C76.02 288.071 78.85 289.081 80.61 288.861C81.03 288.811 81.46 288.861 81.89 288.851C83.49 288.811 85.22 289.081 85.22 290.961C85.23 292.961 83.33 292.491 82.01 292.571C81.48 292.601 80.94 292.571 80.15 292.571Z" fill="url(#paint5_linear)"/>
<path d="M230.65 28.5012C231.07 27.2412 231.72 25.6512 233.32 25.5812C234.73 25.5212 236.5 26.0312 236.67 27.9712C236.87 30.3112 235.04 31.1212 233.27 31.3812C231.58 31.6212 231.08 30.0412 230.65 28.5012Z" fill="url(#paint6_linear)"/>
<path opacity="0.3" d="M267.82 146.261C269.69 144.941 270.82 144.151 271.95 143.351C272.46 144.681 275.17 143.701 274.74 145.641C274.36 147.351 274.12 149.681 271.09 149.121C269.05 148.751 270.15 146.471 267.82 146.261Z" fill="url(#paint7_linear)"/>
<path d="M68.1301 292.591C67.0701 292.471 65.5401 292.741 65.7101 290.961C65.8501 289.541 66.8501 288.751 68.4001 288.851C69.7101 288.941 70.8401 289.511 70.9101 290.811C71.0301 292.691 69.4601 292.521 68.1301 292.591Z" fill="url(#paint8_linear)"/>
<path opacity="0.1" d="M86.4601 58.1111C86.4601 59.3911 85.8601 59.9611 84.9001 60.0411C83.8001 60.1311 82.9501 59.6511 82.9501 58.4411C82.9501 57.4811 83.6601 56.7511 84.5101 56.6011C85.6901 56.4011 86.0601 57.4811 86.4601 58.1111Z" fill="url(#paint9_linear)"/>
<path d="M265.56 163.611C264.33 163.691 263.8 162.911 263.71 161.891C263.63 160.931 264.35 160.201 265.2 160.141C266.28 160.051 266.93 160.921 267.06 161.931C267.19 162.921 266.5 163.441 265.56 163.611Z" fill="url(#paint10_linear)"/>
<path opacity="0.5" d="M119.57 126.881C120.56 126.901 121.33 127.281 121.44 128.271C121.56 129.361 120.85 130.151 119.88 130.351C118.92 130.551 118.24 129.731 118.1 128.901C117.93 127.881 118.48 127.091 119.57 126.881Z" fill="url(#paint11_linear)"/>
<path opacity="0.5" d="M134.53 28.2012C134.48 29.2912 134.1 30.0712 133.09 30.1512C131.88 30.2412 131.37 29.4212 131.39 28.3212C131.4 27.3512 131.95 26.6412 132.95 26.6412C133.96 26.6312 134.39 27.3912 134.53 28.2012Z" fill="url(#paint12_linear)"/>
<path opacity="0.2" d="M217.95 1.38117C217.85 2.51117 217.24 3.33117 216.25 3.44117C215.23 3.56117 214.86 2.66117 214.81 1.74117C214.76 0.811168 215.01 0.0411685 216.14 0.00116851C217.14 -0.0288315 217.69 0.521168 217.95 1.38117Z" fill="url(#paint13_linear)"/>
<path opacity="0.1" d="M64.78 142.041C63.76 141.881 63.34 141.221 63.35 140.271C63.36 139.451 63.75 138.761 64.62 138.721C65.6 138.681 66.23 139.361 66.31 140.271C66.4 141.251 65.62 141.721 64.78 142.041Z" fill="url(#paint14_linear)"/>
<path d="M145.56 244.241C145.56 248.221 145.49 252.211 145.59 256.191C145.64 258.351 145.18 259.431 142.64 259.681C134.94 260.451 129.64 265.791 128.84 273.501C128.6 275.761 127.81 276.511 125.67 276.431C122.88 276.321 120.07 276.411 117.27 276.401C116.05 276.401 114.7 276.401 114.58 274.791C114.44 272.931 115.96 273.291 117.09 273.221C117.41 273.201 117.74 273.171 118.06 273.221C123.01 274.031 126.05 272.941 127.69 267.251C129.24 261.861 133.85 258.261 139.66 257.081C141.77 256.651 142.45 255.711 142.42 253.591C142.3 246.491 142.37 211.191 142.38 204.091C142.38 202.831 142.13 201.131 143.96 201.131C145.77 201.131 145.55 202.821 145.56 204.091C145.58 208.071 145.57 240.241 145.57 244.231C145.55 244.241 145.56 244.241 145.56 244.241Z" fill="url(#paint15_linear)"/>
<path d="M144.93 195.121C144.93 195.771 144.97 196.421 144.92 197.061C144.86 197.841 144.64 198.671 143.72 198.711C142.58 198.761 142.37 197.821 142.33 196.921C142.28 195.841 142.29 194.761 142.32 193.691C142.34 192.711 142.37 191.511 143.69 191.581C144.97 191.651 144.91 192.861 144.94 193.831C144.95 194.261 144.94 194.691 144.94 195.121C144.94 195.121 144.94 195.121 144.93 195.121Z" fill="url(#paint16_linear)"/>
<path opacity="0.2" d="M269.47 34.4312C271.35 34.6012 272.61 35.6412 272.73 37.4312C272.85 39.3412 271.83 40.8312 269.76 40.9512C267.63 41.0712 266.62 39.6412 266.55 37.7012C266.48 35.8212 267.68 34.8012 269.47 34.4312ZM271.18 37.8712C271.2 36.9912 270.72 36.4412 269.9 36.2912C268.91 36.1112 268.19 36.6012 268.03 37.5812C267.89 38.4612 268.5 39.0112 269.29 39.1712C270.3 39.3911 270.91 38.8412 271.18 37.8712Z" fill="url(#paint17_linear)"/>
<path d="M151.87 168.151L151.82 168.161L151.87 168.151Z" fill="#727885"/>
<path d="M134.09 184.001L134.22 183.911C134.43 183.761 134.56 183.601 134.66 183.411L133.06 183.861L135.03 182.191C135.5 181.791 135.96 181.401 136.43 181.001C137.83 179.211 139.23 177.421 140.63 175.631L140.66 175.591L140.7 175.561C141.36 174.981 142.02 174.391 142.68 173.811L142.69 173.801L142.7 173.791C143.01 173.541 143.32 173.301 143.62 173.051L143.65 173.021L143.69 173.001C144.65 172.441 145.6 171.881 146.56 171.321L146.58 171.311L146.6 171.301C152.55 168.341 158.83 167.861 165.18 167.861C165.99 167.861 166.8 167.871 167.62 167.881C174.66 167.981 181.7 168.041 188.74 168.041C193.4 168.041 198.06 168.011 202.72 167.961C205.41 167.931 208.13 167.801 210.87 167.801C213.48 167.801 216.1 167.921 218.72 168.371C220.06 168.601 221.93 169.201 224.12 170.241C226.31 171.281 228.81 172.781 231.38 174.811C236.51 178.871 241.88 185.081 245.44 194.101V194.111V194.121C245.46 194.191 245.54 194.381 245.64 194.611C245.74 194.851 245.86 195.141 245.99 195.451C246.13 195.791 246.26 196.151 246.38 196.491C250.03 186.351 251.94 176.091 251.94 165.731C251.94 159.021 251.14 152.271 249.5 145.471C245.6 129.371 237.18 116.541 222.47 108.331C222.06 108.101 221.73 107.841 221.48 107.541C221.23 107.241 221.05 106.921 220.94 106.591C220.71 105.941 220.68 105.291 220.61 104.671C218.89 88.9013 215.57 73.5213 209.68 58.7713C204.51 45.8213 197.64 33.8913 188.43 23.3613C188.09 22.9713 187.78 22.6813 187.53 22.5213C187.28 22.3513 187.09 22.3013 186.95 22.3013C186.8 22.3013 186.65 22.3513 186.42 22.5113C186.2 22.6713 185.93 22.9513 185.63 23.3613C183.69 25.9813 181.54 28.4113 179.74 31.0313C164.36 53.3813 156.39 78.3913 153.35 105.171C153.29 105.731 153.24 106.281 153.11 106.841C152.98 107.391 152.74 107.961 152.3 108.451C152.01 108.781 151.63 109.071 151.16 109.321C140.89 114.831 133.94 123.321 129.37 133.951C125.02 144.071 123.51 154.591 123.51 165.351C123.51 168.411 123.63 171.481 123.85 174.581C124.8 181.891 126.18 189.071 129.14 196.511C130.5 191.871 132.34 188.011 134.04 184.151L134.09 184.001ZM240.45 181.561L240.15 181.221L240.22 181.651L240.15 181.221L239.7 180.721L239.88 180.561L240.05 180.531L240.14 181.091V181.101L240.51 181.511L240.45 181.561ZM221.37 110.291L222.15 110.611C225.91 112.161 228.72 114.571 231.38 116.991C240.57 125.381 245.76 136.071 248.23 148.011C249.43 153.811 250.03 159.621 250.03 165.431C250.03 172.321 249.19 179.201 247.55 186.051C247.5 186.261 247.42 186.541 247.29 186.881C247.17 187.221 247.01 187.591 246.84 187.921C246.72 188.141 246.6 188.341 246.45 188.521C246.36 188.621 246.26 188.721 246.09 188.801C246 188.841 245.89 188.871 245.77 188.871C245.59 188.871 245.39 188.791 245.28 188.681C245.16 188.581 245.1 188.461 245.05 188.351C240.34 178.501 234.22 173.021 229.22 169.971C224.71 167.221 221.13 166.461 220.33 166.321C220.31 166.341 220.28 166.361 220.24 166.391C220.18 166.421 220.09 166.461 219.97 166.461C219.89 166.461 219.78 166.441 219.69 166.391C219.6 166.341 219.53 166.261 219.5 166.211C219.43 166.091 219.42 166.021 219.42 165.981C219.41 165.911 219.42 165.901 219.41 165.901C219.41 165.801 219.42 165.771 219.43 165.731L219.45 165.691C219.45 165.671 219.46 165.651 219.46 165.611C219.76 158.361 221.11 151.271 221.46 144.121C221.71 139.051 221.88 133.991 221.88 128.931C221.88 124.331 221.74 119.731 221.4 115.141C221.37 114.691 221.36 114.251 221.36 113.791L221.37 110.291ZM166.41 59.6713C171.22 48.1613 177.02 37.2213 184.71 27.3113C185.1 26.8113 185.44 26.4213 185.81 26.1313C186.17 25.8413 186.58 25.6513 187.03 25.6513C187.47 25.6513 187.88 25.8413 188.24 26.1213C188.6 26.4013 188.96 26.7813 189.35 27.2713C197.33 37.1213 203.32 48.0813 208.13 59.7313C208.33 60.2213 208.53 60.6713 208.54 61.2013C208.55 61.5513 208.41 61.9413 208.14 62.2313C207.87 62.5213 207.5 62.7313 207.02 62.9113C203.21 64.3613 199.28 65.1513 194.74 65.9813C194.65 66.0013 194.56 66.0113 194.46 66.0113C194.16 66.0113 193.89 65.9113 193.68 65.7713C193.46 65.6313 193.28 65.4513 193.12 65.2613C192.8 64.8713 192.54 64.4213 192.28 63.9913C190.84 61.6013 189.3 59.2413 187.97 56.7513C187.79 56.4113 187.63 56.1613 187.49 55.9913C187.35 55.8213 187.24 55.7313 187.19 55.7113L187.14 55.6913L187.07 55.7213C187.02 55.7513 186.95 55.8013 186.86 55.9013C186.68 56.0913 186.46 56.4213 186.21 56.8413C184.78 59.2713 183.23 61.6113 181.77 63.9813C181.49 64.4313 181.19 64.8913 180.78 65.2513C180.37 65.6113 179.81 65.8713 179.16 65.8713C178.9 65.8713 178.62 65.8313 178.33 65.7613C174.9 64.8813 171.45 64.0713 168 63.2613C167.55 63.1513 167.17 63.0213 166.86 62.8213C166.54 62.6313 166.29 62.3513 166.15 62.0213C166.06 61.8013 166.02 61.5613 166.02 61.3313C166 60.7713 166.16 60.2613 166.41 59.6713ZM163.13 68.7013C163.62 67.2313 163.92 66.2813 164.4 65.6013C164.56 65.3713 164.76 65.1813 164.99 65.0413C165.3 64.8513 165.67 64.7713 166.04 64.7713C166.46 64.7713 166.91 64.8613 167.45 65.0013C167.99 65.1413 168.61 65.3313 169.37 65.5713C170.7 65.9813 172.03 66.3813 173.37 66.6613C176.01 67.2213 177.77 67.5913 179.01 67.5913C179.63 67.5913 180.11 67.5013 180.55 67.3313C180.99 67.1513 181.39 66.8713 181.83 66.4413C182.71 65.5813 183.69 64.1013 185.16 61.8413C185.38 61.5013 185.6 61.2013 185.82 60.9513C186.04 60.7013 186.26 60.5013 186.53 60.3613C186.71 60.2713 186.92 60.2113 187.13 60.2113C187.33 60.2113 187.53 60.2613 187.71 60.3613C187.89 60.4513 188.04 60.5813 188.17 60.7313C188.44 61.0313 188.67 61.4213 188.91 61.9313C188.93 61.9713 188.98 62.0513 189.04 62.1513C190.07 63.8013 190.84 65.0313 191.51 65.9113C192.18 66.7913 192.74 67.2813 193.34 67.5413C193.74 67.7113 194.19 67.8013 194.76 67.8013C195.96 67.8013 197.69 67.4113 200.34 66.7813C201.79 66.4413 203.23 66.0313 204.67 65.6013C205.64 65.3113 206.39 65.0413 207 64.8413C207.62 64.6413 208.09 64.5013 208.57 64.4913C208.92 64.4813 209.29 64.5913 209.57 64.8313C209.85 65.0613 210.04 65.3713 210.22 65.7513C210.57 66.5013 210.88 67.5813 211.4 69.2213C217.6 88.8713 220.01 108.991 220.01 129.381C220.01 132.371 219.96 135.361 219.86 138.361C219.56 147.311 218.95 156.261 217.32 165.121L217.23 165.581H216.76C198.94 165.611 181.13 165.631 163.31 165.661C161.89 165.661 160.46 165.701 159.03 165.721C159.02 165.891 159 166.061 158.95 166.251L158.41 166.101L157.87 165.951C157.89 165.871 157.91 165.741 157.92 165.591L158.5 165.621V165.491L157.93 165.481V165.471V165.451V165.341C157.93 165.301 157.93 165.261 157.93 165.221C156.09 159.071 155.44 152.721 154.87 146.461C154.28 139.881 153.97 133.331 153.97 126.811C153.98 107.131 156.8 87.7213 163.13 68.7013ZM129.16 191.241L128.67 189.511C127.2 184.301 126.26 179.951 126.1 175.431C125.55 172.001 125.32 168.571 125.32 165.151C125.32 160.921 125.68 156.701 126.24 152.501C127.86 140.441 131.99 129.361 140.29 120.121C143.45 116.601 147.14 113.791 151.91 111.021L152.84 110.481L152.75 111.551C152.34 116.691 152.14 121.771 152.14 126.811C152.14 139.911 153.47 152.701 155.78 165.431L155.87 165.941L155.37 166.081C154.67 166.271 153.99 166.381 153.37 166.561C152.96 166.681 152.59 166.821 152.25 167.021C152.35 167.111 152.44 167.201 152.54 167.301C152.68 167.451 152.83 167.641 152.89 167.921L152.34 168.041L151.93 168.131L152.91 168.221C152.89 168.431 152.8 168.621 152.68 168.781L151.84 168.151L151.79 168.171L151.78 168.151L151.71 168.061C151.64 167.981 151.51 167.871 151.37 167.741C151.32 167.691 151.26 167.641 151.2 167.581C147.84 168.561 144.97 170.221 142.35 172.271C139.66 174.381 137.24 176.901 134.85 179.501C133.06 182.541 131.15 185.411 129.71 189.541L129.16 191.241Z" fill="#727885"/>
<path d="M158.43 166.081L158.98 166.221L158.43 166.081Z" fill="#727885"/>
<path d="M240.13 181.091L240.04 180.541L240.13 181.091Z" fill="#727885"/>
<path d="M2.53 282.351C2.19 282.351 1.85 282.331 1.53 282.331C1.25 282.331 0.98 282.341 0.77 282.391C0.56 282.431 0.4 282.501 0.3 282.581C0.23 282.641 0.18 282.701 0.13 282.801C0.05 282.931 0 283.131 0 283.441C0 283.741 0.07 283.921 0.14 284.031C0.22 284.151 0.32 284.231 0.49 284.301C0.83 284.451 1.41 284.491 1.99 284.481C2.11 284.481 2.24 284.481 2.36 284.481H2.43C4.64 284.491 6.86 284.491 9.07 284.491C11.42 284.491 13.77 284.491 16.12 284.491C19.82 284.491 23.51 284.491 27.21 284.521H27.24C27.98 284.521 28.51 284.371 28.89 284.101C29.26 283.841 29.54 283.441 29.76 282.801C29.76 282.731 29.76 282.671 29.76 282.601C29.76 279.131 30.79 275.951 32.71 273.291C34.63 270.631 37.42 268.501 40.92 267.101C43.35 266.131 45.87 265.661 48.36 265.661C53.76 265.661 59.04 267.871 62.92 271.981C65.76 274.981 67.2 278.561 67.24 282.651C67.41 282.831 67.58 282.971 67.72 283.051C67.9 283.161 68.05 283.191 68.19 283.191C68.32 283.191 68.46 283.151 68.64 283.051C68.79 282.961 68.97 282.801 69.15 282.591C70.03 278.611 71.7 275.401 74.01 273.171C76.35 270.911 79.36 269.681 82.77 269.681C84.2 269.681 85.71 269.891 87.27 270.331C88.14 270.581 88.83 270.691 89.36 270.691C89.73 270.691 90.02 270.631 90.26 270.531C90.5 270.431 90.69 270.281 90.88 270.061C91.27 269.621 91.61 268.841 91.95 267.711C93.24 263.431 95.57 260.041 98.54 257.731C101.51 255.421 105.12 254.191 108.95 254.191C112.16 254.191 115.53 255.051 118.8 256.861C119.63 257.321 120.25 257.521 120.58 257.511C120.74 257.511 120.82 257.481 120.9 257.431C120.97 257.381 121.05 257.301 121.13 257.141C121.29 256.811 121.41 256.151 121.41 255.201C121.43 251.001 121.44 246.801 121.44 242.591C121.44 237.861 121.43 233.141 121.43 228.411C121.43 228.071 121.43 227.741 121.43 227.401C121.43 227.311 121.43 227.221 121.43 227.131C121.43 226.781 121.43 226.431 121.39 226.121C121.36 225.811 121.29 225.551 121.19 225.371C121.13 225.251 121.06 225.171 120.97 225.111C120.86 225.031 120.69 224.971 120.4 224.961H120.38C120 224.971 119.84 225.051 119.74 225.131C119.65 225.211 119.57 225.341 119.53 225.581C119.5 225.731 119.49 225.921 119.49 226.121C119.49 226.511 119.53 226.951 119.54 227.381V227.401V227.441C119.52 231.621 119.5 235.811 119.5 239.991C119.5 243.561 119.52 247.141 119.57 250.711C119.57 250.901 119.57 251.091 119.57 251.261C119.57 251.651 119.56 252.001 119.52 252.321C119.48 252.651 119.41 252.951 119.27 253.231C119.17 253.421 119.03 253.591 118.84 253.721C118.59 253.901 118.28 253.971 117.97 253.971C117.4 253.961 116.77 253.761 115.92 253.391C113.86 252.471 111.68 251.931 109.42 251.931C108.56 251.931 107.68 252.011 106.8 252.171C102.88 252.901 99.65 254.421 97.01 256.651C94.37 258.881 92.31 261.811 90.79 265.401C90.53 266.011 90.28 266.541 89.97 266.981C89.66 267.431 89.25 267.801 88.72 268.001C88.37 268.141 87.98 268.201 87.55 268.201C87.18 268.201 86.78 268.151 86.33 268.071C85.21 267.851 84.11 267.741 83.02 267.741C79.88 267.741 76.87 268.641 74.09 270.531C72.07 271.891 70.62 273.861 69.14 276.171L68.66 276.921L68.19 276.171C67.33 274.801 66.76 273.781 66.1 272.881C63.92 269.881 61.4 267.561 58.55 265.981C55.7 264.411 52.52 263.571 48.97 263.571C48.28 263.571 47.58 263.601 46.87 263.671C42.82 264.031 39.26 265.181 36.28 267.171C33.29 269.171 30.86 272.021 29.07 275.851C28.77 276.481 28.66 277.351 28.53 278.261C28.39 279.161 28.24 280.121 27.68 280.921C27.31 281.451 26.73 281.891 25.96 282.101C25.05 282.361 24.11 282.431 23.17 282.431C21.66 282.431 20.15 282.241 18.73 282.231C18.43 282.231 18.21 282.161 18.05 282.141C12.92 282.191 7.79 282.211 2.66 282.291L2.53 282.351Z" fill="#727885"/>
<path d="M145.47 288.471C145.47 288.541 145.47 288.601 145.47 288.661L145.5 289.211L144.95 289.251C143.69 289.341 142.39 289.501 141.06 289.511C125.57 289.531 110.07 289.511 94.58 289.551C94.27 289.551 93.97 289.511 93.68 289.471C93.4 289.431 93.13 289.401 92.9 289.401C92.62 289.401 92.41 289.451 92.24 289.551C92.08 289.651 91.91 289.821 91.76 290.231L91.7 290.401L91.58 290.481V290.681L91.41 290.841C91.38 290.871 91.36 290.891 91.34 290.911C91.36 290.921 91.37 290.931 91.39 290.941L91.53 291.021L91.61 291.151C91.82 291.501 92.03 291.661 92.28 291.761C92.53 291.861 92.85 291.901 93.22 291.901C93.55 291.901 93.92 291.871 94.31 291.871C104.34 291.871 114.38 291.881 124.41 291.881C135.18 291.881 145.94 291.881 156.71 291.871C157.07 291.871 157.4 291.891 157.71 291.891C158.1 291.891 158.43 291.851 158.68 291.751C158.93 291.641 159.14 291.481 159.34 291.101L159.43 290.931L159.51 290.891L159.49 290.861C159.32 290.641 159.14 290.421 158.97 290.201L158.95 290.171L158.93 290.141C158.74 289.831 158.57 289.701 158.37 289.611C158.17 289.521 157.91 289.491 157.6 289.491C157.28 289.491 156.91 289.531 156.51 289.531C156.41 289.531 156.3 289.531 156.19 289.521C155.75 289.491 155.3 289.481 154.86 289.481C153.68 289.481 152.47 289.561 151.24 289.561C150 289.561 148.74 289.481 147.47 289.131L146.89 288.971L147.08 288.401C147.72 286.501 148.18 284.411 149.51 282.591C151.25 279.081 153.64 276.521 156.54 274.811C159.45 273.091 162.85 272.221 166.6 272.031C167.2 272.001 167.69 271.941 168.07 271.841C168.45 271.741 168.71 271.601 168.91 271.401C169.04 271.271 169.15 271.101 169.25 270.861C169.38 270.551 169.47 270.111 169.51 269.521C169.74 265.871 170.89 262.821 172.83 260.381C174.77 257.941 177.49 256.111 180.81 254.851C181.64 254.531 182.34 254.281 182.94 254.101C183.54 253.921 184.05 253.811 184.51 253.811C184.9 253.811 185.28 253.891 185.59 254.121C185.91 254.341 186.11 254.671 186.24 255.041C186.49 255.771 186.53 256.711 186.54 258.041C186.54 258.261 186.54 258.501 186.54 258.741C186.54 258.991 186.53 259.241 186.53 259.491C186.53 259.671 186.53 259.841 186.54 260.011C186.55 260.391 186.54 260.781 186.57 261.131C186.59 261.481 186.64 261.801 186.73 262.011C186.79 262.151 186.86 262.241 186.94 262.311C187.05 262.401 187.21 262.471 187.55 262.471C187.93 262.471 188.09 262.381 188.18 262.311C188.27 262.231 188.34 262.111 188.39 261.891C188.42 261.741 188.43 261.561 188.43 261.371C188.43 260.961 188.37 260.481 188.37 260.011C188.37 260.011 188.37 260.001 188.37 259.971C188.38 255.441 188.39 250.911 188.39 246.371C188.39 241.431 188.39 236.491 188.39 231.561V231.451C188.39 229.621 188.4 210.181 188.4 208.351C188.4 208.061 188.4 207.771 188.4 207.481C188.4 207.161 188.37 206.861 188.31 206.641C188.24 206.411 188.16 206.281 188.04 206.201C187.96 206.151 187.86 206.101 187.67 206.081L187.53 206.071C187.34 206.071 187.21 206.111 187.12 206.161C187.02 206.211 186.94 206.291 186.87 206.411C186.72 206.641 186.61 207.041 186.56 207.481C186.53 207.741 186.52 208.011 186.52 208.291C186.52 208.731 186.54 209.201 186.54 209.681C186.54 213.551 186.52 235.041 186.52 238.911C186.52 242.041 186.53 245.161 186.57 248.291C186.57 248.361 186.57 248.441 186.57 248.511C186.57 249.181 186.53 249.781 186.32 250.341C186.12 250.891 185.71 251.371 185.12 251.681C184.73 251.891 184.26 252.031 183.7 252.141C179.3 252.961 175.8 254.691 173.14 257.291C170.48 259.881 168.65 263.361 167.67 267.721C167.56 268.211 167.43 268.641 167.2 269.021C166.97 269.401 166.61 269.711 166.17 269.891C165.88 270.011 165.55 270.081 165.18 270.121C160.87 270.551 157.26 271.931 154.21 274.141C151.19 276.331 148.73 279.361 146.76 283.121C146.56 284.081 146.23 284.971 145.95 285.831C145.69 286.721 145.47 287.581 145.47 288.471Z" fill="#727885"/>
<path d="M345.41 285.151C345.05 285.151 344.68 285.161 344.3 285.161C344.13 285.161 343.97 285.161 343.8 285.161C339.64 285.161 335.48 285.161 331.32 285.161C326.61 285.161 321.9 285.151 317.19 285.131H317.18H317.17C316.85 285.131 316.36 285.211 315.84 285.221C315.54 285.221 315.21 285.191 314.89 285.041C314.57 284.901 314.27 284.601 314.13 284.211C314.03 283.951 313.99 283.671 313.99 283.341C313.99 283.201 314 283.041 314.02 282.881C314.05 282.331 314.07 281.791 314.07 281.261C314.07 276.691 312.94 272.881 310.76 269.731C308.59 266.601 305.35 264.111 301.06 262.241C298.94 261.801 296.8 261.621 294.64 261.621C294.38 261.621 294.13 261.621 293.87 261.631C292.12 262.111 290.38 262.541 288.76 263.161C287.12 263.801 285.6 264.621 284.29 265.891C284.07 266.101 283.86 266.271 283.63 266.391C283.41 266.511 283.16 266.581 282.92 266.581C282.71 266.581 282.51 266.531 282.34 266.451C282.17 266.371 282.02 266.261 281.89 266.141C281.63 265.901 281.42 265.631 281.2 265.331C280.21 264.011 279.13 263.051 277.96 262.421C276.79 261.791 275.54 261.481 274.2 261.481C273 261.481 271.72 261.731 270.38 262.241C269.7 262.501 269.1 262.641 268.52 262.641C267.9 262.641 267.33 262.461 266.83 262.131C266.33 261.801 265.89 261.351 265.43 260.791C263.01 257.811 259.84 255.941 256.01 255.011C254.85 254.731 253.74 254.601 252.66 254.601C250.56 254.601 248.58 255.081 246.65 255.851C244.72 256.621 242.84 257.681 240.96 258.821L240.11 259.341V258.341C240.08 250.341 240.06 242.351 240.03 234.351V234.331C240.03 234.051 239.98 233.831 239.92 233.681C239.85 233.531 239.78 233.461 239.69 233.411C239.63 233.381 239.55 233.361 239.43 233.361C239.36 233.361 239.27 233.371 239.17 233.391C238.87 233.461 238.64 233.621 238.46 233.861C238.29 234.101 238.18 234.421 238.18 234.791C238.15 243.921 238.14 253.051 238.14 262.181C238.14 262.521 238.2 262.801 238.31 263.001C238.43 263.201 238.56 263.331 238.85 263.421C239 263.471 239.12 263.481 239.22 263.481C239.43 263.481 239.56 263.421 239.71 263.281C239.86 263.141 240.01 262.911 240.14 262.591L240.17 262.501L240.23 262.431L240.33 262.311L240.45 262.261C240.62 262.181 240.73 262.091 240.8 261.991C240.87 261.891 240.92 261.771 240.94 261.581L241.01 260.881L241.6 261.071C245.02 258.201 248.92 256.801 252.69 256.801C258.09 256.801 263.2 259.681 266.16 265.021C266.36 265.381 266.55 265.591 266.72 265.711C266.89 265.821 267.03 265.861 267.22 265.871C267.41 265.871 267.65 265.821 267.93 265.711C268.21 265.601 268.53 265.431 268.88 265.231C270.83 264.111 272.58 263.511 274.18 263.511C275.65 263.511 276.97 264.041 278.05 265.051C279.14 266.061 280.01 267.531 280.72 269.441C280.88 269.861 281.03 270.221 281.18 270.491C281.33 270.761 281.48 270.911 281.57 270.971C281.63 271.011 281.67 271.021 281.72 271.021C281.79 271.021 281.94 270.991 282.17 270.831C282.4 270.681 282.69 270.411 283.04 270.021C286.66 265.921 291.04 263.801 295.63 263.801C297.83 263.801 300.07 264.291 302.28 265.261C305.39 266.621 307.8 268.651 309.43 271.241C311.06 273.831 311.89 276.951 311.89 280.481C311.89 281.281 311.85 282.111 311.76 282.951V282.961V282.981C311.54 284.381 311.39 285.391 311.39 286.041C311.39 286.401 311.44 286.641 311.5 286.781C311.57 286.921 311.63 286.991 311.79 287.081C311.9 287.141 312.05 287.191 312.26 287.231C312.54 287.291 312.91 287.331 313.37 287.351C313.99 287.381 314.77 287.381 315.73 287.381C319.6 287.381 323.47 287.381 327.34 287.381C331.21 287.381 335.08 287.381 338.95 287.381C341.42 287.381 343.9 287.381 346.37 287.371C346.73 287.371 347.05 287.331 347.29 287.241C347.53 287.151 347.67 287.041 347.76 286.881C347.82 286.771 347.87 286.631 347.87 286.401V286.371C347.87 286.171 347.83 286.021 347.77 285.891C347.71 285.761 347.63 285.661 347.51 285.561C347.28 285.371 346.91 285.231 346.46 285.181L346.52 284.621L346.46 285.181C346.15 285.161 345.79 285.151 345.41 285.151Z" fill="#727885"/>
<path d="M218.11 267.521C216.78 267.521 215.4 267.701 214.01 268.071C213.22 268.281 212.57 268.401 211.98 268.401C211.57 268.401 211.18 268.341 210.83 268.181C210.48 268.031 210.18 267.791 209.94 267.491C209.46 266.891 209.16 266.101 208.82 265.051C207.84 261.941 206.44 259.201 204.43 257.081C202.42 254.961 199.83 253.451 196.39 252.791C196.16 252.741 195.93 252.721 195.73 252.721C195.36 252.721 195.08 252.801 194.87 252.931C194.67 253.061 194.51 253.251 194.39 253.611C194.35 253.731 194.34 253.831 194.34 253.911C194.34 254.031 194.37 254.101 194.41 254.181C194.46 254.261 194.53 254.341 194.65 254.421C194.88 254.591 195.26 254.741 195.65 254.861C199.51 256.101 202.37 257.781 204.35 260.181C206.33 262.581 207.38 265.651 207.74 269.561C207.84 270.731 208 271.501 208.19 271.821C208.25 271.931 208.3 271.981 208.35 272.011C208.41 272.051 208.47 272.081 208.62 272.081C208.79 272.081 209.07 272.021 209.45 271.891C209.82 271.751 210.29 271.541 210.84 271.261C213.12 270.111 215.47 269.571 217.74 269.571C221.32 269.571 224.69 270.901 227.22 273.231C229.75 275.561 231.44 278.881 231.68 282.831C231.76 283.321 231.8 283.801 231.8 284.281C231.8 285.981 231.33 287.601 230.68 289.081C230.36 289.811 230.22 290.381 230.22 290.771C230.22 291.001 230.26 291.161 230.33 291.281C230.4 291.401 230.49 291.501 230.65 291.601C230.97 291.791 231.6 291.931 232.49 291.921H232.51C235.8 291.911 239.09 291.911 242.39 291.911C244.91 291.911 247.43 291.911 249.95 291.911C250.03 291.911 250.11 291.911 250.19 291.911C250.51 291.911 250.83 291.911 251.1 291.871C251.38 291.841 251.6 291.781 251.76 291.691C251.86 291.631 251.93 291.571 251.99 291.491C252.06 291.381 252.13 291.231 252.13 290.951V290.881C252.13 290.571 252.06 290.371 251.97 290.231C251.88 290.091 251.75 289.981 251.56 289.891C251.18 289.701 250.55 289.631 249.91 289.641H249.9H249.89C248.82 289.641 247.76 289.641 246.69 289.641C244.53 289.641 242.36 289.641 240.2 289.641C238.81 289.641 237.72 289.641 236.85 289.571C235.98 289.501 235.3 289.361 234.75 289.001C234.38 288.761 234.11 288.401 233.95 287.991C233.73 287.441 233.67 286.801 233.67 286.011C233.67 285.191 233.74 284.191 233.83 282.941C233.26 278.351 231.31 274.501 228.52 271.791C225.72 269.081 222.08 267.521 218.11 267.521Z" fill="#727885"/>
<path d="M222.36 309.281C222.69 309.281 223.02 309.281 223.35 309.281C226.84 309.281 230.33 309.281 233.81 309.281C236.77 309.281 239.74 309.281 242.7 309.281H242.72C242.95 309.281 243.18 309.291 243.41 309.291C243.71 309.291 243.99 309.281 244.23 309.241C244.47 309.201 244.66 309.141 244.78 309.051C244.87 308.991 244.93 308.931 244.99 308.831C245.07 308.711 245.13 308.521 245.15 308.231V308.081C245.15 307.761 245.08 307.581 245 307.471C244.92 307.351 244.81 307.271 244.63 307.201C244.27 307.051 243.65 307.031 243.03 307.031H242.98H242.93H242.92C236.72 307.031 230.52 307.021 224.32 307.021C217.5 307.021 210.69 307.021 203.87 307.031H203.84C203.72 307.031 203.6 307.031 203.49 307.031C203.16 307.031 202.82 307.041 202.53 307.071C202.24 307.111 201.99 307.181 201.83 307.271C201.72 307.331 201.64 307.401 201.58 307.491C201.5 307.611 201.43 307.791 201.42 308.091V308.181C201.42 308.491 201.47 308.681 201.54 308.811C201.61 308.941 201.68 309.011 201.8 309.081C202.03 309.221 202.49 309.281 203.01 309.281C203.31 309.281 203.63 309.271 203.95 309.271H203.98C207.14 309.281 210.29 309.281 213.45 309.281C216.43 309.281 219.39 309.281 222.36 309.281Z" fill="#727885"/>
<path d="M306.5 176.151V176.061C306.5 175.251 306.23 174.621 305.78 174.171C305.33 173.721 304.68 173.441 303.83 173.431H303.78C302.87 173.431 302.21 173.711 301.76 174.161C301.31 174.611 301.05 175.271 301.05 176.141C301.05 176.201 301.05 176.271 301.06 176.331C301.1 177.171 301.39 177.771 301.86 178.211C302.32 178.641 302.98 178.931 303.8 179.051C304.71 178.921 305.36 178.581 305.79 178.101C306.23 177.621 306.48 176.961 306.5 176.151ZM303.69 178.221H303.56C303.03 178.201 302.54 177.991 302.19 177.631C301.84 177.271 301.66 176.771 301.66 176.241C301.66 176.211 301.66 176.171 301.66 176.121C301.66 176.121 301.66 176.121 301.66 176.111C301.66 176.101 301.66 176.101 301.66 176.101C301.69 175.531 301.9 175.011 302.28 174.651C302.67 174.291 303.19 174.121 303.73 174.131C303.82 174.131 303.91 174.131 304.01 174.141C304.54 174.191 305.02 174.391 305.36 174.761C305.71 175.131 305.89 175.611 305.94 176.151L305.95 176.231L305.93 176.311C305.82 176.881 305.56 177.371 305.15 177.711C304.76 178.061 304.24 178.231 303.69 178.221Z" fill="#727885"/>
<path d="M155.52 16.3512C155.91 15.8812 156.14 15.1812 156.15 14.3512V14.2612C156.14 13.4312 155.89 12.8712 155.44 12.4312C155.01 12.0112 154.35 11.7212 153.51 11.5812C152.64 11.7012 152.01 12.0212 151.58 12.4712C151.15 12.9412 150.91 13.5612 150.9 14.3712V14.4012C150.91 15.2312 151.16 15.8912 151.6 16.3412C152.04 16.7912 152.68 17.0812 153.58 17.1012H153.64C154.57 17.1112 155.13 16.8112 155.52 16.3512ZM153.59 16.3812C153.52 16.3912 153.46 16.3912 153.4 16.3912C152.9 16.3912 152.43 16.2212 152.09 15.8812C151.75 15.5412 151.55 15.0812 151.51 14.5612C151.5 14.4912 151.5 14.4112 151.5 14.3412C151.5 13.8212 151.68 13.3512 152.01 13.0112C152.33 12.6712 152.76 12.4812 153.22 12.4012C153.37 12.3712 153.53 12.3512 153.67 12.3512C154.2 12.3512 154.66 12.5612 154.98 12.8512C155.3 13.1412 155.52 13.4812 155.69 13.7812L155.76 13.9112V14.0612C155.75 14.4312 155.69 14.7612 155.58 15.0612C155.46 15.3512 155.29 15.6012 155.08 15.8012C154.64 16.1912 154.1 16.3312 153.59 16.3812Z" fill="#727885"/>
<path d="M354.86 287.281C354.97 287.201 355.06 287.121 355.12 287.011C355.21 286.871 355.27 286.691 355.27 286.381V286.251C355.25 285.891 355.16 285.681 355.06 285.551C354.96 285.421 354.83 285.331 354.63 285.261C354.23 285.111 353.56 285.121 352.89 285.121H352.76C352.42 285.121 352.09 285.131 351.8 285.181C351.52 285.221 351.28 285.301 351.13 285.391C351.03 285.451 350.96 285.521 350.9 285.611C350.83 285.731 350.77 285.901 350.76 286.201C350.76 286.261 350.76 286.331 350.77 286.401C350.8 286.721 350.88 286.921 350.99 287.071C351.1 287.221 351.26 287.341 351.49 287.441C351.93 287.641 352.65 287.711 353.47 287.721C353.71 287.671 353.96 287.621 354.2 287.551C354.47 287.491 354.7 287.401 354.86 287.281Z" fill="#727885"/>
<path d="M242.92 89.3912V89.5112C242.92 89.9512 243.07 90.2612 243.29 90.4912C243.52 90.7112 243.84 90.8512 244.26 90.8512C244.68 90.8512 244.99 90.7112 245.22 90.4912C245.44 90.2712 245.58 89.9612 245.59 89.5312C245.59 89.4812 245.59 89.4312 245.58 89.3812C245.54 88.9812 245.41 88.7412 245.18 88.5312C244.97 88.3412 244.65 88.2012 244.25 88.1112C243.85 88.2012 243.53 88.3512 243.32 88.5412C243.09 88.7512 242.95 89.0012 242.92 89.3912Z" fill="#727885"/>
<path d="M94.32 151.321C94.43 151.161 94.51 150.901 94.51 150.601V150.571C94.5 150.181 94.39 149.981 94.25 149.841C94.11 149.711 93.88 149.611 93.53 149.581C93.26 149.661 93.06 149.771 92.94 149.891C92.81 150.021 92.75 150.141 92.75 150.371L92.76 150.501V150.511C92.8 150.871 92.93 151.141 93.09 151.321C93.26 151.491 93.45 151.591 93.77 151.591H93.83C93.96 151.581 94.05 151.551 94.13 151.511C94.2 151.461 94.26 151.401 94.32 151.321Z" fill="#727885"/>
<path d="M216.36 221.401C216.3 228.821 216.24 236.231 216.18 243.651C216.17 244.401 216.21 245.161 216.13 245.901C216.04 246.741 215.55 247.321 214.64 247.221C213.91 247.151 213.49 246.601 213.46 245.901C213.4 244.291 213.42 242.681 213.4 241.061C213.34 234.291 213.28 227.521 213.21 220.751C213.26 218.081 213.29 199.551 213.35 196.881C213.37 195.841 213.66 194.841 214.94 194.961C215.97 195.051 216.21 195.951 216.22 196.881C216.27 199.771 216.32 218.511 216.36 221.401Z" fill="#473CC2"/>
<path d="M157.96 306.541C160.11 306.541 162.27 306.501 164.42 306.561C165.49 306.591 166.37 307.071 166.28 308.311C166.2 309.331 165.41 309.761 164.46 309.761C159.94 309.781 155.41 309.791 150.89 309.761C149.93 309.761 149.15 309.281 149.19 308.231C149.23 307.051 150.12 306.571 151.18 306.551C153.43 306.511 155.7 306.541 157.96 306.541Z" fill="#473CC2"/>
<path d="M174.57 309.751C173.49 309.751 172.41 309.801 171.34 309.741C170.37 309.681 169.67 309.151 169.69 308.121C169.71 307.091 170.47 306.601 171.42 306.561C173.25 306.501 175.08 306.521 176.91 306.531C178.06 306.541 179.22 306.781 179.18 308.201C179.15 309.621 177.97 309.781 176.82 309.781C176.07 309.781 175.31 309.781 174.56 309.781C174.57 309.771 174.57 309.761 174.57 309.751Z" fill="#473CC2"/>
<path d="M216.39 255.321C216.1 256.421 216.59 258.251 214.65 258.121C213.12 258.021 213.23 256.471 213.2 255.301C213.17 253.981 213.16 252.361 214.92 252.441C216.4 252.501 216.31 254.081 216.39 255.321Z" fill="#473CC2"/>
<path d="M285.38 292.581C281.83 292.581 278.27 292.581 274.72 292.581C273.39 292.581 271.92 292.611 271.9 290.781C271.89 289.221 273.25 288.911 274.44 288.901C281.87 288.851 289.3 288.871 296.73 288.871C298.15 288.871 299 289.541 298.97 291.011C298.94 292.521 297.83 292.591 296.68 292.591C292.92 292.571 289.15 292.571 285.38 292.581Z" fill="#473CC2"/>
<path d="M261.44 292.581C260.5 292.581 259.97 292.581 259.43 292.581C258.28 292.581 257.12 292.391 257.08 291.011C257.04 289.771 258.03 289.151 259.16 288.931C259.78 288.811 260.45 288.801 261.08 288.881C262.64 289.061 265.1 288.071 265.2 290.611C265.31 293.591 262.54 292.091 261.44 292.581Z" fill="#473CC2"/>
<path d="M180.81 95.2312C180.24 95.1812 179.66 95.1412 179.09 95.0912C179.05 95.4312 179 95.7712 178.96 96.1112C175.84 95.8712 172.73 95.6212 169.62 95.3812C169.51 96.1612 169.41 96.9512 169.31 97.7312C172.29 97.9412 175.27 98.1512 178.25 98.3612C178.95 98.4112 179.51 98.2712 179.92 97.9312C180.33 97.5912 180.58 97.0412 180.68 96.2612C180.72 95.9112 180.77 95.5712 180.81 95.2312ZM179.96 102.911C180.03 102.151 180.1 101.391 180.18 100.631C177.55 100.461 174.91 100.301 172.28 100.131C172.19 100.911 172.11 101.691 172.04 102.471C174.68 102.611 177.32 102.761 179.96 102.911ZM171.12 100.191C170.94 99.9612 170.69 99.8312 170.37 99.8112C170.26 99.8012 170.15 99.8012 170.04 99.7912C169.72 99.7712 169.44 99.8612 169.21 100.071C168.98 100.281 168.84 100.621 168.79 101.091C168.74 101.571 168.81 101.921 168.99 102.151C169.17 102.381 169.43 102.501 169.75 102.521C169.86 102.531 169.97 102.531 170.08 102.541C170.4 102.561 170.68 102.461 170.9 102.261C171.13 102.061 171.27 101.721 171.32 101.241C171.36 100.771 171.3 100.421 171.12 100.191ZM177.88 109.601C177.73 109.781 177.51 109.871 177.22 109.861L176.99 109.851C176.4 109.831 176.12 109.371 176.18 108.461C176.2 108.091 176.23 107.711 176.26 107.341C176.57 107.351 176.88 107.371 177.19 107.381C177.55 107.401 177.81 107.541 177.95 107.821C178.09 108.101 178.15 108.431 178.13 108.821C178.11 109.161 178.03 109.421 177.88 109.601ZM179.83 104.441C179.25 104.411 178.67 104.381 178.09 104.351C178.07 104.601 178.05 104.861 178.03 105.111C176.87 105.051 175.71 105.001 174.55 104.941C173.6 104.901 172.86 105.151 172.31 105.721C171.77 106.281 171.45 107.161 171.37 108.351C171.31 109.231 171.4 109.931 171.64 110.451C171.88 110.971 172.23 111.411 172.7 111.761C173.12 111.311 173.55 110.861 173.97 110.411C173.73 110.221 173.53 109.991 173.35 109.711C173.17 109.431 173.1 109.061 173.13 108.601C173.16 108.101 173.3 107.761 173.55 107.561C173.79 107.361 174.11 107.271 174.49 107.281C174.66 107.291 174.82 107.291 174.99 107.301C174.96 107.731 174.93 108.171 174.9 108.601C174.83 109.691 174.99 110.551 175.37 111.201C175.75 111.841 176.36 112.181 177.21 112.201C177.91 112.221 178.48 112.011 178.93 111.591C179.37 111.171 179.62 110.551 179.66 109.741C179.69 109.121 179.59 108.601 179.35 108.161C179.11 107.731 178.73 107.441 178.23 107.291L178.24 107.201C178.67 107.151 179.02 106.991 179.29 106.721C179.56 106.461 179.71 106.121 179.74 105.711C179.76 105.281 179.79 104.861 179.83 104.441ZM179.23 116.171C179.25 115.431 179.26 114.691 179.29 113.961C175.73 113.891 172.17 113.811 168.6 113.731C168.56 114.601 168.53 115.461 168.5 116.321C170.15 117.241 171.8 118.151 173.47 119.051V119.081C171.78 119.971 170.09 120.871 168.41 121.791C168.41 122.651 168.41 123.511 168.42 124.371C172.03 124.331 175.63 124.291 179.24 124.261C179.22 123.521 179.21 122.781 179.2 122.041C176.8 122.051 174.41 122.061 172.01 122.071V122.021C172.58 121.741 173.14 121.461 173.71 121.181C174.97 120.481 176.24 119.791 177.51 119.101C176.25 118.391 174.99 117.671 173.74 116.941C173.22 116.671 172.71 116.391 172.19 116.111V116.061C174.54 116.111 176.88 116.141 179.23 116.171ZM179.39 128.351C177.8 128.391 176.2 128.421 174.61 128.461C174.13 128.471 173.8 128.311 173.61 127.991C173.42 127.661 173.31 127.161 173.29 126.471C173.28 126.281 173.28 126.081 173.27 125.891C172.56 125.901 171.84 125.911 171.13 125.921C171.13 126.061 171.14 126.201 171.14 126.331C171.15 126.661 171.21 126.941 171.31 127.181C171.42 127.421 171.56 127.631 171.73 127.801C171.9 127.971 172.1 128.111 172.31 128.211C172.53 128.311 172.75 128.381 172.98 128.421V128.501C172.39 128.511 171.8 128.531 171.2 128.541C171.23 129.321 171.26 130.101 171.3 130.891C174.03 130.811 176.77 130.731 179.5 130.651C179.47 129.881 179.43 129.111 179.39 128.351ZM179.84 135.061C179.77 134.301 179.71 133.541 179.66 132.771C176.92 132.871 174.18 132.971 171.45 133.071C171.5 133.851 171.55 134.631 171.61 135.411C174.35 135.301 177.1 135.181 179.84 135.061ZM170.26 133.251C170.03 133.041 169.75 132.941 169.42 132.951C169.3 132.951 169.19 132.961 169.08 132.961C168.75 132.971 168.48 133.091 168.28 133.321C168.08 133.551 167.99 133.901 168.02 134.381C168.05 134.861 168.18 135.201 168.41 135.411C168.64 135.621 168.92 135.721 169.26 135.701C169.37 135.701 169.49 135.691 169.61 135.681C169.94 135.671 170.21 135.551 170.41 135.321C170.61 135.091 170.69 134.741 170.66 134.271C170.61 133.801 170.49 133.461 170.26 133.251ZM175.72 140.481C175.81 141.311 175.91 142.151 176.01 142.981C174.56 142.671 173.12 142.361 171.68 142.041L171.67 141.961C173.02 141.461 174.37 140.971 175.72 140.481ZM179.97 136.431C176.43 137.771 172.88 139.151 169.33 140.561C169.43 141.551 169.54 142.551 169.66 143.551C173.49 144.531 177.33 145.461 181.2 146.351C181.08 145.561 180.96 144.781 180.85 143.991C179.94 143.791 179.03 143.601 178.12 143.401C177.96 142.201 177.82 140.991 177.68 139.791C178.52 139.481 179.37 139.181 180.21 138.871C180.13 138.061 180.04 137.251 179.97 136.431Z" fill="white"/>
<defs>
<linearGradient id="paint0_linear" x1="152.764" y1="152.671" x2="222.303" y2="83.1319" gradientUnits="userSpaceOnUse">
<stop stop-color="#473CC2"/>
<stop offset="1" stop-color="#D045AE"/>
</linearGradient>
<linearGradient id="paint1_linear" x1="175.588" y1="64.4368" x2="198.048" y2="41.977" gradientUnits="userSpaceOnUse">
<stop stop-color="#473CC2"/>
<stop offset="1" stop-color="#D045AE"/>
</linearGradient>
<linearGradient id="paint2_linear" x1="78.8738" y1="92.7926" x2="87.2216" y2="84.4448" gradientUnits="userSpaceOnUse">
<stop stop-color="#473CC2"/>
<stop offset="1" stop-color="#D045AE"/>
</linearGradient>
<linearGradient id="paint3_linear" x1="174.222" y1="18.6481" x2="179.623" y2="13.2478" gradientUnits="userSpaceOnUse">
<stop stop-color="#473CC2"/>
<stop offset="1" stop-color="#D045AE"/>
</linearGradient>
<linearGradient id="paint4_linear" x1="269.619" y1="106.363" x2="275.112" y2="100.87" gradientUnits="userSpaceOnUse">
<stop stop-color="#473CC2"/>
<stop offset="1" stop-color="#D045AE"/>
</linearGradient>
<linearGradient id="paint5_linear" x1="77.7456" y1="293.621" x2="83.2489" y2="288.117" gradientUnits="userSpaceOnUse">
<stop stop-color="#473CC2"/>
<stop offset="1" stop-color="#D045AE"/>
</linearGradient>
<linearGradient id="paint6_linear" x1="231.479" y1="30.6509" x2="235.847" y2="26.2821" gradientUnits="userSpaceOnUse">
<stop stop-color="#473CC2"/>
<stop offset="1" stop-color="#D045AE"/>
</linearGradient>
<linearGradient id="paint7_linear" x1="269.816" y1="148.328" x2="274.024" y2="144.12" gradientUnits="userSpaceOnUse">
<stop stop-color="#473CC2"/>
<stop offset="1" stop-color="#D045AE"/>
</linearGradient>
<linearGradient id="paint8_linear" x1="66.5635" y1="292.677" x2="70.0159" y2="289.224" gradientUnits="userSpaceOnUse">
<stop stop-color="#473CC2"/>
<stop offset="1" stop-color="#D045AE"/>
</linearGradient>
<linearGradient id="paint9_linear" x1="83.4394" y1="59.6699" x2="85.9233" y2="57.1861" gradientUnits="userSpaceOnUse">
<stop stop-color="#473CC2"/>
<stop offset="1" stop-color="#D045AE"/>
</linearGradient>
<linearGradient id="paint10_linear" x1="264.165" y1="163.119" x2="266.578" y2="160.706" gradientUnits="userSpaceOnUse">
<stop stop-color="#473CC2"/>
<stop offset="1" stop-color="#D045AE"/>
</linearGradient>
<linearGradient id="paint11_linear" x1="118.496" y1="129.83" x2="120.994" y2="127.331" gradientUnits="userSpaceOnUse">
<stop stop-color="#473CC2"/>
<stop offset="1" stop-color="#D045AE"/>
</linearGradient>
<linearGradient id="paint12_linear" x1="131.713" y1="29.6194" x2="134.146" y2="27.1859" gradientUnits="userSpaceOnUse">
<stop stop-color="#473CC2"/>
<stop offset="1" stop-color="#D045AE"/>
</linearGradient>
<linearGradient id="paint13_linear" x1="215.028" y1="2.86597" x2="217.438" y2="0.456369" gradientUnits="userSpaceOnUse">
<stop stop-color="#473CC2"/>
<stop offset="1" stop-color="#D045AE"/>
</linearGradient>
<linearGradient id="paint14_linear" x1="63.6437" y1="141.432" x2="65.8701" y2="139.206" gradientUnits="userSpaceOnUse">
<stop stop-color="#473CC2"/>
<stop offset="1" stop-color="#D045AE"/>
</linearGradient>
<linearGradient id="paint15_linear" x1="106.6" y1="267.469" x2="158.809" y2="215.26" gradientUnits="userSpaceOnUse">
<stop stop-color="#473CC2"/>
<stop offset="1" stop-color="#D045AE"/>
</linearGradient>
<linearGradient id="paint16_linear" x1="141.572" y1="197.183" x2="145.684" y2="193.07" gradientUnits="userSpaceOnUse">
<stop stop-color="#473CC2"/>
<stop offset="1" stop-color="#D045AE"/>
</linearGradient>
<linearGradient id="paint17_linear" x1="267.323" y1="40.0575" x2="271.911" y2="35.47" gradientUnits="userSpaceOnUse">
<stop stop-color="#473CC2"/>
<stop offset="1" stop-color="#D045AE"/>
</linearGradient>
</defs>
</svg>
