<svg width="623" height="117" viewBox="0 0 623 117" fill="none" xmlns="http://www.w3.org/2000/svg">
<path opacity="0.3" fill-rule="evenodd" clip-rule="evenodd" d="M622.3 18.9C622.3 19.9493 621.449 20.8 620.4 20.8C619.524 20.8 618.786 20.2068 618.566 19.4H68.2072L6.47591 81.1313L9.6 84.3L0 86.9L2.6 77.2L5.77382 80.4192L67.6465 18.5464L67.793 18.4H68.0001H618.566C618.786 17.5932 619.524 17 620.4 17C621.449 17 622.3 17.8507 622.3 18.9ZM86.5001 48.4H86.293L86.1465 48.5464L24.2738 110.419L21.1 107.2L18.5 116.9L28.1 114.3L24.9759 111.131L86.7072 49.4H180.8V84.1664C179.993 84.3858 179.4 85.1236 179.4 86C179.4 87.0493 180.251 87.9 181.3 87.9C182.349 87.9 183.2 87.0493 183.2 86C183.2 85.1237 182.607 84.3861 181.8 84.1665V48.9V48.4H181.3H86.5001ZM80.293 38.4H80.5001H437.3H437.8V38.9V84.1665C438.607 84.3861 439.2 85.1237 439.2 86C439.2 87.0493 438.349 87.9 437.3 87.9C436.251 87.9 435.4 87.0493 435.4 86C435.4 85.1236 435.993 84.3858 436.8 84.1664V39.4H80.7072L28.9759 91.1313L32.1 94.3L22.5 96.9L25.1 87.2L28.2738 90.4192L80.1465 38.5464L80.293 38.4ZM74.0001 28.4H73.793L73.6465 28.5464L19.7738 82.4192L16.6 79.2L14 88.9L23.6 86.3L20.4759 83.1313L74.2072 29.4H534.393L590.646 85.4583C590.214 86.2272 590.298 87.1983 590.9 87.8C591.7 88.5 592.9 88.5 593.6 87.8C594.3 87 594.3 85.8 593.6 85.1C593.031 84.5306 592.13 84.4244 591.384 84.7812L534.953 28.5458L534.807 28.4H534.6H74.0001Z" fill="white"/>
<path opacity="0.3" d="M279.751 7.14453H276.772L276.104 9H275.137L277.852 1.89062H278.672L281.392 9H280.43L279.751 7.14453ZM277.056 6.37305H279.473L278.262 3.04785L277.056 6.37305ZM288.916 1.89062V6.72461C288.912 7.39518 288.701 7.94368 288.281 8.37012C287.864 8.79655 287.298 9.03581 286.582 9.08789L286.333 9.09766C285.555 9.09766 284.935 8.8877 284.472 8.46777C284.01 8.04785 283.776 7.47005 283.769 6.73438V1.89062H284.697V6.70508C284.697 7.2194 284.838 7.61979 285.122 7.90625C285.405 8.18945 285.809 8.33105 286.333 8.33105C286.863 8.33105 287.268 8.18945 287.548 7.90625C287.832 7.62305 287.973 7.22428 287.973 6.70996V1.89062H288.916ZM296.957 2.66211H294.672V9H293.739V2.66211H291.459V1.89062H296.957V2.66211ZM304.994 5.6748C304.994 6.37142 304.877 6.98014 304.642 7.50098C304.408 8.01855 304.076 8.41406 303.646 8.6875C303.217 8.96094 302.715 9.09766 302.142 9.09766C301.582 9.09766 301.086 8.96094 300.653 8.6875C300.22 8.41081 299.883 8.01855 299.642 7.51074C299.405 6.99967 299.283 6.40885 299.276 5.73828V5.22559C299.276 4.54199 299.395 3.93815 299.633 3.41406C299.87 2.88997 300.206 2.48958 300.638 2.21289C301.075 1.93294 301.573 1.79297 302.133 1.79297C302.702 1.79297 303.204 1.93132 303.637 2.20801C304.073 2.48145 304.408 2.88021 304.642 3.4043C304.877 3.92513 304.994 4.53223 304.994 5.22559V5.6748ZM304.061 5.21582C304.061 4.37272 303.892 3.72656 303.554 3.27734C303.215 2.82487 302.741 2.59863 302.133 2.59863C301.54 2.59863 301.073 2.82487 300.731 3.27734C300.393 3.72656 300.219 4.35156 300.209 5.15234V5.6748C300.209 6.49186 300.38 7.13477 300.721 7.60352C301.067 8.06901 301.54 8.30176 302.142 8.30176C302.748 8.30176 303.217 8.08203 303.549 7.64258C303.881 7.19987 304.052 6.56673 304.061 5.74316V5.21582ZM309.261 1.89062L311.585 7.69141L313.91 1.89062H315.125V9H314.188V6.23145L314.276 3.24316L311.942 9H311.224L308.895 3.25781L308.988 6.23145V9H308.05V1.89062H309.261ZM322.444 7.14453H319.466L318.797 9H317.83L320.545 1.89062H321.365L324.085 9H323.123L322.444 7.14453ZM319.749 6.37305H322.166L320.955 3.04785L319.749 6.37305ZM330.969 2.66211H328.684V9H327.752V2.66211H325.471V1.89062H330.969V2.66211ZM334.68 9H333.742V1.89062H334.68V9ZM343.517 5.6748C343.517 6.37142 343.4 6.98014 343.166 7.50098C342.931 8.01855 342.599 8.41406 342.17 8.6875C341.74 8.96094 341.239 9.09766 340.666 9.09766C340.106 9.09766 339.61 8.96094 339.177 8.6875C338.744 8.41081 338.407 8.01855 338.166 7.51074C337.928 6.99967 337.806 6.40885 337.8 5.73828V5.22559C337.8 4.54199 337.918 3.93815 338.156 3.41406C338.394 2.88997 338.729 2.48958 339.162 2.21289C339.598 1.93294 340.096 1.79297 340.656 1.79297C341.226 1.79297 341.727 1.93132 342.16 2.20801C342.596 2.48145 342.931 2.88021 343.166 3.4043C343.4 3.92513 343.517 4.53223 343.517 5.22559V5.6748ZM342.585 5.21582C342.585 4.37272 342.415 3.72656 342.077 3.27734C341.738 2.82487 341.265 2.59863 340.656 2.59863C340.064 2.59863 339.596 2.82487 339.255 3.27734C338.916 3.72656 338.742 4.35156 338.732 5.15234V5.6748C338.732 6.49186 338.903 7.13477 339.245 7.60352C339.59 8.06901 340.064 8.30176 340.666 8.30176C341.271 8.30176 341.74 8.08203 342.072 7.64258C342.404 7.19987 342.575 6.56673 342.585 5.74316V5.21582ZM352.037 9H351.095L347.516 3.52148V9H346.574V1.89062H347.516L351.105 7.39355V1.89062H352.037V9Z" fill="white"/>
</svg>
