<svg aria-hidden="true" style="position: absolute; width: 0; height: 0; overflow: hidden;" version="1.1" xmlns="http://www.w3.org/2000/svg" xmlns:xlink="http://www.w3.org/1999/xlink">
    <defs>

        <linearGradient id="gradient" gradientTransform="rotate(45)">
            <stop offset="14.64%" style="stop-color: #473CC2"></stop>
            <stop offset="85.36%" style="stop-color: #D045AE"></stop>
        </linearGradient>
        
        <symbol id="icon-subscribe-base" viewBox="0 0 32 32">
<path fill="#e8b006" style="fill: var(--color1, #e8b006)" d="M11.999 0h-9.333c-0.707 0-1.385 0.281-1.886 0.781s-0.781 1.178-0.781 1.886v26.667c0 0.707 0.281 1.385 0.781 1.886s1.178 0.781 1.886 0.781h9.333c0.707 0 1.385-0.281 1.886-0.781s0.781-1.178 0.781-1.886v-26.667c0-0.707-0.281-1.386-0.781-1.886s-1.178-0.781-1.886-0.781z"></path>
<path fill="#e8b006" opacity="0.6" style="fill: var(--color1, #e8b006)" d="M29.333 0h-9.333c-0.707 0-1.385 0.281-1.886 0.781s-0.781 1.178-0.781 1.886v9.333c0 0.707 0.281 1.385 0.781 1.886s1.178 0.781 1.886 0.781h9.333c0.707 0 1.385-0.281 1.886-0.781s0.781-1.178 0.781-1.886v-9.333c0-0.707-0.281-1.386-0.781-1.886s-1.178-0.781-1.886-0.781z"></path>
<path fill="#e8b006" opacity="0.3" style="fill: var(--color1, #e8b006)" d="M29.333 17.333h-9.333c-0.707 0-1.385 0.281-1.886 0.781s-0.781 1.178-0.781 1.886v9.333c0 0.707 0.281 1.385 0.781 1.886s1.178 0.781 1.886 0.781h9.333c0.707 0 1.385-0.281 1.886-0.781s0.781-1.178 0.781-1.886v-9.333c0-0.707-0.281-1.385-0.781-1.886s-1.178-0.781-1.886-0.781z"></path>
</symbol>
        <symbol id="icon-subscribe-free" viewBox="0 0 35 32">
<path fill="#727885" style="fill: var(--color2, #727885)" d="M4.679 27.307c1.486 1.488 3.25 2.668 5.193 3.473s4.024 1.22 6.127 1.22v-32c-3.164 0-6.256 0.938-8.887 2.695s-4.681 4.255-5.893 7.177c-1.212 2.922-1.529 6.138-0.914 9.241s2.138 5.954 4.373 8.192z"></path>
<path fill="#727885" opacity="0.5" style="fill: var(--color2, #727885)" d="M18.665 32c4.243 0 8.313-1.686 11.314-4.686s4.686-7.070 4.686-11.314-1.686-8.313-4.686-11.314c-3.001-3.001-7.070-4.686-11.314-4.686v32z"></path>
</symbol>
        <symbol id="icon-close" viewBox="0 0 32 32">
<path fill="#727885" d="M20.848 15.996l11.148-11.148-4.849-4.849-11.147 11.148-11.147-11.148-4.849 4.849 11.148 11.148-11.148 11.148 4.849 4.849 11.147-11.148 11.147 11.148 4.849-4.849-11.148-11.148z"></path>
</symbol>
        <symbol id="icon-subscribe-full" viewBox="0 0 29 32">
<path fill="#0098c7" style="fill: var(--color3, #0098c7)" d="M2.994 6.256c-0.176 0.1-0.322 0.244-0.424 0.419s-0.155 0.373-0.155 0.575c0 0.202 0.054 0.401 0.155 0.575s0.248 0.319 0.424 0.419l10.572 6.103c0.174 0.1 0.371 0.153 0.571 0.153s0.398-0.053 0.571-0.153l10.571-6.103c0.176-0.1 0.322-0.244 0.424-0.419s0.155-0.373 0.155-0.575-0.054-0.401-0.155-0.575c-0.102-0.175-0.248-0.319-0.424-0.419l-10.571-6.103c-0.174-0.1-0.371-0.153-0.571-0.153s-0.398 0.053-0.571 0.153l-10.572 6.103z"></path>
<path fill="#0098c7" opacity="0.3" style="fill: var(--color3, #0098c7)" d="M2.994 25.387c-0.176-0.1-0.322-0.244-0.424-0.419s-0.155-0.373-0.155-0.575 0.054-0.401 0.155-0.575c0.102-0.175 0.248-0.319 0.424-0.419l10.572-6.103c0.174-0.1 0.371-0.153 0.571-0.153s0.398 0.053 0.571 0.153l10.571 6.103c0.176 0.1 0.322 0.244 0.424 0.419s0.155 0.373 0.155 0.575-0.054 0.401-0.155 0.575c-0.102 0.175-0.248 0.319-0.424 0.419l-10.571 6.103c-0.174 0.1-0.371 0.153-0.571 0.153s-0.398-0.053-0.571-0.153l-10.572-6.103z"></path>
<path fill="#0098c7" opacity="0.8" style="fill: var(--color3, #0098c7)" d="M17.428 14.793l9.429-5.44c0.173-0.1 0.37-0.153 0.57-0.153s0.397 0.052 0.57 0.151c0.174 0.1 0.318 0.243 0.419 0.416s0.154 0.369 0.156 0.569v10.903c-0.001 0.2-0.055 0.396-0.156 0.569s-0.245 0.316-0.419 0.416c-0.174 0.1-0.37 0.152-0.57 0.151s-0.397-0.053-0.57-0.153l-9.429-5.44c-0.176-0.1-0.322-0.244-0.424-0.419s-0.155-0.373-0.155-0.575 0.054-0.401 0.155-0.575c0.102-0.175 0.248-0.319 0.424-0.419z"></path>
<path fill="#0098c7" opacity="0.6" style="fill: var(--color3, #0098c7)" d="M-0.001 21.273v-10.903c0.001-0.2 0.055-0.396 0.156-0.569s0.245-0.316 0.419-0.416c0.174-0.1 0.37-0.152 0.57-0.151s0.397 0.053 0.57 0.153l9.429 5.406c0.176 0.1 0.322 0.244 0.424 0.419s0.155 0.373 0.155 0.575-0.054 0.401-0.155 0.575c-0.102 0.175-0.248 0.319-0.424 0.419l-9.429 5.44c-0.171 0.099-0.364 0.152-0.561 0.154s-0.391-0.047-0.564-0.143c-0.173-0.096-0.318-0.234-0.421-0.402s-0.161-0.36-0.168-0.557z"></path>
</symbol>


        <symbol id="icon-advantage_1" viewBox="0 0 32 32">
            <path fill="#000" opacity="0.1" d="M16 26.667c5.891 0 10.667-4.776 10.667-10.667s-4.776-10.667-10.667-10.667c-5.891 0-10.667 4.776-10.667 10.667s4.776 10.667 10.667 10.667z"></path>
            <path fill="url(#gradient)" d="M20.229 26.4c0.795 0 1.445-0.651 1.445-1.445s-0.651-1.445-1.445-1.445c-0.629 0-1.157 0.405-1.355 0.965h-2.016v-2.891h2.016c0.197 0.56 0.731 0.965 1.355 0.965 0.795 0 1.445-0.651 1.445-1.445s-0.651-1.445-1.445-1.445c-0.629 0-1.157 0.405-1.355 0.965h-2.016v-2.891h2.016c0.197 0.56 0.731 0.965 1.355 0.965 0.795 0 1.445-0.651 1.445-1.445s-0.651-1.445-1.445-1.445c-0.629 0-1.157 0.405-1.355 0.965h-2.016v-0.965h-0.965v-2.016c0.56-0.197 0.965-0.731 0.965-1.355 0-0.795-0.651-1.445-1.445-1.445s-1.445 0.651-1.445 1.445c0 0.629 0.405 1.157 0.965 1.355v2.016h-2.891v-2.016c0.56-0.197 0.965-0.731 0.965-1.355 0-0.795-0.651-1.445-1.445-1.445s-1.445 0.651-1.445 1.445c0 0.629 0.405 1.157 0.965 1.355v2.016h-2.891v-2.016c0.56-0.197 0.965-0.731 0.965-1.355 0-0.795-0.651-1.445-1.445-1.445s-1.445 0.651-1.445 1.445c0 0.629 0.405 1.157 0.965 1.355v2.016h-0.965v0.965h-2.016c-0.197-0.56-0.731-0.965-1.355-0.965-0.795 0-1.445 0.651-1.445 1.445s0.651 1.445 1.445 1.445c0.629 0 1.157-0.405 1.355-0.965h2.016v2.891h-2.016c-0.197-0.56-0.731-0.965-1.355-0.965-0.795 0-1.445 0.651-1.445 1.445s0.651 1.445 1.445 1.445c0.629 0 1.157-0.405 1.355-0.965h2.016v2.891h-2.016c-0.197-0.56-0.731-0.965-1.355-0.965-0.795 0-1.445 0.651-1.445 1.445s0.651 1.445 1.445 1.445c0.629 0 1.157-0.405 1.355-0.965h2.016v0.965h0.965v2.016c-0.56 0.197-0.965 0.731-0.965 1.355 0 0.795 0.651 1.445 1.445 1.445s1.445-0.651 1.445-1.445c0-0.629-0.405-1.157-0.965-1.355v-2.016h2.891v2.016c-0.56 0.197-0.965 0.731-0.965 1.355 0 0.795 0.651 1.445 1.445 1.445s1.445-0.651 1.445-1.445c0-0.629-0.405-1.157-0.965-1.355v-2.016h2.891v2.016c-0.56 0.197-0.965 0.731-0.965 1.355 0 0.795 0.651 1.445 1.445 1.445s1.445-0.651 1.445-1.445c0-0.629-0.405-1.157-0.965-1.355v-2.016h0.965v-0.965h2.016c0.197 0.565 0.731 0.965 1.355 0.965zM20.229 24.475c0.267 0 0.48 0.213 0.48 0.48s-0.213 0.48-0.48 0.48c-0.267 0-0.48-0.213-0.48-0.48s0.219-0.48 0.48-0.48zM20.229 20.624c0.267 0 0.48 0.213 0.48 0.48s-0.213 0.48-0.48 0.48c-0.267 0-0.48-0.213-0.48-0.48s0.219-0.48 0.48-0.48zM20.229 16.768c0.267 0 0.48 0.213 0.48 0.48s-0.213 0.48-0.48 0.48c-0.267 0-0.48-0.213-0.48-0.48s0.219-0.48 0.48-0.48zM2.891 17.733c-0.267 0-0.48-0.213-0.48-0.48s0.213-0.48 0.48-0.48c0.267 0 0.48 0.213 0.48 0.48s-0.213 0.48-0.48 0.48zM2.891 21.584c-0.267 0-0.48-0.213-0.48-0.48s0.213-0.48 0.48-0.48c0.267 0 0.48 0.213 0.48 0.48s-0.213 0.48-0.48 0.48zM2.891 25.44c-0.267 0-0.48-0.213-0.48-0.48s0.213-0.48 0.48-0.48c0.267 0 0.48 0.213 0.48 0.48s-0.213 0.48-0.48 0.48zM15.413 11.952c0.267 0 0.48 0.219 0.48 0.48 0 0.267-0.213 0.48-0.48 0.48s-0.48-0.219-0.48-0.48c0-0.267 0.213-0.48 0.48-0.48zM11.563 11.952c0.267 0 0.48 0.219 0.48 0.48 0 0.267-0.213 0.48-0.48 0.48s-0.48-0.219-0.48-0.48c-0.005-0.267 0.213-0.48 0.48-0.48zM7.707 11.952c0.267 0 0.48 0.219 0.48 0.48 0 0.267-0.213 0.48-0.48 0.48s-0.48-0.219-0.48-0.48c0-0.267 0.213-0.48 0.48-0.48zM7.707 30.256c-0.267 0-0.48-0.213-0.48-0.48s0.213-0.48 0.48-0.48c0.267 0 0.48 0.213 0.48 0.48s-0.213 0.48-0.48 0.48zM11.563 30.256c-0.267 0-0.48-0.213-0.48-0.48s0.213-0.48 0.48-0.48c0.267 0 0.48 0.213 0.48 0.48s-0.219 0.48-0.48 0.48zM15.413 30.256c-0.267 0-0.48-0.213-0.48-0.48s0.213-0.48 0.48-0.48c0.267 0 0.48 0.213 0.48 0.48s-0.213 0.48-0.48 0.48zM15.893 25.44h-8.672v-8.672h8.672v8.672zM29.141 9.061c-0.181-0.699-0.459-1.36-0.827-1.984l1.536-1.536-2.725-2.725-1.536 1.536c-0.624-0.368-1.291-0.645-1.984-0.827v-2.171h-3.856v2.171c-0.699 0.181-1.36 0.459-1.984 0.827l-1.536-1.536-2.725 2.725 1.536 1.536c-0.368 0.624-0.645 1.291-0.827 1.984h-1.691v0.965h2.464l0.080-0.384c0.171-0.843 0.501-1.637 0.981-2.368l0.219-0.325-1.403-1.403 1.365-1.36 1.403 1.403 0.331-0.219c0.725-0.48 1.525-0.811 2.368-0.981l0.384-0.080v-1.984h1.925v1.984l0.384 0.080c0.843 0.171 1.643 0.501 2.368 0.981l0.331 0.219 1.403-1.403 1.365 1.36-1.403 1.403 0.219 0.325c0.48 0.725 0.811 1.525 0.981 2.368l0.080 0.384h1.984v1.925h-1.984l-0.080 0.384c-0.171 0.843-0.501 1.637-0.981 2.368l-0.219 0.331 1.403 1.403-1.365 1.365-1.403-1.403-0.331 0.219c-0.725 0.48-1.525 0.811-2.368 0.981l-0.384 0.080v2.464h0.965v-1.691c0.699-0.181 1.36-0.453 1.984-0.827l1.536 1.536 2.725-2.725-1.536-1.536c0.368-0.624 0.645-1.291 0.827-1.984h2.171v-3.856h-2.171zM21.675 14.843v0.965c2.656 0 4.816-2.16 4.816-4.816s-2.16-4.816-4.816-4.816c-2.656 0-4.816 2.16-4.816 4.816h0.965c0-2.123 1.728-3.856 3.856-3.856s3.856 1.728 3.856 3.856c0 2.128-1.733 3.851-3.861 3.851zM8.187 17.733h6.747v0.965h-6.747v-0.965zM13.968 23.509h0.965v0.965h-0.965v-0.965zM8.187 23.509h4.816v0.965h-4.816v-0.965zM19.173 29.973l0.192 0.944c5.883-1.195 10.453-5.765 11.648-11.648l-0.944-0.192c-1.12 5.504-5.397 9.781-10.896 10.896zM13.584 2.597l-0.192-0.944c-5.883 1.195-10.453 5.765-11.648 11.648l0.944 0.192c1.115-5.504 5.392-9.781 10.896-10.896z"></path>
        </symbol>
        <symbol id="icon-advantage_2" viewBox="0 0 32 32">
            <path fill="#000" opacity="0.1" d="M16 26.667c5.891 0 10.667-4.776 10.667-10.667s-4.776-10.667-10.667-10.667c-5.891 0-10.667 4.776-10.667 10.667s4.776 10.667 10.667 10.667z"></path>
            <path fill="url(#gradient)" d="M25.867 4.021c-2.277 0-4.075 1.824-4.075 4.101s1.829 4.075 4.075 4.075c2.251 0 4.101-1.824 4.101-4.101s-1.824-4.075-4.101-4.075zM25.867 11.296c-1.771 0-3.205-1.435-3.205-3.2s1.461-3.173 3.205-3.173c1.771 0 3.205 1.435 3.205 3.2s-1.435 3.173-3.205 3.173zM27.157 8.741c-0.027-0.085-0.027-0.139-0.085-0.224-0.027-0.059-0.059-0.139-0.112-0.197-0.059-0.059-0.085-0.112-0.139-0.171-0.059-0.059-0.112-0.112-0.197-0.139-0.059-0.059-0.139-0.085-0.197-0.112-0.085-0.027-0.139-0.085-0.224-0.112s-0.171-0.059-0.224-0.085c-0.027 0-0.085-0.027-0.112-0.059-0.027-0.027-0.085-0.027-0.112-0.059-0.027-0.027-0.085-0.027-0.112-0.059-0.027-0.027-0.059-0.059-0.085-0.085s-0.059-0.059-0.059-0.112c-0.027-0.027-0.027-0.085-0.027-0.112 0-0.059 0-0.085 0-0.139 0-0.027 0.027-0.085 0.027-0.112 0.027-0.027 0.027-0.085 0.059-0.112s0.059-0.059 0.085-0.085c0.027-0.027 0.085-0.059 0.139-0.059 0.059-0.027 0.085-0.027 0.139-0.027 0.027 0 0.059 0 0.085 0s0.059 0 0.085 0 0.085 0 0.139 0.027c0.059 0 0.112 0.027 0.139 0.027s0.085 0.027 0.112 0.027c0.059 0 0.085 0.027 0.112 0.027l0.139 0.059 0.027-0.171 0.059-0.448v-0.112l-0.112-0.027c-0.027 0-0.085-0.027-0.112-0.027s-0.059-0.027-0.112-0.027c-0.027 0-0.085-0.027-0.139-0.027-0.059 0-0.085-0.027-0.139-0.027h-0.027v-0.533h-0.672v0.56h-0.027c-0.085 0.027-0.171 0.059-0.251 0.112-0.085 0.027-0.139 0.085-0.197 0.139-0.059 0.059-0.112 0.112-0.171 0.197-0.059 0.059-0.085 0.139-0.112 0.224s-0.059 0.171-0.085 0.251c-0.027 0.085-0.027 0.197-0.027 0.283s0 0.139 0.027 0.224c0.027 0.085 0.027 0.139 0.085 0.224 0.027 0.059 0.085 0.139 0.112 0.197 0.059 0.059 0.085 0.112 0.139 0.171 0.059 0.059 0.112 0.112 0.197 0.139 0.059 0.059 0.139 0.085 0.197 0.112 0.085 0.027 0.171 0.085 0.224 0.112 0.085 0.027 0.171 0.059 0.224 0.085 0.027 0 0.085 0.027 0.112 0.059s0.085 0.027 0.112 0.059c0.027 0.027 0.059 0.059 0.085 0.059 0.027 0.027 0.059 0.059 0.085 0.085s0.027 0.059 0.059 0.112c0 0.027 0.027 0.085 0.027 0.139s0 0.085 0 0.139c0 0.027-0.027 0.085-0.059 0.112-0.027 0.027-0.059 0.059-0.085 0.085s-0.059 0.059-0.112 0.085c-0.027 0.027-0.085 0.027-0.112 0.059-0.027 0-0.085 0.027-0.139 0.027-0.027 0-0.059 0-0.112 0-0.027 0-0.085 0-0.112 0-0.059 0-0.112 0-0.139 0-0.059 0-0.112-0.027-0.139-0.027-0.059 0-0.112-0.027-0.171-0.059-0.059-0.027-0.112-0.027-0.171-0.059-0.027 0-0.059-0.027-0.085-0.027s-0.059-0.027-0.085-0.027l-0.171-0.085-0.027 0.197-0.059 0.507v0.085l0.085 0.027c0.112-0.027 0.171 0 0.251 0.027 0.059 0.027 0.139 0.059 0.197 0.059 0.059 0.027 0.139 0.027 0.224 0.059 0.085 0.027 0.139 0.027 0.224 0.027h0.059v0.56h0.672v-0.587h0.027c0.085-0.027 0.171-0.059 0.251-0.112 0.085-0.027 0.139-0.085 0.224-0.139 0.059-0.059 0.112-0.112 0.171-0.197 0.059-0.059 0.085-0.139 0.139-0.224 0.027-0.085 0.059-0.171 0.085-0.251s0.027-0.171 0.027-0.283c0.005-0.091 0.005-0.149-0.021-0.229zM23.899 12.725c-0.139-0.197-0.448-0.224-0.645-0.085l-4.555 3.621-5.877-2.443c-0.139-0.059-0.309-0.027-0.421 0.059l-6.299 4.496c-0.197 0.139-0.251 0.421-0.112 0.619 0.085 0.139 0.224 0.197 0.368 0.197 0.085 0 0.171-0.027 0.251-0.085l6.101-4.352 5.904 2.443c0.139 0.059 0.336 0.027 0.448-0.059l4.752-3.765c0.197-0.139 0.224-0.448 0.085-0.645zM30.475 28.117h-2.080v-13.003c0-0.251-0.197-0.448-0.448-0.448h-4.133c-0.251 0-0.448 0.197-0.448 0.448v13.003h-1.52v-8.512c0-0.251-0.197-0.448-0.448-0.448h-4.16c-0.251 0-0.448 0.197-0.448 0.448v8.512h-1.52v-9.184c0-0.251-0.197-0.448-0.448-0.448h-4.133c-0.251 0-0.448 0.197-0.448 0.448v9.184h-1.52v-6.544c0-0.251-0.197-0.448-0.448-0.448h-4.16c-0.251 0-0.448 0.197-0.448 0.448v6.544h-2.107c-0.251 0-0.448 0.197-0.448 0.448s0.197 0.448 0.448 0.448h28.896c0.251 0 0.448-0.197 0.448-0.448 0.021-0.251-0.171-0.448-0.427-0.448zM7.792 28.117h-3.232v-6.096h3.232v6.096zM14.368 28.117h-3.232v-8.736h3.232v8.736zM20.917 28.117h-3.232v-8.059h3.232v8.059zM27.493 28.117h-3.232v-12.555h3.232v12.555z"></path>
        </symbol>
        <symbol id="icon-advantage_3" viewBox="0 0 32 32">
            <path fill="#000" opacity="0.1" d="M16 26.667c5.891 0 10.667-4.776 10.667-10.667s-4.776-10.667-10.667-10.667c-5.891 0-10.667 4.776-10.667 10.667s4.776 10.667 10.667 10.667z"></path>
            <path fill="url(#gradient)" d="M29.979 27.936h-28.453c-0.389 0-0.704 0.315-0.704 0.704s0.315 0.704 0.704 0.704h28.453c0.389 0 0.704-0.315 0.704-0.704s-0.315-0.704-0.704-0.704zM28.139 6.549h-4.955c-0.389 0-0.704 0.315-0.704 0.704v4.779h-3.547v-8.091c0-0.389-0.315-0.704-0.704-0.704h-4.955c-0.389 0-0.704 0.315-0.704 0.704v13.291h-3.547v-5.973c0-0.389-0.315-0.704-0.704-0.704h-4.955c-0.389 0-0.704 0.315-0.704 0.704v13.445c0 0.389 0.315 0.704 0.704 0.704h24.773c0.389 0 0.704-0.315 0.704-0.704v-17.451c0-0.389-0.315-0.704-0.704-0.704zM7.611 24h-3.547v-12.043h3.547v12.043zM12.565 24h-3.547v-5.371h3.547v5.371zM17.52 12.731v11.269h-3.547v-19.365h3.547v8.096zM22.475 24h-3.547v-10.571h3.547v10.571zM27.435 24h-3.547v-16.048h3.547v16.048z"></path>
        </symbol>
        <symbol id="icon-advantage_4" viewBox="0 0 32 32">
            <path fill="#000" opacity="0.1" d="M16 26.667c5.891 0 10.667-4.776 10.667-10.667s-4.776-10.667-10.667-10.667c-5.891 0-10.667 4.776-10.667 10.667s4.776 10.667 10.667 10.667z"></path>
            <path fill="url(#gradient)" d="M30.091 28.325h-25.707l3.243-3.621c0.283 0.149 0.608 0.24 0.955 0.24 0.795 0 1.483-0.453 1.819-1.12l3.312 0.843c0.085 1.051 0.965 1.877 2.037 1.877 1.125 0 2.043-0.923 2.043-2.053 0-0.624-0.277-1.184-0.72-1.557l2.704-6.485 1.925 4.928c-0.459 0.379-0.752 0.949-0.752 1.589 0 1.131 0.917 2.053 2.043 2.053s2.043-0.923 2.043-2.053c0-0.229-0.037-0.453-0.112-0.661l2.363-2.368c0.235-0.235 0.235-0.613 0-0.843-0.235-0.235-0.608-0.235-0.843 0l-2.229 2.235c-0.341-0.256-0.768-0.411-1.227-0.411-0.064 0-0.128 0.005-0.187 0.011l-2.368-6.059 2.379-5.707c0.059 0.005 0.117 0.011 0.176 0.011 0.944 0 1.744-0.651 1.973-1.525h3.744c0.331 0 0.597-0.267 0.597-0.597s-0.267-0.597-0.597-0.597h-3.792c-0.277-0.805-1.040-1.381-1.931-1.381-1.125 0-2.043 0.923-2.043 2.053 0 0.645 0.299 1.221 0.763 1.595l-1.899 4.555-2.773-7.099c0.416-0.373 0.677-0.923 0.677-1.525 0-1.131-0.917-2.053-2.043-2.053s-2.043 0.923-2.043 2.053c0 0.491 0.171 0.939 0.459 1.291l-4.907 7.461c-0.213-0.075-0.443-0.117-0.677-0.117-0.245 0-0.48 0.043-0.693 0.123l-4.213-5.568v-6.101c0-0.331-0.267-0.597-0.597-0.597s-0.597 0.267-0.597 0.597v5.872h-0.997c-0.331 0-0.597 0.267-0.597 0.597s0.267 0.597 0.597 0.597h0.997v6.005h-0.997c-0.331 0-0.597 0.267-0.597 0.597s0.267 0.597 0.597 0.597h0.997v6.149h-0.997c-0.331 0-0.597 0.267-0.597 0.597s0.267 0.597 0.597 0.597h0.997v5.584c0 0.331 0.267 0.597 0.597 0.597h5.125v0.784c0 0.331 0.267 0.597 0.597 0.597s0.597-0.267 0.597-0.597v-0.784h5.979v0.784c0 0.331 0.267 0.597 0.597 0.597s0.597-0.267 0.597-0.597v-0.784h6.123v0.784c0 0.331 0.267 0.597 0.597 0.597s0.597-0.267 0.597-0.597v-0.784h6.283c0.331 0 0.597-0.267 0.597-0.597s-0.267-0.608-0.592-0.608zM22.992 22.107c0.469 0 0.853 0.384 0.853 0.859s-0.384 0.859-0.853 0.859c-0.469 0-0.853-0.384-0.853-0.859s0.384-0.859 0.853-0.859zM22.992 6.256c0.469 0 0.853 0.384 0.853 0.859s-0.384 0.859-0.853 0.859c-0.469 0-0.853-0.384-0.853-0.859s0.384-0.859 0.853-0.859zM8.581 23.744c-0.469 0-0.853-0.384-0.853-0.859s0.384-0.859 0.853-0.859c0.469 0 0.853 0.384 0.853 0.859s-0.384 0.859-0.853 0.859zM15.749 25.344c-0.469 0-0.853-0.384-0.853-0.859s0.384-0.859 0.853-0.859c0.469 0 0.853 0.384 0.853 0.859s-0.384 0.859-0.853 0.859zM15.675 3.787c0.469 0 0.853 0.384 0.853 0.859s-0.384 0.859-0.853 0.859c-0.469 0-0.853-0.384-0.853-0.859s0.384-0.859 0.853-0.859zM8.507 14.475c0.469 0 0.853 0.384 0.853 0.859s-0.384 0.859-0.853 0.859c-0.469 0-0.853-0.384-0.853-0.859s0.384-0.859 0.853-0.859zM3.6 9.808l3.264 4.309c-0.251 0.341-0.395 0.757-0.395 1.211 0 1.131 0.917 2.053 2.043 2.053s2.043-0.923 2.043-2.053c0-0.459-0.149-0.885-0.405-1.227l4.933-7.499c0.192 0.059 0.389 0.091 0.597 0.091 0.096 0 0.192-0.005 0.283-0.021l3.195 8.176-3.168 7.605c-0.075-0.011-0.155-0.016-0.235-0.016-0.768 0-1.435 0.427-1.787 1.056l-3.355-0.853c-0.123-1.013-0.987-1.803-2.027-1.803-1.125 0-2.043 0.923-2.043 2.053 0 0.352 0.091 0.683 0.245 0.971l-3.184 3.552v-17.605h-0.005zM29.312 16.976c-0.235-0.235-0.608-0.235-0.843 0l-0.469 0.475c-0.235 0.235-0.235 0.613 0 0.843 0.117 0.117 0.267 0.176 0.421 0.176s0.304-0.059 0.421-0.176l0.469-0.475c0.235-0.229 0.235-0.608 0-0.843z"></path>
        </symbol>
        <symbol id="icon-advantage_5" viewBox="0 0 32 32">
            <path fill="#000" opacity="0.1" d="M16 26.667c5.891 0 10.667-4.776 10.667-10.667s-4.776-10.667-10.667-10.667c-5.891 0-10.667 4.776-10.667 10.667s4.776 10.667 10.667 10.667z"></path>
            <path fill="url(#gradient)" d="M18.629 6.715c-1.429-1.424-3.328-2.208-5.349-2.208s-3.92 0.784-5.349 2.208c-2.949 2.939-2.949 7.712 0 10.651 1.429 1.424 3.328 2.208 5.349 2.208s3.92-0.784 5.349-2.208c1.429-1.424 2.213-3.312 2.213-5.323s-0.784-3.904-2.213-5.328zM8.539 7.323c1.264-1.259 2.949-1.952 4.741-1.952s3.472 0.693 4.741 1.952c0.997 0.997 1.643 2.251 1.872 3.611l-2.347 2.288c-0.224-0.123-0.48-0.197-0.752-0.197-0.533 0-1.003 0.272-1.275 0.683l-3.451-1.077c0-0.011 0-0.021 0-0.032 0-0.843-0.688-1.531-1.536-1.531s-1.536 0.688-1.536 1.531c0 0.277 0.075 0.533 0.203 0.757l-1.813 1.867c-1.376-2.528-0.992-5.765 1.152-7.899zM17.467 14.549c0 0.368-0.304 0.672-0.672 0.672s-0.672-0.299-0.672-0.672c0-0.373 0.304-0.672 0.672-0.672s0.672 0.304 0.672 0.672zM11.2 12.592c0 0.368-0.304 0.672-0.672 0.672s-0.672-0.299-0.672-0.672c0-0.373 0.304-0.672 0.672-0.672 0.373 0.005 0.672 0.304 0.672 0.672zM18.021 16.763c-1.264 1.259-2.949 1.952-4.741 1.952s-3.472-0.693-4.741-1.952c-0.251-0.251-0.48-0.517-0.683-0.795l1.957-2.021c0.213 0.112 0.453 0.176 0.715 0.176 0.533 0 1.003-0.272 1.275-0.683l3.451 1.077c0 0.011 0 0.021 0 0.032 0 0.843 0.688 1.531 1.536 1.531s1.536-0.688 1.536-1.531c0-0.261-0.064-0.507-0.181-0.72l1.84-1.787c0 1.781-0.699 3.456-1.963 4.72zM9.467 7.669l0.565 0.645c1.339-1.157 3.211-1.515 4.891-0.928l0.283-0.811c-1.973-0.683-4.171-0.267-5.739 1.093zM16.309 7.093l-0.448 0.731c0.229 0.139 0.448 0.299 0.651 0.469l0.56-0.651c-0.24-0.197-0.496-0.384-0.763-0.549zM14.309 16.869c-0.971 0.203-1.968 0.117-2.88-0.245l-0.32 0.795c0.693 0.277 1.429 0.416 2.165 0.416 0.405 0 0.811-0.043 1.211-0.128l-0.176-0.837zM24.075 18.933l-0.624 0.624-1.552-1.653c1.835-2.672 2.277-6.016 1.328-9.013l1.232-1.2c0.219 0.117 0.464 0.181 0.725 0.181 0.848 0 1.536-0.688 1.536-1.531 0-0.251-0.059-0.485-0.165-0.693l2.645-2.571v1.328h0.864v-2.779h-2.789v0.859h1.301l-2.608 2.539c-0.229-0.133-0.496-0.213-0.779-0.213-0.848 0-1.536 0.688-1.536 1.531 0 0.272 0.069 0.523 0.192 0.741l-0.944 0.917c-0.507-1.205-1.253-2.331-2.235-3.312-4.069-4.048-10.688-4.048-14.757 0-3.627 3.605-4.021 9.232-1.189 13.28l-0.725 0.747c-0.213-0.112-0.453-0.176-0.715-0.176-0.848 0-1.536 0.688-1.536 1.531s0.688 1.531 1.536 1.531c0.848 0 1.536-0.688 1.536-1.531 0-0.277-0.075-0.533-0.203-0.757l0.635-0.656c0.208 0.245 0.427 0.491 0.661 0.72 2.032 2.027 4.704 3.035 7.376 3.035 2.053 0 4.101-0.597 5.867-1.792l1.557 1.653-0.645 0.645 7.536 7.472 4.021-4-7.547-7.456zM25.179 5.675c0.373 0 0.672 0.299 0.672 0.672s-0.304 0.672-0.672 0.672c-0.373 0-0.672-0.299-0.672-0.672s0.299-0.672 0.672-0.672zM3.275 20.747c-0.373 0-0.672-0.299-0.672-0.672 0-0.368 0.304-0.672 0.672-0.672s0.672 0.299 0.672 0.672c0 0.373-0.299 0.672-0.672 0.672zM6.512 18.779c-3.733-3.717-3.733-9.76 0-13.477 1.867-1.856 4.32-2.784 6.768-2.784 2.453 0 4.901 0.928 6.768 2.784 3.733 3.717 3.733 9.76 0 13.477s-9.808 3.717-13.536 0zM19.84 20.117c0.283-0.229 0.555-0.469 0.816-0.731 0.256-0.251 0.491-0.512 0.715-0.784l1.467 1.557-1.525 1.52-1.472-1.563zM27.589 29.195l-6.315-6.261 2.8-2.789 6.315 6.261-2.8 2.789zM24.075 21.387l-1.232 1.227 0.608 0.608 0.624-0.619 2.379 2.368 0.608-0.608-2.987-2.976zM27.189 25.707l0.608-0.608 0.635 0.635-0.608 0.608-0.635-0.635zM6.411 22.864h0.864v0.933h-0.864v-0.933zM6.411 28.101h0.864v0.933h-0.864v-0.933zM13.504 24.667h0.864v0.933h-0.864v-0.933zM25.851 16.949h0.864v0.933h-0.864v-0.933zM26.832 9.509h0.864v0.933h-0.864v-0.933zM29.685 13.451h0.864v0.933h-0.864v-0.933z"></path>
        </symbol>
        <symbol id="icon-advantage_6" viewBox="0 0 32 32">
            <path fill="#000" opacity="0.1" d="M16 26.667c5.891 0 10.667-4.776 10.667-10.667s-4.776-10.667-10.667-10.667c-5.891 0-10.667 4.776-10.667 10.667s4.776 10.667 10.667 10.667z"></path>
            <path fill="url(#gradient)" d="M27.563 1.088c-1.797 0-3.259 1.461-3.259 3.259 0 0.56 0.144 1.093 0.395 1.552l-5.339 5.339c-0.736-0.571-1.659-0.917-2.661-0.917s-1.925 0.347-2.661 0.917l-4.165-4.165c0.192-0.325 0.309-0.693 0.309-1.099 0-1.2-0.976-2.171-2.171-2.171s-2.171 0.976-2.171 2.171c0 1.2 0.976 2.171 2.171 2.171 0.4 0 0.773-0.117 1.099-0.309l4.165 4.165c-0.571 0.736-0.917 1.659-0.917 2.661s0.347 1.925 0.917 2.661l-6.875 6.875c-0.581-0.523-1.344-0.848-2.187-0.848-1.797 0-3.259 1.461-3.259 3.259s1.461 3.259 3.259 3.259c1.797 0 3.259-1.461 3.259-3.259 0-0.56-0.144-1.093-0.395-1.552l6.965-6.965c0.603 0.469 1.323 0.779 2.117 0.88v5.515c-1.536 0.261-2.715 1.6-2.715 3.211 0 1.797 1.461 3.259 3.259 3.259s3.259-1.461 3.259-3.259c0-1.611-1.179-2.949-2.715-3.211v-5.515c0.789-0.101 1.515-0.411 2.117-0.88l4.165 4.165c-0.192 0.325-0.309 0.693-0.309 1.099 0 1.2 0.976 2.171 2.171 2.171 1.2 0 2.171-0.976 2.171-2.171 0-1.2-0.976-2.171-2.171-2.171-0.4 0-0.773 0.117-1.099 0.309l-4.165-4.165c0.571-0.736 0.917-1.659 0.917-2.661s-0.347-1.925-0.917-2.661l5.248-5.248c0.576 0.523 1.344 0.848 2.187 0.848 1.797 0 3.259-1.461 3.259-3.259s-1.461-3.259-3.259-3.259zM6.928 5.973c0-0.597 0.485-1.088 1.088-1.088s1.088 0.485 1.088 1.088c0 0.603-0.485 1.088-1.088 1.088s-1.088-0.491-1.088-1.088zM4.213 28.779c-1.2 0-2.171-0.976-2.171-2.171 0-1.2 0.976-2.171 2.171-2.171s2.171 0.976 2.171 2.171c0 1.2-0.971 2.171-2.171 2.171zM18.875 27.696c0 1.2-0.976 2.171-2.171 2.171-1.2 0-2.171-0.976-2.171-2.171 0-1.2 0.976-2.171 2.171-2.171 1.2-0.005 2.171 0.971 2.171 2.171zM16.704 17.92c-1.797 0-3.259-1.461-3.259-3.259s1.461-3.259 3.259-3.259c1.797 0 3.259 1.461 3.259 3.259s-1.461 3.259-3.259 3.259zM26.48 23.349c0 0.597-0.485 1.088-1.088 1.088s-1.088-0.485-1.088-1.088c0-0.603 0.485-1.088 1.088-1.088s1.088 0.491 1.088 1.088zM27.563 6.517c-1.2 0-2.171-0.976-2.171-2.171 0-1.2 0.976-2.171 2.171-2.171s2.171 0.976 2.171 2.171c0.005 1.195-0.971 2.171-2.171 2.171z"></path>
        </symbol>
        <symbol id="icon-comparison" viewBox="0 0 37 32">
            <path fill="#e8b006" d="M36.028 17.905l-4.577-7.517c0.311-0.148 0.562-0.394 0.712-0.699s0.192-0.65 0.119-0.981c-0.074-0.331-0.259-0.627-0.526-0.842s-0.6-0.336-0.945-0.343h-0.219c-2.398-2.237-5.404-3.75-8.658-4.357v-2.074c0-0.289-0.117-0.567-0.326-0.771s-0.492-0.319-0.788-0.319h-4.19c-0.295 0-0.579 0.115-0.788 0.319s-0.326 0.482-0.326 0.771v2.040c-3.345 0.596-6.436 2.148-8.883 4.459-0.377-0.14-0.795-0.13-1.164 0.028s-0.661 0.451-0.812 0.817c-0.151 0.366-0.15 0.775 0.004 1.14s0.447 0.656 0.817 0.812l-4.577 7.517h-0.9c0.229 1.432 0.974 2.737 2.099 3.679s2.557 1.46 4.037 1.46 2.912-0.518 4.037-1.46c1.125-0.942 1.869-2.247 2.099-3.679h-0.924l-4.577-7.517c0.21-0.091 0.396-0.227 0.545-0.397s0.257-0.372 0.316-0.588c0.059-0.217 0.068-0.444 0.026-0.664s-0.134-0.429-0.269-0.61c2.258-2.093 5.080-3.511 8.133-4.086v1.164c0 0.289 0.117 0.567 0.326 0.771s0.492 0.319 0.788 0.319h1.045v20.103l-9.905 5.601h21.754l-9.858-5.573v-20.114h1.154c0.296 0 0.579-0.115 0.788-0.319s0.326-0.482 0.326-0.771v-1.13c2.895 0.575 5.577 1.909 7.758 3.86-0.175 0.172-0.305 0.383-0.378 0.615s-0.088 0.478-0.044 0.717c0.045 0.239 0.148 0.464 0.301 0.655s0.351 0.343 0.577 0.443l-4.577 7.517h-0.924c0.229 1.432 0.974 2.737 2.099 3.679s2.557 1.46 4.037 1.46c1.48 0 2.912-0.518 4.037-1.46s1.869-2.247 2.099-3.679l-0.895 0.006zM10.257 17.905h-8.26l4.133-6.782 4.127 6.782zM18.713 5.137c-0.398 0-0.788-0.116-1.119-0.332s-0.589-0.525-0.742-0.885c-0.152-0.36-0.192-0.757-0.115-1.14s0.27-0.734 0.551-1.010 0.641-0.464 1.031-0.54c0.391-0.076 0.796-0.037 1.164 0.112s0.683 0.402 0.904 0.726c0.221 0.324 0.339 0.706 0.339 1.096 0 0.523-0.212 1.025-0.59 1.395s-0.89 0.578-1.424 0.578zM26.684 17.905l4.133-6.782 4.133 6.782h-8.265z"></path>
        </symbol>

        <symbol id="icon-logo" viewBox="0 0 107 32">
<path d="M39.101 9.384v-9.384h-8.602l-3.91 3.91h5.865l-12.903 12.903-12.903-12.903h15.249l3.91-3.91h-25.806v31.281h39.101v-17.204l-3.91 3.91v9.384h-31.28v-20.723l15.64 15.64 15.64-15.64v6.647l3.91-3.91z"></path>
<path d="M83.676 0h-4.379v18.847h4.379v-18.847z"></path>
<path d="M63.5 0l-8.368 18.847h4.458l1.642-4.067h8.759l1.642 4.067h4.614l-8.446-18.847h-4.301zM62.639 11.496l2.972-7.195 2.972 7.195h-5.943z"></path>
<path d="M105.884 18.847l-4.223-6.022c1.251-0.547 2.189-1.329 2.893-2.346s1.017-2.19 1.017-3.597c0-1.408-0.313-2.581-1.017-3.597-0.626-1.017-1.642-1.799-2.815-2.346-1.251-0.547-2.659-0.86-4.379-0.86h-8.133v18.847h4.379v-5.24h4.067l3.597 5.24h4.614v-0.078zM100.097 9.228c-0.704 0.547-1.642 0.86-2.972 0.86h-3.519v-6.569h3.519c1.33 0 2.268 0.313 2.972 0.86s1.017 1.408 1.017 2.424c0 1.095-0.313 1.877-1.017 2.424z"></path>
<path d="M104.868 28.7c0.547-0.156 0.938-0.469 1.251-0.86s0.469-0.86 0.469-1.486c0-0.782-0.234-1.408-0.782-1.799-0.547-0.469-1.251-0.626-2.189-0.626h-2.659v7.351h0.547v-2.424h2.111c0.234 0 0.469 0 0.704-0.078l1.72 2.424h0.626l-1.799-2.502zM103.617 28.387h-2.111v-3.988h2.111c0.782 0 1.408 0.156 1.799 0.548 0.391 0.313 0.626 0.86 0.626 1.486s-0.235 1.095-0.626 1.486c-0.469 0.313-1.017 0.469-1.799 0.469z"></path>
<path d="M61.779 23.93l-3.284 5.709-3.284-5.709h-0.469v7.351h0.547v-6.256l3.050 5.318h0.234l3.128-5.318v6.256h0.469v-7.351h-0.391z"></path>
<path d="M69.442 23.93l-3.363 7.351h0.547l0.939-2.033h4.223l0.938 2.033h0.547l-3.363-7.351h-0.469zM67.8 28.778l1.955-4.223 1.955 4.223h-3.91z"></path>
<path d="M91.966 27.761h3.91v-0.469h-3.91v-2.893h4.379v-0.469h-4.927v7.351h5.083v-0.469h-4.536v-3.050z"></path>
<path d="M77.733 23.93h-0.547v7.351h0.547v-7.351z"></path>
<path d="M83.285 23.93h-0.469v7.351h4.692v-0.469h-4.223v-6.882z"></path>
</symbol>
        <symbol id="icon-next" >
            <path d="M8 9L0 17L1 18L10 9L1 0L0 1L8 9Z" />
        </symbol>



        <symbol id="icon-play" viewBox="0 0 32 32">
            <path fill="url(#gradient)" opacity="0.4" d="M16 32c8.837 0 16-7.163 16-16s-7.163-16-16-16c-8.837 0-16 7.163-16 16s7.163 16 16 16z"></path>
            <path fill="#fff" d="M12.8 10.667v10.667l9.24-5.333-9.24-5.333z"></path>
        </symbol>

        <symbol id="icon-ic_chat" viewBox="0 0 16 16">
            <path d="M11 1V7H3H2.59L2.3 7.29L1 8.59V1H11ZM12 0H0V11L3 8H12V0Z"/>
            <path d="M13 5V6H15V13.59L13.71 12.29L13.41 12H13H5V9H4V13H13L16 16V5H13Z"/>
            <path d="M5 3H3V5H5V3Z"/>
            <path d="M9 3H7V5H9V3Z"/>
        </symbol>

    </defs>
</svg>
