<svg xmlns="http://www.w3.org/2000/svg" xmlns:xlink="http://www.w3.org/1999/xlink" viewBox="0 0 40 40"><defs><style>.cls-1{fill:#fff;}.cls-2{fill:url(#radial-gradient);}.cls-3{fill:url(#linear-gradient);}</style><radialGradient id="radial-gradient" cx="20" cy="20" r="20" gradientUnits="userSpaceOnUse"><stop offset="0" stop-color="#d045ae"/><stop offset="1" stop-color="#473cc2"/></radialGradient><linearGradient id="linear-gradient" x1="20.54" y1="21.85" x2="38.38" y2="21.85" gradientUnits="userSpaceOnUse"><stop offset="0" stop-color="#473cc2"/><stop offset="1" stop-color="#d045ae"/></linearGradient></defs><title>Ресурс 5</title><g id="Слой_2" data-name="Слой 2"><g id="Layer_1" data-name="Layer 1"><circle class="cls-1" cx="20" cy="20" r="20"/><path class="cls-2" d="M20,1A19,19,0,1,1,1,20,19,19,0,0,1,20,1m0-1A20,20,0,1,0,40,20,20,20,0,0,0,20,0Zm0,7A13,13,0,1,1,7,20,13,13,0,0,1,20,7m0-3A16,16,0,1,0,36,20,16,16,0,0,0,20,4Zm0,9a7,7,0,1,1-7,7,7,7,0,0,1,7-7m0-3A10,10,0,1,0,30,20,10,10,0,0,0,20,10Zm0,6a4,4,0,1,0,4,4A4,4,0,0,0,20,16Z"/><path class="cls-1" d="M31.22,31.37a.51.51,0,0,1-.35-.15L20.07,20.41a.48.48,0,0,1,0-.7l7.23-7.24a.52.52,0,0,1,.71,0l10.8,10.81a.48.48,0,0,1,0,.7l-7.23,7.24A.53.53,0,0,1,31.22,31.37Z"/><path class="cls-1" d="M27.65,12.83l10.81,10.8-7.24,7.24L20.42,20.06l7.23-7.23m0-1a1,1,0,0,0-.7.29l-7.24,7.23a1,1,0,0,0,0,1.42l10.81,10.8a1,1,0,0,0,1.41,0l7.24-7.23a1,1,0,0,0,0-1.42L28.36,12.12a1,1,0,0,0-.71-.29Z"/><path class="cls-3" d="M38.3,23.87l0,0s0,0,0,0,0,0,0,0,0,0,0,0,0,0,0,0,0,0,0,0h0s0,0,0,0v0s0,0,0,0,0,0,0,0,0,0,0,0,0,0,0,0l0,0,0,0h0L27.91,13.06v0l0,0,0,0h-.07s0,0,0,0H27.6a.09.09,0,0,1,0,.05h-.11l0,0,0,0h0l-6.77,6.76h0l0,0,0,0a.06.06,0,0,0,0,0s0,0,0,0a0,0,0,0,0,0,0s0,0,0,0v0s0,0,0,.05h0s0,0,0,0v0a0,0,0,0,1,0,0s0,0,0,0h0s0,0,0,0h0l0,0L31,30.66l0,0,0,0h0l0,0s0,0,0,0h.07a0,0,0,0,0,0,0h.14s0,0,0,0h0l0,0,0,0h0l6.78-6.78h0ZM27.36,14.11l.39,5.42-6,.16Zm4.31,8.74h0l-3-.21-.2-2.76h0l-.4-5.66,9,9Zm-3.88-2.6L28,23a.4.4,0,0,0,.1.23.44.44,0,0,0,.22.1l3,.21-.32,6.08L21.72,20.4ZM32,23.59l5.25.36-5.56,5.57Z"/></g></g></svg>