<svg xmlns="http://www.w3.org/2000/svg" xmlns:xlink="http://www.w3.org/1999/xlink" viewBox="0 0 94.16 28.44"><defs><style>.cls-1{fill-rule:evenodd;fill:red;}.cls-2{fill:red;}</style><linearGradient id="linear-gradient" y1="14.22" x2="35.55" y2="14.22" gradientUnits="userSpaceOnUse"><stop offset="0" stop-color="#473cc2"/><stop offset="1" stop-color="#d045ae"/></linearGradient></defs><g id="Слой_2" data-name="Слой 2"><g id="Layer_1" data-name="Layer 1"><path class="cls-1" d="M35.55,0V8.53L32,12.09V6L20.26,17.77l-2.49,2.49-2.48-2.49-5-5L9.24,11.73,3.55,6V24.88H32V16.35l3.56-3.55V28.44H0V0H23.46L19.91,3.55H6l5.69,5.69,1.07,1.07,5,5L29.5,3.55H24.17L27.73,0Z"/><path class="cls-2" d="M92,20.14a1.84,1.84,0,0,0,.39-1.22,1.69,1.69,0,0,0-.64-1.48,2.59,2.59,0,0,0-1.8-.51H87.73v6h.45V21h1.74a1.94,1.94,0,0,0,.58-.06l1.41,2h.51L91,20.84A1.88,1.88,0,0,0,92,20.14Zm-2,.45H88.18V17.31h1.74a2.07,2.07,0,0,1,1.48.45A1.56,1.56,0,0,1,91.91,19a1.63,1.63,0,0,1-.51,1.22A2.52,2.52,0,0,1,89.92,20.59Z"/><polygon class="cls-2" points="52.85 21.61 50.15 16.93 49.77 16.93 49.77 22.96 50.22 22.96 50.22 17.82 52.72 22.19 52.91 22.19 55.48 17.82 55.48 22.96 55.87 22.96 55.87 16.93 55.55 16.93 52.85 21.61"/><path class="cls-2" d="M61.84,16.93l-2.76,6h.45l.77-1.67h3.47L64.54,23H65l-2.76-6Zm-1.34,4,1.6-3.47,1.61,3.47Z"/><polygon class="cls-2" points="80.35 20.07 83.56 20.07 83.56 19.69 80.35 19.69 80.35 17.31 83.94 17.31 83.94 16.93 79.9 16.93 79.9 22.96 84.07 22.96 84.07 22.58 80.35 22.58 80.35 20.07"/><rect class="cls-2" x="68.2" y="16.93" width="0.45" height="6.04"/><polygon class="cls-2" points="73.22 16.93 72.83 16.93 72.83 22.96 76.68 22.96 76.68 22.58 73.22 22.58 73.22 16.93"/><polygon class="cls-2" points="49.36 5.14 52.02 5.14 52.02 12.8 53.47 12.8 53.47 5.14 56.13 5.14 56.13 3.87 49.36 3.87 49.36 5.14"/><polygon class="cls-2" points="63.26 11.52 58.99 11.52 58.99 8.91 62.87 8.91 62.87 7.63 58.99 7.63 58.99 5.14 63.26 5.14 63.26 3.87 57.54 3.87 57.54 12.8 63.26 12.8 63.26 11.52"/><path class="cls-2" d="M68.46,7.61l-.8-.16A2.65,2.65,0,0,1,66.59,7a1,1,0,0,1-.35-.85,1,1,0,0,1,.42-.89A2,2,0,0,1,67.85,5a2.43,2.43,0,0,1,2.09,1l1-.9a3.45,3.45,0,0,0-1.27-1,4,4,0,0,0-1.75-.36,4.28,4.28,0,0,0-1.29.18,3,3,0,0,0-1,.51,2.28,2.28,0,0,0-.62.81,2.42,2.42,0,0,0-.22,1.06A2.22,2.22,0,0,0,65.46,8a3.84,3.84,0,0,0,2,.86l.79.14a2.06,2.06,0,0,1,1.09.46,1.13,1.13,0,0,1,.31.83,1.32,1.32,0,0,1-.44,1,1.93,1.93,0,0,1-1.29.38,2.93,2.93,0,0,1-1.31-.29,3.47,3.47,0,0,1-1-.87l-1,.93A3.91,3.91,0,0,0,67.8,13a4.45,4.45,0,0,0,1.37-.19,3.16,3.16,0,0,0,1-.56,2.44,2.44,0,0,0,.64-.89A2.79,2.79,0,0,0,71,10.17a2.26,2.26,0,0,0-.63-1.69A3.77,3.77,0,0,0,68.46,7.61Z"/><polygon class="cls-2" points="71.77 5.14 74.43 5.14 74.43 12.8 75.88 12.8 75.88 5.14 78.54 5.14 78.54 3.87 71.77 3.87 71.77 5.14"/><polygon class="cls-2" points="79.95 12.8 85.67 12.8 85.67 11.52 81.4 11.52 81.4 8.91 85.27 8.91 85.27 7.63 81.4 7.63 81.4 5.14 85.67 5.14 85.67 3.87 79.95 3.87 79.95 12.8"/><path class="cls-2" d="M92.23,9a2.3,2.3,0,0,0,1.29-.88A2.7,2.7,0,0,0,94,6.55a2.71,2.71,0,0,0-.69-2,2.5,2.5,0,0,0-1.89-.73H87.54V12.8H89V9.19h1.78l1.79,3.61h1.61ZM91.29,8H89V5.13h2.31a1.16,1.16,0,0,1,.85.3,1,1,0,0,1,.31.82v.61a1.08,1.08,0,0,1-.31.83A1.19,1.19,0,0,1,91.29,8Z"/></g></g></svg>