<svg width="20" height="20" viewBox="0 0 20 20" fill="none" xmlns="http://www.w3.org/2000/svg">
<path fill-rule="evenodd" clip-rule="evenodd" d="M3.5 1C2.67614 1 2 1.67614 2 2.5V14.5C2 14.9641 2.12753 15.3665 2.30573 15.6385C2.48915 15.9184 2.67823 16 2.8 16H2.8041H2.8082H2.81229H2.81639H2.82048H2.82457H2.82865H2.83274H2.83682H2.8409H2.84497H2.84905H2.85312H2.85719H2.86125H2.86532H2.86938H2.87344H2.87749H2.88154H2.88559H2.88964H2.89369H2.89773H2.90177H2.9058H2.90983H2.91386H2.91789H2.92192H2.92594H2.92996H2.93397H2.93798H2.94199H2.946H2.95H2.954H2.958H2.96199H2.96598H2.96997H2.97396H2.97794H2.98191H2.98589H2.98986H2.99383H2.99779H3.00175H3.00571H3.00966H3.01361H3.01756H3.0215H3.02544H3.02938H3.03331H3.03724H3.04117H3.04509H3.04901H3.05292H3.05684H3.06074H3.06465H3.06855H3.07244H3.07634H3.08022H3.08411H3.08799H3.09187H3.09574H3.09961H3.10347H3.10733H3.11119H3.11504H3.11889H3.12274H3.12658H3.13042H3.13425H3.13808H3.1419H3.14572H3.14954H3.15335H3.15716H3.16096H3.16476H3.16855H3.17234H3.17613H3.17991H3.18368H3.18746H3.19122H3.19499H3.19875H3.2025H3.20625H3.20999H3.21373H3.21747H3.2212H3.22493H3.22865H3.23237H3.23608H3.23979H3.24349H3.24719H3.25088H3.25457H3.25825H3.26193H3.2656H3.26927H3.27293H3.27659H3.28025H3.28389H3.28754H3.29118H3.29481H3.29844H3.30206H3.30568H3.30929H3.3129H3.3165H3.3201H3.32369H3.32727H3.33086H3.33443H3.338H3.34157H3.34513H3.34868H3.35223H3.35577H3.35931H3.36284H3.36637H3.36989H3.3734H3.37691H3.38042H3.38391H3.38741H3.39089H3.39438H3.39785H3.40132H3.40478H3.40824H3.41169H3.41514H3.41858H3.42202H3.42544H3.42887H3.43228H3.43569H3.4391H3.4425H3.44589H3.44928H3.45266H3.45603H3.4594H3.46276H3.46612H3.46947H3.47281H3.47615H3.47948H3.4828H3.48612H3.48943H3.49274H3.49603H3.49933H3.50261H3.50589H3.50917H3.51243H3.51569H3.51895H3.52219H3.52543H3.52867H3.53189H3.53511H3.53833H3.54153H3.54473H3.54793H3.55111H3.55429H3.55747H3.56063H3.56379H3.56694H3.57009H3.57323H3.57636H3.57948H3.5826H3.58571H3.58882H3.59191H3.595H3.59808H3.60116H3.60423H3.60729H3.61034H3.61339H3.61643H3.61946H3.62248H3.6255H3.62851H3.63151H3.63451H3.63749H3.64047H3.64345H3.64641H3.64937H3.65232H3.65526H3.6582H3.66113H3.66405H3.66696H3.66986H3.67276H3.67565H3.67853H3.68141H3.68427H3.68713H3.68998H3.69282H3.69566H3.69848H3.7013H3.70411H3.70692H3.70971H3.7125H3.71528H3.71805H3.72081H3.72357H3.72632H3.72905H3.73178H3.73451H3.73722H3.73993H3.74263H3.74532H3.748H3.75067H3.75333H3.75599H3.75864H3.76128H3.76391H3.76653H3.76915H3.77175H3.77435H3.77694H3.77952H3.78209H3.78465H3.78721H3.78975H3.79229H3.79482H3.79734H3.79985H3.80235H3.80485H3.80733H3.80981H3.81227H3.81473H3.81718H3.81962H3.82205H3.82448H3.82689H3.82929H3.83169H3.83408H3.83645H3.83882H3.84118H3.84353H3.84587H3.8482H3.85053H3.85284H3.85514H3.85744H3.85972H3.862H3.86427H3.86653H3.86877H3.87101H3.87324H3.87546H3.87767H3.87987H3.88207H3.88425H3.88642H3.88858H3.89074H3.89288H3.89501H3.89714H3.89925H3.90136H3.90345H3.90554H3.90761H3.90968H3.91174H3.91378H3.91582H3.91785H3.91986H3.92187H3.92387H3.92585H3.92783H3.9298H3.93175H3.9337H3.93563H3.93756H3.93948H3.94138H3.94328H3.94517H3.94704H3.94891H3.95076H3.95261H3.95444H3.95626H3.95808H3.95988H3.96167H3.96346H3.96523H3.96699H3.96874H3.97048H3.97221H3.97393H3.97564H3.97734H3.97903H3.9807H3.98237H3.98402H3.98567H3.9873H3.98893H3.99054H3.99214H3.99373H3.99531H3.99688H3.99844H3.99999H4.00152H4.00305H4.00456H4.00607H4.00756H4.00904H4.01051H4.01197H4.01342H4.01486H4.01628H4.0177H4.0191H4.02049H4.02187H4.02324H4.0246H4.02595H4.02729H4.02861H4.02992H4.03122H4.03251H4.03379H4.03506H4.03632H4.03756H4.03879H4.04001H4.04122H4.04242H4.04361H4.04478H4.04595H4.0471H4.04824H4.04936H4.05048H4.05159H4.05268H4.05376H4.05483H4.05588H4.05693H4.05796H4.05898H4.05999H4.06099H4.06197H4.06295H4.06391H4.06486H4.06579H4.06672H4.06763H4.06853H4.06942H4.0703H4.07116H4.07201H4.07285H4.07368H4.07449H4.0753H4.07609H4.07686H4.07763H4.07838H4.07912H4.07985H4.08056H4.08127H4.08196H4.08263H4.0833H4.08395H4.08459H4.08522H4.08583H4.08643H4.08702H4.0876H4.08816H4.08871H4.08925H4.08978H4.09029H4.09079H4.09127H4.09175H4.09221H4.09266H4.09309H4.09351H4.09392H4.09432H4.0947H4.09507H4.09542H4.09577H4.0961H4.09641H4.09672H4.09701H4.09728H4.09755H4.0978H4.09803H4.09826H4.09847H4.09866H4.09885H4.09902H4.09917H4.09932H4.09945H4.09956H4.09966H4.09975H4.09983H4.09989H4.09994H4.09997H4.09999L4.1 16.5L4.09999 17H4.09997H4.09994H4.09989H4.09983H4.09975H4.09966H4.09956H4.09945H4.09932H4.09917H4.09902H4.09885H4.09866H4.09847H4.09826H4.09803H4.0978H4.09755H4.09728H4.09701H4.09672H4.09641H4.0961H4.09577H4.09542H4.09507H4.0947H4.09432H4.09392H4.09351H4.09309H4.09266H4.09221H4.09175H4.09127H4.09079H4.09029H4.08978H4.08925H4.08871H4.08816H4.0876H4.08702H4.08643H4.08583H4.08522H4.08459H4.08395H4.0833H4.08263H4.08196H4.08127H4.08056H4.07985H4.07912H4.07838H4.07763H4.07686H4.07609H4.0753H4.07449H4.07368H4.07285H4.07201H4.07116H4.0703H4.06942H4.06853H4.06763H4.06672H4.06579H4.06486H4.06391H4.06295H4.06197H4.06099H4.05999H4.05898H4.05796H4.05693H4.05588H4.05483H4.05376H4.05268H4.05159H4.05048H4.04936H4.04824H4.0471H4.04595H4.04478H4.04361H4.04242H4.04122H4.04001H4.03879H4.03756H4.03632H4.03506H4.03379H4.03251H4.03122H4.02992H4.02861H4.02729H4.02595H4.0246H4.02324H4.02187H4.02049H4.0191H4.0177H4.01628H4.01486H4.01342H4.01197H4.01051H4.00904H4.00756H4.00607H4.00456H4.00305H4.00152H3.99999H3.99844H3.99688H3.99531H3.99373H3.99214H3.99054H3.98893H3.9873H3.98567H3.98402H3.98237H3.9807H3.97903H3.97734H3.97564H3.97393H3.97221H3.97048H3.96874H3.96699H3.96523H3.96346H3.96167H3.95988H3.95808H3.95626H3.95444H3.95261H3.95076H3.94891H3.94704H3.94517H3.94328H3.94138H3.93948H3.93756H3.93563H3.9337H3.93175H3.9298H3.92783H3.92585H3.92387H3.92187H3.91986H3.91785H3.91582H3.91378H3.91174H3.90968H3.90761H3.90554H3.90345H3.90136H3.89925H3.89714H3.89501H3.89288H3.89074H3.88858H3.88642H3.88425H3.88207H3.87987H3.87767H3.87546H3.87324H3.87101H3.86877H3.86653H3.86427H3.862H3.85972H3.85744H3.85514H3.85284H3.85053H3.8482H3.84587H3.84353H3.84118H3.83882H3.83645H3.83408H3.83169H3.82929H3.82689H3.82448H3.82205H3.81962H3.81718H3.81473H3.81227H3.80981H3.80733H3.80485H3.80235H3.79985H3.79734H3.79482H3.79229H3.78975H3.78721H3.78465H3.78209H3.77952H3.77694H3.77435H3.77175H3.76915H3.76653H3.76391H3.76128H3.75864H3.75599H3.75333H3.75067H3.748H3.74532H3.74263H3.73993H3.73722H3.73451H3.73178H3.72905H3.72632H3.72357H3.72081H3.71805H3.71528H3.7125H3.70971H3.70692H3.70411H3.7013H3.69848H3.69566H3.69282H3.68998H3.68713H3.68427H3.68141H3.67853H3.67565H3.67276H3.66986H3.66696H3.66405H3.66113H3.6582H3.65526H3.65232H3.64937H3.64641H3.64345H3.64047H3.63749H3.63451H3.63151H3.62851H3.6255H3.62248H3.61946H3.61643H3.61339H3.61034H3.60729H3.60423H3.60116H3.59808H3.595H3.59191H3.58882H3.58571H3.5826H3.57948H3.57636H3.57323H3.57009H3.56694H3.56379H3.56063H3.55747H3.55429H3.55111H3.54793H3.54473H3.54153H3.53833H3.53511H3.53189H3.52867H3.52543H3.52219H3.51895H3.51569H3.51243H3.50917H3.50589H3.50261H3.49933H3.49603H3.49274H3.48943H3.48612H3.4828H3.47948H3.47615H3.47281H3.46947H3.46612H3.46276H3.4594H3.45603H3.45266H3.44928H3.44589H3.4425H3.4391H3.43569H3.43228H3.42887H3.42544H3.42202H3.41858H3.41514H3.41169H3.40824H3.40478H3.40132H3.39785H3.39438H3.39089H3.38741H3.38391H3.38042H3.37691H3.3734H3.36989H3.36637H3.36284H3.35931H3.35577H3.35223H3.34868H3.34513H3.34157H3.338H3.33443H3.33086H3.32727H3.32369H3.3201H3.3165H3.3129H3.30929H3.30568H3.30206H3.29844H3.29481H3.29118H3.28754H3.28389H3.28025H3.27659H3.27293H3.26927H3.2656H3.26193H3.25825H3.25457H3.25088H3.24719H3.24349H3.23979H3.23608H3.23237H3.22865H3.22493H3.2212H3.21747H3.21373H3.20999H3.20625H3.2025H3.19875H3.19499H3.19122H3.18746H3.18368H3.17991H3.17613H3.17234H3.16855H3.16476H3.16096H3.15716H3.15335H3.14954H3.14572H3.1419H3.13808H3.13425H3.13042H3.12658H3.12274H3.11889H3.11504H3.11119H3.10733H3.10347H3.09961H3.09574H3.09187H3.08799H3.08411H3.08022H3.07634H3.07244H3.06855H3.06465H3.06074H3.05684H3.05292H3.04901H3.04509H3.04117H3.03724H3.03331H3.02938H3.02544H3.0215H3.01756H3.01361H3.00966H3.00571H3.00175H2.99779H2.99383H2.98986H2.98589H2.98191H2.97794H2.97396H2.96997H2.96598H2.96199H2.958H2.954H2.95H2.946H2.94199H2.93798H2.93397H2.92996H2.92594H2.92192H2.91789H2.91386H2.90983H2.9058H2.90177H2.89773H2.89369H2.88964H2.88559H2.88154H2.87749H2.87344H2.86938H2.86532H2.86125H2.85719H2.85312H2.84905H2.84497H2.8409H2.83682H2.83274H2.82865H2.82457H2.82048H2.81639H2.81229H2.8082H2.8041H2.8C2.22177 17 1.76086 16.6316 1.46927 16.1865C1.17247 15.7335 1 15.1359 1 14.5V2.5C1 1.12386 2.12386 0 3.5 0H11.5C12.1359 0 12.7335 0.172474 13.1865 0.469269C13.6316 0.760855 14 1.22177 14 1.8V1.8041V1.8082V1.81229V1.81639V1.82048V1.82457V1.82865V1.83274V1.83682V1.8409V1.84497V1.84905V1.85312V1.85719V1.86125V1.86532V1.86938V1.87344V1.87749V1.88154V1.88559V1.88964V1.89369V1.89773V1.90177V1.9058V1.90983V1.91386V1.91789V1.92192V1.92594V1.92996V1.93397V1.93798V1.94199V1.946V1.95V1.954V1.958V1.96199V1.96598V1.96997V1.97395V1.97794V1.98191V1.98589V1.98986V1.99383V1.99779V2.00175V2.00571V2.00966V2.01361V2.01756V2.0215V2.02544V2.02938V2.03331V2.03724V2.04117V2.04509V2.04901V2.05292V2.05684V2.06074V2.06465V2.06855V2.07244V2.07634V2.08022V2.08411V2.08799V2.09187V2.09574V2.09961V2.10347V2.10733V2.11119V2.11504V2.11889V2.12274V2.12658V2.13042V2.13425V2.13808V2.1419V2.14572V2.14954V2.15335V2.15716V2.16096V2.16476V2.16855V2.17234V2.17613V2.17991V2.18368V2.18746V2.19122V2.19499V2.19875V2.2025V2.20625V2.20999V2.21373V2.21747V2.2212V2.22493V2.22865V2.23237V2.23608V2.23979V2.24349V2.24719V2.25088V2.25457V2.25825V2.26193V2.2656V2.26927V2.27293V2.27659V2.28025V2.28389V2.28754V2.29118V2.29481V2.29844V2.30206V2.30568V2.30929V2.3129V2.3165V2.3201V2.32369V2.32727V2.33086V2.33443V2.338V2.34157V2.34513V2.34868V2.35223V2.35577V2.35931V2.36284V2.36637V2.36989V2.3734V2.37691V2.38042V2.38391V2.38741V2.39089V2.39438V2.39785V2.40132V2.40478V2.40824V2.41169V2.41514V2.41858V2.42202V2.42544V2.42887V2.43228V2.43569V2.4391V2.4425V2.44589V2.44928V2.45266V2.45603V2.4594V2.46276V2.46612V2.46947V2.47281V2.47615V2.47948V2.4828V2.48612V2.48943V2.49274V2.49603V2.49933V2.50261V2.50589V2.50917V2.51243V2.51569V2.51895V2.52219V2.52543V2.52867V2.53189V2.53511V2.53833V2.54153V2.54473V2.54793V2.55111V2.55429V2.55747V2.56063V2.56379V2.56694V2.57009V2.57323V2.57636V2.57948V2.5826V2.58571V2.58882V2.59191V2.595V2.59808V2.60116V2.60423V2.60729V2.61034V2.61339V2.61643V2.61946V2.62248V2.6255V2.62851V2.63151V2.63451V2.63749V2.64047V2.64345V2.64641V2.64937V2.65232V2.65526V2.6582V2.66113V2.66405V2.66696V2.66986V2.67276V2.67565V2.67853V2.68141V2.68427V2.68713V2.68998V2.69282V2.69566V2.69848V2.7013V2.70411V2.70692V2.70971V2.7125V2.71528V2.71805V2.72081V2.72357V2.72632V2.72905V2.73178V2.73451V2.73722V2.73993V2.74263V2.74532V2.748V2.75067V2.75333V2.75599V2.75864V2.76128V2.76391V2.76653V2.76915V2.77175V2.77435V2.77694V2.77952V2.78209V2.78465V2.78721V2.78975V2.79229V2.79482V2.79734V2.79985V2.80235V2.80485V2.80733V2.80981V2.81227V2.81473V2.81718V2.81962V2.82205V2.82448V2.82689V2.82929V2.83169V2.83408V2.83645V2.83882V2.84118V2.84353V2.84587V2.8482V2.85053V2.85284V2.85514V2.85744V2.85972V2.862V2.86427V2.86653V2.86877V2.87101V2.87324V2.87546V2.87767V2.87987V2.88207V2.88425V2.88642V2.88858V2.89074V2.89288V2.89501V2.89714V2.89925V2.90136V2.90345V2.90554V2.90761V2.90968V2.91174V2.91378V2.91582V2.91785V2.91986V2.92187V2.92387V2.92585V2.92783V2.9298V2.93175V2.9337V2.93563V2.93756V2.93948V2.94138V2.94328V2.94517V2.94704V2.94891V2.95076V2.95261V2.95444V2.95626V2.95808V2.95988V2.96167V2.96346V2.96523V2.96699V2.96874V2.97048V2.97221V2.97393V2.97564V2.97734V2.97903V2.9807V2.98237V2.98402V2.98567V2.9873V2.98893V2.99054V2.99214V2.99373V2.99531V2.99688V2.99844V2.99999V3.00152V3.00305V3.00456V3.00607V3.00756V3.00904V3.01051V3.01197V3.01342V3.01486V3.01628V3.0177V3.0191V3.02049V3.02187V3.02324V3.0246V3.02595V3.02729V3.02861V3.02992V3.03122V3.03251V3.03379V3.03506V3.03632V3.03756V3.03879V3.04001V3.04122V3.04242V3.04361V3.04478V3.04595V3.0471V3.04824V3.04936V3.05048V3.05159V3.05268V3.05376V3.05483V3.05588V3.05693V3.05796V3.05898V3.05999V3.06099V3.06197V3.06295V3.06391V3.06486V3.06579V3.06672V3.06763V3.06853V3.06942V3.0703V3.07116V3.07201V3.07285V3.07368V3.07449V3.0753V3.07609V3.07686V3.07763V3.07838V3.07912V3.07985V3.08056V3.08127V3.08196V3.08263V3.0833V3.08395V3.08459V3.08522V3.08583V3.08643V3.08702V3.0876V3.08816V3.08871V3.08925V3.08978V3.09029V3.09079V3.09127V3.09175V3.09221V3.09266V3.09309V3.09351V3.09392V3.09432V3.0947V3.09507V3.09542V3.09577V3.0961V3.09641V3.09672V3.09701V3.09728V3.09755V3.0978V3.09803V3.09826V3.09847V3.09866V3.09885V3.09902V3.09917V3.09932V3.09945V3.09956V3.09966V3.09975V3.09983V3.09989V3.09994V3.09997V3.09999L13.5 3.1L13 3.09999V3.09997V3.09994V3.09989V3.09983V3.09975V3.09966V3.09956V3.09945V3.09932V3.09917V3.09902V3.09885V3.09866V3.09847V3.09826V3.09803V3.0978V3.09755V3.09728V3.09701V3.09672V3.09641V3.0961V3.09577V3.09542V3.09507V3.0947V3.09432V3.09392V3.09351V3.09309V3.09266V3.09221V3.09175V3.09127V3.09079V3.09029V3.08978V3.08925V3.08871V3.08816V3.0876V3.08702V3.08643V3.08583V3.08522V3.08459V3.08395V3.0833V3.08263V3.08196V3.08127V3.08056V3.07985V3.07912V3.07838V3.07763V3.07686V3.07609V3.0753V3.07449V3.07368V3.07285V3.07201V3.07116V3.0703V3.06942V3.06853V3.06763V3.06672V3.06579V3.06486V3.06391V3.06295V3.06197V3.06099V3.05999V3.05898V3.05796V3.05693V3.05588V3.05483V3.05376V3.05268V3.05159V3.05048V3.04936V3.04824V3.0471V3.04595V3.04478V3.04361V3.04242V3.04122V3.04001V3.03879V3.03756V3.03632V3.03506V3.03379V3.03251V3.03122V3.02992V3.02861V3.02729V3.02595V3.0246V3.02324V3.02187V3.02049V3.0191V3.0177V3.01628V3.01486V3.01342V3.01197V3.01051V3.00904V3.00756V3.00607V3.00456V3.00305V3.00152V2.99999V2.99844V2.99688V2.99531V2.99373V2.99214V2.99054V2.98893V2.9873V2.98567V2.98402V2.98237V2.9807V2.97903V2.97734V2.97564V2.97393V2.97221V2.97048V2.96874V2.96699V2.96523V2.96346V2.96167V2.95988V2.95808V2.95626V2.95444V2.95261V2.95076V2.94891V2.94704V2.94517V2.94328V2.94138V2.93948V2.93756V2.93563V2.9337V2.93175V2.9298V2.92783V2.92585V2.92387V2.92187V2.91986V2.91785V2.91582V2.91378V2.91174V2.90968V2.90761V2.90554V2.90345V2.90136V2.89925V2.89714V2.89501V2.89288V2.89074V2.88858V2.88642V2.88425V2.88207V2.87987V2.87767V2.87546V2.87324V2.87101V2.86877V2.86653V2.86427V2.862V2.85972V2.85744V2.85514V2.85284V2.85053V2.8482V2.84587V2.84353V2.84118V2.83882V2.83645V2.83408V2.83169V2.82929V2.82689V2.82448V2.82205V2.81962V2.81718V2.81473V2.81227V2.80981V2.80733V2.80485V2.80235V2.79985V2.79734V2.79482V2.79229V2.78975V2.78721V2.78465V2.78209V2.77952V2.77694V2.77435V2.77175V2.76915V2.76653V2.76391V2.76128V2.75864V2.75599V2.75333V2.75067V2.748V2.74532V2.74263V2.73993V2.73722V2.73451V2.73178V2.72905V2.72632V2.72357V2.72081V2.71805V2.71528V2.7125V2.70971V2.70692V2.70411V2.7013V2.69848V2.69566V2.69282V2.68998V2.68713V2.68427V2.68141V2.67853V2.67565V2.67276V2.66986V2.66696V2.66405V2.66113V2.6582V2.65526V2.65232V2.64937V2.64641V2.64345V2.64047V2.63749V2.63451V2.63151V2.62851V2.6255V2.62248V2.61946V2.61643V2.61339V2.61034V2.60729V2.60423V2.60116V2.59808V2.595V2.59191V2.58882V2.58571V2.5826V2.57948V2.57636V2.57323V2.57009V2.56694V2.56379V2.56063V2.55747V2.55429V2.55111V2.54793V2.54473V2.54153V2.53833V2.53511V2.53189V2.52867V2.52543V2.52219V2.51895V2.51569V2.51243V2.50917V2.50589V2.50261V2.49933V2.49603V2.49274V2.48943V2.48612V2.4828V2.47948V2.47615V2.47281V2.46947V2.46612V2.46276V2.4594V2.45603V2.45266V2.44928V2.44589V2.4425V2.4391V2.43569V2.43228V2.42887V2.42544V2.42202V2.41858V2.41514V2.41169V2.40824V2.40478V2.40132V2.39785V2.39438V2.39089V2.38741V2.38391V2.38042V2.37691V2.3734V2.36989V2.36637V2.36284V2.35931V2.35577V2.35223V2.34868V2.34513V2.34157V2.338V2.33443V2.33086V2.32727V2.32369V2.3201V2.3165V2.3129V2.30929V2.30568V2.30206V2.29844V2.29481V2.29118V2.28754V2.28389V2.28025V2.27659V2.27293V2.26927V2.2656V2.26193V2.25825V2.25457V2.25088V2.24719V2.24349V2.23979V2.23608V2.23237V2.22865V2.22493V2.2212V2.21747V2.21373V2.20999V2.20625V2.2025V2.19875V2.19499V2.19122V2.18746V2.18368V2.17991V2.17613V2.17234V2.16855V2.16476V2.16096V2.15716V2.15335V2.14954V2.14572V2.1419V2.13808V2.13425V2.13042V2.12658V2.12274V2.11889V2.11504V2.11119V2.10733V2.10347V2.09961V2.09574V2.09187V2.08799V2.08411V2.08022V2.07634V2.07244V2.06855V2.06465V2.06074V2.05684V2.05292V2.04901V2.04509V2.04117V2.03724V2.03331V2.02938V2.02544V2.0215V2.01756V2.01361V2.00966V2.00571V2.00175V1.99779V1.99383V1.98986V1.98589V1.98191V1.97794V1.97395V1.96997V1.96598V1.96199V1.958V1.954V1.95V1.946V1.94199V1.93798V1.93397V1.92996V1.92594V1.92192V1.91789V1.91386V1.90983V1.9058V1.90177V1.89773V1.89369V1.88964V1.88559V1.88154V1.87749V1.87344V1.86938V1.86532V1.86125V1.85719V1.85312V1.84905V1.84497V1.8409V1.83682V1.83274V1.82865V1.82457V1.82048V1.81639V1.81229V1.8082V1.8041V1.8C13 1.67823 12.9184 1.48915 12.6385 1.30573C12.3665 1.12753 11.9641 1 11.5 1H3.5ZM16.1 5C16.7 5 17.1 5.4 17.1 6V18C17.1 18.6 16.7 19 16.1 19H7.09998C6.49998 19 6.09998 18.6 6.09998 18V6C6.09998 5.4 6.49998 5 7.09998 5H16.1ZM16.1 4H7.09998C5.99998 4 5.09998 4.9 5.09998 6V18C5.09998 19.1 5.99998 20 7.09998 20H16.1C17.2 20 18.1 19.1 18.1 18V6C18.1 4.9 17.2 4 16.1 4ZM8.09998 8H15.1V9H8.09998V8ZM15.1 11H8.09998V12H15.1V11ZM8.09998 14H15.1V15H8.09998V14Z" fill="#0098C7"/>
</svg>
