<svg xmlns="http://www.w3.org/2000/svg" xmlns:xlink="http://www.w3.org/1999/xlink" viewBox="0 0 105.76 28.44"><defs><style>.cls-1{fill:#fff;}.cls-2{fill-rule:evenodd;fill:url(#linear-gradient);}</style><linearGradient id="linear-gradient" y1="14.22" x2="35.55" y2="14.22" gradientUnits="userSpaceOnUse"><stop offset="0" stop-color="#473cc2"/><stop offset="1" stop-color="#d045ae"/></linearGradient></defs><title>logo3</title><g id="Слой_2" data-name="Слой 2"><g id="Layer_1" data-name="Layer 1"><path class="cls-1" d="M92,20.13a1.84,1.84,0,0,0,.39-1.22,1.7,1.7,0,0,0-.64-1.48,2.65,2.65,0,0,0-1.8-.51H87.73v6h.45V21h1.74a1.68,1.68,0,0,0,.58-.07l1.41,2h.51L91,20.84A2,2,0,0,0,92,20.13Zm-2,.45H88.18V17.3h1.74a2.07,2.07,0,0,1,1.48.45A1.56,1.56,0,0,1,91.91,19a1.67,1.67,0,0,1-.51,1.22A2.6,2.6,0,0,1,89.92,20.58Z"/><path class="cls-2" d="M35.55,0V8.53L32,12.09V6L20.26,17.77l-2.49,2.49-2.48-2.49-5-5L9.24,11.73,3.55,6V24.88H32V16.35l3.56-3.55V28.44H0V0H23.46L19.91,3.55H6l5.69,5.69,1.07,1.07,5,5L29.5,3.55H24.17L27.73,0Z"/><polygon class="cls-1" points="52.85 21.61 50.15 16.92 49.77 16.92 49.77 22.96 50.22 22.96 50.22 17.82 52.72 22.19 52.91 22.19 55.48 17.82 55.48 22.96 55.87 22.96 55.87 16.92 55.55 16.92 52.85 21.61"/><path class="cls-1" d="M61.84,16.92l-2.76,6h.45l.77-1.67h3.47L64.54,23H65l-2.76-6Zm-1.34,4,1.6-3.47,1.61,3.47Z"/><polygon class="cls-1" points="80.35 20.07 83.56 20.07 83.56 19.68 80.35 19.68 80.35 17.3 83.94 17.3 83.94 16.92 79.9 16.92 79.9 22.96 84.07 22.96 84.07 22.57 80.35 22.57 80.35 20.07"/><rect class="cls-1" x="68.2" y="16.92" width="0.45" height="6.04"/><polygon class="cls-1" points="73.22 16.92 72.83 16.92 72.83 22.96 76.68 22.96 76.68 22.57 73.22 22.57 73.22 16.92"/><path class="cls-1" d="M54.81,11.25a2,2,0,0,1-1.3.41A2,2,0,0,1,51.88,11,2.94,2.94,0,0,1,51.3,9V7.65a3,3,0,0,1,.58-1.94A2,2,0,0,1,53.51,5a1.89,1.89,0,0,1,1.25.39,2.09,2.09,0,0,1,.72,1l1.22-.67a3.43,3.43,0,0,0-1.25-1.51,3.46,3.46,0,0,0-1.94-.51A3.76,3.76,0,0,0,51.94,4a2.94,2.94,0,0,0-1.18.88A4,4,0,0,0,50,6.35a6.6,6.6,0,0,0-.26,2,5.19,5.19,0,0,0,1,3.44,3.8,3.8,0,0,0,4.72.63,3.55,3.55,0,0,0,1.25-1.52l-1.16-.71A2.4,2.4,0,0,1,54.81,11.25Z"/><polygon class="cls-1" points="63.76 7.63 59.71 7.63 59.71 3.87 58.27 3.87 58.27 12.8 59.71 12.8 59.71 8.91 63.76 8.91 63.76 12.8 65.2 12.8 65.2 3.87 63.76 3.87 63.76 7.63"/><polygon class="cls-1" points="73.12 11.52 68.85 11.52 68.85 8.91 72.73 8.91 72.73 7.63 68.85 7.63 68.85 5.14 73.12 5.14 73.12 3.87 67.4 3.87 67.4 12.8 73.12 12.8 73.12 11.52"/><path class="cls-1" d="M81.57,10.88l-1.17-.71a2.45,2.45,0,0,1-.75,1.08,2,2,0,0,1-1.31.41A2,2,0,0,1,76.72,11,2.88,2.88,0,0,1,76.13,9V7.65a2.9,2.9,0,0,1,.59-1.94A2,2,0,0,1,78.34,5a1.94,1.94,0,0,1,1.26.39,2.14,2.14,0,0,1,.71,1l1.22-.67a3.41,3.41,0,0,0-1.24-1.51,3.49,3.49,0,0,0-2-.51A3.79,3.79,0,0,0,76.77,4a3,3,0,0,0-1.18.88,4.13,4.13,0,0,0-.74,1.45,6.94,6.94,0,0,0-.26,2,5.19,5.19,0,0,0,1,3.44,3.8,3.8,0,0,0,4.72.63A3.64,3.64,0,0,0,81.57,10.88Z"/><polygon class="cls-1" points="90.23 12.8 86.78 7.63 89.97 3.87 88.28 3.87 85.88 6.77 84.6 8.39 84.55 8.39 84.55 3.87 83.1 3.87 83.1 12.8 84.55 12.8 84.55 10.03 85.77 8.63 88.49 12.8 90.23 12.8"/><polygon class="cls-1" points="91.55 12.8 97.27 12.8 97.27 11.52 92.99 11.52 92.99 8.91 96.87 8.91 96.87 7.63 92.99 7.63 92.99 5.14 97.27 5.14 97.27 3.87 91.55 3.87 91.55 12.8"/><path class="cls-1" d="M105.12,8.15a2.7,2.7,0,0,0,.45-1.6,2.71,2.71,0,0,0-.69-2A2.5,2.5,0,0,0,103,3.86H99.13V12.8h1.45V9.19h1.78l1.79,3.61h1.61L103.83,9A2.3,2.3,0,0,0,105.12,8.15ZM102.88,8h-2.3V5.13h2.3a1.17,1.17,0,0,1,.86.3,1.05,1.05,0,0,1,.31.81v.62a1.1,1.1,0,0,1-.31.83A1.2,1.2,0,0,1,102.88,8Z"/></g></g></svg>