<svg width="138" height="40" viewBox="0 0 138 40" fill="none" xmlns="http://www.w3.org/2000/svg">
<path d="M50.8 12V0H39.8L34.8 5H42.3L25.8 21.5L18.8 14.5L17.3 13L9.29999 5H28.8L33.8 0H4.29999H0.799988V3.5V40H50.8V18L45.8 23V35H5.79999V8.5L13.8 16.5L15.3 18L22.3 25L25.8 28.5L29.3 25L45.8 8.5V17L50.8 12Z" fill="url(#paint0_linear)"/>
<path d="M107.8 0H102.2V24.1H107.8V0Z" fill="#1B1F26"/>
<path d="M82 0L71.3 24.1H77L79.1 18.9H90.3L92.4 24.1H98.3L87.5 0H82ZM80.9 14.7L84.7 5.5L88.5 14.7H80.9Z" fill="#1B1F26"/>
<path d="M136.2 24.1L130.8 16.4C132.4 15.7 133.6 14.7 134.5 13.4C135.4 12.1 135.8 10.6 135.8 8.79998C135.8 6.99998 135.4 5.49998 134.5 4.19998C133.7 2.89998 132.4 1.89998 130.9 1.19998C129.3 0.499976 127.5 0.0999756 125.3 0.0999756H114.9V24.2H120.5V17.5H125.4H125.7L130.3 24.2H136.2V24.1ZM128.8 11.8C127.9 12.5 126.7 12.9 125 12.9H120.5V4.49998H125C126.7 4.49998 127.9 4.89998 128.8 5.59998C129.7 6.29998 130.1 7.39997 130.1 8.69998C130.1 10.1 129.7 11.1 128.8 11.8Z" fill="#1B1F26"/>
<path d="M134.9 36.7C135.6 36.5 136.1 36.1 136.5 35.6C136.9 35.1 137.1 34.5 137.1 33.7C137.1 32.7 136.8 31.9 136.1 31.4C135.4 30.8 134.5 30.6 133.3 30.6H129.9V40H130.6V36.9H133.3C133.6 36.9 133.9 36.9 134.2 36.8L136.4 39.9H137.2L134.9 36.7ZM133.3 36.3H130.6V31.2H133.3C134.3 31.2 135.1 31.4 135.6 31.9C136.1 32.3 136.4 33 136.4 33.8C136.4 34.6 136.1 35.2 135.6 35.7C135 36.1 134.3 36.3 133.3 36.3Z" fill="#1B1F26"/>
<path d="M79.8 30.6L75.6 37.9L71.4 30.6H70.8V40H71.5V32L75.4 38.8H75.7L79.7 32V40H80.3V30.6H79.8Z" fill="#1B1F26"/>
<path d="M89.6 30.6L85.3 40H86L87.2 37.4H92.6L93.8 40H94.5L90.2 30.6H89.6ZM87.5 36.8L90 31.4L92.5 36.8H87.5Z" fill="#1B1F26"/>
<path d="M118.4 35.5H123.4V34.9H118.4V31.2H124V30.6H117.7V40H124.2V39.4H118.4V35.5Z" fill="#1B1F26"/>
<path d="M100.2 30.6H99.5V40H100.2V30.6Z" fill="#1B1F26"/>
<path d="M107.3 30.6H106.7V40H112.7V39.4H107.3V30.6Z" fill="#1B1F26"/>
<defs>
<linearGradient id="paint0_linear" x1="50.8" y1="4.76837e-06" x2="-5.51097" y2="18.7241" gradientUnits="userSpaceOnUse">
<stop stop-color="#D045AE"/>
<stop offset="1" stop-color="#473CC2"/>
</linearGradient>
</defs>
</svg>
