<svg width="156" height="40" viewBox="0 0 156 40" fill="none" xmlns="http://www.w3.org/2000/svg">
<path d="M50 12V0H39L34 5H41.5L25 21.5L18 14.5L16.5 13L8.5 5H28L33 0H3.5H0V3.5V40H50V18L45 23V35H5V8.5L13 16.5L14.5 18L21.5 25L25 28.5L28.5 25L45 8.5V17L50 12Z" fill="url(#paint0_linear)"/>
<path d="M72.08 19.288C70.672 19.288 69.472 19.032 68.48 18.52C67.504 18.008 66.664 17.32 65.96 16.456L67.832 14.704C68.424 15.424 69.072 15.968 69.776 16.336C70.496 16.704 71.312 16.888 72.224 16.888C73.296 16.888 74.104 16.648 74.648 16.168C75.192 15.688 75.464 15.04 75.464 14.224C75.464 13.568 75.272 13.048 74.888 12.664C74.504 12.28 73.824 11.992 72.848 11.8L71.36 11.536C69.728 11.232 68.504 10.696 67.688 9.92796C66.872 9.15996 66.464 8.10396 66.464 6.75996C66.464 6.02396 66.6 5.35996 66.872 4.76796C67.16 4.15996 67.552 3.65596 68.048 3.25596C68.56 2.83996 69.176 2.51996 69.896 2.29596C70.616 2.07196 71.424 1.95996 72.32 1.95996C73.584 1.95996 74.68 2.18396 75.608 2.63196C76.536 3.06396 77.328 3.69596 77.984 4.52796L76.088 6.20796C75.656 5.64796 75.128 5.19996 74.504 4.86396C73.88 4.52796 73.104 4.35996 72.176 4.35996C71.216 4.35996 70.472 4.55196 69.944 4.93596C69.416 5.31996 69.152 5.87996 69.152 6.61596C69.152 7.31996 69.368 7.84796 69.8 8.19996C70.232 8.53596 70.904 8.79196 71.816 8.96796L73.304 9.27996C74.984 9.59996 76.208 10.144 76.976 10.912C77.76 11.68 78.152 12.736 78.152 14.08C78.152 14.864 78.016 15.576 77.744 16.216C77.472 16.856 77.072 17.408 76.544 17.872C76.032 18.32 75.4 18.672 74.648 18.928C73.896 19.168 73.04 19.288 72.08 19.288Z" fill="white"/>
<path d="M81.4077 19V2.24796H88.6077C90.1597 2.24796 91.3597 2.70396 92.2077 3.61596C93.0557 4.52796 93.4797 5.75196 93.4797 7.28796C93.4797 8.82396 93.0557 10.048 92.2077 10.96C91.3597 11.872 90.1597 12.328 88.6077 12.328H84.1197V19H81.4077ZM84.1197 9.95196H88.4397C89.1277 9.95196 89.6637 9.77596 90.0477 9.42396C90.4317 9.05596 90.6237 8.53596 90.6237 7.86396V6.71196C90.6237 6.03996 90.4317 5.52796 90.0477 5.17596C89.6637 4.80796 89.1277 4.62396 88.4397 4.62396H84.1197V9.95196Z" fill="white"/>
<path d="M105.559 19L104.047 14.464H97.7832L96.3192 19H93.5592L99.2712 2.24796H102.679L108.391 19H105.559ZM100.975 4.74396H100.855L98.4312 12.136H103.375L100.975 4.74396Z" fill="white"/>
<path d="M123.802 6.18396H123.682L122.362 8.89596L118.69 15.592L115.018 8.89596L113.698 6.18396H113.578V19H110.986V2.24796H114.202L118.69 10.768H118.834L123.322 2.24796H126.394V19H123.802V6.18396Z" fill="white"/>
<g opacity="0.6">
<path d="M66.3862 37.0001V27.2281H67.2262V36.2581H71.5382V37.0001H66.3862Z" fill="white"/>
<path d="M76.6932 37.0001V27.2281H82.4052V27.9701H77.5332V31.6661H82.1672V32.4081H77.5332V36.2581H82.4052V37.0001H76.6932Z" fill="white"/>
<path d="M94.2802 37.0001L93.2162 33.9621H89.0582L87.9942 37.0001H87.1542L90.6122 27.2281H91.6902L95.1622 37.0001H94.2802ZM91.1582 28.0261H91.1022L89.2682 33.2341H92.9922L91.1582 28.0261Z" fill="white"/>
<path d="M101.182 37.0001H100.342V27.2281H104.178C105.018 27.2281 105.662 27.4661 106.11 27.9421C106.568 28.4181 106.796 29.0854 106.796 29.9441C106.796 30.7001 106.61 31.3114 106.236 31.7781C105.872 32.2447 105.34 32.5247 104.64 32.6181L107.048 37.0001H106.11L103.772 32.6741H101.182V37.0001ZM104.178 31.9601C104.738 31.9601 105.163 31.8061 105.452 31.4981C105.751 31.1807 105.9 30.7794 105.9 30.2941V29.6221C105.9 29.1461 105.751 28.7541 105.452 28.4461C105.163 28.1287 104.738 27.9701 104.178 27.9701H101.182V31.9601H104.178Z" fill="white"/>
<path d="M113.527 28.3761H113.485V37.0001H112.673V27.2281H113.723L118.861 35.8521H118.903V27.2281H119.715V37.0001H118.665L113.527 28.3761Z" fill="white"/>
<path d="M125.415 37.0001V36.3001H126.843V27.9281H125.415V27.2281H129.111V27.9281H127.683V36.3001H129.111V37.0001H125.415Z" fill="white"/>
<path d="M135.658 28.3761H135.616V37.0001H134.804V27.2281H135.854L140.992 35.8521H141.034V27.2281H141.846V37.0001H140.796L135.658 28.3761Z" fill="white"/>
<path d="M154.407 35.5021H154.365C154.187 36.0061 153.851 36.4121 153.357 36.7201C152.871 37.0187 152.251 37.1681 151.495 37.1681C150.888 37.1681 150.342 37.0607 149.857 36.8461C149.371 36.6314 148.956 36.3094 148.611 35.8801C148.275 35.4507 148.013 34.9234 147.827 34.2981C147.64 33.6727 147.547 32.9447 147.547 32.1141C147.547 31.2927 147.64 30.5694 147.827 29.9441C148.013 29.3094 148.279 28.7821 148.625 28.3621C148.97 27.9327 149.39 27.6107 149.885 27.3961C150.379 27.1721 150.935 27.0601 151.551 27.0601C152.391 27.0601 153.095 27.2514 153.665 27.6341C154.234 28.0167 154.668 28.5207 154.967 29.1461L154.281 29.5521C154.038 29.0107 153.683 28.5861 153.217 28.2781C152.75 27.9701 152.195 27.8161 151.551 27.8161C151.075 27.8161 150.645 27.9001 150.263 28.0681C149.88 28.2361 149.553 28.4787 149.283 28.7961C149.012 29.1134 148.802 29.5007 148.653 29.9581C148.513 30.4154 148.443 30.9334 148.443 31.5121V32.7021C148.443 33.8781 148.723 34.7927 149.283 35.4461C149.852 36.0901 150.631 36.4121 151.621 36.4121C151.994 36.4121 152.344 36.3654 152.671 36.2721C153.007 36.1694 153.301 36.0201 153.553 35.8241C153.805 35.6281 154.001 35.3807 154.141 35.0821C154.29 34.7834 154.365 34.4334 154.365 34.0321V32.8561H152.083V32.1281H155.191V37.0001H154.407V35.5021Z" fill="white"/>
</g>
<defs>
<linearGradient id="paint0_linear" x1="50" y1="4.76837e-06" x2="-6.31096" y2="18.7241" gradientUnits="userSpaceOnUse">
<stop stop-color="#D045AE"/>
<stop offset="1" stop-color="#473CC2"/>
</linearGradient>
</defs>
</svg>
