<svg xmlns="http://www.w3.org/2000/svg" xmlns:xlink="http://www.w3.org/1999/xlink" viewBox="0 0 109.12 32"><defs><style>.cls-1{fill:url(#linear-gradient);}.cls-2{fill:#fff;}</style><linearGradient id="linear-gradient" y1="16" x2="40" y2="16" gradientUnits="userSpaceOnUse"><stop offset="0" stop-color="#473cc2"/><stop offset="1" stop-color="#d045ae"/></linearGradient></defs><title>logo-big</title><g id="Слой_2" data-name="Слой 2"><g id="Layer_1" data-name="Layer 1"><path class="cls-1" d="M40,9.6V0H31.2l-4,4h6L20,17.2l-5.6-5.6-1.2-1.2L6.8,4H22.4l4-4H0V32H40V14.4l-4,4V28H4V6.8l6.4,6.4,1.2,1.2L17.2,20,20,22.8,22.8,20,36,6.8v6.8Z"/><path class="cls-2" d="M85.6,19.28H81.12V0H85.6ZM69.36,0,78,19.28H73.28L71.6,15.12h-9L61,19.28H56.4L65,0Zm.8,11.76-3-7.36-3,7.36Zm38.16,7.6H103.6L99.92,14H95.76v5.36H91.28V.08H99.6a10.91,10.91,0,0,1,4.48.88A6.57,6.57,0,0,1,107,3.36,6.22,6.22,0,0,1,108,7a6.22,6.22,0,0,1-1,3.68,6.8,6.8,0,0,1-3,2.4l4.32,6.16ZM103.44,7a3,3,0,0,0-1-2.48,4.75,4.75,0,0,0-3-.88h-3.6v6.72h3.6a4.75,4.75,0,0,0,3-.88A2.89,2.89,0,0,0,103.44,7Zm5.68,25h-.64l-1.76-2.48a2.21,2.21,0,0,1-.72.08h-2.16V32h-.56V24.48H106a3.25,3.25,0,0,1,2.24.64A2.11,2.11,0,0,1,109,27a2.31,2.31,0,0,1-.48,1.52,2.47,2.47,0,0,1-1.28.88Zm-1.28-3.36a2,2,0,0,0,.64-1.52,1.93,1.93,0,0,0-.64-1.52A2.54,2.54,0,0,0,106,25h-2.16V29H106A3.14,3.14,0,0,0,107.84,28.56ZM63.2,24.48l-3.36,5.84-3.36-5.84H56V32h.56V25.6L59.68,31h.24l3.2-5.44V32h.48V24.48Zm8.32,0L75,32H74.4l-1-2.08H69.12l-1,2.08H67.6L71,24.48Zm1.84,5-2-4.32-2,4.32Zm20.72-1h4v-.48h-4V25h4.48v-.48h-5V32h5.2v-.48H94.08ZM79.52,24.48H79V32h.56Zm5.68,0h-.48V32h4.8v-.48H85.2Z"/></g></g></svg>