<svg width="24" height="22" viewBox="0 0 24 22" fill="none" xmlns="http://www.w3.org/2000/svg">
<g clip-path="url(#clip0)">
<path d="M23.5663 0.789655C23.2771 0.644828 22.988 0.5 22.5542 0.5C22.4096 0.5 22.2651 0.5 22.1205 0.5C21.5422 0.644828 20.9639 0.789655 20.3855 1.07931C19.9518 1.22414 19.6627 1.36897 19.2289 1.51379C18.3614 1.80345 17.494 2.0931 16.6265 2.52759C15.9036 2.81724 15.1807 3.1069 14.3133 3.39655C13.8795 3.54138 13.5904 3.68621 13.4458 3.68621H13.3012L13.1566 3.83103C13.012 3.83103 12.8675 3.97586 12.7229 3.97586H12.5783L12.4337 4.12069C12.4337 4.12069 12.2892 4.26552 12 4.26552V4.26552L11.7108 4.41034H11.5663H11.4217C10.6988 4.84483 9.83133 5.13448 8.96386 5.42414C7.80723 5.85862 6.50602 6.43793 5.3494 6.87241C3.90361 7.45172 2.45783 8.17586 1.01205 8.75517C0.722892 8.9 0.578313 9.04483 0.289157 9.33448C0.144578 9.62414 0 9.91379 0 10.2034C0 10.6379 0.144578 11.0724 0.578313 11.3621C0.86747 11.6517 1.15663 11.7966 1.44578 11.7966C2.45783 12.231 3.61446 12.5207 4.62651 12.8103C5.20482 13.1 5.78313 13.2448 6.36145 13.5345L6.6506 13.6793L6.79518 13.5345C7.08434 14.6931 7.51807 15.8517 7.80723 17.0103C7.95181 17.5897 8.24096 18.3138 8.38554 18.8931C8.53012 19.0379 8.6747 19.3276 8.6747 19.4724C8.96386 19.9069 9.25301 19.9069 9.54217 19.6172C9.83133 19.3276 10.1205 19.0379 10.4096 18.8931C10.988 18.3138 11.5663 17.8793 12.1446 17.3L12.4337 17.4448C14.0241 18.6034 15.6145 19.9069 17.2048 21.0655C17.494 21.3552 18.0723 21.5 18.506 21.5C18.9398 21.5 19.2289 21.3552 19.6627 21.2103C19.9518 20.9207 20.241 20.631 20.3855 20.1966C20.5301 19.6172 20.6747 19.1828 20.8193 18.4586C21.6867 14.5483 22.4096 10.7828 23.1325 7.01724C23.4217 5.85862 23.5663 4.55517 23.8554 3.39655V3.25172V3.1069C23.8554 2.81724 23.8554 2.52759 24 2.38276V1.94828C24 1.51379 23.8554 1.07931 23.5663 0.789655ZM19.3735 18.0241C19.2289 18.6034 19.0843 19.0379 19.0843 19.6172C18.9398 19.7621 18.9398 19.9069 18.7952 19.9069L18.506 20.0517L18.0723 19.9069C16.4819 18.7483 14.8916 17.4448 13.3012 16.2862L13.1566 16.1414L13.012 15.9966C12.2892 15.4172 11.4217 14.8379 10.6988 14.2586C10.988 13.8241 11.4217 13.5345 11.7108 13.2448C12.4337 12.5207 13.1566 11.9414 14.0241 11.2172C15.1807 10.2034 16.1928 9.18965 17.3494 8.32069C18.0723 7.74138 18.6506 7.16207 19.3735 6.58276C19.5181 6.43793 19.8072 6.2931 19.9518 6.00345L20.0964 5.85862V5.27931V4.98965L19.9518 4.7C19.8072 4.41034 19.5181 4.26552 19.2289 4.26552C19.0843 4.26552 18.9398 4.26552 18.7952 4.41034L18.506 4.55517C17.7831 4.98965 17.0602 5.42414 16.4819 5.85862C13.7349 7.45172 11.2771 9.04483 8.6747 10.6379C7.95181 11.2172 7.22892 11.6517 6.50602 12.0862C5.92771 11.9414 5.49398 11.7966 5.06024 11.6517C4.04819 11.2172 2.89157 10.7828 1.87952 10.4931C1.73494 10.3483 1.59036 10.3483 1.44578 10.2034L1.59036 10.0586C3.03614 9.47931 4.48193 8.75517 5.92771 8.17586C7.08434 7.74138 8.24096 7.16207 9.54217 6.72759C10.4096 6.43793 11.2771 6.00345 12.1446 5.71379H12.2892H12.4337C12.5783 5.71379 12.8675 5.56897 13.1566 5.42414C13.4458 5.42414 13.5904 5.27931 13.7349 5.13448C14.1687 4.98966 14.4578 4.84483 14.747 4.84483C15.6145 4.55517 16.3373 4.26552 17.0602 3.97586C17.9277 3.68621 18.7952 3.39655 19.6627 2.96207C20.0964 2.81724 20.3855 2.67241 20.8193 2.52759C21.3976 2.38276 21.8313 2.0931 22.4096 2.0931H22.5542V2.23793C22.5542 2.52759 22.4096 2.81724 22.4096 3.1069V3.25172V3.39655C22.1205 4.55517 21.9759 5.85862 21.6867 7.01724C20.9639 10.4931 20.241 14.2586 19.3735 18.0241Z" fill="#0098C7"/>
</g>
<defs>
<clipPath id="clip0">
<rect y="0.5" width="24" height="21" fill="white"/>
</clipPath>
</defs>
</svg>
