<svg xmlns="http://www.w3.org/2000/svg" xmlns:xlink="http://www.w3.org/1999/xlink" viewBox="0 0 94.16 28.44"><defs><style>.cls-1{fill-rule:evenodd;fill:url(#linear-gradient);}.cls-2{fill:#fff;}</style><linearGradient id="linear-gradient" y1="14.22" x2="35.55" y2="14.22" gradientUnits="userSpaceOnUse"><stop offset="0" stop-color="#473cc2"/><stop offset="1" stop-color="#d045ae"/></linearGradient></defs><g id="Слой_2" data-name="Слой 2"><g id="Layer_1" data-name="Layer 1"><path class="cls-1" d="M35.55,0V8.54L32,12s-.05,0-.05,0V6.1s0,0,0,0L20.26,17.77l-2.47,2.47a0,0,0,0,1,0,0l-2.47-2.47-5-5L9.24,11.73,3.6,6.09s-.05,0-.05,0V24.86s0,0,0,0H32a0,0,0,0,0,0,0v-8.5a0,0,0,0,0,0,0l3.5-3.5a0,0,0,0,1,0,0V28.41a0,0,0,0,1,0,0H0a0,0,0,0,1,0,0V0A0,0,0,0,1,0,0H23.4a0,0,0,0,1,0,0L19.91,3.55H6.1s0,0,0,.05l5.64,5.64,1.07,1.07,5,5h0L29.46,3.6a0,0,0,0,0,0-.05H24.23s0,0,0,0L27.72,0h7.8A0,0,0,0,1,35.55,0Z"/><path class="cls-2" d="M92,20.14a1.84,1.84,0,0,0,.39-1.22,1.69,1.69,0,0,0-.64-1.48,2.59,2.59,0,0,0-1.8-.51H87.76l0,0v6h.45V21a0,0,0,0,1,0,0h1.71a1.94,1.94,0,0,0,.58-.06l1.41,2h.51L91,20.84A1.88,1.88,0,0,0,92,20.14Zm-2,.45H88.21a0,0,0,0,1,0,0V17.34a0,0,0,0,1,0,0h1.71a2.07,2.07,0,0,1,1.48.45A1.56,1.56,0,0,1,91.91,19a1.63,1.63,0,0,1-.51,1.22A2.52,2.52,0,0,1,89.92,20.59Z"/><path class="cls-2" d="M52.87,21.58a0,0,0,0,1,0,0l-2.68-4.65h-.38v6h.45v-5s0,0,0,0l2.46,4.28h.19l2.53-4.29s0,0,0,0v5h.39v-6h-.32Z"/><path class="cls-2" d="M61.84,16.93l-2.76,6h.45l.77-1.65,0,0h3.44s0,0,0,0L64.54,23H65l-2.76-6Zm-1.33,3.94,1.57-3.38s0,0,0,0l1.57,3.38s0,0,0,0H60.53A0,0,0,0,1,60.51,20.87Z"/><path class="cls-2" d="M80.35,20.1s0,0,0,0h3.19v-.38H80.37s0,0,0,0V17.34s0,0,0,0h3.57v-.38h-4a0,0,0,0,0,0,0v6a0,0,0,0,0,0,0h4.15v-.38h-3.7s0,0,0,0Z"/><rect class="cls-2" x="68.2" y="16.93" width="0.45" height="6.04"/><path class="cls-2" d="M73.22,16.93h-.39v6l0,0h3.83v-.38H73.24s0,0,0,0Z"/><path class="cls-2" d="M49.36,5.14H52s0,0,0,0v7.6a0,0,0,0,0,0,0h1.4s0,0,0,0V5.17a0,0,0,0,1,0,0h2.63V3.86H49.36Z"/><path class="cls-2" d="M63.26,11.52H59s0,0,0,0V8.93l0,0h3.86V7.63H59s0,0,0,0V5.17s0,0,0,0h4.25V3.86H57.57a0,0,0,0,0,0,0v8.88a0,0,0,0,0,0,0h5.69Z"/><path class="cls-2" d="M68.46,7.61l-.8-.16A2.65,2.65,0,0,1,66.59,7a1,1,0,0,1-.35-.85,1,1,0,0,1,.42-.89A2,2,0,0,1,67.85,5a2.43,2.43,0,0,1,2.09,1l1-.9a3.45,3.45,0,0,0-1.27-1,4,4,0,0,0-1.75-.36,4.28,4.28,0,0,0-1.29.18,3,3,0,0,0-1,.51,2.28,2.28,0,0,0-.62.81,2.42,2.42,0,0,0-.22,1.06A2.22,2.22,0,0,0,65.46,8a3.84,3.84,0,0,0,2,.86l.79.14a2.06,2.06,0,0,1,1.09.46,1.13,1.13,0,0,1,.31.83,1.32,1.32,0,0,1-.44,1,1.93,1.93,0,0,1-1.29.38,2.93,2.93,0,0,1-1.31-.29,3.47,3.47,0,0,1-1-.87l-1,.93A3.91,3.91,0,0,0,67.8,13a4.45,4.45,0,0,0,1.37-.19,3.16,3.16,0,0,0,1-.56,2.44,2.44,0,0,0,.64-.89A2.79,2.79,0,0,0,71,10.17a2.26,2.26,0,0,0-.63-1.69A3.77,3.77,0,0,0,68.46,7.61Z"/><path class="cls-2" d="M71.77,5.14h2.64s0,0,0,0v7.6a0,0,0,0,0,0,0h1.39a0,0,0,0,0,0,0V5.17s0,0,0,0h2.64V3.86H71.77Z"/><path class="cls-2" d="M80,12.77s0,0,0,0h5.7V11.52H81.42s0,0,0,0V8.93a0,0,0,0,1,0,0h3.85V7.63H81.42s0,0,0,0V5.17s0,0,0,0h4.25V3.86H80s0,0,0,0Z"/><path class="cls-2" d="M92.25,9.06a0,0,0,0,1,0,0,2.32,2.32,0,0,0,1.26-.88A2.7,2.7,0,0,0,94,6.55a2.71,2.71,0,0,0-.69-2,2.5,2.5,0,0,0-1.89-.73H87.56s0,0,0,0v8.88s0,0,0,0H89s0,0,0,0V9.21s0,0,0,0h1.76l1.78,3.58,0,0h1.59ZM91.29,8H89s0,0,0,0V5.16a0,0,0,0,1,0,0h2.28a1.16,1.16,0,0,1,.85.3,1,1,0,0,1,.31.82v.61a1.08,1.08,0,0,1-.31.83A1.19,1.19,0,0,1,91.29,8Z"/></g></g></svg>