<svg xmlns="http://www.w3.org/2000/svg" xmlns:xlink="http://www.w3.org/1999/xlink" viewBox="0 0 64.84 45.39"><defs><style>.cls-1{fill:url(#linear-gradient);}.cls-2{fill:#fff;}</style><linearGradient id="linear-gradient" x1="8.32" y1="46.8" x2="56.53" y2="-1.41" gradientUnits="userSpaceOnUse"><stop offset="0" stop-color="#473cc2"/><stop offset="1" stop-color="#d045ae"/></linearGradient></defs><title>youtube</title><g id="Слой_2" data-name="Слой 2"><g id="Layer_1" data-name="Layer 1"><path class="cls-1" d="M63.49,7.09a8.14,8.14,0,0,0-5.73-5.74C52.7,0,32.42,0,32.42,0S12.14,0,7.09,1.35A8.15,8.15,0,0,0,1.35,7.09C0,12.14,0,22.7,0,22.7S0,33.25,1.35,38.3A8.15,8.15,0,0,0,7.09,44c5.05,1.35,25.33,1.35,25.33,1.35s20.28,0,25.34-1.35a8.14,8.14,0,0,0,5.73-5.74c1.35-5,1.35-15.6,1.35-15.6S64.84,12.14,63.49,7.09Z"/><polygon class="cls-2" points="25.94 32.42 42.78 22.7 25.94 12.97 25.94 32.42"/></g></g></svg>