<svg width="188" height="36" fill="none" xmlns="http://www.w3.org/2000/svg"><path d="M21.96 31.95l-2.255-7.47H9.2l-2.255 7.47H0L10.371.54h8.477l10.236 31.41H21.96zm-7.44-25.2h-.226l-3.472 11.925h7.215L14.52 6.75zm40.427 4.59h-.135l-2.3 4.59-6.132 11.115-5.997-11.07-2.39-4.95h-.135V31.95H31.41V.54h7.26l7.71 14.715h.09L54.09.54h7.305v31.41h-6.448V11.34zm21.569 21.15c-2.765 0-5.11-.465-7.034-1.395-1.924-.96-3.562-2.19-4.915-3.69l4.51-4.545c2.133 2.4 4.764 3.6 7.89 3.6 1.684 0 2.931-.345 3.743-1.035.812-.69 1.217-1.605 1.217-2.745 0-.87-.24-1.59-.721-2.16-.481-.6-1.458-1.005-2.931-1.215l-3.111-.405c-3.337-.42-5.787-1.425-7.35-3.015-1.533-1.59-2.3-3.705-2.3-6.345 0-1.41.27-2.7.812-3.87a8.684 8.684 0 012.3-3.015c1.021-.84 2.254-1.485 3.697-1.935C73.796.24 75.464 0 77.328 0c2.375 0 4.464.375 6.268 1.125A12.727 12.727 0 0188.24 4.41L83.686 9a8.75 8.75 0 00-2.75-2.115c-1.053-.57-2.39-.855-4.014-.855-1.533 0-2.675.27-3.427.81-.751.54-1.127 1.29-1.127 2.25 0 1.08.285 1.86.857 2.34.6.48 1.563.825 2.886 1.035l3.11.495c3.247.51 5.652 1.515 7.215 3.015 1.564 1.47 2.345 3.57 2.345 6.3 0 1.5-.27 2.88-.811 4.14a8.762 8.762 0 01-2.39 3.24c-1.022.9-2.3 1.605-3.833 2.115-1.533.48-3.277.72-5.23.72z" fill="#00177C"/><path d="M100.187 31.95V17.816h8.644v1.498h-6.94v4.739h6.534v1.498h-6.534v4.9h6.94v1.5h-8.644zm11.262 0V21.501h1.623v1.701h.081c.257-.594.616-1.066 1.076-1.417.473-.351 1.102-.527 1.887-.527 1.082 0 1.934.351 2.556 1.053.636.689.954 1.667.954 2.936v6.703h-1.623v-6.42c0-1.876-.792-2.814-2.374-2.814-.325 0-.643.04-.954.122a2.768 2.768 0 00-.812.364 1.876 1.876 0 00-.588.628 1.767 1.767 0 00-.203.87v7.25h-1.623zm13.44 0c-.568 0-1.001-.155-1.299-.466-.284-.324-.426-.742-.426-1.255v-7.31h-1.725V21.5h.974c.352 0 .589-.067.71-.202.136-.149.203-.399.203-.75v-1.944h1.461V21.5h2.293v1.418h-2.293v7.614h2.131v1.417h-2.029zm8.252.243c-.717 0-1.366-.128-1.948-.385a4.357 4.357 0 01-1.481-1.093 5.442 5.442 0 01-.954-1.721c-.217-.675-.325-1.431-.325-2.268 0-.824.108-1.573.325-2.248.23-.675.548-1.249.954-1.721a4.244 4.244 0 011.481-1.114c.582-.257 1.231-.385 1.948-.385.703 0 1.332.128 1.887.385a4.113 4.113 0 011.42 1.073 4.5 4.5 0 01.893 1.6 6.16 6.16 0 01.325 2.045v.77h-7.528v.486c0 .445.067.864.203 1.255.148.378.351.709.608.992.271.284.596.507.974.669.393.162.832.243 1.319.243.663 0 1.238-.156 1.725-.466.501-.31.886-.756 1.157-1.337l1.156.83c-.338.716-.866 1.297-1.582 1.742-.717.432-1.57.648-2.557.648zm0-9.578c-.447 0-.852.08-1.218.243a2.713 2.713 0 00-.953.648c-.257.283-.46.62-.609 1.012a3.396 3.396 0 00-.223 1.256v.142h5.783v-.223c0-.932-.257-1.674-.771-2.228-.501-.567-1.17-.85-2.009-.85zm6.794 9.335V21.501h1.623v1.924h.102c.189-.5.527-.945 1.014-1.337.487-.391 1.157-.587 2.009-.587h.629v1.62h-.954c-.879 0-1.569.169-2.069.506-.487.324-.731.736-.731 1.236v7.087h-1.623zm7.045-10.449h1.623v1.701h.081c.271-.661.663-1.147 1.177-1.458.528-.324 1.157-.486 1.887-.486.65 0 1.238.128 1.766.385.527.256.974.62 1.339 1.093.379.473.663 1.047.852 1.722.203.675.304 1.43.304 2.268 0 .837-.101 1.593-.304 2.268-.189.675-.473 1.248-.852 1.72a3.743 3.743 0 01-1.339 1.094 3.986 3.986 0 01-1.766.385c-1.42 0-2.441-.648-3.064-1.944h-.081V36h-1.623V21.501zm4.322 9.234c.92 0 1.643-.283 2.171-.85.528-.58.791-1.337.791-2.268v-1.782c0-.932-.263-1.681-.791-2.248-.528-.58-1.251-.87-2.171-.87-.365 0-.717.053-1.055.161-.325.095-.609.23-.853.405a2.08 2.08 0 00-.588.648 1.6 1.6 0 00-.203.79v3.888c0 .337.068.641.203.911.149.257.345.48.588.668.244.176.528.31.853.405.338.095.69.142 1.055.142zm7.042 1.215V21.501h1.624v1.924h.101c.19-.5.528-.945 1.015-1.337.487-.391 1.156-.587 2.009-.587h.629v1.62h-.954c-.879 0-1.569.169-2.07.506-.487.324-.73.736-.73 1.236v7.087h-1.624zm7.857-12.9c-.352 0-.609-.08-.771-.242-.149-.176-.223-.398-.223-.668v-.264c0-.27.074-.486.223-.648.162-.175.419-.263.771-.263.352 0 .602.088.751.263.162.162.243.378.243.648v.264c0 .27-.081.492-.243.668-.149.162-.399.243-.751.243zm-.812 2.451h1.624v10.45h-1.624V21.5zm7.812 10.692c-.974 0-1.792-.182-2.455-.547a5.742 5.742 0 01-1.684-1.498l1.157-.932c.405.513.859.912 1.359 1.195.501.27 1.082.405 1.745.405.69 0 1.224-.148 1.603-.445.393-.297.589-.716.589-1.256 0-.405-.136-.75-.406-1.033-.257-.297-.731-.5-1.421-.607l-.831-.122a7.522 7.522 0 01-1.34-.303 4.264 4.264 0 01-1.075-.567 2.69 2.69 0 01-.71-.891c-.163-.351-.244-.77-.244-1.256 0-.513.095-.958.284-1.336.19-.392.447-.716.771-.972a3.394 3.394 0 011.197-.567 5.24 5.24 0 011.482-.203c.852 0 1.562.149 2.13.446a4.757 4.757 0 011.522 1.235l-1.075.972c-.23-.324-.568-.614-1.015-.87-.446-.27-1.008-.406-1.684-.406-.676 0-1.19.149-1.542.446-.338.283-.507.675-.507 1.174 0 .513.169.884.507 1.114.352.23.852.398 1.501.506l.812.122c1.163.175 1.989.513 2.476 1.012.487.486.73 1.127.73 1.924 0 1.012-.345 1.809-1.035 2.39-.69.58-1.637.87-2.841.87zm10.274 0c-.717 0-1.366-.128-1.948-.385a4.357 4.357 0 01-1.481-1.093 5.442 5.442 0 01-.954-1.721c-.216-.675-.325-1.431-.325-2.268 0-.824.109-1.573.325-2.248.23-.675.548-1.249.954-1.721a4.244 4.244 0 011.481-1.114c.582-.257 1.231-.385 1.948-.385.703 0 1.332.128 1.887.385a4.113 4.113 0 011.42 1.073 4.5 4.5 0 01.893 1.6 6.16 6.16 0 01.325 2.045v.77h-7.528v.486c0 .445.068.864.203 1.255.149.378.352.709.609.992.27.284.595.507.974.669a3.42 3.42 0 001.318.243c.663 0 1.238-.156 1.725-.466.501-.31.886-.756 1.157-1.337l1.156.83c-.338.716-.865 1.297-1.582 1.742-.717.432-1.569.648-2.557.648zm0-9.578c-.446 0-.852.08-1.217.243a2.708 2.708 0 00-.954.648c-.257.283-.46.62-.609 1.012a3.396 3.396 0 00-.223 1.256v.142h5.783v-.223c0-.932-.257-1.674-.771-2.228-.501-.567-1.17-.85-2.009-.85z" fill="#3A4C9A"/></svg>