<svg width="181" height="49" fill="none" xmlns="http://www.w3.org/2000/svg"><path d="M36.037 12.84c1.205 1.229 1.826 2.732 2.064 4.378.167 1.181.156 2.398.215 3.603.012.239.036.478.024.716-.012.227.095.287.286.346 1.026.263 2.04.573 2.983 1.074.573.31 1.098.68 1.491 1.205.907 1.17.979 2.672.18 4.056-.12.203-.108.346-.037.561.203.549.37 1.11.55 1.67.047.155.095.227.274.275.668.155 1.061.632 1.312 1.229.346.81.322 1.658.203 2.505-.74 4.94-3.353 8.626-7.54 11.239-2.458 1.539-5.178 2.338-8.041 2.636-3.102.322-6.157.084-9.127-.883-3.913-1.276-7.123-3.531-9.45-6.955-.548-.811-.977-1.694-1.443-2.565-.095-.167-.167-.25-.382-.263-3.388-.155-6.502-2.935-7.003-6.299a7.649 7.649 0 01.322-3.591c.06-.191.048-.286-.107-.418-.453-.358-.883-.751-1.324-1.121C.58 25.498.139 24.532.03 23.387c-.131-1.396.167-2.72.62-4.021.8-2.279 1.993-4.355 3.389-6.311C6.76 9.2 9.97 5.837 13.823 3.08c1.503-1.074 3.09-1.993 4.844-2.59 1.205-.405 2.433-.643 3.71-.38a3.946 3.946 0 012.04 1.073c.704.704 1.42 1.384 2.124 2.088.143.155.262.167.441.083 1.515-.68 3.078-1.276 4.725-1.587 1.61-.31 3.233-.441 4.831.048.55.191 1.122.453 1.623.811 1.17.836 1.575 2.04 1.491 3.436-.071 1.241-.513 2.363-1.097 3.436-.609 1.11-1.384 2.112-2.243 3.043-.084.083-.18.19-.275.298zm5.524 20.783l.06.06c-.072.107-.143.238-.227.334-.883 1.073-2.028 1.825-3.257 2.433-2.362 1.158-4.867 1.67-7.48 1.67-1.503 0-2.947-.274-4.271-1.037-1.265-.716-1.826-1.85-1.647-3.257.18-1.42 1.313-2.398 2.637-2.207 2.267.31 4.51.25 6.753-.191 2.028-.394 3.949-1.062 5.702-2.184.8-.513 1.54-1.097 2.017-1.944.536-.99.334-1.969-.609-2.565-.525-.334-1.11-.585-1.682-.8-.632-.238-1.3-.405-1.957-.596-.5-.143-.787-.465-.847-.979-.012-.119-.036-.25-.047-.37-.06-1.109-.108-2.23-.18-3.34-.047-.87-.13-1.73-.489-2.53-.572-1.264-1.897-1.646-3.054-.87-.274.179-.525.394-.775.608-.943.764-2.005 1.17-3.221 1.122-.86-.036-1.707-.12-2.566-.191-.787-.06-1.574-.096-2.338.19-2.279.848-3.65 3.353-3.233 5.895.226 1.383.93 2.505 1.825 3.543.346.393.704.787 1.026 1.205.299.37.275.632-.047.978-1.623 1.73-2.363 3.806-2.375 6.144-.012 3.114 1.265 5.56 3.902 7.254 1.682 1.086 3.555 1.587 5.547 1.658 2.971.12 5.703-.68 8.185-2.266 1.801-1.146 3.22-2.685 4.163-4.617.537-1.086.883-2.243.907-3.46.012-.847-.382-1.205-1.217-1.217-.012 0-.036-.024-.06-.036-.167-.859-.37-1.718-.763-2.553-.167.12-.31.226-.441.322-.156.107-.299.215-.454.31-3.997 2.494-8.351 3.245-12.98 2.756a5.289 5.289 0 00-1.229-.012c-.406.048-.68.382-.752.835l.394.143c2.243.704 4.546.86 6.884.645.107-.012.215.047.322.083-.083.084-.167.155-.25.239-.024.024-.072.024-.108.036-1.85.608-3.734.584-5.62.25-.584-.107-1.156-.262-1.753-.393.06.465.287.81.609 1.097.417.382.93.608 1.467.776 1.634.489 3.305.524 4.975.322 3.019-.382 5.774-1.492 8.328-3.126a.786.786 0 01.226-.167zM3.718 26.07c.047-.036.083-.048.095-.072.943-1.276 2.207-2.052 3.746-2.422a.399.399 0 00.227-.214c.215-.49.394-.979.596-1.468 1.707-3.96 3.997-7.528 7.1-10.534 2.206-2.148 4.676-3.973 7.265-5.632.728-.465 1.467-.906 2.23-1.384-.739-.81-1.43-1.646-2.302-2.302a1.13 1.13 0 00-.441-.191c-.609-.131-1.229-.084-1.838.036-1.682.334-3.173 1.097-4.605 1.992-2.326 1.444-4.378 3.197-6.263 5.142-2.625 2.708-4.844 5.703-6.478 9.103-.68 1.396-1.241 2.84-1.313 4.426-.036.8.024 1.599.609 2.22.43.453.918.87 1.372 1.3zm9.878 4.856c-.024 0-.06-.012-.083-.012-.048-.979-.167-1.933-.55-2.84-1.264-3.006-4.509-3.746-6.955-1.754-1.55 1.265-1.909 3.03-1.61 4.916.358 2.243 2.493 4.259 4.748 4.581 2.04.298 3.567-.668 4.104-2.66.191-.716.239-1.48.346-2.231zm3.496-17.145c4.545-3.006 9.425-4.068 14.758-3.006-.668-.49-1.408-.752-2.184-.93-.775-.18-1.55-.287-2.41-.43.323-.334.62-.644.92-.966a.25.25 0 00-.048-.072c-1.957.155-3.735.87-5.405 1.897a.556.556 0 01-.095-.084c.19-.489.393-.99.596-1.503-1.217.334-5.69 3.997-6.132 5.094z" fill="#000"/><path d="M34.749 22.873c-.43.168-.609-.13-.764-.5a5.597 5.597 0 01-.465-2.244c0-.513.215-.81.585-.87.346-.06.668.071.835.477a8.44 8.44 0 01.465 1.539c.072.394.048.823.024 1.229-.036.405-.06.405-.454.381-.06 0-.119-.012-.226-.012zm-5.178 1.062c-.167.072-.262.155-.346.143a1.64 1.64 0 01-.465-.155c-1.181-.62-2.398-.62-3.627-.179-.167.06-.346.12-.525.155-.107.012-.227-.023-.346-.047.024-.12.024-.25.084-.37.047-.095.143-.18.226-.263 1.229-1.157 3.293-1.145 4.486.024.179.191.31.418.513.692zm-.561 1.277c-.692-.096-1.324-.131-1.944.048-.227.06-.43.155-.657.202-.095.024-.214-.023-.31-.035.024-.108.012-.239.072-.31.131-.156.286-.323.465-.418.716-.394 1.456-.477 2.195-.107.108.06.215.13.299.214.06.072.13.203.107.263-.048.083-.179.107-.227.143zm3.95 1.324c-.49-.036-.8-.179-1.015-.477-.286-.406-.071-.859.418-.895.417-.024.775.131.978.501.084.155.12.43.036.585-.084.143-.334.227-.418.286zm2.755-1.682c0 .501-.286.883-.656.87-.37-.011-.644-.453-.608-.942.047-.465.322-.799.656-.787.358.024.608.394.608.859zM11.138 29.4c0 .572-.202 1.085-.417 1.61a3.746 3.746 0 00-.239.704c-.083.56.275.907.835.835.084-.012.167-.048.25-.048.096.012.24.024.275.084a.403.403 0 01-.024.31c-.19.346-.763.525-1.204.418-.585-.156-.979-.645-1.062-1.337-.072-.56.083-1.085.262-1.61.239-.716-.048-1.42-.716-1.706a1.352 1.352 0 00-1.73.537c-.13.226-.202.477-.31.715-.06.132-.107.275-.203.382-.179.215-.405.155-.5-.107a.222.222 0 01-.025-.084c-.37-1.682 1.372-3.376 3.03-2.947 1.027.251 1.778 1.205 1.778 2.243zm56.005 2.276h-5.285v-.763c0-2.41.012-4.832-.012-7.242 0-.441-.06-.883-.143-1.312-.096-.525-.43-.883-.979-.979-.572-.095-1.037.191-1.193.668-.298.895-.584 1.838-.632 2.768-.095 1.993-.024 3.985-.024 5.978v.858h-5.213V17.337c1.193 0 2.374-.012 3.543.024.12 0 .346.334.334.513-.036.751-.131 1.515-.227 2.267-.035.298-.119.596-.19.894.071.036.13.06.202.096.12-.18.263-.346.358-.537.31-.585.549-1.217.907-1.766 1.014-1.563 2.541-2.135 4.355-1.718 1.574.37 2.553 1.599 2.755 3.424a.897.897 0 00.287.573c.155-.346.31-.68.465-1.026.668-1.468 1.563-2.708 3.27-3.018 2.588-.478 4.628.87 5.248 3.46.18.739.287 1.503.299 2.266.036 2.804.012 5.62.012 8.423 0 .143-.012.286-.024.465h-5.142v-.775c0-2.338.012-4.677-.012-7.015-.012-.561-.06-1.157-.263-1.659-.143-.346-.572-.751-.918-.787-.346-.048-.955.25-1.062.549-.334.87-.644 1.813-.692 2.744-.096 2.04-.036 4.092-.036 6.132.012.25.012.513.012.811zm83.394.001c0-2.518.012-4.976 0-7.445a13.4 13.4 0 00-.119-1.694c-.083-.609-.382-1.074-1.05-1.17-.644-.095-1.085.287-1.253.824-.262.787-.501 1.61-.524 2.422-.072 2.064-.024 4.14-.024 6.203v.848h-5.202V17.336c1.181 0 2.374-.012 3.567.024.108 0 .298.334.287.489-.048.788-.144 1.563-.239 2.338-.036.287-.107.561-.167.836.06.023.131.06.191.083.119-.179.25-.346.346-.537.286-.549.513-1.121.835-1.646 1.014-1.635 2.565-2.255 4.45-1.837 1.575.346 2.553 1.586 2.768 3.507.012.155.071.31.274.501.155-.334.322-.668.466-1.014.715-1.61 1.729-2.863 3.638-3.09 2.184-.25 4.021.8 4.665 2.9.346 1.109.489 2.314.525 3.483.072 2.636.024 5.273.024 7.91 0 .12-.024.238-.048.393h-5.118c-.012-.25-.036-.512-.036-.763 0-2.362.012-4.724-.012-7.099-.012-.56-.047-1.157-.262-1.658-.143-.334-.609-.692-.966-.74-.323-.035-.883.263-1.003.55-.334.858-.632 1.765-.68 2.671-.095 2.064-.035 4.14-.035 6.204v.835h-5.298zm15.128-14.317h3.77c.346 1.253-.083 2.47-.346 3.686l.263.072c.143-.286.298-.56.429-.847.788-1.694 1.909-2.983 3.89-3.233 2.314-.299 4.45.727 5.416 2.863 1.408 3.102 1.408 6.276-.071 9.354-.979 2.04-2.768 2.923-5.035 2.768-1.038-.072-1.873-.573-2.553-1.325-.155-.179-.31-.358-.573-.656v5.62h-5.19V17.36zm8.769 5.082c-.561-1.372-2.076-1.443-2.911-.215-.93 1.372-.954 4.128-.036 5.5.37.561.859.943 1.587.871.74-.071 1.265-.489 1.456-1.18.477-1.575.417-3.663-.096-4.976zm-50.43-1.336c.179-.346.37-.704.549-1.05.823-1.646 1.968-2.887 3.937-3.054 2.446-.215 4.199.966 4.736 3.364.263 1.194.37 2.434.406 3.663.06 2.41.024 4.82.012 7.242 0 .12-.024.239-.036.406h-5.226v-.895c0-2.243.012-4.486-.011-6.717 0-.537-.06-1.086-.144-1.61-.095-.55-.417-.955-.99-1.05-.596-.108-1.169.119-1.36.656-.322.93-.62 1.92-.68 2.899-.107 1.968-.036 3.937-.036 5.905v.824h-5.19V12.982c1.42 0 2.84-.024 4.248.035.143.012.37.525.393.812.191 2.183-.071 4.318-.715 6.418-.084.25-.096.525-.144.788.096.023.179.047.251.071zm-38.798 1.778c.143-1.003-.298-1.73-1.324-1.802-.99-.06-2.029.012-2.983.262-1.205.31-2.338.86-3.591 1.337 0-1.325-.012-2.649.012-3.961 0-.143.19-.346.334-.418 2.66-1.085 5.428-1.658 8.292-1.133 2.422.43 3.746 2.088 4.235 4.39.692 3.329.167 6.717.358 10.117H86.47l-.18-3.615a.685.685 0 01-.166-.047c-.132.262-.275.525-.382.799-1.086 2.744-4.116 4.009-6.824 2.828-1.575-.692-2.386-1.921-2.434-3.64-.048-2.004.728-3.543 2.577-4.437 1.825-.883 3.77-.8 5.726-.669.12.012.239.024.37.024.012.012.024-.024.048-.035zm.12 3.042c-.466-.036-.776-.12-1.086-.084-.812.108-1.659.167-2.434.43-.656.215-.919.942-.692 1.515.25.656.823.716 1.408.62 1.395-.226 2.207-1.121 2.803-2.481zm32.951-2.566c-.99-.369-1.885-.846-2.827-1.001-1.098-.18-2.255-.227-3.353-.06-1.264.19-2.04 1.253-2.016 2.303.024 1.145.775 1.992 2.136 2.29 1.765.382 3.424-.024 4.998-.823a37.92 37.92 0 001.062-.573c0 1.575.012 3.043-.012 4.51 0 .167-.143.37-.286.477-2.911 2.184-8.041 2.279-10.57-.787-2.064-2.506-2.303-7.206-.454-9.867 1.48-2.123 3.651-2.815 6.109-2.827 1.586-.012 3.137.25 4.569 1.014.453.239.68.537.668 1.098-.06 1.395-.024 2.815-.024 4.247zm-13.994 8.328h-5.13V13.005h5.13v18.683zm31.067-.023V17.503c.859.107 1.694.31 2.541.31s1.694-.179 2.601-.298v14.15h-5.142zm2.374-14.663c-.847-.036-1.742-.227-2.458-.919-.739-.715-.739-1.622-.024-2.338 1.253-1.253 4.105-1.253 5.357.012.752.752.704 1.742-.143 2.434-.764.632-1.658.823-2.732.811zM92.233 31.665V17.503c.859.107 1.694.31 2.541.31s1.694-.179 2.601-.298v14.15h-5.142zm2.374-14.663c-.847-.036-1.742-.227-2.457-.919-.74-.715-.74-1.622-.024-2.338 1.252-1.253 4.104-1.253 5.356.012.752.752.704 1.742-.143 2.434-.763.632-1.658.823-2.732.811z" fill="#000"/></svg>