<svg width="160" height="48" fill="none" xmlns="http://www.w3.org/2000/svg"><path d="M10.24 1.591c1.037 0 2.11.157 3.219.47 1.109.29 2.025.712 2.748 1.267h.037l-.037-1.483h2.785l-.434 8.427h-2.387c-.217-1.977-.831-3.484-1.844-4.521-1.013-1.037-2.35-1.555-4.014-1.555-1.11 0-2.074.313-2.894.94-.82.627-1.23 1.41-1.23 2.351 0 1.013.423 1.881 1.267 2.604.867.724 2.302 1.495 4.303 2.315 1.543.651 2.87 1.314 3.978 1.99A9.113 9.113 0 0118.558 17c.772 1.06 1.121 2.315 1.05 3.761-.073 1.423-.531 2.69-1.375 3.798-.82 1.11-1.953 1.977-3.4 2.604-1.446.603-3.086.905-4.918.905-.965 0-2.013-.157-3.147-.47a11.655 11.655 0 01-3.001-1.303H3.73l.036 1.52H.982l.434-8.464h2.387c.217 1.977.892 3.496 2.025 4.557 1.157 1.037 2.604 1.555 4.34 1.555 1.302 0 2.375-.35 3.219-1.048.868-.7 1.302-1.544 1.302-2.532 0-.748-.266-1.387-.796-1.917a6.196 6.196 0 00-1.808-1.302c-.675-.338-1.652-.772-2.93-1.303-2.507-1.012-4.424-2.146-5.75-3.4-1.326-1.277-1.99-2.93-1.99-4.955 0-1.157.278-2.29.833-3.4.578-1.133 1.53-2.085 2.857-2.857C6.43 1.977 8.143 1.59 10.24 1.59zm20.962 7.415c1.664 0 2.978.374 3.942 1.121.989.748 1.483 1.893 1.483 3.437 0 1.76-.916 3.086-2.749 3.978-1.832.892-4.123 1.531-6.871 1.917 0 1.881.313 3.207.94 3.979.627.748 1.399 1.121 2.315 1.121.82 0 1.663-.24 2.531-.723.868-.506 1.592-1.423 2.17-2.749l2.026.977c-.965 2.218-2.098 3.75-3.4 4.593-1.302.82-2.773 1.23-4.412 1.23-2.242 0-3.99-.663-5.244-1.99-1.254-1.326-1.88-3.29-1.88-5.895 0-1.688.337-3.376 1.012-5.064a10.395 10.395 0 013.074-4.232c1.374-1.133 3.062-1.7 5.063-1.7zm-.398 2.387c-1.109 0-1.965.555-2.568 1.664-.578 1.11-.952 2.46-1.12 4.051 1.832-.337 3.17-.844 4.014-1.519.844-.7 1.265-1.519 1.265-2.46 0-.578-.168-1.012-.506-1.301a1.552 1.552 0 00-1.085-.434zM52.24 9.006c1.495 0 2.592.495 3.291 1.483.7.965 1.05 2.327 1.05 4.087 0 .868-.146 2.363-.435 4.485-.313 1.978-.47 3.485-.47 4.522 0 .627.18.94.542.94.627 0 1.206-.952 1.736-2.857l1.953.578c-.144.796-.458 1.628-.94 2.496a7.183 7.183 0 01-1.844 2.243c-.772.602-1.664.904-2.677.904-1.277 0-2.17-.338-2.676-1.013-.482-.675-.723-1.7-.723-3.074 0-1.085.169-2.93.506-5.534.048-.41.12-1.11.217-2.098.12-1.013.181-1.784.181-2.315 0-.555-.084-.94-.253-1.157-.145-.242-.398-.362-.76-.362-.699 0-1.446.687-2.242 2.062-.771 1.374-1.422 3.05-1.953 5.027-.53 1.977-.795 3.798-.795 5.462 0 .578.036 1.447.108 2.604h-4.665a16.667 16.667 0 01-.109-1.736c0-.772.085-1.893.253-3.364.17-1.495.35-2.954.543-4.377.048-.434.144-1.217.29-2.35.144-1.158.216-1.942.216-2.352 0-.627-.169-.94-.506-.94-.627 0-1.206.953-1.736 2.857l-1.99-.578c.314-1.447.845-2.75 1.592-3.907.772-1.157 1.857-1.736 3.255-1.736.892 0 1.615.253 2.17.76.579.506.868 1.35.868 2.532 0 .458-.036.892-.109 1.302l-.108.868h.036c1.423-3.641 3.484-5.462 6.184-5.462zm25.003 2.749l-.47 4.232c-.482 3.906-.723 6.402-.723 7.487 0 .7.18 1.05.542 1.05.627 0 1.206-.953 1.736-2.858l1.99.578a10.762 10.762 0 01-1.628 3.907c-.796 1.157-1.893 1.736-3.291 1.736-1.929 0-2.893-1.097-2.893-3.292 0-.699.048-1.422.144-2.17h-.036c-.796 1.953-1.736 3.352-2.82 4.196-1.086.844-2.183 1.266-3.292 1.266-1.76 0-3.098-.64-4.014-1.917-.892-1.278-1.338-2.942-1.338-4.991 0-3.617.831-6.511 2.495-8.681 1.688-2.195 4.195-3.292 7.523-3.292.675 0 1.253.024 1.735.073l.181-1.809c.12-1.423.253-2.544.398-3.364l-2.531.109.144-2.75c1.52 0 2.737-.108 3.653-.325.916-.217 1.543-.47 1.88-.76h1.953l-1.338 11.575zm-6.546-.362c-1.784 0-3.001 1.025-3.652 3.075-.651 2.05-.977 4.208-.977 6.474 0 1.206.157 2.122.47 2.75.314.602.748.903 1.302.903 1.23 0 2.255-1.205 3.074-3.616.82-2.412 1.387-5.51 1.7-9.296-.145-.072-.422-.133-.832-.181a6.326 6.326 0 00-1.085-.109zm30.204-9.802c1.036 0 2.109.157 3.218.47 1.11.29 2.026.712 2.749 1.267h.036l-.036-1.483h2.785l-.434 8.427h-2.387c-.217-1.977-.832-3.484-1.845-4.521-1.012-1.037-2.35-1.555-4.014-1.555-1.109 0-2.073.313-2.893.94-.82.627-1.23 1.41-1.23 2.351 0 1.013.422 1.881 1.266 2.604.868.724 2.303 1.495 4.304 2.315 1.543.651 2.869 1.314 3.978 1.99A9.122 9.122 0 01109.219 17c.771 1.06 1.121 2.315 1.049 3.761-.073 1.423-.531 2.69-1.375 3.798-.819 1.11-1.953 1.977-3.399 2.604-1.447.603-3.086.905-4.919.905-.964 0-2.013-.157-3.146-.47a11.653 11.653 0 01-3.002-1.303h-.036l.036 1.52h-2.785l.434-8.464h2.387c.217 1.977.892 3.496 2.026 4.557 1.157 1.037 2.603 1.555 4.339 1.555 1.302 0 2.375-.35 3.219-1.048.868-.7 1.302-1.544 1.302-2.532a2.61 2.61 0 00-.796-1.917 6.193 6.193 0 00-1.808-1.302c-.675-.338-1.651-.772-2.93-1.303-2.507-1.012-4.423-2.146-5.75-3.4-1.326-1.277-1.989-2.93-1.989-4.955 0-1.157.278-2.29.832-3.4.579-1.133 1.531-2.085 2.857-2.857 1.326-.772 3.038-1.158 5.136-1.158zm22.661 7.415c1.326 0 3.062.253 5.208.76l-.289 1.917c-.048.434-.29 2.194-.724 5.28-.434 3.087-.651 5.257-.651 6.511 0 .7.169 1.05.507 1.05.699 0 1.314-.953 1.844-2.858l1.953.578c-.265 1.375-.82 2.665-1.663 3.87-.82 1.182-1.941 1.773-3.364 1.773-1.929 0-2.893-1.097-2.893-3.292 0-.843.048-1.543.145-2.097h-.037c-.819 1.977-1.748 3.375-2.784 4.195-1.037.796-2.158 1.194-3.364 1.194-1.398 0-2.555-.555-3.472-1.664-.892-1.133-1.338-2.773-1.338-4.919 0-2.242.434-4.292 1.302-6.149.868-1.88 2.122-3.376 3.761-4.485 1.664-1.11 3.617-1.664 5.859-1.664zm-1.338 2.387c-1.398 0-2.519.88-3.363 2.64-.844 1.737-1.266 4.22-1.266 7.452 0 .989.121 1.772.362 2.35.241.555.578.833 1.012.833.82 0 1.567-.675 2.243-2.026.699-1.374 1.265-3.074 1.699-5.1a37.22 37.22 0 00.796-5.932 5.384 5.384 0 00-1.483-.216z" fill="#1B1F26"/><path d="M143.483 0c1.061 0 1.893.253 2.496.76.602.482.904 1.12.904 1.917 0 .506-.193 1-.579 1.483-.362.482-.892.723-1.591.723a1.89 1.89 0 01-1.338-.543c-.362-.361-.543-.82-.543-1.374l.036-.326c-.096-.048-.253-.072-.47-.072-.723 0-1.229.627-1.519 1.88-.289 1.23-.53 2.882-.723 4.956h4.665l-.253 2.496-4.557.072a367.94 367.94 0 01-.615 8.355c-.241 3.16-.47 5.68-.687 7.56-.723 6.27-3.339 9.404-7.848 9.404-1.085 0-1.928-.241-2.531-.723-.603-.459-.904-1.085-.904-1.881 0-.53.193-1.05.578-1.555.362-.483.892-.724 1.592-.724.506 0 .952.18 1.338.543.361.361.542.82.542 1.374l-.036.326c.145.048.301.072.47.072.724 0 1.23-.627 1.519-1.88.29-1.23.531-2.882.723-4.956.193-2.098.422-5.172.688-9.223l.506-6.656-2.893.037.325-2.64h2.893c.7-6.27 3.304-9.405 7.812-9.405zm10.73 9.006c1.664 0 2.978.374 3.943 1.121.988.748 1.482 1.893 1.482 3.437 0 1.76-.916 3.086-2.748 3.978-1.833.892-4.123 1.531-6.872 1.917 0 1.881.314 3.207.941 3.979.626.748 1.398 1.121 2.314 1.121.82 0 1.664-.24 2.532-.723.868-.506 1.591-1.423 2.17-2.749l2.025.977c-.964 2.218-2.098 3.75-3.4 4.593-1.302.82-2.772 1.23-4.412 1.23-2.242 0-3.99-.663-5.244-1.99-1.253-1.326-1.88-3.29-1.88-5.895 0-1.688.337-3.376 1.012-5.064a10.397 10.397 0 013.074-4.232c1.375-1.133 3.062-1.7 5.063-1.7zm-.397 2.387c-1.109 0-1.965.555-2.568 1.664-.579 1.11-.952 2.46-1.121 4.051 1.832-.337 3.17-.844 4.014-1.519.844-.7 1.266-1.519 1.266-2.46 0-.578-.169-1.012-.506-1.301a1.553 1.553 0 00-1.085-.434z" fill="#1B1F26"/><path d="M0 44.715l1.212-.106c.057.486.19.885.397 1.199.212.309.539.56.98.755.442.19.938.285 1.49.285.49 0 .923-.073 1.298-.219.375-.146.653-.344.835-.596.185-.256.278-.534.278-.834 0-.305-.089-.57-.265-.795-.177-.23-.468-.422-.874-.576-.26-.102-.837-.259-1.729-.47-.891-.217-1.516-.42-1.874-.61-.463-.243-.81-.543-1.04-.9a2.249 2.249 0 01-.337-1.213c0-.49.139-.947.417-1.37.278-.429.684-.753 1.218-.974a4.621 4.621 0 011.782-.331c.72 0 1.353.117 1.9.35.552.23.976.57 1.272 1.02.296.451.455.961.477 1.53l-1.232.093c-.066-.613-.292-1.077-.676-1.39-.38-.314-.942-.47-1.688-.47-.777 0-1.344.143-1.702.43-.353.282-.53.624-.53 1.026 0 .35.126.636.378.861.247.225.891.457 1.933.696 1.047.234 1.764.439 2.152.616.566.26.983.591 1.252.993.27.397.404.857.404 1.378 0 .516-.148 1.004-.444 1.463-.296.455-.722.81-1.278 1.067-.552.251-1.174.377-1.867.377-.879 0-1.616-.128-2.212-.384A3.124 3.124 0 01.53 46.464 3.31 3.31 0 010 44.715zm14.665 3.119v-8.563h-3.198v-1.146h7.695v1.146H15.95v8.563h-1.285zm6.461 0l3.728-9.709h1.384l3.973 9.71h-1.463l-1.133-2.941h-4.059l-1.066 2.94h-1.364zm2.8-3.987h3.292l-1.013-2.688a26.573 26.573 0 01-.689-2.014A12.38 12.38 0 0124.993 41l-1.066 2.847zm10.011 3.987v-9.709h1.318l5.098 7.623v-7.623h1.232v9.71h-1.318l-5.099-7.63v7.63h-1.231zm12.526 0v-9.709h3.344c.755 0 1.331.047 1.729.14.556.127 1.03.36 1.423.695.512.432.894.987 1.146 1.662.256.671.384 1.44.384 2.305 0 .737-.086 1.39-.258 1.96-.172.57-.393 1.042-.663 1.418-.269.37-.564.664-.887.88a3.61 3.61 0 01-1.159.484 6.57 6.57 0 01-1.556.166h-3.503zm1.285-1.145h2.072c.64 0 1.142-.06 1.504-.18.366-.118.657-.286.874-.502.304-.305.54-.713.708-1.226.172-.516.259-1.141.259-1.874 0-1.015-.168-1.795-.504-2.338-.33-.547-.735-.914-1.212-1.1-.344-.132-.898-.198-1.662-.198h-2.04v7.418zm10.162 1.145l3.728-9.709h1.384l3.973 9.71h-1.463L64.4 44.893h-4.06l-1.066 2.94H57.91zm2.801-3.987h3.291L62.99 41.16a26.573 26.573 0 01-.689-2.014c-.123.623-.298 1.24-.523 1.855l-1.066 2.847zm9.97 3.987v-9.709h1.285v8.564h4.781v1.145h-6.066zm9.924-4.728c0-1.612.433-2.872 1.298-3.782.865-.914 1.982-1.37 3.35-1.37.897 0 1.705.213 2.424.642a4.17 4.17 0 011.643 1.794c.38.764.57 1.632.57 2.603 0 .985-.2 1.866-.597 2.643-.397.777-.96 1.366-1.688 1.768a4.846 4.846 0 01-2.358.596c-.914 0-1.73-.22-2.45-.662a4.261 4.261 0 01-1.636-1.808 5.479 5.479 0 01-.556-2.424zm1.325.02c0 1.17.313 2.092.94 2.768.631.671 1.421 1.007 2.37 1.007.967 0 1.762-.34 2.385-1.02.626-.68.94-1.645.94-2.895 0-.79-.135-1.479-.404-2.066a3.029 3.029 0 00-1.172-1.37 3.145 3.145 0 00-1.729-.49 3.29 3.29 0 00-2.35.94c-.654.622-.98 1.664-.98 3.126zm12.32 4.708v-9.709h1.318l5.099 7.623v-7.623h1.232v9.71h-1.318l-5.099-7.63v7.63h-1.231zm12.553 0v-9.709h7.02v1.146h-5.735v2.974h5.37v1.139h-5.37v3.305h5.96v1.145h-7.245z" fill="#727885"/></svg>